<svg width="28" height="28" viewBox="0 0 28 28" fill="none" xmlns="http://www.w3.org/2000/svg">
<g clip-path="url(#clip0_4369_165)">
<path d="M14.5 6.28571C14.5 5.57541 15.0874 5 15.8125 5H23.6875C24.4126 5 25 5.57541 25 6.28571C25 6.99602 24.4126 7.57143 23.6875 7.57143H15.8125C15.0874 7.57143 14.5 6.99602 14.5 6.28571ZM20.6875 10.1429H15.8125C15.0874 10.1429 14.5 10.7183 14.5 11.4286C14.5 12.1389 15.0874 12.7143 15.8125 12.7143H20.6875C21.4126 12.7143 22 12.1389 22 11.4286C22 10.7183 21.4126 10.1429 20.6875 10.1429ZM11.875 6.28571C11.875 5.576 11.2876 5 10.5625 5H5.3125C4.5874 5 4 5.576 4 6.28571V11.4286C4 12.1383 4.5874 12.7143 5.3125 12.7143H10.5625C11.2876 12.7143 11.875 12.1383 11.875 11.4286V6.28571ZM23.6875 15.2857H15.8125C15.0874 15.2857 14.5 15.8611 14.5 16.5714C14.5 17.2817 15.0874 17.8571 15.8125 17.8571H23.6875C24.4126 17.8571 25 17.2817 25 16.5714C25 15.8611 24.4126 15.2857 23.6875 15.2857ZM20.6875 20.4286H15.8125C15.0874 20.4286 14.5 21.004 14.5 21.7143C14.5 22.4246 15.0874 23 15.8125 23H20.6875C21.4126 23 22 22.4246 22 21.7143C22 21.004 21.4126 20.4286 20.6875 20.4286ZM11.875 16.5714C11.875 15.8617 11.2876 15.2857 10.5625 15.2857H5.3125C4.5874 15.2857 4 15.8617 4 16.5714V21.7143C4 22.4246 4.5874 23 5.3125 23H10.5625C11.2876 23 11.875 22.4246 11.875 21.7143V16.5714Z" fill="#A6B1C6"/>
<path d="M23.6875 15.2858H15.8125C15.0874 15.2858 14.5 15.8612 14.5 16.5715C14.5 17.2818 15.0874 17.8572 15.8125 17.8572H23.6875C24.4126 17.8572 25 17.2818 25 16.5715C25 15.8612 24.4126 15.2858 23.6875 15.2858ZM20.6875 20.4286H15.8125C15.0874 20.4286 14.5 21.004 14.5 21.7143C14.5 22.4246 15.0874 23.0001 15.8125 23.0001H20.6875C21.4126 23.0001 22 22.4246 22 21.7143C22 21.004 21.4126 20.4286 20.6875 20.4286Z" fill="#D0D5DE"/>
</g>
<defs>
<clipPath id="clip0_4369_165">
<rect width="28" height="28" fill="white"/>
</clipPath>
</defs>
</svg>
