<svg width="28" height="28" viewBox="0 0 28 28" fill="none" xmlns="http://www.w3.org/2000/svg">
<path d="M5.31027 10.5967L12.8725 5.3502C13.5502 4.88327 14.4495 4.88327 15.1272 5.3502L22.6895 10.5967C23.1139 10.8915 23.3925 11.3215 23.4748 11.8192C23.5571 12.3168 23.4367 12.8145 23.1328 13.226C22.5311 14.037 21.3722 14.2396 20.5171 13.6929L14.7982 9.74286L14.3865 9.46024C14.1584 9.29431 13.8418 9.29431 13.6137 9.46024L13.2781 9.69363L7.45126 13.7174C7.14095 13.914 6.79261 14 6.4379 14C5.83622 14 5.24728 13.7297 4.86727 13.2259C4.56331 12.8142 4.44285 12.3167 4.52528 11.8191C4.60756 11.3214 4.88635 10.8914 5.3106 10.5966L5.31027 10.5967Z" fill="#A6B1C6"/>
<path d="M6.87075 15.2691L13.1015 10.8376C13.6393 10.4555 14.3601 10.4555 14.8979 10.8376L21.1286 15.2691C21.5377 15.5597 21.7804 16.0309 21.7804 16.5322V21.2577C21.7804 22.5929 20.6977 23.6757 19.3624 23.6757H15.9448V16.972C15.9448 16.5458 15.6038 16.197 15.1698 16.197H12.8293C12.3953 16.197 12.0544 16.5458 12.0544 16.972V23.6757H8.63674C7.3015 23.6757 6.21876 22.593 6.21876 21.2577V16.5322C6.21876 16.0307 6.46129 15.5597 6.87057 15.2691H6.87075Z" fill="#A6B1C6"/>
</svg>
