<svg width="28" height="28" viewBox="0 0 28 28" fill="none" xmlns="http://www.w3.org/2000/svg">
<g clip-path="url(#clip0_4369_673)">
<path d="M14.2953 26.111C15.8697 26.111 17.1413 24.9303 17.2926 23.3864H11.2981C11.4495 24.9303 12.721 26.111 14.2953 26.111H14.2953Z" fill="#A6B1C6"/>
<path d="M7.84628 6.38897C6.33251 7.96335 5.51501 10.0524 5.51501 12.2321V17.0157H23.0748V12.2321C23.0748 10.0523 22.2573 7.96324 20.7435 6.38897C19.593 5.14763 18.0792 4.29991 16.4444 3.93672C16.505 3.72469 16.5352 3.48267 16.5352 3.27066C16.5352 2.02931 15.5059 1 14.2645 1C13.0232 1 11.9939 2.02931 11.9939 3.27066C11.9939 3.51289 12.0241 3.7247 12.1149 3.93672C10.5103 4.29996 8.99653 5.14763 7.84622 6.38876L7.84628 6.38897Z" fill="#A6B1C6"/>
<path d="M23.075 22.3205C24.2255 22.3205 25.1942 21.3515 25.1942 20.2012C25.1942 19.0205 24.2253 18.082 23.075 18.082L5.51522 18.0818C4.3647 18.0818 3.396 19.0203 3.396 20.201C3.396 21.3515 4.36492 22.3202 5.51522 22.3202H17.3226L23.075 22.3205Z" fill="#D0D5DE"/>
<path d="M18 8C20 9 20.5 10.5 20.5 12" stroke="white" stroke-width="1.5" stroke-linecap="round" stroke-linejoin="round"/>
</g>
<defs>
<clipPath id="clip0_4369_673">
<rect width="28" height="28" fill="white"/>
</clipPath>
</defs>
</svg>
