<svg width="28" height="28" viewBox="0 0 28 28" fill="none" xmlns="http://www.w3.org/2000/svg">
<g clip-path="url(#clip0_4089_9747)">
<path d="M8.96103 5.3012C9.5148 5.3012 9.96381 4.8593 9.96381 4.3143C9.96381 3.76929 9.5148 3.32739 8.96103 3.32739C8.40726 3.32739 7.95825 3.76929 7.95825 4.3143C7.95825 4.8593 8.40726 5.3012 8.96103 5.3012Z" fill="#51459F"/>
<path fill-rule="evenodd" clip-rule="evenodd" d="M18.9959 17.5479L18.0686 9.50712C18.0686 9.23237 17.8595 9 17.6125 9H10.3863C10.2642 9 10.1508 9.05737 10.0682 9.1479C9.98382 9.2408 9.93046 9.36817 9.93046 9.50712L9.92698 9.56291L9.00318 17.5484C8.99014 17.635 9.01855 17.7047 9.08554 17.7747C9.21631 17.9118 9.44538 18 9.66923 18H18.3297C18.5533 18 18.7832 17.9116 18.9134 17.7747C18.9804 17.705 19.0088 17.635 18.9978 17.5666L18.9959 17.5479ZM16.6991 10.9258C16.6991 12.2763 15.4885 13.3753 14.0002 13.3753C12.5121 13.3753 11.3012 12.2765 11.3012 10.9258V9.89417C11.3012 9.60047 11.5633 9.36336 11.8867 9.36336C12.2094 9.36336 12.4715 9.60099 12.4715 9.89417V10.9258C12.4715 11.6908 13.1573 12.3132 14.0002 12.3132C14.8431 12.3132 15.5289 11.6908 15.5289 10.9258V9.89417C15.5289 9.60073 15.791 9.36336 16.1143 9.36336C16.4371 9.36336 16.6992 9.60099 16.6992 9.89417L16.6991 10.9258Z" fill="#51459F"/>
<path fill-rule="evenodd" clip-rule="evenodd" d="M7.95828 0.366699C6.29677 0.366699 4.94995 1.6922 4.94995 3.32741V25.0393C4.94995 26.6745 6.29677 28 7.95828 28H19.9916C21.6531 28 23 26.6745 23 25.0393V3.32741C23 1.6922 21.6531 0.366699 19.9916 0.366699H7.95828ZM6.95551 3.32741V22.0786H20.9944V3.32741C20.9944 2.78241 20.5454 2.34051 19.9916 2.34051H7.95828C7.40452 2.34051 6.95551 2.78241 6.95551 3.32741Z" fill="#51459F"/>
</g>
<defs>
<clipPath id="clip0_4089_9747">
<rect width="28" height="28" fill="white"/>
</clipPath>
</defs>
</svg>
