<svg width="1920" height="1028" viewBox="0 0 1920 1028" fill="none" xmlns="http://www.w3.org/2000/svg">
<rect width="1920" height="1028" fill="#121212"/>
<circle cx="286.488" cy="159.403" r="2.4026" fill="#757A80"/>
<circle cx="270.87" cy="159.403" r="2.4026" fill="#757A80"/>
<circle cx="255.253" cy="159.403" r="2.4026" fill="#757A80"/>
<circle cx="239.637" cy="159.403" r="2.4026" fill="#757A80"/>
<circle cx="224.019" cy="159.403" r="2.4026" fill="#757A80"/>
<circle cx="208.403" cy="159.403" r="2.4026" fill="#757A80"/>
<circle cx="286.488" cy="177.422" r="2.4026" fill="#757A80"/>
<circle cx="270.87" cy="177.422" r="2.4026" fill="#757A80"/>
<circle cx="255.253" cy="177.422" r="2.4026" fill="#757A80"/>
<circle cx="239.637" cy="177.422" r="2.4026" fill="#757A80"/>
<circle cx="224.019" cy="177.422" r="2.4026" fill="#757A80"/>
<circle cx="208.403" cy="177.422" r="2.4026" fill="#757A80"/>
<circle cx="286.488" cy="195.442" r="2.4026" fill="#757A80"/>
<circle cx="270.87" cy="195.442" r="2.4026" fill="#757A80"/>
<circle cx="255.253" cy="195.442" r="2.4026" fill="#757A80"/>
<circle cx="239.637" cy="195.442" r="2.4026" fill="#757A80"/>
<circle cx="224.019" cy="195.442" r="2.4026" fill="#757A80"/>
<circle cx="208.403" cy="195.442" r="2.4026" fill="#757A80"/>
<circle cx="286.488" cy="213.461" r="2.4026" fill="#757A80"/>
<circle cx="270.87" cy="213.461" r="2.4026" fill="#757A80"/>
<circle cx="255.253" cy="213.461" r="2.4026" fill="#757A80"/>
<circle cx="239.637" cy="213.461" r="2.4026" fill="#757A80"/>
<circle cx="224.019" cy="213.461" r="2.4026" fill="#757A80"/>
<circle cx="208.403" cy="213.461" r="2.4026" fill="#757A80"/>
<circle cx="286.488" cy="231.481" r="2.4026" fill="#757A80"/>
<circle cx="270.87" cy="231.481" r="2.4026" fill="#757A80"/>
<circle cx="255.253" cy="231.481" r="2.4026" fill="#757A80"/>
<circle cx="239.637" cy="231.481" r="2.4026" fill="#757A80"/>
<circle cx="224.019" cy="231.481" r="2.4026" fill="#757A80"/>
<circle cx="208.403" cy="231.481" r="2.4026" fill="#757A80"/>
</svg>
