<svg width="36" height="36" viewBox="0 0 36 36" fill="none" xmlns="http://www.w3.org/2000/svg">
<g clip-path="url(#clip0_73_8188)">
<path d="M10.5002 27C8.62859 27 6.83366 26.2889 5.51025 25.023C4.18684 23.7571 3.44336 22.0403 3.44336 20.25C3.44336 18.4598 4.18684 16.7429 5.51025 15.4771C6.83366 14.2112 8.62859 13.5 10.5002 13.5C10.9422 11.5308 12.2353 9.80027 14.0951 8.68912C15.0159 8.13893 16.0481 7.75737 17.1328 7.56622C18.2175 7.37507 19.3334 7.37807 20.4168 7.57505C21.5002 7.77203 22.5299 8.15914 23.4471 8.71427C24.3643 9.2694 25.151 9.98168 25.7623 10.8104C26.3736 11.6392 26.7976 12.5682 27.01 13.5444C27.2224 14.5207 27.219 15.525 27.0002 16.5H28.5002C29.8926 16.5 31.2279 17.0532 32.2125 18.0377C33.1971 19.0223 33.7502 20.3577 33.7502 21.75C33.7502 23.1424 33.1971 24.4778 32.2125 25.4624C31.2279 26.4469 29.8926 27 28.5002 27H27.0002" stroke="#979797" stroke-width="1.5" stroke-linecap="round" stroke-linejoin="round"/>
<path d="M13.5 22.5L18 18L22.5 22.5" stroke="#979797" stroke-width="1.5" stroke-linecap="round" stroke-linejoin="round"/>
<path d="M18 18V31.5" stroke="#979797" stroke-width="1.5" stroke-linecap="round" stroke-linejoin="round"/>
</g>
<defs>
<clipPath id="clip0_73_8188">
<rect width="36" height="36" fill="white"/>
</clipPath>
</defs>
</svg>
