<svg width="57" height="57" viewBox="0 0 57 57" fill="none" xmlns="http://www.w3.org/2000/svg">
<rect width="57" height="57" rx="10" fill="#F8F8F8"/>
<path d="M22.8538 42.5761L17.2778 34.0182C17.2491 33.9741 17.1912 33.9598 17.1453 33.9855L11.635 37.0608C11.5844 37.089 11.5683 37.1542 11.6 37.2027L17.1759 45.7606C17.2046 45.8047 17.2625 45.819 17.3084 45.7933L22.8187 42.718C22.8693 42.6898 22.8854 42.6246 22.8538 42.5761Z" stroke="#383336" stroke-linecap="round"/>
<path d="M22.9132 41.8743L23.4468 41.6137C24.1464 41.2721 24.9515 41.2158 25.6919 41.4568L30.6709 43.0778C32.9558 43.8217 35.4544 43.4919 37.4681 42.1808L44.5576 37.5646C45.5872 36.8942 45.8275 35.4889 45.0793 34.5145V34.5145C44.4689 33.7196 43.3831 33.4645 42.4826 33.9042L35.9083 37.1147" stroke="#383336"/>
<path d="M18.851 35.5278L23.1275 33.2073C25.0689 32.154 27.3503 31.919 29.4656 32.5547L34.9041 34.1891C35.9319 34.498 36.5543 35.54 36.339 36.5914V36.5914C36.1031 37.7434 34.9576 38.469 33.8152 38.1901L29.4095 37.1143" stroke="#383336" stroke-linecap="round"/>
<path d="M29.3612 28.7372L31.785 24.3784C31.8236 24.309 31.8995 24.269 31.9786 24.2765L33.0229 24.3751C33.0352 24.3763 33.0474 24.3786 33.0593 24.382L34.5876 24.8206C34.6122 24.8277 34.6352 24.8394 34.6554 24.8552L35.3952 25.4323C35.4727 25.4927 35.4948 25.6005 35.4473 25.6866L35.0812 26.3505L32.6203 30.6505C32.542 30.7873 32.3436 30.784 32.2699 30.6447L31.4747 29.1409C31.44 29.0754 31.372 29.0344 31.2979 29.0344H29.536C29.3834 29.0344 29.2871 28.8705 29.3612 28.7372Z" stroke="#A8CF45" stroke-linecap="square"/>
<path d="M43.0951 28.7311L40.5561 24.1822C40.5092 24.0981 40.4089 24.0594 40.3176 24.0902L37.3192 25.1005C37.2644 25.1189 37.2203 25.1602 37.1982 25.2137L37.1138 25.418C37.0909 25.4735 37.0942 25.5363 37.1226 25.5892L39.8395 30.6303C39.9154 30.7711 40.1176 30.7703 40.1924 30.629L40.9824 29.1351C41.017 29.0696 41.0851 29.0286 41.1592 29.0286H42.9204C43.0731 29.0286 43.1695 28.8644 43.0951 28.7311Z" stroke="#A8CF45" stroke-linecap="square"/>
<path d="M34.7748 11.8614C34.5194 12.0101 34.2283 12.0885 33.9324 12.0885C32.9692 12.0885 32.077 12.61 31.6001 13.4444C31.4507 13.7058 31.2332 13.9246 30.9734 14.0745C30.1373 14.5566 29.623 15.4513 29.623 16.4149C29.623 16.7129 29.5445 17.0067 29.3959 17.2642C28.9148 18.0982 28.9148 19.1254 29.3959 19.9593C29.5445 20.2168 29.623 20.5107 29.623 20.8087C29.623 21.7723 30.1373 22.667 30.9734 23.1491C31.2332 23.2989 31.4507 23.5177 31.6001 23.7792C32.077 24.6135 32.9692 25.135 33.9324 25.135C34.2283 25.135 34.5194 25.2135 34.7748 25.3622C35.6061 25.846 36.6331 25.846 37.4644 25.3622C37.7198 25.2135 38.0109 25.135 38.3068 25.135C39.2701 25.135 40.1622 24.6135 40.6391 23.7792C40.7885 23.5177 41.006 23.2989 41.2658 23.1491C42.1019 22.667 42.6162 21.7723 42.6162 20.8087C42.6162 20.5107 42.6947 20.2168 42.8433 19.9593C43.3244 19.1254 43.3244 18.0982 42.8433 17.2642C42.6947 17.0067 42.6162 16.7129 42.6162 16.4149C42.6162 15.4513 42.1019 14.5566 41.2658 14.0745C41.006 13.9246 40.7885 13.7058 40.6391 13.4444C40.1622 12.61 39.2701 12.0885 38.3068 12.0885C38.0109 12.0885 37.7198 12.0101 37.4644 11.8614C36.6331 11.3776 35.6061 11.3776 34.7748 11.8614Z" fill="#F1F4E9" stroke="#A8CF45"/>
<path d="M36.0109 22.5577C38.2469 22.5577 40.0558 20.7377 40.0558 18.4971C40.0558 16.2566 38.2469 14.4365 36.0109 14.4365C33.7749 14.4365 31.9661 16.2566 31.9661 18.4971C31.9661 20.7377 33.7749 22.5577 36.0109 22.5577Z" stroke="#A8CF45"/>
<path d="M33.8471 18.8339L34.774 19.5987C34.9746 19.7641 35.2684 19.7484 35.4499 19.5624L37.7499 17.2064" stroke="#A8CF45" stroke-linecap="round"/>
</svg>
