<svg width="183" height="137" viewBox="0 0 183 137" fill="none" xmlns="http://www.w3.org/2000/svg">
<g clip-path="url(#clip0_73_1843)">
<path fill-rule="evenodd" clip-rule="evenodd" d="M26.5515 50.2054C26.5572 49.736 26.5756 49.2862 26.6056 48.8173C26.9025 45.4992 27.9693 42.4846 29.949 39.7399C33.5009 34.8469 38.9119 32.1674 44.906 32.0973H70.293C70.293 42.2538 62.044 50.2054 51.7863 50.2054C46.1721 50.6917 45.1069 54.7596 44.9069 56.4397V99.9295C44.9069 109.889 36.6474 118.038 26.5515 118.038V50.2054Z" fill="#151616"/>
<path fill-rule="evenodd" clip-rule="evenodd" d="M0.811555 30.6551C0.366469 28.8094 0.129272 26.8833 0.129272 24.9028C0.129272 12.0194 10.0992 1.43653 22.843 0.249939C23.2881 2.09556 23.5253 4.0213 23.5253 6.00233C23.5253 18.8852 13.5554 29.4683 0.811555 30.6551Z" fill="#BBD700"/>
<path fill-rule="evenodd" clip-rule="evenodd" d="M43.9501 125.124H52.1344V127.223H46.3105V129.399H51.4361V131.498H46.3105V133.751H52.2124V135.85H43.9501V125.124ZM57.5392 130.395L53.9057 125.124H56.7008L58.9839 128.602L61.2823 125.124H64.0003L60.3657 130.365L64.1559 135.85H61.36L58.9219 132.172L56.4678 135.85H53.7497L57.5392 130.395ZM70.4453 130.533C71.0457 130.533 71.512 130.377 71.8429 130.066C72.1748 129.754 72.3402 129.368 72.3402 128.909V128.878C72.3402 128.347 72.167 127.944 71.8202 127.667C71.4729 127.392 70.9993 127.254 70.3989 127.254H68.5507V130.533H70.4453ZM66.159 125.124H70.6002C71.2532 125.124 71.835 125.214 72.348 125.392C72.8607 125.571 73.295 125.824 73.6526 126.151C74.0098 126.478 74.2837 126.868 74.4756 127.323C74.6671 127.777 74.7634 128.28 74.7634 128.832V128.862C74.7634 129.486 74.6488 130.032 74.4214 130.502C74.1935 130.972 73.8803 131.365 73.4814 131.682C73.0832 131.999 72.6173 132.236 72.0839 132.394C71.5507 132.553 70.9786 132.632 70.3675 132.632H68.5507V135.85H66.159V125.124ZM76.751 125.124H79.1426V133.72H84.5623V135.85H76.751V125.124ZM91.8933 133.858C92.369 133.858 92.8094 133.771 93.2133 133.597C93.6171 133.424 93.9619 133.183 94.2461 132.877C94.5305 132.571 94.7536 132.215 94.9139 131.813C95.0743 131.409 95.1546 130.977 95.1546 130.517V130.487C95.1546 130.027 95.0743 129.593 94.9139 129.184C94.7536 128.776 94.5255 128.418 94.2305 128.112C93.9358 127.805 93.5863 127.563 93.1821 127.384C92.7786 127.206 92.3385 127.116 91.8622 127.116C91.3756 127.116 90.9329 127.203 90.534 127.376C90.1357 127.55 89.7936 127.79 89.5094 128.096C89.2247 128.403 89.0015 128.758 88.8416 129.161C88.6812 129.565 88.6009 129.997 88.6009 130.456V130.487C88.6009 130.947 88.6812 131.381 88.8416 131.789C89.0015 132.198 89.2301 132.555 89.525 132.862C89.8197 133.168 90.1665 133.411 90.5656 133.589C90.9637 133.768 91.4064 133.858 91.8933 133.858ZM91.8622 136.033C91.023 136.033 90.2523 135.887 89.5477 135.596C88.8439 135.306 88.2359 134.912 87.723 134.417C87.211 133.922 86.812 133.339 86.5276 132.67C86.2426 132.001 86.1006 131.283 86.1006 130.517V130.487C86.1006 129.721 86.2449 129.003 86.5354 128.334C86.8252 127.665 87.2262 127.078 87.7386 126.572C88.2516 126.067 88.8622 125.668 89.5715 125.377C90.2804 125.086 91.0546 124.94 91.8933 124.94C92.7321 124.94 93.5031 125.086 94.2074 125.377C94.9112 125.668 95.5195 126.062 96.0325 126.557C96.5443 127.052 96.9432 127.634 97.228 128.304C97.5129 128.973 97.6549 129.69 97.6549 130.456V130.487C97.6549 131.253 97.5103 131.97 97.2202 132.64C96.9303 133.309 96.5293 133.896 96.0165 134.402C95.5039 134.907 94.8929 135.306 94.1841 135.596C93.4743 135.887 92.701 136.033 91.8622 136.033ZM104.814 130.333C105.405 130.333 105.858 130.195 106.173 129.92C106.489 129.644 106.647 129.277 106.647 128.817V128.786C106.647 128.275 106.482 127.892 106.15 127.637C105.819 127.382 105.358 127.254 104.768 127.254H102.392V130.333H104.814ZM100 125.124H104.97C106.347 125.124 107.403 125.487 108.138 126.212C108.759 126.825 109.07 127.642 109.07 128.664V128.694C109.07 129.562 108.855 130.27 108.425 130.816C107.995 131.363 107.434 131.763 106.741 132.019L109.396 135.85H106.601L104.271 132.417H104.24H102.392V135.85H100V125.124ZM111.446 125.124H119.631V127.223H113.807V129.399H118.933V131.498H113.807V133.751H119.709V135.85H111.446V125.124ZM121.619 133.397H124.12V135.85H121.619V133.397ZM131.171 125.124H133.749L136.606 129.659L139.464 125.124H142.043V135.85H139.682V128.847L136.622 133.429H136.56L133.531 128.893V135.85H131.171V125.124ZM150.18 133.858C150.657 133.858 151.097 133.771 151.501 133.597C151.904 133.424 152.249 133.183 152.534 132.877C152.818 132.571 153.041 132.215 153.201 131.813C153.361 131.409 153.442 130.977 153.442 130.517V130.487C153.442 130.027 153.361 129.593 153.201 129.184C153.041 128.776 152.813 128.418 152.518 128.112C152.223 127.805 151.874 127.563 151.469 127.384C151.066 127.206 150.626 127.116 150.15 127.116C149.663 127.116 149.221 127.203 148.822 127.376C148.423 127.55 148.081 127.79 147.797 128.096C147.512 128.403 147.289 128.758 147.129 129.161C146.969 129.565 146.888 129.997 146.888 130.456V130.487C146.888 130.947 146.969 131.381 147.129 131.789C147.289 132.198 147.517 132.555 147.812 132.862C148.107 133.168 148.454 133.411 148.853 133.589C149.251 133.768 149.694 133.858 150.18 133.858ZM150.15 136.033C149.311 136.033 148.539 135.887 147.835 135.596C147.131 135.306 146.523 134.912 146.011 134.417C145.498 133.922 145.099 133.339 144.815 132.67C144.53 132.001 144.388 131.283 144.388 130.517V130.487C144.388 129.721 144.532 129.003 144.823 128.334C145.112 127.665 145.513 127.078 146.026 126.572C146.539 126.067 147.15 125.668 147.859 125.377C148.568 125.086 149.342 124.94 150.18 124.94C151.02 124.94 151.791 125.086 152.495 125.377C153.199 125.668 153.807 126.062 154.32 126.557C154.832 127.052 155.231 127.634 155.515 128.304C155.801 128.973 155.942 129.69 155.942 130.456V130.487C155.942 131.253 155.798 131.97 155.507 132.64C155.217 133.309 154.817 133.896 154.304 134.402C153.791 134.907 153.18 135.306 152.471 135.596C151.762 135.887 150.988 136.033 150.15 136.033ZM163.102 130.333C163.692 130.333 164.145 130.195 164.461 129.92C164.777 129.644 164.934 129.277 164.934 128.817V128.786C164.934 128.275 164.769 127.892 164.438 127.637C164.106 127.382 163.645 127.254 163.055 127.254H160.679V130.333H163.102ZM158.288 125.124H163.257C164.634 125.124 165.69 125.487 166.426 126.212C167.047 126.825 167.357 127.642 167.357 128.664V128.694C167.357 129.562 167.142 130.27 166.713 130.816C166.283 131.363 165.722 131.763 165.028 132.019L167.684 135.85H164.888L162.558 132.417H162.528H160.679V135.85H158.288V125.124ZM169.734 125.124H177.918V127.223H172.094V129.399H177.22V131.498H172.094V133.751H177.996V135.85H169.734V125.124ZM179.907 133.397H182.407V135.85H179.907V133.397Z" fill="#151616"/>
<path fill-rule="evenodd" clip-rule="evenodd" d="M74.1487 50.2053L74.1553 49.7403L74.1736 49.278L74.2037 48.8174C74.2315 48.5087 74.257 48.2145 74.2973 47.907L74.3613 47.4571L74.438 47.0113L74.6216 46.1282C74.6216 46.0298 74.8088 45.4001 74.8487 45.2625L74.9778 44.8358L75.1182 44.4135C75.1182 44.37 75.3905 43.678 75.428 43.5828L75.5982 43.1741L75.7772 42.7706C75.7772 42.7445 76.1243 42.0586 76.1658 41.9793C76.1658 41.9573 76.5466 41.2853 76.5906 41.2106L76.817 40.8341C76.817 40.7937 77.4697 39.8469 77.5468 39.7395C77.7183 39.5042 77.8953 39.2718 78.0768 39.0431C78.0768 39.0263 78.5851 38.4335 78.6399 38.3715L78.9328 38.0462L79.2324 37.7279C79.2578 37.7279 79.7903 37.1752 79.8567 37.1129L80.1794 36.8157L80.5093 36.5267C80.7319 36.3361 80.9597 36.1518 81.1898 35.9719C81.2044 35.9719 81.8246 35.4993 81.8965 35.4492C82.2565 35.1955 82.6273 34.9554 83.0041 34.7283L83.386 34.505C83.3907 34.505 84.0906 34.1236 84.1663 34.0859C84.1698 34.0859 84.8908 33.7375 84.9678 33.7025L85.3766 33.5258L85.7908 33.3587C85.7999 33.3587 86.5446 33.0827 86.6328 33.0534L87.0612 32.9146L87.494 32.7871C87.5401 32.7871 88.2516 32.5905 88.3715 32.5624C88.4248 32.5624 88.7335 32.4826 88.8162 32.4665L89.266 32.3812L89.7186 32.3063L90.1744 32.2432L90.634 32.1906C90.7658 32.1906 90.9566 32.1601 91.0974 32.1501L91.563 32.1209L92.0322 32.102L92.504 32.0977C107.891 32.0977 123.279 32.0977 138.666 32.0977H138.667L139.138 32.1031L139.606 32.1209H139.608L140.073 32.1501H140.074C140.228 32.1615 140.382 32.1759 140.536 32.1913H140.537L140.996 32.2432H140.996L141.451 32.3063H141.452L141.904 32.3812L142.353 32.4665H142.353C142.503 32.4953 142.651 32.5296 142.798 32.5624H142.799C143.094 32.6309 143.386 32.7048 143.676 32.7871H143.677L144.108 32.9146H144.109L144.537 33.0534H144.538C144.822 33.1483 145.101 33.2499 145.379 33.3587H145.38L145.792 33.5258H145.794L146.202 33.7025H146.202C146.474 33.8252 146.74 33.9526 147.004 34.0859H147.005C147.267 34.2201 147.528 34.3595 147.784 34.505H147.785L148.165 34.7283H148.166C148.544 34.9554 148.914 35.196 149.274 35.4492C149.513 35.6175 149.75 35.7926 149.98 35.9719H149.982C150.212 36.1518 150.439 36.3361 150.661 36.5267L150.991 36.8157L151.314 37.1113V37.1129C151.526 37.3115 151.735 37.5182 151.937 37.7268H151.938L152.238 38.0462L152.531 38.3715C152.724 38.5902 152.911 38.8137 153.093 39.0424V39.0431C153.275 39.2718 153.452 39.5035 153.624 39.7395C153.88 40.0954 154.123 40.4599 154.354 40.833V40.8341L154.58 41.209V41.2106C154.727 41.462 154.869 41.7188 155.005 41.9786V41.9793C155.141 42.2392 155.27 42.5031 155.393 42.7695V42.7711L155.572 43.1734V43.1741L155.743 43.5821V43.5828C155.852 43.8563 155.955 44.1322 156.052 44.4117V44.4135L156.193 44.8358L156.322 45.2615V45.2625C156.405 45.5479 156.48 45.8362 156.549 46.1272V46.1282L156.646 46.567V46.5679L156.733 47.0097V47.0113L156.809 47.4571L156.873 47.9059V47.907C156.893 48.0576 156.91 48.2084 156.926 48.3604L156.967 48.8169L156.997 49.2762V49.278L157.015 49.7388V49.7403L157.021 50.2045V50.2053V99.9192C164.669 99.8262 170.25 99.2821 176.378 104.648L176.701 104.943V104.945C176.913 105.144 177.122 105.351 177.324 105.559H177.325L177.625 105.878L177.917 106.204C178.11 106.423 178.298 106.646 178.48 106.875V106.875C178.662 107.104 178.839 107.336 179.01 107.572C181.23 110.653 182.256 113.94 182.402 117.571V117.573L182.407 118.037H157.136H157.021H156.852V118.035C146.834 117.945 138.666 109.833 138.666 99.9299V56.4397C138.466 54.76 137.401 50.6915 131.786 50.2053C120.986 50.2053 110.185 50.2053 99.3844 50.2053C93.77 50.692 92.7046 54.7593 92.5047 56.4397C92.5047 68.8584 92.5047 81.2766 92.5047 93.6954C92.7046 95.3758 93.77 99.443 99.3844 99.9299H101.188H103.222H105.718H106.682H108.889H109H109.456H122.304L122.776 99.9352L123.244 99.9533L123.71 99.9825C123.845 99.9825 124.035 100.01 124.174 100.023L124.633 100.075L125.089 100.139L125.542 100.214L125.991 100.299C126.056 100.299 126.351 100.376 126.436 100.395C126.53 100.395 127.178 100.581 127.314 100.619L127.746 100.747L128.175 100.886C128.22 100.886 128.92 101.153 129.017 101.191L129.43 101.358L129.84 101.535C129.864 101.535 130.562 101.878 130.642 101.918C130.662 101.918 131.347 102.294 131.422 102.337L131.803 102.561C131.844 102.561 132.804 103.205 132.912 103.282C133.151 103.45 133.387 103.625 133.618 103.804C133.635 103.804 134.237 104.306 134.299 104.359L134.629 104.648L134.952 104.943C134.952 104.97 135.512 105.494 135.575 105.559L135.876 105.878L136.168 106.204C136.361 106.423 136.549 106.646 136.731 106.875C136.731 106.89 137.21 107.5 137.261 107.572C137.518 107.928 137.761 108.292 137.991 108.666L138.218 109.041C138.218 109.047 138.604 109.736 138.643 109.811C138.643 109.814 138.996 110.525 139.031 110.602V110.603C140.077 112.951 140.551 115.024 140.653 117.571L140.659 118.037H110.261H109.456H106.682H103.926H103.222H101.188H92.5047L92.0328 118.033L91.5637 118.014L91.0979 117.985C90.9614 117.985 90.7752 117.958 90.6347 117.945L90.1744 117.892L89.7191 117.829L89.2668 117.754L88.817 117.669C88.7522 117.669 88.4569 117.592 88.3722 117.573C88.2779 117.573 87.6298 117.386 87.4947 117.348L87.0621 117.221L86.6333 117.082C86.5887 117.082 85.8881 116.814 85.7914 116.776L85.3782 116.609L84.9695 116.433C84.9434 116.433 84.2478 116.09 84.1668 116.049C84.1452 116.049 83.4625 115.673 83.3865 115.63L83.0052 115.407C82.9642 115.407 82.0048 114.762 81.8965 114.686C81.6572 114.518 81.4208 114.342 81.1905 114.163H81.1898C80.9597 113.983 80.7319 113.799 80.5093 113.608L80.1794 113.319L79.8567 113.024V113.022C79.6443 112.824 79.4357 112.617 79.2331 112.407H79.2324L78.9328 112.089L78.6399 111.763C78.4467 111.545 78.26 111.321 78.0768 111.093V111.092C77.8953 110.863 77.7183 110.631 77.5468 110.396C77.2906 110.039 77.0472 109.675 76.817 109.302L76.5906 108.926C76.5906 108.921 76.2052 108.231 76.1658 108.156C76.1658 108.154 75.812 107.441 75.7772 107.366L75.5982 106.962L75.428 106.554C75.428 106.552 75.1471 105.806 75.1182 105.723L74.9778 105.299L74.8487 104.873C74.8487 104.825 74.6501 104.13 74.6216 104.008L74.5236 103.568L74.438 103.125L74.3613 102.678L74.2973 102.229C74.2973 102.115 74.258 101.9 74.2447 101.775L74.2037 101.319L74.1736 100.859L74.1553 100.396L74.1487 99.9299V99.2782V98.5118V97.745V96.9775V96.2107V95.4444V94.6776V93.9112V93.1442V92.3775V91.6102V90.8436V90.0769V89.3105V89.2196V88.5437V87.7769V87.0094V86.243V85.4763V84.7095V83.9431V83.1763V82.4089V81.6425V80.8757V80.109V79.3426V78.5756V77.8088V77.2902V50.2053Z" fill="#151616"/>
<path fill-rule="evenodd" clip-rule="evenodd" d="M0.129578 50.2053L0.135784 49.7403V49.7388L0.154276 49.278V49.2762L0.184158 48.8174V48.8161L0.225173 48.3609C0.241489 48.209 0.258381 48.0576 0.277769 47.907V47.9059L0.341819 47.4571L0.418347 47.0113V47.0097L0.504152 46.5679V46.567L0.60205 46.1282V46.1272C0.670259 45.8362 0.746787 45.5479 0.829137 45.2625V45.2615L0.958324 44.8358L1.09903 44.4135V44.4117C1.19552 44.1329 1.29892 43.8563 1.40885 43.5828V43.581L1.5786 43.1741V43.1734L1.75783 42.7706V42.7695C1.88062 42.5037 2.01045 42.2392 2.14635 41.9793V41.9786C2.2822 41.7188 2.42367 41.462 2.57096 41.2106V41.209L2.79747 40.8341V40.833C3.02763 40.4599 3.27084 40.0954 3.52749 39.7395C3.6991 39.5042 3.87596 39.2718 4.05729 39.0431V39.0417C4.24036 38.8137 4.42752 38.5902 4.62069 38.3715L4.91324 38.0462L5.21288 37.7279H5.21378C5.41623 37.5182 5.62463 37.3115 5.83719 37.1129V37.1113L6.15988 36.8157L6.48998 36.5267C6.71233 36.3361 6.94012 36.1518 7.17028 35.9719H7.17124C7.4014 35.7926 7.6377 35.6175 7.87732 35.4492C8.23718 35.1955 8.60811 34.9554 8.98499 34.7283H8.98569L9.36628 34.505H9.36737C9.62293 34.3595 9.88316 34.2201 10.1465 34.0859H10.1473C10.411 33.9526 10.6767 33.8252 10.9486 33.7025H10.9499L11.3569 33.5258H11.3587L11.7711 33.3587H11.7718C12.0501 33.2499 12.3287 33.1483 12.6131 33.0534H12.6138L13.0419 32.9146H13.0426L13.4744 32.7871C13.7643 32.7048 14.0577 32.6309 14.3519 32.5624C14.4994 32.5296 14.6478 32.4953 14.7969 32.4665H14.7976L15.2463 32.3812H15.247L15.6988 32.3063H15.6999L16.1549 32.2432L16.6145 32.1906C16.7685 32.1759 16.9225 32.1608 17.0777 32.1501H17.0788L17.5438 32.1209H17.5446L18.0125 32.102H18.0132L18.4845 32.0977H18.4854V56.4397V63.8264V99.9299C18.4854 109.889 10.2256 118.037 0.129578 118.037V50.2053Z" fill="#151616"/>
</g>
<defs>
<clipPath id="clip0_73_1843">
<rect width="183" height="136.353" fill="white"/>
</clipPath>
</defs>
</svg>
