<svg width="52" height="40" viewBox="0 0 52 40" fill="none" xmlns="http://www.w3.org/2000/svg">
<g clip-path="url(#clip0_73_2044)">
<path fill-rule="evenodd" clip-rule="evenodd" d="M7.54465 15.227C7.54629 15.0936 7.55151 14.9658 7.56005 14.8326C7.64442 13.8897 7.94753 13.0331 8.51007 12.2532C9.51936 10.8628 11.0569 10.1015 12.7601 10.0815H19.9739C19.9739 12.9675 17.6299 15.227 14.7152 15.227C13.1199 15.3652 12.8172 16.5211 12.7604 16.9985V29.3562C12.7604 32.1861 10.4134 34.5017 7.54465 34.5017V15.227Z" fill="white"/>
<path fill-rule="evenodd" clip-rule="evenodd" d="M0.230598 9.67167C0.104126 9.14723 0.036726 8.59993 0.036726 8.03715C0.036726 4.37631 2.8697 1.36915 6.49088 1.03198C6.61737 1.55642 6.68477 2.10362 6.68477 2.66654C6.68477 6.32724 3.85179 9.33445 0.230598 9.67167Z" fill="#BBD700"/>
<path fill-rule="evenodd" clip-rule="evenodd" d="M12.4885 36.5153H14.8141V37.1117H13.1592V37.7301H14.6157V38.3265H13.1592V38.9666H14.8363V39.563H12.4885V36.5153ZM16.3499 38.013L15.3174 36.5153H16.1117L16.7604 37.5037L17.4135 36.5153H18.1858L17.1531 38.0044L18.2301 39.563H17.4356L16.7428 38.5181L16.0455 39.563H15.2731L16.3499 38.013ZM20.0172 38.0522C20.1878 38.0522 20.3203 38.0078 20.4143 37.9195C20.5087 37.8309 20.5557 37.7214 20.5557 37.5908V37.582C20.5557 37.4311 20.5064 37.3165 20.4079 37.238C20.3092 37.1597 20.1746 37.1205 20.004 37.1205H19.4789V38.0522H20.0172ZM18.7993 36.5153H20.0612C20.2468 36.5153 20.4121 36.5408 20.5579 36.5916C20.7036 36.6423 20.8269 36.7142 20.9286 36.807C21.0301 36.9 21.1079 37.0109 21.1624 37.1401C21.2168 37.2691 21.2442 37.4122 21.2442 37.5689V37.5776C21.2442 37.7547 21.2116 37.91 21.147 38.0435C21.0823 38.177 20.9933 38.2887 20.8799 38.3788C20.7668 38.4688 20.6344 38.5362 20.4828 38.5812C20.3313 38.6261 20.1687 38.6487 19.9951 38.6487H19.4789V39.563H18.7993V36.5153ZM21.809 36.5153H22.4886V38.9577H24.0286V39.563H21.809V36.5153ZM26.1117 38.997C26.2469 38.997 26.372 38.9723 26.4868 38.923C26.6015 38.8737 26.6995 38.8054 26.7803 38.7183C26.8611 38.6313 26.9245 38.5303 26.97 38.4159C27.0156 38.3011 27.0384 38.1784 27.0384 38.0478V38.0392C27.0384 37.9085 27.0156 37.7851 26.97 37.6691C26.9245 37.553 26.8596 37.4514 26.7758 37.3644C26.6921 37.2772 26.5928 37.2083 26.4779 37.1575C26.3633 37.1068 26.2382 37.0813 26.1029 37.0813C25.9646 37.0813 25.8388 37.106 25.7255 37.1553C25.6123 37.2047 25.5151 37.2729 25.4343 37.3599C25.3534 37.447 25.29 37.5479 25.2445 37.6624C25.199 37.7772 25.1762 37.8999 25.1762 38.0305V38.0392C25.1762 38.1698 25.199 38.2932 25.2445 38.4092C25.29 38.5253 25.3549 38.6268 25.4387 38.7139C25.5225 38.801 25.621 38.8699 25.7344 38.9207C25.8476 38.9715 25.9734 38.997 26.1117 38.997ZM26.1029 39.6152C25.8644 39.6152 25.6454 39.5738 25.4452 39.4911C25.2452 39.4085 25.0725 39.2966 24.9267 39.156C24.7812 39.0152 24.6678 38.8496 24.587 38.6595C24.5061 38.4695 24.4657 38.2654 24.4657 38.0478V38.0392C24.4657 37.8214 24.5067 37.6175 24.5892 37.4274C24.6716 37.2373 24.7856 37.0705 24.9312 36.9267C25.0769 36.7831 25.2504 36.6699 25.4519 36.5872C25.6534 36.5045 25.8734 36.463 26.1117 36.463C26.3501 36.463 26.5691 36.5045 26.7693 36.5872C26.9693 36.6699 27.1421 36.7817 27.2879 36.9224C27.4333 37.0632 27.5466 37.2287 27.6276 37.4188C27.7085 37.6089 27.7489 37.8128 27.7489 38.0305V38.0392C27.7489 38.2569 27.7078 38.4607 27.6253 38.6509C27.543 38.841 27.429 39.0078 27.2833 39.1516C27.1377 39.2953 26.9641 39.4085 26.7626 39.4911C26.561 39.5738 26.3412 39.6152 26.1029 39.6152ZM29.7832 37.9956C29.9511 37.9956 30.0797 37.9563 30.1694 37.878C30.2592 37.7996 30.304 37.6953 30.304 37.5646V37.5559C30.304 37.4107 30.257 37.3018 30.1629 37.2294C30.0687 37.1569 29.9377 37.1205 29.77 37.1205H29.0949V37.9956H29.7832ZM28.4153 36.5153H29.8275C30.2187 36.5153 30.5188 36.6184 30.7277 36.8244C30.9042 36.9985 30.9925 37.2308 30.9925 37.5211V37.5297C30.9925 37.7765 30.9314 37.9774 30.8093 38.1327C30.6872 38.288 30.5278 38.4019 30.3306 38.4745L31.0852 39.563H30.2908L29.6289 38.5877H29.6201H29.0949V39.563H28.4153V36.5153ZM31.6678 36.5153H33.9934V37.1117H32.3385V37.7301H33.795V38.3265H32.3385V38.9666H34.0156V39.563H31.6678V36.5153ZM34.5583 38.8662H35.2691V39.563H34.5583V38.8662ZM37.2726 36.5153H38.0051L38.8171 37.804L39.6292 36.5153H40.3617V39.563H39.6909V37.5733L38.8215 38.8751H38.8039L37.9432 37.5863V39.563H37.2726V36.5153ZM42.6741 38.997C42.8094 38.997 42.9346 38.9723 43.0493 38.923C43.164 38.8737 43.2619 38.8054 43.3429 38.7183C43.4236 38.6313 43.487 38.5303 43.5326 38.4159C43.578 38.3011 43.601 38.1784 43.601 38.0478V38.0392C43.601 37.9085 43.578 37.7851 43.5326 37.6691C43.487 37.553 43.4222 37.4514 43.3383 37.3644C43.2545 37.2772 43.1553 37.2083 43.0404 37.1575C42.9258 37.1068 42.8007 37.0813 42.6655 37.0813C42.5272 37.0813 42.4014 37.106 42.288 37.1553C42.1748 37.2047 42.0776 37.2729 41.9968 37.3599C41.916 37.447 41.8526 37.5479 41.807 37.6624C41.7615 37.7772 41.7387 37.8999 41.7387 38.0305V38.0392C41.7387 38.1698 41.7615 38.2932 41.807 38.4092C41.8526 38.5253 41.9174 38.6268 42.0012 38.7139C42.0851 38.801 42.1835 38.8699 42.2969 38.9207C42.41 38.9715 42.5359 38.997 42.6741 38.997ZM42.6655 39.6152C42.427 39.6152 42.2079 39.5738 42.0077 39.4911C41.8078 39.4085 41.6349 39.2966 41.4893 39.156C41.3438 39.0152 41.2304 38.8496 41.1495 38.6595C41.0685 38.4695 41.0282 38.2654 41.0282 38.0478V38.0392C41.0282 37.8214 41.0693 37.6175 41.1518 37.4274C41.234 37.2373 41.348 37.0705 41.4937 36.9267C41.6394 36.7831 41.813 36.6699 42.0144 36.5872C42.2159 36.5045 42.4359 36.463 42.6741 36.463C42.9126 36.463 43.1317 36.5045 43.3319 36.5872C43.5318 36.6699 43.7046 36.7817 43.8503 36.9224C43.9959 37.0632 44.1092 37.2287 44.19 37.4188C44.2711 37.6089 44.3114 37.8128 44.3114 38.0305V38.0392C44.3114 38.2569 44.2703 38.4607 44.1878 38.6509C44.1054 38.841 43.9916 39.0078 43.8459 39.1516C43.7002 39.2953 43.5266 39.4085 43.3251 39.4911C43.1235 39.5738 42.9036 39.6152 42.6655 39.6152ZM46.3458 37.9956C46.5136 37.9956 46.6422 37.9563 46.7319 37.878C46.8217 37.7996 46.8665 37.6953 46.8665 37.5646V37.5559C46.8665 37.4107 46.8195 37.3018 46.7255 37.2294C46.6312 37.1569 46.5002 37.1205 46.3326 37.1205H45.6574V37.9956H46.3458ZM44.9779 36.5153H46.39C46.7812 36.5153 47.0813 36.6184 47.2902 36.8244C47.4668 36.9985 47.555 37.2308 47.555 37.5211V37.5297C47.555 37.7765 47.4939 37.9774 47.3718 38.1327C47.2497 38.288 47.0902 38.4019 46.8931 38.4745L47.6477 39.563H46.8533L46.1913 38.5877H46.1827H45.6574V39.563H44.9779V36.5153ZM48.2303 36.5153H50.5559V37.1117H48.9011V37.7301H50.3575V38.3265H48.9011V38.9666H50.5781V39.563H48.2303V36.5153ZM51.1209 38.8662H51.8315V39.563H51.1209V38.8662Z" fill="white"/>
<path fill-rule="evenodd" clip-rule="evenodd" d="M21.0695 15.2268L21.0714 15.0947L21.0766 14.9634L21.0852 14.8325C21.0931 14.7448 21.1003 14.6612 21.1118 14.5738L21.1299 14.4459L21.1517 14.3193L21.2039 14.0684C21.2039 14.0404 21.2571 13.8615 21.2684 13.8224L21.3051 13.7011L21.345 13.5811C21.345 13.5687 21.4224 13.3721 21.433 13.3451L21.4814 13.2289L21.5323 13.1143C21.5323 13.1068 21.6309 12.912 21.6427 12.8894C21.6427 12.8832 21.7509 12.6922 21.7634 12.671L21.8277 12.564C21.8277 12.5525 22.0132 12.2835 22.0351 12.253C22.0838 12.1861 22.1341 12.1201 22.1857 12.0551C22.1857 12.0503 22.3301 11.8819 22.3457 11.8643L22.4289 11.7718L22.5141 11.6814C22.5213 11.6814 22.6726 11.5243 22.6915 11.5066L22.7832 11.4222L22.8769 11.34C22.9402 11.2859 23.0049 11.2335 23.0703 11.1824C23.0744 11.1824 23.2507 11.0481 23.2711 11.0339C23.3734 10.9618 23.4787 10.8936 23.5858 10.829L23.6943 10.7656C23.6957 10.7656 23.8946 10.6572 23.916 10.6465C23.9171 10.6465 24.1219 10.5475 24.1438 10.5375L24.26 10.4873L24.3777 10.4398C24.3802 10.4398 24.5919 10.3614 24.6169 10.3531L24.7386 10.3137L24.8616 10.2774C24.8747 10.2774 25.0769 10.2216 25.111 10.2136C25.1261 10.2136 25.2138 10.1909 25.2373 10.1863L25.3652 10.1621L25.4938 10.1408L25.6233 10.1229L25.7539 10.1079C25.7913 10.1079 25.8455 10.0993 25.8855 10.0964L26.0178 10.0881L26.1512 10.0828L26.2852 10.0815C30.6576 10.0815 35.0299 10.0815 39.4023 10.0815H39.4025L39.5363 10.0831L39.6695 10.0881H39.6698L39.802 10.0964H39.8023C39.8463 10.0997 39.8899 10.1037 39.9336 10.1081H39.9338L40.0642 10.1229H40.0644L40.1938 10.1408H40.194L40.3224 10.1621L40.4499 10.1863H40.4501C40.4926 10.1945 40.5346 10.2043 40.5765 10.2136H40.5767C40.6604 10.2331 40.7435 10.254 40.8258 10.2774H40.826L40.9488 10.3137H40.949L41.0706 10.3531H41.0708C41.1516 10.3801 41.2309 10.4089 41.3098 10.4398H41.3101L41.4273 10.4873H41.4277L41.5436 10.5375H41.5438C41.6208 10.5724 41.6966 10.6086 41.7715 10.6465H41.7717C41.8463 10.6846 41.9205 10.7242 41.9931 10.7656H41.9934L42.1015 10.829H42.1018C42.2091 10.8936 42.3143 10.9619 42.4166 11.0339C42.4846 11.0817 42.5517 11.1315 42.6172 11.1824H42.6176C42.683 11.2335 42.7475 11.2859 42.8108 11.34L42.9045 11.4222L42.9962 11.5062V11.5066C43.0566 11.5631 43.1158 11.6218 43.1734 11.6811H43.1736L43.2588 11.7718L43.342 11.8643C43.3968 11.9264 43.4501 11.9899 43.5018 12.0549V12.0551C43.5536 12.1201 43.6038 12.1859 43.6525 12.253C43.7254 12.3541 43.7946 12.4577 43.86 12.5637V12.564L43.9243 12.6705V12.671C43.9662 12.7424 44.0063 12.8154 44.0452 12.8892V12.8894C44.0836 12.9633 44.1205 13.0383 44.1553 13.114V13.1144L44.2063 13.2287V13.2289L44.2546 13.3449V13.3451C44.2858 13.4228 44.3149 13.5012 44.3426 13.5806V13.5811L44.3826 13.7011L44.4192 13.8221V13.8224C44.4427 13.9035 44.4642 13.9854 44.4838 14.068V14.0684L44.5114 14.193V14.1933L44.536 14.3188V14.3193L44.5577 14.4459L44.5757 14.5735V14.5738C44.5814 14.6166 44.5862 14.6594 44.5909 14.7026L44.6025 14.8323L44.6111 14.9628V14.9634L44.6163 15.0943V15.0947L44.6178 15.2266V15.2268V29.3532C46.7911 29.3268 48.377 29.1721 50.1182 30.6968L50.2099 30.7808V30.7813C50.2703 30.8378 50.3295 30.8965 50.387 30.9558H50.3873L50.4725 31.0465L50.5557 31.139C50.6105 31.2012 50.6638 31.2646 50.7154 31.3296V31.3298C50.7672 31.3948 50.8174 31.4606 50.8661 31.5277C51.497 32.4033 51.7886 33.3373 51.83 34.369V34.3695L51.8315 34.5015H44.6506H44.6178H44.5698V34.5009C41.7231 34.4751 39.4023 32.1702 39.4023 29.3562V16.9984C39.3453 16.5211 39.0427 15.365 37.4474 15.2268C34.3784 15.2268 31.3092 15.2268 28.2403 15.2268C26.645 15.3651 26.3422 16.5209 26.2854 16.9984C26.2854 20.5272 26.2854 24.0558 26.2854 27.5847C26.3422 28.0622 26.645 29.2179 28.2403 29.3562H28.7528H29.3308H30.0401H30.314H30.9411H30.9725H31.102H34.7529L34.887 29.3577L35.0202 29.3629L35.1526 29.3712C35.1907 29.3712 35.2448 29.379 35.2843 29.3828L35.4149 29.3976L35.5445 29.4155L35.673 29.4368L35.8005 29.461C35.8192 29.461 35.9028 29.4829 35.9272 29.4883C35.9539 29.4883 36.1381 29.5414 36.1765 29.5522L36.2994 29.5884L36.4213 29.6278C36.434 29.6278 36.6331 29.7038 36.6605 29.7145L36.7779 29.7621L36.8943 29.8122C36.9011 29.8122 37.0995 29.9097 37.1222 29.9212C37.128 29.9212 37.3225 30.0281 37.3438 30.0403L37.4522 30.1038C37.4639 30.1038 37.7365 30.287 37.7672 30.3086C37.8353 30.3564 37.9024 30.4062 37.9679 30.4571C37.9727 30.4571 38.1437 30.5997 38.1614 30.6148L38.2552 30.6968L38.3469 30.7808C38.3469 30.7883 38.5061 30.9372 38.524 30.9558L38.6094 31.0465L38.6926 31.139C38.7474 31.2012 38.8008 31.2646 38.8524 31.3296C38.8524 31.3339 38.9885 31.5074 39.0031 31.5277C39.0761 31.6288 39.1452 31.7324 39.2106 31.8385L39.2749 31.9452C39.2749 31.947 39.3846 32.1427 39.3958 32.164C39.3958 32.1648 39.496 32.3668 39.5061 32.3887V32.3892C39.8032 33.0563 39.9378 33.6453 39.967 34.369L39.9685 34.5015H31.331H31.102H30.314H29.5309H29.3308H28.7528H26.2854L26.1513 34.5002L26.0181 34.4948L25.8857 34.4866C25.8469 34.4866 25.794 34.4789 25.7541 34.4751L25.6233 34.4602L25.4939 34.4422L25.3654 34.4209L25.2376 34.3967C25.2192 34.3967 25.1352 34.3749 25.1112 34.3695C25.0844 34.3695 24.9002 34.3164 24.8618 34.3056L24.7389 34.2694L24.6171 34.23C24.6044 34.23 24.4053 34.1539 24.3778 34.1431L24.2604 34.0957L24.1443 34.0455C24.1369 34.0455 23.9392 33.9482 23.9162 33.9366C23.9101 33.9366 23.7161 33.8296 23.6945 33.8175L23.5861 33.754C23.5745 33.754 23.3018 33.5708 23.2711 33.5492C23.2031 33.5014 23.1359 33.4515 23.0705 33.4006H23.0703C23.0049 33.3495 22.9402 33.2972 22.8769 33.243L22.7832 33.1609L22.6915 33.0769V33.0764C22.6311 33.02 22.5718 32.9613 22.5143 32.9017H22.5141L22.4289 32.8112L22.3457 32.7187C22.2908 32.6566 22.2378 32.5932 22.1857 32.5284V32.528C22.1341 32.463 22.0838 32.3969 22.0351 32.3301C21.9623 32.2288 21.8931 32.1254 21.8277 32.0192L21.7634 31.9125C21.7634 31.911 21.6539 31.715 21.6427 31.6938C21.6427 31.6931 21.5422 31.4906 21.5323 31.4691L21.4814 31.3543L21.433 31.2385C21.433 31.2378 21.3532 31.0258 21.345 31.0023L21.3051 30.882L21.2684 30.7609C21.2684 30.7471 21.212 30.5496 21.2039 30.515L21.1761 30.39L21.1517 30.2641L21.1299 30.1371L21.1118 30.0095C21.1118 29.9773 21.1006 29.916 21.0968 29.8804L21.0852 29.7509L21.0766 29.6202L21.0714 29.4888L21.0695 29.3562V29.171V28.9533V28.7354V28.5173V28.2994V28.0817V27.8638V27.646V27.4281V27.2102V26.9922V26.7743V26.5565V26.3387V26.3129V26.1208V25.9029V25.6848V25.4671V25.2492V25.0313V24.8135V24.5957V24.3776V24.1598V23.9419V23.7241V23.5063V23.2884V23.0705V22.9231V15.2268Z" fill="white"/>
<path fill-rule="evenodd" clip-rule="evenodd" d="M0.0368176 15.2268L0.0385812 15.0947V15.0943L0.0438357 14.9634V14.9628L0.0523266 14.8325V14.8321L0.0639811 14.7028C0.0686175 14.6596 0.0734175 14.6166 0.0789266 14.5738V14.5735L0.0971265 14.4459L0.118872 14.3193V14.3188L0.143254 14.1933V14.193L0.171072 14.0684V14.068C0.190454 13.9854 0.212199 13.9035 0.235599 13.8224V13.8221L0.272308 13.7011L0.31229 13.5811V13.5806C0.339708 13.5014 0.36909 13.4228 0.400326 13.3451V13.3446L0.448562 13.2289V13.2287L0.499489 13.1143V13.114C0.53438 13.0384 0.571271 12.9633 0.609889 12.8894V12.8892C0.648489 12.8154 0.688689 12.7424 0.730543 12.671V12.6705L0.794907 12.564V12.5637C0.860307 12.4577 0.929416 12.3541 1.00234 12.253C1.05111 12.1861 1.10136 12.1201 1.15289 12.0551V12.0547C1.20491 11.9899 1.25809 11.9264 1.31298 11.8643L1.39611 11.7718L1.48125 11.6814H1.48151C1.53903 11.6218 1.59825 11.5631 1.65865 11.5066V11.5062L1.75034 11.4222L1.84414 11.34C1.90732 11.2859 1.97205 11.2335 2.03745 11.1824H2.03772C2.10312 11.1315 2.17027 11.0817 2.23836 11.0339C2.34061 10.9618 2.44601 10.8936 2.5531 10.829H2.5533L2.66145 10.7656H2.66176C2.73438 10.7242 2.80832 10.6846 2.88316 10.6465H2.88338C2.9583 10.6086 3.03381 10.5724 3.11107 10.5375H3.11143L3.22708 10.4873H3.22759L3.34479 10.4398H3.34499C3.42407 10.4089 3.50323 10.3801 3.58405 10.3531H3.58425L3.70588 10.3137H3.70608L3.82879 10.2774C3.91116 10.254 3.99454 10.2331 4.07814 10.2136C4.12003 10.2043 4.16221 10.1945 4.20457 10.1863H4.20477L4.33228 10.1621H4.33248L4.46086 10.1408H4.46117L4.59044 10.1229L4.72104 10.1079C4.76481 10.1037 4.80855 10.0995 4.85266 10.0964H4.85297L4.98512 10.0881H4.98533L5.1183 10.0828H5.1185L5.25241 10.0815H5.25266V16.9984V19.0973V29.3562C5.25266 32.186 2.90563 34.5015 0.0368176 34.5015V15.2268Z" fill="white"/>
</g>
<defs>
<clipPath id="clip0_73_2044">
<rect width="51.9999" height="38.745" fill="white" transform="translate(0 0.960938)"/>
</clipPath>
</defs>
</svg>
