<svg width="196" height="49" viewBox="0 0 196 49" fill="none" xmlns="http://www.w3.org/2000/svg">
<path fill-rule="evenodd" clip-rule="evenodd" d="M90.9281 1.49805C78.6983 3.41994 55.7483 13.0057 34.4377 25.0929C32.7192 26.0677 30.4553 27.3525 29.4068 27.9481C15.2685 35.9798 7.72088 40.9211 2.54227 45.5366C0.521229 47.338 0.352716 47.5494 0.464226 48.1442C0.627015 49.0121 0.967219 48.8451 4.76522 46.0323C8.69536 43.1217 12.2569 40.9443 22.0682 35.4542C54.8595 17.1051 70.3139 10.0683 87.9455 5.45851C91.4006 4.55511 97.0131 4.15115 97.0719 4.80154C97.1504 5.67031 93.9035 8.9506 86.3076 15.6767C76.9629 23.9516 71.3104 29.3913 70.8695 30.5341C70.1162 32.4867 71.2523 33.744 73.4311 33.369C74.6762 33.1547 74.9541 33.0525 80.5436 30.7544C96.5915 24.156 106.909 20.6109 120.986 16.8578C142.424 11.1421 156.174 8.50593 182.167 5.12769C191.507 3.91391 191.987 3.81888 193.644 2.85867C194.283 2.48855 195.052 2.11376 195.353 2.02565C196.059 1.81945 196.034 1.63952 195.29 1.5724C194.966 1.5431 194.208 1.332 193.605 1.10321C192.12 0.539094 191.173 0.58811 183.077 1.64815C155.935 5.20163 141.728 7.89412 121.282 13.3591C110.529 16.2332 105.755 17.6984 97.9894 20.507C92.6808 22.427 78.7038 27.883 76.7591 28.7942C75.6981 29.2914 80.1208 25.1057 87.9311 18.2207C97.8109 9.51148 99.7271 7.21537 99.481 4.38161C99.2035 1.18613 97.204 0.512 90.9281 1.49805Z" fill="#00A18E"/>
</svg>
