<svg width="170" height="36" viewBox="0 0 170 36" fill="none" xmlns="http://www.w3.org/2000/svg">
<path d="M53.0152 14.1948H48.6001L47.8924 16.2739H44.876L49.1562 4.50343H52.4928L56.773 16.2739H53.7229L53.0152 14.1948ZM52.2737 11.9816L50.8076 7.67241L49.3584 11.9816H52.2737Z" fill="#3E4755"/>
<path d="M67.0911 8.2928C67.0911 8.97466 66.9339 9.60063 66.6193 10.1707C66.3047 10.7296 65.8217 11.1823 65.1701 11.5289C64.5185 11.8754 63.7096 12.0486 62.7435 12.0486H60.9573V16.2739H58.0757V4.50343H62.7435C63.6872 4.50343 64.4848 4.66551 65.1364 4.98967C65.788 5.31384 66.2767 5.76096 66.6025 6.33104C66.9282 6.90112 67.0911 7.55504 67.0911 8.2928ZM62.5244 9.7683C63.0749 9.7683 63.485 9.63976 63.7546 9.38266C64.0242 9.12556 64.159 8.76228 64.159 8.2928C64.159 7.82332 64.0242 7.46003 63.7546 7.20293C63.485 6.94584 63.0749 6.81729 62.5244 6.81729H60.9573V9.7683H62.5244Z" fill="#3E4755"/>
<path d="M77.6068 8.2928C77.6068 8.97466 77.4495 9.60063 77.1349 10.1707C76.8204 10.7296 76.3373 11.1823 75.6857 11.5289C75.0341 11.8754 74.2253 12.0486 73.2591 12.0486H71.4729V16.2739H68.5913V4.50343H73.2591C74.2028 4.50343 75.0004 4.66551 75.652 4.98967C76.3036 5.31384 76.7923 5.76096 77.1181 6.33104C77.4439 6.90112 77.6068 7.55504 77.6068 8.2928ZM73.04 9.7683C73.5905 9.7683 74.0006 9.63976 74.2702 9.38266C74.5398 9.12556 74.6746 8.76228 74.6746 8.2928C74.6746 7.82332 74.5398 7.46003 74.2702 7.20293C74.0006 6.94584 73.5905 6.81729 73.04 6.81729H71.4729V9.7683H73.04Z" fill="#3E4755"/>
<path d="M85.9991 4.58726V5.82803H80.8932V9.7683H85.0386V11.0091H80.8932V16.2739H79.3597V4.58726H85.9991Z" fill="#3E4755"/>
<path d="M93.1762 16.3913C92.0865 16.3913 91.0922 16.1398 90.1935 15.6368C89.2948 15.1226 88.5814 14.4128 88.0534 13.5074C87.5366 12.5908 87.2782 11.5624 87.2782 10.4222C87.2782 9.28206 87.5366 8.25926 88.0534 7.35384C88.5814 6.43724 89.2948 5.72743 90.1935 5.22441C91.0922 4.71022 92.0865 4.45312 93.1762 4.45312C94.2771 4.45312 95.277 4.71022 96.1757 5.22441C97.0745 5.72743 97.7822 6.43165 98.299 7.33707C98.8158 8.2425 99.0741 9.27088 99.0741 10.4222C99.0741 11.5736 98.8158 12.6019 98.299 13.5074C97.7822 14.4128 97.0745 15.1226 96.1757 15.6368C95.277 16.1398 94.2771 16.3913 93.1762 16.3913ZM93.1762 15.0667C93.9963 15.0667 94.7321 14.8767 95.3837 14.4966C96.0465 14.1166 96.5633 13.5744 96.934 12.8702C97.316 12.166 97.507 11.35 97.507 10.4222C97.507 9.48326 97.316 8.66726 96.934 7.97422C96.5633 7.27 96.0521 6.72786 95.4006 6.34781C94.749 5.96776 94.0075 5.77773 93.1762 5.77773C92.3448 5.77773 91.6034 5.96776 90.9518 6.34781C90.3002 6.72786 89.7835 7.27 89.4015 7.97422C89.0308 8.66726 88.8454 9.48326 88.8454 10.4222C88.8454 11.35 89.0308 12.166 89.4015 12.8702C89.7835 13.5744 90.3002 14.1166 90.9518 14.4966C91.6146 14.8767 92.3561 15.0667 93.1762 15.0667Z" fill="#3E4755"/>
<path d="M107.283 16.2739L104.486 11.4953H102.632V16.2739H101.099V4.58726H104.89C105.778 4.58726 106.525 4.73817 107.131 5.03997C107.749 5.34178 108.21 5.74978 108.513 6.26398C108.816 6.77817 108.968 7.36502 108.968 8.02452C108.968 8.82934 108.732 9.53915 108.26 10.1539C107.8 10.7687 107.103 11.1767 106.171 11.3779L109.12 16.2739H107.283ZM102.632 10.2713H104.89C105.721 10.2713 106.345 10.0701 106.761 9.6677C107.176 9.25411 107.384 8.70639 107.384 8.02452C107.384 7.33148 107.176 6.79493 106.761 6.41488C106.356 6.03482 105.733 5.8448 104.89 5.8448H102.632V10.2713Z" fill="#3E4755"/>
<path d="M49.9314 33.6516C49.0663 33.6516 48.2912 33.5119 47.6059 33.2324C46.9206 32.953 46.3701 32.5394 45.9545 31.9916C45.55 31.4439 45.3366 30.7844 45.3141 30.0131H48.381C48.426 30.4491 48.5776 30.7844 48.836 31.0192C49.0944 31.2427 49.4314 31.3545 49.8471 31.3545C50.274 31.3545 50.611 31.2595 50.8582 31.0695C51.1053 30.8682 51.2289 30.5944 51.2289 30.2479C51.2289 29.9572 51.1278 29.7169 50.9256 29.5269C50.7346 29.3369 50.4931 29.1804 50.201 29.0574C49.9201 28.9344 49.5157 28.7947 48.9877 28.6382C48.2238 28.4035 47.6003 28.1687 47.1172 27.934C46.6341 27.6993 46.2185 27.3527 45.8702 26.8944C45.5219 26.4361 45.3478 25.8381 45.3478 25.1004C45.3478 24.0049 45.7466 23.1498 46.5443 22.535C47.3419 21.909 48.381 21.596 49.6617 21.596C50.9649 21.596 52.0153 21.909 52.8129 22.535C53.6106 23.1498 54.0375 24.0105 54.0936 25.1171H50.9762C50.9537 24.7371 50.8133 24.4409 50.5549 24.2285C50.2965 24.0049 49.9651 23.8931 49.5606 23.8931C49.2124 23.8931 48.9315 23.9881 48.7181 24.1782C48.5046 24.357 48.3979 24.6197 48.3979 24.9662C48.3979 25.3463 48.5776 25.6425 48.9371 25.8549C49.2966 26.0673 49.8583 26.2964 50.6223 26.5423C51.3862 26.7994 52.0041 27.0453 52.4759 27.2801C52.959 27.5148 53.3747 27.8558 53.7229 28.3029C54.0712 28.75 54.2453 29.3257 54.2453 30.0299C54.2453 30.7006 54.0712 31.3098 53.7229 31.8575C53.3859 32.4052 52.8916 32.8412 52.24 33.1653C51.5884 33.4895 50.8189 33.6516 49.9314 33.6516Z" fill="#3E4755"/>
<path d="M67.5618 21.7637V24.0608H64.4274V33.5342H61.5459V24.0608H58.4115V21.7637H67.5618Z" fill="#3E4755"/>
<path d="M77.6358 33.6516C76.5237 33.6516 75.5013 33.3945 74.5689 32.8803C73.6477 32.3661 72.9119 31.6507 72.3614 30.7341C71.8221 29.8063 71.5525 28.7668 71.5525 27.6154C71.5525 26.4641 71.8221 25.4301 72.3614 24.5135C72.9119 23.5969 73.6477 22.8815 74.5689 22.3673C75.5013 21.8531 76.5237 21.596 77.6358 21.596C78.748 21.596 79.7647 21.8531 80.6859 22.3673C81.6184 22.8815 82.3486 23.5969 82.8766 24.5135C83.4158 25.4301 83.6855 26.4641 83.6855 27.6154C83.6855 28.7668 83.4158 29.8063 82.8766 30.7341C82.3374 31.6507 81.6071 32.3661 80.6859 32.8803C79.7647 33.3945 78.748 33.6516 77.6358 33.6516ZM77.6358 31.0359C78.5795 31.0359 79.3322 30.7229 79.8939 30.097C80.4669 29.471 80.7533 28.6438 80.7533 27.6154C80.7533 26.5759 80.4669 25.7487 79.8939 25.1339C79.3322 24.5079 78.5795 24.1949 77.6358 24.1949C76.6809 24.1949 75.917 24.5023 75.3441 25.1171C74.7824 25.7319 74.5015 26.5647 74.5015 27.6154C74.5015 28.655 74.7824 29.4878 75.3441 30.1137C75.917 30.7285 76.6809 31.0359 77.6358 31.0359Z" fill="#3E4755"/>
<path d="M94.3546 33.5342L91.8943 29.0909H91.2034V33.5342H88.3218V21.7637H93.1581C94.0906 21.7637 94.8826 21.9258 95.5342 22.2499C96.197 22.5741 96.6913 23.0212 97.0171 23.5913C97.3429 24.1502 97.5058 24.7762 97.5058 25.4692C97.5058 26.2517 97.2811 26.9503 96.8317 27.5651C96.3936 28.1799 95.742 28.6159 94.877 28.873L97.6069 33.5342H94.3546ZM91.2034 27.0621H92.9896C93.5176 27.0621 93.9108 26.9336 94.1692 26.6765C94.4388 26.4194 94.5737 26.0561 94.5737 25.5866C94.5737 25.1395 94.4388 24.7874 94.1692 24.5303C93.9108 24.2732 93.5176 24.1446 92.9896 24.1446H91.2034V27.0621Z" fill="#3E4755"/>
<path d="M105.229 24.0608V26.4417H109.088V28.655H105.229V31.2371H109.594V33.5342H102.348V21.7637H109.594V24.0608H105.229Z" fill="#3E4755"/>
<path fill-rule="evenodd" clip-rule="evenodd" d="M29.3065 9.11865H3.12244V29.5206C3.12244 32.282 5.36101 34.5206 8.12243 34.5206H24.3065C27.0679 34.5206 29.3065 32.282 29.3065 29.5206V9.11865ZM25.3789 9.11867H7.05005V23.7046C7.05005 25.3615 8.39319 26.7046 10.05 26.7046H22.3789C24.0357 26.7046 25.3789 25.3615 25.3789 23.7046V9.11867Z" fill="url(#paint0_linear_4089_9752)"/>
<path fill-rule="evenodd" clip-rule="evenodd" d="M26.7143 2.60535H3.12244V29.5206C3.12244 32.282 5.36101 34.5206 8.12243 34.5206H24.3065C27.0679 34.5206 29.3065 32.282 29.3065 29.5206V7.24935H26.7143V2.60535ZM25.3789 2.60536H7.05005V23.7046C7.05005 25.3615 8.39319 26.7046 10.05 26.7046H22.3789C24.0357 26.7046 25.3789 25.3615 25.3789 23.7046V2.60536Z" fill="url(#paint1_linear_4089_9752)"/>
<path fill-rule="evenodd" clip-rule="evenodd" d="M32.1239 7.18373C31.8885 7.22679 31.6458 7.24929 31.3979 7.24929C29.1944 7.24929 27.4081 5.47192 27.4081 3.27943C27.4081 2.82374 27.4853 2.38599 27.6273 1.9784C27.4638 1.96225 27.2981 1.95398 27.1303 1.95398H25.6991V13.7222C25.6991 15.4964 27.1373 16.9346 28.9115 16.9346C30.6856 16.9346 32.1239 15.4964 32.1239 13.7222V7.18373Z" fill="#35A42B"/>
<path fill-rule="evenodd" clip-rule="evenodd" d="M32.1239 7.18373C31.8885 7.22679 31.6458 7.24929 31.3979 7.24929C29.1944 7.24929 27.4081 5.47192 27.4081 3.27943C27.4081 2.81463 27.4884 2.36849 27.6359 1.95398H25.6991V11.7682C25.6991 13.5424 27.1373 14.9806 28.9115 14.9806C30.6856 14.9806 32.1239 13.5424 32.1239 11.7682V7.18373Z" fill="url(#paint2_linear_4089_9752)"/>
<path d="M19.2744 1.95398H25.6992V13.7222C25.6992 15.4964 24.261 16.9346 22.4868 16.9346C20.7127 16.9346 19.2744 15.4964 19.2744 13.7222V1.95398Z" fill="url(#paint3_linear_4089_9752)"/>
<path d="M19.2744 1.95398H25.6992V11.7682C25.6992 13.5424 24.261 14.9806 22.4868 14.9806C20.7127 14.9806 19.2744 13.5424 19.2744 11.7682V1.95398Z" fill="url(#paint4_linear_4089_9752)"/>
<path d="M12.8496 1.95398H19.2744V13.7222C19.2744 15.4964 17.8362 16.9346 16.062 16.9346C14.2878 16.9346 12.8496 15.4964 12.8496 13.7222V1.95398Z" fill="#35A42B"/>
<path d="M12.8496 1.95398H19.2744V11.7682C19.2744 13.5424 17.8362 14.9806 16.062 14.9806C14.2878 14.9806 12.8496 13.5424 12.8496 11.7682V1.95398Z" fill="url(#paint5_linear_4089_9752)"/>
<path d="M6.4248 1.95398H12.8496V13.7222C12.8496 15.4964 11.4114 16.9346 9.6372 16.9346C7.86304 16.9346 6.4248 15.4964 6.4248 13.7222V1.95398Z" fill="url(#paint6_linear_4089_9752)"/>
<path d="M6.4248 1.95398H12.8496V11.7682C12.8496 13.5424 11.4114 14.9806 9.6372 14.9806C7.86304 14.9806 6.4248 13.5424 6.4248 11.7682V1.95398Z" fill="url(#paint7_linear_4089_9752)"/>
<path d="M0 6.94752C0 4.18966 2.23568 1.95398 4.99354 1.95398H6.42479V13.7222C6.42479 15.4964 4.98655 16.9346 3.2124 16.9346C1.43824 16.9346 0 15.4964 0 13.7222V6.94752Z" fill="#35A42B"/>
<path d="M0 6.29619C0 3.89805 1.94407 1.95398 4.34221 1.95398H6.42479V11.7682C6.42479 13.5424 4.98655 14.9806 3.2124 14.9806C1.43824 14.9806 0 13.5424 0 11.7682V6.29619Z" fill="url(#paint8_linear_4089_9752)"/>
<ellipse cx="31.5714" cy="3.10685" rx="3.12245" ry="3.10685" fill="url(#paint9_linear_4089_9752)"/>
<ellipse cx="31.5714" cy="3.10685" rx="3.12245" ry="3.10685" fill="url(#paint10_linear_4089_9752)"/>
<ellipse cx="32.0918" cy="3.62469" rx="2.2551" ry="2.24384" fill="url(#paint11_linear_4089_9752)"/>
<path d="M3.27295 28.0072L29.457 30.5559C29.457 32.7455 27.682 34.5205 25.4924 34.5205H8.27294C5.51152 34.5205 3.27295 32.2819 3.27295 29.5205V28.0072Z" fill="url(#paint12_linear_4089_9752)"/>
<path d="M15.0558 30.2869C15.0558 31.1862 15.793 31.9152 16.6923 31.9152C17.5916 31.9152 18.3288 31.1862 18.3288 30.2869C18.3288 29.3876 17.5916 28.6586 16.6923 28.6586C15.793 28.6586 15.0558 29.3876 15.0558 30.2869Z" fill="white"/>
<rect x="18.9834" y="20.1913" width="4.58221" height="4.55932" rx="2" fill="url(#paint13_linear_4089_9752)"/>
<path d="M143.956 33.0845C143.389 33.0845 142.88 32.9543 142.429 32.6939C141.979 32.4263 141.622 32.0646 141.361 31.609C141.099 31.1533 140.964 30.6397 140.957 30.0684V25.1211C140.957 24.9547 141.008 24.8209 141.11 24.7196C141.219 24.6184 141.353 24.5677 141.513 24.5677C141.68 24.5677 141.815 24.6184 141.917 24.7196C142.019 24.8209 142.069 24.9547 142.069 25.1211V28.0504C142.324 27.7466 142.629 27.5079 142.985 27.3343C143.349 27.1535 143.745 27.0631 144.174 27.0631C144.704 27.0631 145.181 27.1969 145.602 27.4645C146.024 27.7249 146.355 28.0829 146.594 28.5386C146.842 28.987 146.965 29.497 146.965 30.0684C146.965 30.6397 146.831 31.1533 146.562 31.609C146.3 32.0646 145.944 32.4263 145.493 32.6939C145.042 32.9543 144.53 33.0845 143.956 33.0845ZM143.956 32.108C144.326 32.108 144.657 32.0212 144.948 31.8476C145.239 31.6668 145.468 31.4209 145.635 31.1099C145.809 30.7989 145.897 30.4517 145.897 30.0684C145.897 29.6778 145.809 29.3306 145.635 29.0268C145.468 28.723 145.239 28.4844 144.948 28.3108C144.657 28.1299 144.326 28.0395 143.956 28.0395C143.592 28.0395 143.262 28.1299 142.964 28.3108C142.673 28.4844 142.444 28.723 142.277 29.0268C142.109 29.3306 142.026 29.6778 142.026 30.0684C142.026 30.4517 142.109 30.7989 142.277 31.1099C142.444 31.4209 142.673 31.6668 142.964 31.8476C143.262 32.0212 143.592 32.108 143.956 32.108Z" fill="#3E4755"/>
<path d="M151.328 33.0845C150.739 33.0845 150.22 32.9579 149.769 32.7047C149.318 32.4444 148.962 32.0899 148.7 31.6415C148.446 31.1858 148.319 30.6651 148.319 30.0792C148.319 29.4861 148.446 28.9653 148.7 28.5169C148.962 28.0612 149.318 27.7068 149.769 27.4537C150.22 27.1933 150.739 27.0631 151.328 27.0631C151.91 27.0631 152.426 27.1933 152.876 27.4537C153.327 27.7068 153.68 28.0612 153.934 28.5169C154.196 28.9653 154.327 29.4861 154.327 30.0792C154.327 30.6651 154.199 31.1858 153.945 31.6415C153.691 32.0899 153.338 32.4444 152.887 32.7047C152.437 32.9579 151.917 33.0845 151.328 33.0845ZM151.328 32.108C151.706 32.108 152.04 32.0212 152.331 31.8476C152.622 31.674 152.847 31.4354 153.007 31.1316C153.174 30.8278 153.258 30.477 153.258 30.0792C153.258 29.6814 153.174 29.3306 153.007 29.0268C152.847 28.7158 152.622 28.4735 152.331 28.2999C152.04 28.1263 151.706 28.0395 151.328 28.0395C150.95 28.0395 150.616 28.1263 150.325 28.2999C150.034 28.4735 149.805 28.7158 149.638 29.0268C149.471 29.3306 149.387 29.6814 149.387 30.0792C149.387 30.477 149.471 30.8278 149.638 31.1316C149.805 31.4354 150.034 31.674 150.325 31.8476C150.616 32.0212 150.95 32.108 151.328 32.108Z" fill="#3E4755"/>
<path d="M158.686 33.0845C158.097 33.0845 157.577 32.9579 157.127 32.7047C156.676 32.4444 156.32 32.0899 156.058 31.6415C155.804 31.1858 155.677 30.6651 155.677 30.0792C155.677 29.4861 155.804 28.9653 156.058 28.5169C156.32 28.0612 156.676 27.7068 157.127 27.4537C157.577 27.1933 158.097 27.0631 158.686 27.0631C159.268 27.0631 159.784 27.1933 160.234 27.4537C160.685 27.7068 161.038 28.0612 161.292 28.5169C161.554 28.9653 161.685 29.4861 161.685 30.0792C161.685 30.6651 161.557 31.1858 161.303 31.6415C161.048 32.0899 160.696 32.4444 160.245 32.7047C159.795 32.9579 159.275 33.0845 158.686 33.0845ZM158.686 32.108C159.064 32.108 159.398 32.0212 159.689 31.8476C159.98 31.674 160.205 31.4354 160.365 31.1316C160.532 30.8278 160.616 30.477 160.616 30.0792C160.616 29.6814 160.532 29.3306 160.365 29.0268C160.205 28.7158 159.98 28.4735 159.689 28.2999C159.398 28.1263 159.064 28.0395 158.686 28.0395C158.308 28.0395 157.974 28.1263 157.683 28.2999C157.392 28.4735 157.163 28.7158 156.996 29.0268C156.829 29.3306 156.745 29.6814 156.745 30.0792C156.745 30.477 156.829 30.8278 156.996 31.1316C157.163 31.4354 157.392 31.674 157.683 31.8476C157.974 32.0212 158.308 32.108 158.686 32.108Z" fill="#3E4755"/>
<path d="M168.377 33.0519C168.217 33.0519 168.083 33.0013 167.974 32.9C167.872 32.7915 167.821 32.6577 167.821 32.4986V29.8297C167.821 29.4174 167.745 29.0811 167.592 28.8207C167.44 28.5603 167.232 28.3686 166.971 28.2457C166.716 28.1155 166.422 28.0504 166.088 28.0504C165.782 28.0504 165.506 28.1119 165.259 28.2348C165.012 28.3578 164.815 28.5241 164.67 28.7339C164.525 28.9364 164.452 29.1715 164.452 29.4391H163.765C163.765 28.9834 163.874 28.5784 164.092 28.224C164.318 27.8623 164.623 27.5766 165.008 27.3669C165.393 27.1571 165.826 27.0522 166.306 27.0522C166.807 27.0522 167.254 27.1607 167.647 27.3777C168.047 27.5875 168.359 27.8985 168.585 28.3108C168.817 28.723 168.933 29.2293 168.933 29.8297V32.4986C168.933 32.6577 168.879 32.7915 168.77 32.9C168.668 33.0013 168.537 33.0519 168.377 33.0519ZM163.896 33.0519C163.736 33.0519 163.601 33.0013 163.492 32.9C163.391 32.7915 163.34 32.6577 163.34 32.4986V27.6598C163.34 27.4934 163.391 27.3596 163.492 27.2584C163.601 27.1571 163.736 27.1065 163.896 27.1065C164.063 27.1065 164.198 27.1571 164.299 27.2584C164.401 27.3596 164.452 27.4934 164.452 27.6598V32.4986C164.452 32.6577 164.401 32.7915 164.299 32.9C164.198 33.0013 164.063 33.0519 163.896 33.0519Z" fill="#3E4755"/>
<path d="M130.013 28.5337C130.383 28.5994 130.697 28.7934 130.955 29.1156C131.213 29.4378 131.342 29.8027 131.342 30.2104C131.342 30.5589 131.249 30.8745 131.064 31.1572C130.886 31.4334 130.625 31.6537 130.281 31.818C129.937 31.9759 129.537 32.0548 129.081 32.0548H126.326V25.2H128.953C129.422 25.2 129.825 25.2789 130.162 25.4367C130.499 25.5945 130.753 25.8082 130.925 26.0778C131.097 26.3408 131.183 26.6367 131.183 26.9654C131.183 27.36 131.077 27.6887 130.866 27.9517C130.654 28.2148 130.37 28.4087 130.013 28.5337ZM127.456 28.08H128.854C129.224 28.08 129.511 27.9978 129.716 27.8334C129.927 27.6624 130.033 27.4191 130.033 27.1035C130.033 26.7945 129.927 26.5545 129.716 26.3835C129.511 26.206 129.224 26.1172 128.854 26.1172H127.456V28.08ZM128.982 31.1375C129.366 31.1375 129.666 31.0454 129.884 30.8613C130.102 30.6772 130.212 30.4208 130.212 30.092C130.212 29.7567 130.096 29.4904 129.865 29.2931C129.633 29.0959 129.326 28.9972 128.943 28.9972H127.456V31.1375H128.982Z" fill="#3E4755"/>
<path d="M137.486 26.6202L134.136 34.6093H132.966L134.076 31.966L131.925 26.6202H133.184L134.721 30.7627L136.316 26.6202H137.486Z" fill="#3E4755"/>
<path fill-rule="evenodd" clip-rule="evenodd" d="M118.455 33.7808V22.1918H119.446V33.7808H118.455Z" fill="#8A93A3"/>
<defs>
<linearGradient id="paint0_linear_4089_9752" x1="16.2145" y1="9.11865" x2="16.2145" y2="34.5206" gradientUnits="userSpaceOnUse">
<stop stop-color="#6C5FBE"/>
<stop offset="1" stop-color="#51459F"/>
</linearGradient>
<linearGradient id="paint1_linear_4089_9752" x1="16.2145" y1="12.701" x2="16.2145" y2="34.5206" gradientUnits="userSpaceOnUse">
<stop stop-color="#3A3178"/>
<stop offset="0.595079" stop-color="#594DA5"/>
<stop offset="1" stop-color="#5649A8"/>
</linearGradient>
<linearGradient id="paint2_linear_4089_9752" x1="28.9115" y1="1.95398" x2="28.9115" y2="14.9806" gradientUnits="userSpaceOnUse">
<stop stop-color="#45B63B"/>
<stop offset="1" stop-color="#53BE4A"/>
</linearGradient>
<linearGradient id="paint3_linear_4089_9752" x1="22.4868" y1="1.95398" x2="22.4868" y2="16.9346" gradientUnits="userSpaceOnUse">
<stop stop-color="#C6EC99"/>
<stop offset="1" stop-color="#8FBE5A"/>
</linearGradient>
<linearGradient id="paint4_linear_4089_9752" x1="22.4868" y1="1.95398" x2="22.4868" y2="14.9806" gradientUnits="userSpaceOnUse">
<stop stop-color="#C6EC99" stop-opacity="0"/>
<stop offset="1" stop-color="#A9D973"/>
</linearGradient>
<linearGradient id="paint5_linear_4089_9752" x1="16.062" y1="1.95398" x2="16.062" y2="14.9806" gradientUnits="userSpaceOnUse">
<stop stop-color="#45B63B"/>
<stop offset="1" stop-color="#53BE4A"/>
</linearGradient>
<linearGradient id="paint6_linear_4089_9752" x1="9.6372" y1="1.95398" x2="9.6372" y2="16.9346" gradientUnits="userSpaceOnUse">
<stop stop-color="#C6EC99"/>
<stop offset="1" stop-color="#8FBE5A"/>
</linearGradient>
<linearGradient id="paint7_linear_4089_9752" x1="9.6372" y1="1.95398" x2="9.6372" y2="14.9806" gradientUnits="userSpaceOnUse">
<stop stop-color="#C6EC99" stop-opacity="0"/>
<stop offset="1" stop-color="#A9D973"/>
</linearGradient>
<linearGradient id="paint8_linear_4089_9752" x1="3.2124" y1="1.95398" x2="3.2124" y2="14.9806" gradientUnits="userSpaceOnUse">
<stop stop-color="#45B63B"/>
<stop offset="1" stop-color="#53BE4A"/>
</linearGradient>
<linearGradient id="paint9_linear_4089_9752" x1="31.5714" y1="0" x2="31.5714" y2="6.2137" gradientUnits="userSpaceOnUse">
<stop stop-color="#3DA634"/>
<stop offset="1" stop-color="#53BE4A"/>
</linearGradient>
<linearGradient id="paint10_linear_4089_9752" x1="31.5714" y1="0" x2="31.5714" y2="6.2137" gradientUnits="userSpaceOnUse">
<stop stop-color="#3DA634"/>
<stop offset="1" stop-color="#53BE4A"/>
</linearGradient>
<linearGradient id="paint11_linear_4089_9752" x1="32.0918" y1="1.38086" x2="32.0918" y2="5.86853" gradientUnits="userSpaceOnUse">
<stop stop-color="#6ACC62"/>
<stop offset="1" stop-color="#53BE4A"/>
</linearGradient>
<linearGradient id="paint12_linear_4089_9752" x1="3.27295" y1="27.724" x2="27.8004" y2="36.1917" gradientUnits="userSpaceOnUse">
<stop stop-color="#423695"/>
<stop offset="1" stop-color="#53489F" stop-opacity="0"/>
</linearGradient>
<linearGradient id="paint13_linear_4089_9752" x1="21.2745" y1="20.1913" x2="21.2745" y2="24.7506" gradientUnits="userSpaceOnUse">
<stop stop-color="#3DA634"/>
<stop offset="1" stop-color="#53BE4A"/>
</linearGradient>
</defs>
</svg>
