<svg width="38" height="38" viewBox="0 0 38 38" fill="none" xmlns="http://www.w3.org/2000/svg">
<g clip-path="url(#clip0_90_5549)">
<path d="M15.833 19.5834C15.833 20.4233 16.1666 21.2287 16.7605 21.8226C17.3544 22.4165 18.1598 22.7501 18.9997 22.7501C19.8395 22.7501 20.645 22.4165 21.2388 21.8226C21.8327 21.2287 22.1663 20.4233 22.1663 19.5834C22.1663 18.7436 21.8327 17.9381 21.2388 17.3442C20.645 16.7504 19.8395 16.4167 18.9997 16.4167C18.1598 16.4167 17.3544 16.7504 16.7605 17.3442C16.1666 17.9381 15.833 18.7436 15.833 19.5834Z" stroke="#A8CF45" stroke-linecap="round" stroke-linejoin="round"/>
<path d="M12.667 31.25V29.6667C12.667 28.8268 13.0006 28.0214 13.5945 27.4275C14.1884 26.8336 14.9938 26.5 15.8337 26.5H22.167C23.0068 26.5 23.8123 26.8336 24.4062 27.4275C25 28.0214 25.3337 28.8268 25.3337 29.6667V31.25" stroke="#383336" stroke-linecap="round" stroke-linejoin="round"/>
<path d="M23.75 8.91667C23.75 9.75652 24.0836 10.562 24.6775 11.1558C25.2714 11.7497 26.0768 12.0833 26.9167 12.0833C27.7565 12.0833 28.562 11.7497 29.1558 11.1558C29.7497 10.562 30.0833 9.75652 30.0833 8.91667C30.0833 8.07681 29.7497 7.27136 29.1558 6.6775C28.562 6.08363 27.7565 5.75 26.9167 5.75C26.0768 5.75 25.2714 6.08363 24.6775 6.6775C24.0836 7.27136 23.75 8.07681 23.75 8.91667Z" stroke="#383336" stroke-linecap="round" stroke-linejoin="round"/>
<path d="M26.917 15.8333H30.0837C30.9235 15.8333 31.729 16.1669 32.3228 16.7607C32.9167 17.3546 33.2503 18.1601 33.2503 18.9999V20.5833" stroke="#383336" stroke-linecap="round" stroke-linejoin="round"/>
<path d="M7.91699 8.91667C7.91699 9.75652 8.25062 10.562 8.84449 11.1558C9.43835 11.7497 10.2438 12.0833 11.0837 12.0833C11.9235 12.0833 12.729 11.7497 13.3228 11.1558C13.9167 10.562 14.2503 9.75652 14.2503 8.91667C14.2503 8.07681 13.9167 7.27136 13.3228 6.6775C12.729 6.08363 11.9235 5.75 11.0837 5.75C10.2438 5.75 9.43835 6.08363 8.84449 6.6775C8.25062 7.27136 7.91699 8.07681 7.91699 8.91667Z" stroke="#383336" stroke-linecap="round" stroke-linejoin="round"/>
<path d="M4.75 20.5833V18.9999C4.75 18.1601 5.08363 17.3546 5.6775 16.7607C6.27136 16.1669 7.07681 15.8333 7.91667 15.8333H11.0833" stroke="#383336" stroke-linecap="round" stroke-linejoin="round"/>
</g>
<defs>
<clipPath id="clip0_90_5549">
<rect width="38" height="38" fill="white"/>
</clipPath>
</defs>
</svg>
