<svg width="37" height="38" viewBox="0 0 37 38" fill="none" xmlns="http://www.w3.org/2000/svg">
<path d="M12.8537 32.5762L7.27781 24.0183C7.24911 23.9743 7.1912 23.96 7.14529 23.9856L1.63498 27.0609C1.58441 27.0891 1.56831 27.1543 1.59993 27.2028L7.17585 35.7607C7.20455 35.8048 7.26246 35.8191 7.30837 35.7935L12.8187 32.7181C12.8693 32.6899 12.8853 32.6247 12.8537 32.5762Z" stroke="#383336" stroke-width="1.5" stroke-linecap="round"/>
<path d="M12.9132 31.8748L13.4468 31.6142C14.1465 31.2725 14.9516 31.2163 15.6919 31.4573L20.671 33.0783C22.9558 33.8222 25.4545 33.4924 27.4681 32.1813L34.5576 27.5651C35.5872 26.8947 35.8275 25.4894 35.0793 24.515V24.515C34.4689 23.7201 33.3832 23.4649 32.4826 23.9047L25.9083 27.1152" stroke="#383336" stroke-width="1.5"/>
<path d="M8.85098 25.5282L13.1276 23.2077C15.0689 22.1543 17.3504 21.9194 19.4656 22.5551L24.9041 24.1894C25.9319 24.4983 26.5543 25.5403 26.339 26.5917V26.5917C26.1031 27.7438 24.9576 28.4694 23.8152 28.1905L19.4095 27.1147" stroke="#383336" stroke-width="1.5" stroke-linecap="round"/>
<path d="M19.3613 18.7374L21.7851 14.3786C21.8237 14.3092 21.8996 14.2692 21.9787 14.2767L23.023 14.3754C23.0353 14.3765 23.0475 14.3788 23.0594 14.3822L24.5877 14.8208C24.6123 14.8279 24.6353 14.8396 24.6555 14.8554L25.3953 15.4325C25.4728 15.493 25.4949 15.6007 25.4474 15.6868L25.0813 16.3508L22.6204 20.6508C22.5421 20.7876 22.3437 20.7843 22.27 20.6449L21.4748 19.1411C21.4401 19.0756 21.3721 19.0346 21.298 19.0346H19.5361C19.3835 19.0346 19.2871 18.8707 19.3613 18.7374Z" stroke="#A8CF45" stroke-width="1.5" stroke-linecap="square"/>
<path d="M33.0952 18.7314L30.5563 14.1825C30.5093 14.0984 30.4091 14.0597 30.3178 14.0904L27.3193 15.1007C27.2645 15.1192 27.2204 15.1604 27.1983 15.2139L27.114 15.4182C27.0911 15.4737 27.0943 15.5366 27.1228 15.5894L29.8396 20.6306C29.9155 20.7714 30.1177 20.7706 30.1925 20.6292L30.9825 19.1353C31.0171 19.0698 31.0852 19.0288 31.1593 19.0288H32.9206C33.0732 19.0288 33.1696 18.8647 33.0952 18.7314Z" stroke="#A8CF45" stroke-width="1.5" stroke-linecap="square"/>
<path d="M20.8486 3.85815L21.2232 4.50787L20.8486 3.85815C19.9348 4.38505 19.3731 5.36253 19.3731 6.41512C19.3731 6.66942 19.306 6.92016 19.1795 7.13954C18.6538 8.05081 18.6538 9.17322 19.1795 10.0845C19.306 10.3039 19.3731 10.5546 19.3731 10.8089C19.3731 11.8615 19.9348 12.839 20.8486 13.3659C21.0698 13.4934 21.2556 13.6802 21.3832 13.9035C21.9043 14.8152 22.879 15.3853 23.9325 15.3853C24.1843 15.3853 24.432 15.4521 24.6492 15.5785C25.5581 16.1075 26.6812 16.1075 27.5902 15.5785C27.8074 15.4521 28.0551 15.3853 28.3069 15.3853C29.3604 15.3853 30.3351 14.8152 30.8562 13.9035C30.9838 13.6802 31.1696 13.4934 31.3908 13.3659C32.3046 12.839 32.8663 11.8615 32.8663 10.8089C32.8663 10.5546 32.9334 10.3039 33.0599 10.0845C33.5856 9.17322 33.5856 8.05081 33.0599 7.13954C32.9334 6.92016 32.8663 6.66942 32.8663 6.41512C32.8663 5.36253 32.3046 4.38505 31.3908 3.85815C31.1696 3.7306 30.9838 3.54381 30.8562 3.32056L30.2253 3.68114L30.8562 3.32056C30.3351 2.40879 29.3604 1.83875 28.3069 1.83875C28.0551 1.83875 27.8074 1.77197 27.5902 1.64556C26.6812 1.11652 25.5581 1.11652 24.6492 1.64556C24.432 1.77197 24.1843 1.83875 23.9325 1.83875C22.879 1.83875 21.9043 2.40879 21.3832 3.32056C21.2556 3.54381 21.0698 3.7306 20.8486 3.85815Z" fill="#F1F4E9" stroke="#A8CF45" stroke-width="1.5"/>
<path d="M26.011 12.8082C28.3861 12.8082 30.3059 10.8752 30.3059 8.49762C30.3059 6.12007 28.3861 4.18701 26.011 4.18701C23.6359 4.18701 21.7162 6.12007 21.7162 8.49762C21.7162 10.8752 23.6359 12.8082 26.011 12.8082Z" stroke="#A8CF45" stroke-width="1.5"/>
<path d="M23.8472 8.83467L24.7742 9.59939C24.9747 9.76486 25.2685 9.7491 25.4501 9.56315L27.75 7.20711" stroke="#A8CF45" stroke-width="1.5" stroke-linecap="round"/>
</svg>
