<svg width="24" height="24" viewBox="0 0 24 24" fill="none" xmlns="http://www.w3.org/2000/svg">
<g clip-path="url(#clip0_75_3074)">
<path d="M11 21H8C7.46957 21 6.96086 20.7893 6.58579 20.4142C6.21071 20.0391 6 19.5304 6 19V5C6 4.46957 6.21071 3.96086 6.58579 3.58579C6.96086 3.21071 7.46957 3 8 3H16C16.5304 3 17.0391 3.21071 17.4142 3.58579C17.7893 3.96086 18 4.46957 18 5V10" stroke="#979797" stroke-width="1.5" stroke-linecap="round" stroke-linejoin="round"/>
<path d="M11 4H13" stroke="#979797" stroke-width="1.5" stroke-linecap="round" stroke-linejoin="round"/>
<path d="M13.2441 14.8918H14.8918V13.2441L12.9694 11.3217C13.5844 11.028 14.2753 10.9322 14.9469 11.0475C15.6186 11.1627 16.238 11.4833 16.7199 11.9652C17.2017 12.4471 17.5224 13.0665 17.6376 13.7382C17.7528 14.4098 17.657 15.1007 17.3633 15.7156L20.6587 19.011C20.8772 19.2295 21 19.5259 21 19.8349C21 20.1439 20.8772 20.4402 20.6587 20.6587C20.4402 20.8772 20.1439 21 19.8349 21C19.5259 21 19.2295 20.8772 19.011 20.6587L15.7156 17.3633C15.1007 17.657 14.4098 17.7528 13.7382 17.6376C13.0665 17.5224 12.4471 17.2017 11.9652 16.7199C11.4833 16.238 11.1627 15.6186 11.0475 14.9469C10.9322 14.2753 11.028 13.5844 11.3217 12.9694L13.2441 14.8918Z" stroke="#979797" stroke-width="1.5" stroke-linecap="round" stroke-linejoin="round"/>
</g>
<defs>
<clipPath id="clip0_75_3074">
<rect width="24" height="24" fill="white"/>
</clipPath>
</defs>
</svg>
