<svg width="57" height="57" viewBox="0 0 57 57" fill="none" xmlns="http://www.w3.org/2000/svg">
<rect width="57" height="57" rx="10" fill="#F8F8F8"/>
<g clip-path="url(#clip0_29_32)">
<path d="M25.833 29.5837C25.833 30.4235 26.1666 31.229 26.7605 31.8228C27.3544 32.4167 28.1598 32.7503 28.9997 32.7503C29.8395 32.7503 30.645 32.4167 31.2388 31.8228C31.8327 31.229 32.1663 30.4235 32.1663 29.5837C32.1663 28.7438 31.8327 27.9384 31.2388 27.3445C30.645 26.7506 29.8395 26.417 28.9997 26.417C28.1598 26.417 27.3544 26.7506 26.7605 27.3445C26.1666 27.9384 25.833 28.7438 25.833 29.5837Z" stroke="#A8CF45" stroke-linecap="round" stroke-linejoin="round"/>
<path d="M22.667 41.25V39.6667C22.667 38.8268 23.0006 38.0214 23.5945 37.4275C24.1884 36.8336 24.9938 36.5 25.8337 36.5H32.167C33.0068 36.5 33.8123 36.8336 34.4062 37.4275C35 38.0214 35.3337 38.8268 35.3337 39.6667V41.25" stroke="#383336" stroke-linecap="round" stroke-linejoin="round"/>
<path d="M33.75 18.9167C33.75 19.7565 34.0836 20.562 34.6775 21.1558C35.2714 21.7497 36.0768 22.0833 36.9167 22.0833C37.7565 22.0833 38.562 21.7497 39.1558 21.1558C39.7497 20.562 40.0833 19.7565 40.0833 18.9167C40.0833 18.0768 39.7497 17.2714 39.1558 16.6775C38.562 16.0836 37.7565 15.75 36.9167 15.75C36.0768 15.75 35.2714 16.0836 34.6775 16.6775C34.0836 17.2714 33.75 18.0768 33.75 18.9167Z" stroke="#383336" stroke-linecap="round" stroke-linejoin="round"/>
<path d="M36.917 25.833H40.0837C40.9235 25.833 41.729 26.1666 42.3228 26.7605C42.9167 27.3544 43.2503 28.1598 43.2503 28.9997V30.583" stroke="#383336" stroke-linecap="round" stroke-linejoin="round"/>
<path d="M17.917 18.9167C17.917 19.7565 18.2506 20.562 18.8445 21.1558C19.4384 21.7497 20.2438 22.0833 21.0837 22.0833C21.9235 22.0833 22.729 21.7497 23.3228 21.1558C23.9167 20.562 24.2503 19.7565 24.2503 18.9167C24.2503 18.0768 23.9167 17.2714 23.3228 16.6775C22.729 16.0836 21.9235 15.75 21.0837 15.75C20.2438 15.75 19.4384 16.0836 18.8445 16.6775C18.2506 17.2714 17.917 18.0768 17.917 18.9167Z" stroke="#383336" stroke-linecap="round" stroke-linejoin="round"/>
<path d="M14.75 30.583V28.9997C14.75 28.1598 15.0836 27.3544 15.6775 26.7605C16.2714 26.1666 17.0768 25.833 17.9167 25.833H21.0833" stroke="#383336" stroke-linecap="round" stroke-linejoin="round"/>
</g>
<defs>
<clipPath id="clip0_29_32">
<rect width="38" height="38" fill="white" transform="translate(10 10)"/>
</clipPath>
</defs>
</svg>
