<svg width="37" height="38" viewBox="0 0 37 38" fill="none" xmlns="http://www.w3.org/2000/svg">
<path d="M17.9026 31.25C17.3456 31.25 16.7966 31.2159 16.2576 31.1498C9.71541 30.3475 4.65137 24.822 4.65137 18.125C4.65137 10.8763 10.5841 5 17.9026 5C25.221 5 31.1538 10.8763 31.1538 18.125C31.1538 19.2485 31.0113 20.3389 30.7432 21.3797C30.7193 21.4725 30.6944 21.5649 30.6685 21.6568" stroke="#A8CF45" stroke-linecap="round"/>
<path d="M31 14H31.8919C33.107 14 34.0919 14.985 34.0919 16.2V19.2375C34.0919 20.4525 33.107 21.4375 31.8919 21.4375H31" stroke="#A8CF45" stroke-linecap="square"/>
<path d="M5.0918 14H4.19985C2.98482 14 1.99985 14.985 1.99985 16.2V19.2375C1.99985 20.4525 2.98482 21.4375 4.19985 21.4375H5.0918" stroke="#A8CF45" stroke-linecap="round"/>
<path d="M20.0532 31.25C20.0532 31.9359 19.4905 32.5 18.7864 32.5C18.0822 32.5 17.5195 31.9359 17.5195 31.25C17.5195 30.5641 18.0822 30 18.7864 30C19.4905 30 20.0532 30.5641 20.0532 31.25Z" fill="white" stroke="#A8CF45"/>
<path d="M27.0455 18.0837C27.0455 19.7381 26.5989 21.2881 25.8187 22.6235C25.6805 22.86 25.7015 23.1375 25.7262 23.3107C25.7552 23.5135 25.8178 23.741 25.8926 23.9701C26.0321 24.3971 26.2394 24.9031 26.4387 25.3894C26.4537 25.426 26.4686 25.4624 26.4835 25.4987C26.7015 26.0312 26.9029 26.5311 27.0213 26.928C27.0528 27.0336 27.0761 27.1245 27.0921 27.2011C27.0412 27.1847 26.9827 27.1635 26.9163 27.1369C26.5656 26.9965 26.1246 26.759 25.6445 26.4972C25.6206 26.4842 25.5966 26.4711 25.5725 26.458C25.1291 26.216 24.6579 25.9589 24.2539 25.7857C24.0415 25.6946 23.8221 25.6153 23.6181 25.5772C23.435 25.5429 23.1491 25.519 22.9001 25.6809C21.4549 26.6208 19.7254 27.1678 17.865 27.1678C12.7901 27.1678 8.68457 23.096 8.68457 18.0837C8.68457 13.0713 12.7901 8.99951 17.865 8.99951C22.94 8.99951 27.0455 13.0713 27.0455 18.0837ZM27.118 27.4392C27.1178 27.439 27.118 27.4363 27.1191 27.4316C27.1186 27.4369 27.1181 27.4393 27.118 27.4392ZM27.3135 27.2497C27.3174 27.2493 27.3195 27.2493 27.3197 27.2494C27.3198 27.2495 27.3178 27.2498 27.3135 27.2497Z" stroke="#383336"/>
<path d="M14.7514 18.1252C14.7514 18.8111 14.1888 19.3752 13.4846 19.3752C12.7804 19.3752 12.2178 18.8111 12.2178 18.1252C12.2178 17.4394 12.7804 16.8752 13.4846 16.8752C14.1888 16.8752 14.7514 17.4394 14.7514 18.1252Z" stroke="#383336"/>
<path d="M19.1684 18.1252C19.1684 18.8111 18.6058 19.3752 17.9016 19.3752C17.1974 19.3752 16.6348 18.8111 16.6348 18.1252C16.6348 17.4394 17.1974 16.8752 17.9016 16.8752C18.6058 16.8752 19.1684 17.4394 19.1684 18.1252Z" stroke="#383336"/>
<path d="M23.5864 18.1252C23.5864 18.8111 23.0237 19.3752 22.3196 19.3752C21.6154 19.3752 21.0527 18.8111 21.0527 18.1252C21.0527 17.4394 21.6154 16.8752 22.3196 16.8752C23.0237 16.8752 23.5864 17.4394 23.5864 18.1252Z" stroke="#383336"/>
</svg>
