<svg width="24" height="24" viewBox="0 0 24 24" fill="none" xmlns="http://www.w3.org/2000/svg">
<g clip-path="url(#clip0_75_5923)">
<path d="M6 5C6 4.46957 6.21071 3.96086 6.58579 3.58579C6.96086 3.21071 7.46957 3 8 3H16C16.5304 3 17.0391 3.21071 17.4142 3.58579C17.7893 3.96086 18 4.46957 18 5V19C18 19.5304 17.7893 20.0391 17.4142 20.4142C17.0391 20.7893 16.5304 21 16 21H8C7.46957 21 6.96086 20.7893 6.58579 20.4142C6.21071 20.0391 6 19.5304 6 19V5Z" stroke="#A8CF45" stroke-width="1.5" stroke-linecap="round" stroke-linejoin="round"/>
<path d="M11 4H13" stroke="#A8CF45" stroke-width="1.5" stroke-linecap="round" stroke-linejoin="round"/>
<path d="M9 8V8.01" stroke="#A8CF45" stroke-width="1.5" stroke-linecap="round" stroke-linejoin="round"/>
<path d="M12 8V8.01" stroke="#A8CF45" stroke-width="1.5" stroke-linecap="round" stroke-linejoin="round"/>
<path d="M15 8V8.01" stroke="#A8CF45" stroke-width="1.5" stroke-linecap="round" stroke-linejoin="round"/>
<path d="M9 11V11.01" stroke="#A8CF45" stroke-width="1.5" stroke-linecap="round" stroke-linejoin="round"/>
<path d="M12 11V11.01" stroke="#A8CF45" stroke-width="1.5" stroke-linecap="round" stroke-linejoin="round"/>
<path d="M15 11V11.01" stroke="#A8CF45" stroke-width="1.5" stroke-linecap="round" stroke-linejoin="round"/>
<path d="M9 14V14.01" stroke="#A8CF45" stroke-width="1.5" stroke-linecap="round" stroke-linejoin="round"/>
<path d="M12 14V14.01" stroke="#A8CF45" stroke-width="1.5" stroke-linecap="round" stroke-linejoin="round"/>
<path d="M15 14V14.01" stroke="#A8CF45" stroke-width="1.5" stroke-linecap="round" stroke-linejoin="round"/>
<path d="M8.8 18.756C8.8 18.8253 8.77467 18.884 8.724 18.932C8.67333 18.9773 8.61467 19 8.548 19C8.47333 19 8.41333 18.9773 8.368 18.932C8.32267 18.884 8.3 18.8253 8.3 18.756V16.444C8.3 16.3747 8.324 16.3173 8.372 16.272C8.42 16.224 8.48133 16.2 8.556 16.2C8.62 16.2 8.676 16.224 8.724 16.272C8.77467 16.3173 8.8 16.3747 8.8 16.444V18.756ZM9.65356 16.196C9.6909 16.196 9.72956 16.2067 9.76956 16.228C9.81223 16.2467 9.84423 16.272 9.86556 16.304L10.8376 17.8L10.6376 17.792L11.6336 16.304C11.6842 16.232 11.7496 16.196 11.8296 16.196C11.8936 16.196 11.9509 16.2187 12.0016 16.264C12.0522 16.3093 12.0776 16.368 12.0776 16.44V18.756C12.0776 18.8253 12.0549 18.884 12.0096 18.932C11.9642 18.9773 11.9042 19 11.8296 19C11.7549 19 11.6936 18.9773 11.6456 18.932C11.6002 18.884 11.5776 18.8253 11.5776 18.756V16.872L11.7336 16.908L10.9176 18.152C10.8936 18.1813 10.8629 18.2067 10.8256 18.228C10.7909 18.2493 10.7549 18.2587 10.7176 18.256C10.6829 18.2587 10.6469 18.2493 10.6096 18.228C10.5749 18.2067 10.5456 18.1813 10.5216 18.152L9.75756 16.944L9.86156 16.732V18.756C9.86156 18.8253 9.84023 18.884 9.79756 18.932C9.7549 18.9773 9.6989 19 9.62956 19C9.5629 19 9.50823 18.9773 9.46556 18.932C9.4229 18.884 9.40156 18.8253 9.40156 18.756V16.44C9.40156 16.3733 9.42556 16.316 9.47356 16.268C9.52423 16.22 9.58423 16.196 9.65356 16.196ZM12.9229 16.2H14.2629C14.3322 16.2 14.3896 16.2227 14.4349 16.268C14.4829 16.3107 14.5069 16.3667 14.5069 16.436C14.5069 16.5027 14.4829 16.5573 14.4349 16.6C14.3896 16.64 14.3322 16.66 14.2629 16.66H13.1429L13.1789 16.592V17.372L13.1469 17.34H14.0829C14.1522 17.34 14.2096 17.3627 14.2549 17.408C14.3029 17.4507 14.3269 17.5067 14.3269 17.576C14.3269 17.6427 14.3029 17.6973 14.2549 17.74C14.2096 17.78 14.1522 17.8 14.0829 17.8H13.1589L13.1789 17.768V18.576L13.1469 18.54H14.2629C14.3322 18.54 14.3896 18.564 14.4349 18.612C14.4829 18.6573 14.5069 18.7107 14.5069 18.772C14.5069 18.8387 14.4829 18.8933 14.4349 18.936C14.3896 18.9787 14.3322 19 14.2629 19H12.9229C12.8536 19 12.7949 18.9773 12.7469 18.932C12.7016 18.884 12.6789 18.8253 12.6789 18.756V16.444C12.6789 16.3747 12.7016 16.3173 12.7469 16.272C12.7949 16.224 12.8536 16.2 12.9229 16.2ZM15.468 18.756C15.468 18.8253 15.4426 18.884 15.392 18.932C15.3413 18.9773 15.2826 19 15.216 19C15.1413 19 15.0813 18.9773 15.036 18.932C14.9906 18.884 14.968 18.8253 14.968 18.756V16.444C14.968 16.3747 14.992 16.3173 15.04 16.272C15.088 16.224 15.1493 16.2 15.224 16.2C15.288 16.2 15.344 16.224 15.392 16.272C15.4426 16.3173 15.468 16.3747 15.468 16.444V18.756Z" fill="#A8CF45"/>
</g>
<defs>
<clipPath id="clip0_75_5923">
<rect width="24" height="24" fill="white"/>
</clipPath>
</defs>
</svg>
