<svg width="105" height="78" viewBox="0 0 105 78" fill="none" xmlns="http://www.w3.org/2000/svg">
<path fill-rule="evenodd" clip-rule="evenodd" d="M25.8481 28.2524C25.9163 22.61 30.3738 18.1542 36.1732 18.087H50.4555C50.4555 23.7855 45.816 28.2524 40.0394 28.2524C36.8896 28.5323 36.2869 30.8162 36.1732 31.7566V56.1737C36.1732 61.7602 31.5223 66.3391 25.8481 66.3391V28.2524ZM93.9733 66.3279C89.9933 66.3279 86.5251 64.0889 84.8081 60.831C80.5211 64.268 75.0629 66.3279 69.1043 66.3279C55.3792 66.3279 44.2468 55.3676 44.2468 41.8548C44.2468 28.342 55.3792 17.3817 69.1043 17.3817C74.5398 17.3817 79.5545 19.0946 83.6368 21.9942V18.087H83.9097L84.1713 18.0982L84.4328 18.1094C84.5238 18.1169 84.611 18.1243 84.6943 18.1318L84.9559 18.1654L85.2061 18.199L85.4676 18.2438L85.7178 18.2885C85.8011 18.3035 85.8845 18.3221 85.9679 18.3445C86.1347 18.3818 86.2977 18.4229 86.4569 18.4677L86.7071 18.546L86.9459 18.6244C87.105 18.6766 87.2643 18.7326 87.4234 18.7923L87.6509 18.8819L87.8783 18.9826C88.0299 19.0498 88.1815 19.1207 88.3331 19.1954C88.4848 19.27 88.6326 19.3484 88.7766 19.4305L88.9813 19.5648C89.1936 19.6917 89.402 19.826 89.6067 19.9678C89.7432 20.0574 89.8758 20.1544 90.0047 20.2589C90.1336 20.3559 90.2625 20.4604 90.3913 20.5724L90.5733 20.7291L90.7552 20.8971C90.8765 21.009 90.994 21.1247 91.1077 21.2441L91.2783 21.4232L91.4375 21.6024C91.5512 21.7292 91.6573 21.8561 91.7559 21.983C91.862 22.1099 91.9606 22.2405 92.0516 22.3749C92.1956 22.5764 92.3358 22.7816 92.4723 22.9906L92.5974 23.2033C92.6808 23.3451 92.7604 23.4869 92.8362 23.6287C92.912 23.778 92.984 23.9273 93.0522 24.0765L93.1546 24.3005L93.2455 24.5244V24.5356C93.3062 24.6848 93.3668 24.8378 93.4275 24.9946L93.5071 25.2297L93.5753 25.476C93.6208 25.6327 93.6625 25.7932 93.7004 25.9574L93.7572 26.2037L93.8027 26.45V26.4612L93.8482 26.7075L93.8823 26.9538C93.8975 27.0433 93.9089 27.1292 93.9164 27.2113L93.9392 27.4688L93.9505 27.7262L93.9619 27.9837L93.9733 28.2524V66.3279ZM54.7766 41.8548C54.7766 49.6468 61.1899 55.961 69.1043 55.961C77.0187 55.961 83.4435 49.6468 83.4435 41.8548C83.4435 34.0628 77.0187 27.7374 69.1043 27.7374C61.1899 27.7374 54.7766 34.0628 54.7766 41.8548ZM10.9858 28.2412V27.9837L10.9972 27.7262L11.02 27.4688L11.0427 27.2113C11.0503 27.1217 11.0579 27.0359 11.0654 26.9538L11.0996 26.6963L11.145 26.45L11.1905 26.2037L11.2474 25.9574C11.2853 25.7932 11.327 25.629 11.3725 25.4648L11.4521 25.2297L11.5317 24.9946C11.5847 24.8378 11.6416 24.6811 11.7022 24.5244C12.6347 22.2965 14.0788 20.662 16.1825 19.4305C16.3265 19.3484 16.4706 19.27 16.6146 19.1954C16.7662 19.1207 16.9178 19.0498 17.0695 18.9826L17.2969 18.8819L17.5357 18.7811C17.6873 18.7214 17.8427 18.6655 18.0019 18.6132L18.2521 18.5348L18.4909 18.4677C18.6576 18.4229 18.8206 18.3781 18.9798 18.3333C19.0632 18.3184 19.1466 18.3035 19.23 18.2885L19.4915 18.2326L19.7417 18.199L20.0032 18.1542L20.2534 18.1318C20.3444 18.1243 20.4316 18.1169 20.515 18.1094L20.7765 18.087L21.0494 18.0758H21.3109V56.1625C21.3109 61.749 16.6601 66.3279 10.9858 66.3279V28.2412Z" fill="#2C2E35"/>
<path d="M11.3725 17.281C11.1223 16.2398 10.9858 15.165 10.9858 14.0455C10.9858 6.81328 16.5919 0.879731 23.7558 0.208008C24.0173 1.24918 24.1424 2.32394 24.1424 3.44348C24.1424 10.6757 18.5364 16.6092 11.3725 17.281Z" fill="#A3CF44"/>
<path fill-rule="evenodd" clip-rule="evenodd" d="M26.1777 72.463H30.1804V73.493H27.3262V74.5565H29.8393V75.5865H27.3262V76.6837H30.2145V77.7136H26.1777V72.463ZM32.8299 75.038L31.0446 72.463H32.4206L33.5349 74.1535L34.6607 72.463H35.9911L34.2172 75.0156L36.0707 77.7025H34.6948L33.5008 75.9L32.3068 77.7025H30.9764L32.8299 75.038ZM37.0487 72.463H39.2206C39.539 72.463 39.8232 72.504 40.0734 72.5861C40.3236 72.6757 40.5358 72.7989 40.7102 72.9556C40.8921 73.1198 41.0286 73.3138 41.1196 73.5378C41.2105 73.7542 41.256 73.9968 41.256 74.2655V74.2879C41.256 74.5939 41.203 74.8588 41.0968 75.0827C40.9831 75.3141 40.8277 75.5081 40.6306 75.6649C40.4335 75.8216 40.2061 75.9373 39.9483 76.0119C39.683 76.0866 39.4025 76.1239 39.1069 76.1239H38.2199V77.7025H37.0487V72.463ZM39.141 75.1051C39.4366 75.1051 39.6678 75.0268 39.8346 74.87C39.9938 74.7207 40.0734 74.5342 40.0734 74.3103V74.299C40.0734 74.0378 39.99 73.84 39.8232 73.7057C39.6489 73.5713 39.4139 73.5042 39.1182 73.5042H38.2199V75.1051H39.141ZM42.2226 72.463H43.3938V76.6613H46.0547V77.7025H42.2226V72.463ZM49.6253 77.792C49.2159 77.792 48.8369 77.7211 48.4881 77.5793C48.147 77.4375 47.8514 77.2434 47.6012 76.9971C47.351 76.7583 47.1539 76.4747 47.0099 76.1463C46.8734 75.8179 46.8052 75.4671 46.8052 75.0939V75.0827C46.8052 74.7095 46.8772 74.3588 47.0213 74.0304C47.1577 73.702 47.351 73.4146 47.6012 73.1683C47.8589 72.922 48.1584 72.728 48.4995 72.5861C48.8482 72.4443 49.2273 72.3734 49.6366 72.3734C50.046 72.3734 50.4251 72.4443 50.7738 72.5861C51.1149 72.728 51.4144 72.9183 51.6721 73.1571C51.9223 73.4034 52.1156 73.6908 52.252 74.0192C52.3885 74.3401 52.4567 74.6909 52.4567 75.0715V75.0827C52.4567 75.4559 52.3885 75.8067 52.252 76.1351C52.108 76.4635 51.9109 76.7508 51.6607 76.9971C51.4106 77.2434 51.1111 77.4375 50.7624 77.5793C50.4137 77.7211 50.0346 77.792 49.6253 77.792ZM49.6366 76.7284C49.8716 76.7284 50.0877 76.6874 50.2848 76.6053C50.4819 76.5157 50.6525 76.3963 50.7965 76.2471C50.933 76.0978 51.0391 75.9261 51.1149 75.7321C51.1983 75.5305 51.24 75.3178 51.24 75.0939V75.0827C51.24 74.8588 51.1983 74.6461 51.1149 74.4446C51.0391 74.2431 50.9292 74.0677 50.7851 73.9184C50.6411 73.7691 50.4705 73.6534 50.2734 73.5713C50.0763 73.4818 49.8603 73.437 49.6253 73.437C49.3903 73.437 49.1742 73.4781 48.9771 73.5602C48.78 73.6497 48.6132 73.7691 48.4768 73.9184C48.3327 74.0677 48.2228 74.2393 48.147 74.4334C48.0712 74.6349 48.0333 74.8476 48.0333 75.0715V75.0827C48.0333 75.3066 48.0712 75.5193 48.147 75.7209C48.2228 75.9224 48.3327 76.0978 48.4768 76.2471C48.6208 76.3963 48.7914 76.512 48.9885 76.5941C49.1856 76.6837 49.4016 76.7284 49.6366 76.7284ZM53.6052 72.463H56.0387C56.7134 72.463 57.2326 72.6384 57.5965 72.9892C57.8998 73.2952 58.0514 73.6945 58.0514 74.1871V74.2095C58.0514 74.6349 57.9452 74.9782 57.733 75.2395C57.5207 75.5082 57.2478 75.7059 56.9142 75.8328L58.2106 77.7025H56.846L55.6975 76.0232H54.7765V77.7025H53.6052V72.463ZM55.9704 75.0044C56.2585 75.0044 56.4784 74.9372 56.63 74.8028C56.7892 74.6685 56.8688 74.4894 56.8688 74.2655V74.2543C56.8688 74.0005 56.7854 73.8139 56.6186 73.6945C56.4594 73.5676 56.2358 73.5042 55.9477 73.5042H54.7765V75.0044H55.9704ZM59.2226 72.463H63.2253V73.493H60.3825V74.5565H62.8842V75.5753H60.3825V76.6837H63.2708V77.7025H59.2226V72.463ZM64.2032 76.5045H65.4313V77.7025H64.2032V76.5045ZM68.8768 72.463H70.139L71.5377 74.6797L72.9364 72.463H74.1986V77.7025H73.0501V74.2879L71.5491 76.5269H71.5149L70.0367 74.3103V77.7025H68.8768V72.463ZM78.1671 77.792C77.7578 77.792 77.3825 77.7211 77.0414 77.5793C76.6927 77.4375 76.3932 77.2472 76.1431 77.0083C75.8929 76.762 75.6996 76.4784 75.5631 76.1575C75.4191 75.8291 75.3471 75.4783 75.3471 75.1051V75.0827C75.3471 74.7095 75.4191 74.3588 75.5631 74.0304C75.7072 73.7094 75.9043 73.4221 76.1544 73.1683C76.4046 72.922 76.704 72.728 77.0527 72.5861C77.4015 72.4443 77.7805 72.3734 78.1899 72.3734C78.5992 72.3734 78.9745 72.4443 79.3156 72.5861C79.6643 72.728 79.9638 72.922 80.214 73.1683C80.4641 73.4072 80.6612 73.6908 80.8053 74.0192C80.9417 74.3476 81.0099 74.6984 81.0099 75.0715V75.0827C81.0099 75.4559 80.9379 75.8067 80.7939 76.1351C80.6499 76.4635 80.4528 76.7508 80.2026 76.9971C79.9524 77.2434 79.653 77.4375 79.3043 77.5793C78.9631 77.7211 78.5841 77.792 78.1671 77.792ZM78.1899 76.7284C78.4249 76.7284 78.6409 76.6874 78.838 76.6053C79.0351 76.5232 79.2019 76.4075 79.3384 76.2582C79.4824 76.109 79.5923 75.9336 79.6681 75.7321C79.7439 75.538 79.7819 75.329 79.7819 75.1051V75.0827C79.7819 74.8588 79.7439 74.6461 79.6681 74.4446C79.5923 74.2505 79.4786 74.0789 79.327 73.9296C79.183 73.7803 79.0124 73.6609 78.8153 73.5713C78.6182 73.4818 78.4021 73.437 78.1671 73.437C77.9321 73.437 77.7161 73.4818 77.519 73.5713C77.3295 73.6534 77.1627 73.7691 77.0186 73.9184C76.8822 74.0677 76.7723 74.2393 76.6889 74.4334C76.6131 74.6349 76.5752 74.8476 76.5752 75.0715V75.0827C76.5752 75.3066 76.6131 75.5193 76.6889 75.7209C76.7723 75.9224 76.886 76.0978 77.03 76.2471C77.174 76.3963 77.3446 76.5157 77.5417 76.6053C77.7312 76.6874 77.9473 76.7284 78.1899 76.7284ZM82.1584 72.463H84.5919C85.2666 72.463 85.7821 72.6421 86.1384 73.0004C86.4416 73.2989 86.5932 73.6982 86.5932 74.1983V74.2095C86.5932 74.6349 86.4909 74.982 86.2862 75.2507C86.0739 75.5119 85.7972 75.7059 85.4561 75.8328L86.7524 77.7025H85.3879L84.2508 76.0343H83.3297V77.7025H82.1584V72.463ZM84.5123 75.0156C84.8004 75.0156 85.024 74.9484 85.1832 74.814C85.3348 74.6797 85.4106 74.5006 85.4106 74.2767V74.2543C85.4106 74.008 85.331 73.8214 85.1718 73.6945C85.0051 73.5676 84.7776 73.5042 84.4896 73.5042H83.3297V75.0156H84.5123ZM87.7531 72.463H91.7672V73.493H88.913V74.5565H91.426V75.5865H88.913V76.6837H91.8013V77.7025H87.7531V72.463ZM92.7337 76.5157H93.9618V77.7136H92.7337V76.5157Z" fill="#2C2E35"/>
</svg>
