<svg width="52" height="40" viewBox="0 0 52 40" fill="none" xmlns="http://www.w3.org/2000/svg">
<g clip-path="url(#clip0_73_2044)">
<path fill-rule="evenodd" clip-rule="evenodd" d="M12.801 14.9948C12.8348 12.192 15.0423 9.97868 17.9143 9.94532H24.9875C24.9875 12.7759 22.6898 14.9948 19.829 14.9948C18.2691 15.1338 17.9707 16.2683 17.9143 16.7354V28.8642C17.9143 31.6392 15.6111 33.9136 12.801 33.9136V14.9948ZM46.5391 33.9081C44.5681 33.9081 42.8505 32.7959 42.0001 31.1776C39.8771 32.8848 37.174 33.9081 34.2231 33.9081C27.4259 33.9081 21.9127 28.4638 21.9127 21.7515C21.9127 15.0393 27.4259 9.59497 34.2231 9.59497C36.9149 9.59497 39.3984 10.4458 41.4201 11.8861V9.94532H41.5553L41.6848 9.95088L41.8143 9.95644C41.8594 9.96015 41.9025 9.96385 41.9438 9.96756L42.0733 9.98425L42.1972 10.0009L42.3268 10.0232L42.4507 10.0454C42.492 10.0528 42.5333 10.0621 42.5745 10.0732C42.6571 10.0918 42.7379 10.1121 42.8167 10.1344L42.9406 10.1733L43.0589 10.2123C43.1377 10.2382 43.2165 10.266 43.2954 10.2957L43.408 10.3402L43.5206 10.3902C43.5957 10.4236 43.6708 10.4588 43.7459 10.4959C43.821 10.5329 43.8942 10.5719 43.9655 10.6126L44.0669 10.6794C44.172 10.7424 44.2753 10.8091 44.3766 10.8796C44.4442 10.9241 44.5099 10.9723 44.5737 11.0242C44.6375 11.0724 44.7014 11.1243 44.7652 11.1799L44.8553 11.2577L44.9454 11.3411C45.0055 11.3968 45.0637 11.4542 45.12 11.5135L45.2044 11.6025L45.2833 11.6915C45.3396 11.7545 45.3922 11.8176 45.441 11.8806C45.4935 11.9436 45.5423 12.0085 45.5874 12.0752C45.6587 12.1753 45.7282 12.2773 45.7957 12.3811L45.8577 12.4867C45.899 12.5572 45.9384 12.6276 45.976 12.6981C46.0135 12.7722 46.0492 12.8464 46.083 12.9205L46.1336 13.0317L46.1787 13.1429V13.1485C46.2087 13.2227 46.2388 13.2987 46.2688 13.3765L46.3082 13.4933L46.342 13.6156C46.3645 13.6935 46.3852 13.7732 46.4039 13.8548L46.4321 13.9771L46.4546 14.0995V14.105L46.4772 14.2274L46.494 14.3497C46.5016 14.3942 46.5072 14.4368 46.5109 14.4776L46.5222 14.6055L46.5278 14.7334L46.5335 14.8613L46.5391 14.9948V33.9081ZM27.1274 21.7515C27.1274 25.622 30.3036 28.7585 34.2231 28.7585C38.1426 28.7585 41.3244 25.622 41.3244 21.7515C41.3244 17.881 38.1426 14.739 34.2231 14.739C30.3036 14.739 27.1274 17.881 27.1274 21.7515ZM5.44063 14.9892V14.8613L5.44626 14.7334L5.45753 14.6055L5.46879 14.4776C5.47254 14.4331 5.4763 14.3905 5.48005 14.3497L5.49695 14.2218L5.51947 14.0995L5.542 13.9771L5.57015 13.8548C5.58893 13.7732 5.60958 13.6916 5.6321 13.6101L5.67152 13.4933L5.71094 13.3765C5.73722 13.2987 5.76538 13.2208 5.79541 13.1429C6.25719 12.0363 6.97239 11.2244 8.01421 10.6126C8.08555 10.5719 8.15688 10.5329 8.22821 10.4959C8.3033 10.4588 8.37838 10.4236 8.45347 10.3902L8.5661 10.3402L8.68436 10.2901C8.75945 10.2604 8.83641 10.2326 8.91525 10.2067L9.03914 10.1678L9.1574 10.1344C9.24 10.1121 9.32072 10.0899 9.39956 10.0677C9.44085 10.0602 9.48215 10.0528 9.52345 10.0454L9.65297 10.0176L9.77686 10.0009L9.90639 9.97868L10.0303 9.96756C10.0753 9.96385 10.1185 9.96015 10.1598 9.95644L10.2893 9.94532L10.4245 9.93976H10.554V28.8586C10.554 31.6336 8.25074 33.9081 5.44063 33.9081V14.9892Z" fill="white"/>
<path d="M5.6321 9.54488C5.50821 9.0277 5.44063 8.49383 5.44063 7.93772C5.44063 4.34525 8.21694 1.39787 11.7648 1.06421C11.8943 1.58139 11.9562 2.11526 11.9562 2.67137C11.9562 6.26383 9.17992 9.21121 5.6321 9.54488Z" fill="#A3CF44"/>
<path fill-rule="evenodd" clip-rule="evenodd" d="M12.9643 36.9555H14.9466V37.4671H13.5331V37.9954H14.7776V38.507H13.5331V39.052H14.9634V39.5636H12.9643V36.9555ZM16.2587 38.2346L15.3745 36.9555H16.056L16.6078 37.7952L17.1654 36.9555H17.8242L16.9457 38.2234L17.8637 39.5581H17.1822L16.5909 38.6628L15.9996 39.5581H15.3408L16.2587 38.2346ZM18.348 36.9555H19.4236C19.5813 36.9555 19.722 36.9759 19.8459 37.0167C19.9698 37.0612 20.0749 37.1223 20.1613 37.2002C20.2514 37.2817 20.319 37.3781 20.364 37.4894C20.4091 37.5969 20.4316 37.7174 20.4316 37.8508V37.862C20.4316 38.014 20.4053 38.1456 20.3528 38.2568C20.2964 38.3717 20.2195 38.4681 20.1219 38.546C20.0243 38.6238 19.9116 38.6813 19.784 38.7184C19.6526 38.7554 19.5137 38.774 19.3673 38.774H18.928V39.5581H18.348V36.9555ZM19.3842 38.2679C19.5306 38.2679 19.6451 38.229 19.7277 38.1511C19.8065 38.077 19.8459 37.9843 19.8459 37.8731V37.8675C19.8459 37.7378 19.8046 37.6395 19.722 37.5728C19.6357 37.506 19.5193 37.4727 19.3729 37.4727H18.928V38.2679H19.3842ZM20.9103 36.9555H21.4903V39.0409H22.8081V39.5581H20.9103V36.9555ZM24.5764 39.6026C24.3736 39.6026 24.1859 39.5674 24.0132 39.4969C23.8443 39.4265 23.6979 39.3301 23.574 39.2077C23.4501 39.0891 23.3525 38.9482 23.2811 38.7851C23.2136 38.622 23.1798 38.4477 23.1798 38.2624V38.2568C23.1798 38.0714 23.2154 37.8972 23.2868 37.7341C23.3543 37.5709 23.4501 37.4282 23.574 37.3059C23.7016 37.1835 23.8499 37.0871 24.0189 37.0167C24.1915 36.9462 24.3793 36.911 24.582 36.911C24.7847 36.911 24.9724 36.9462 25.1451 37.0167C25.3141 37.0871 25.4624 37.1817 25.59 37.3003C25.7139 37.4226 25.8097 37.5654 25.8772 37.7285C25.9448 37.8879 25.9786 38.0622 25.9786 38.2512V38.2568C25.9786 38.4422 25.9448 38.6164 25.8772 38.7795C25.8059 38.9427 25.7083 39.0854 25.5844 39.2077C25.4605 39.3301 25.3122 39.4265 25.1395 39.4969C24.9668 39.5674 24.7791 39.6026 24.5764 39.6026ZM24.582 39.0743C24.6984 39.0743 24.8054 39.0539 24.903 39.0131C25.0006 38.9686 25.0851 38.9093 25.1564 38.8352C25.224 38.761 25.2765 38.6757 25.3141 38.5793C25.3554 38.4792 25.376 38.3736 25.376 38.2624V38.2568C25.376 38.1456 25.3554 38.0399 25.3141 37.9398C25.2765 37.8397 25.2221 37.7526 25.1508 37.6784C25.0794 37.6043 24.995 37.5468 24.8974 37.506C24.7997 37.4616 24.6927 37.4393 24.5764 37.4393C24.46 37.4393 24.353 37.4597 24.2554 37.5005C24.1578 37.545 24.0752 37.6043 24.0076 37.6784C23.9363 37.7526 23.8818 37.8379 23.8443 37.9342C23.8067 38.0343 23.788 38.14 23.788 38.2512V38.2568C23.788 38.368 23.8067 38.4737 23.8443 38.5738C23.8818 38.6739 23.9363 38.761 24.0076 38.8352C24.0789 38.9093 24.1634 38.9668 24.261 39.0075C24.3586 39.052 24.4656 39.0743 24.582 39.0743ZM26.5474 36.9555H27.7525C28.0866 36.9555 28.3438 37.0426 28.524 37.2169C28.6742 37.3689 28.7493 37.5672 28.7493 37.8119V37.823C28.7493 38.0343 28.6967 38.2049 28.5916 38.3347C28.4865 38.4681 28.3513 38.5664 28.1861 38.6294L28.8281 39.5581H28.1524L27.5836 38.7239H27.1274V39.5581H26.5474V36.9555ZM27.7187 38.2179C27.8614 38.2179 27.9703 38.1845 28.0454 38.1178C28.1242 38.051 28.1636 37.9621 28.1636 37.8508V37.8453C28.1636 37.7192 28.1223 37.6265 28.0397 37.5672C27.9609 37.5042 27.8501 37.4727 27.7075 37.4727H27.1274V38.2179H27.7187ZM29.3293 36.9555H31.3116V37.4671H29.9037V37.9954H31.1427V38.5015H29.9037V39.052H31.3341V39.5581H29.3293V36.9555ZM31.7959 38.963H32.4041V39.5581H31.7959V38.963ZM34.1104 36.9555H34.7355L35.4282 38.0566L36.1209 36.9555H36.746V39.5581H36.1772V37.862L35.4338 38.9742H35.4169L34.6849 37.8731V39.5581H34.1104V36.9555ZM38.7114 39.6026C38.5086 39.6026 38.3228 39.5674 38.1538 39.4969C37.9811 39.4265 37.8328 39.3319 37.709 39.2133C37.5851 39.091 37.4893 38.9501 37.4217 38.7907C37.3504 38.6275 37.3148 38.4533 37.3148 38.2679V38.2568C37.3148 38.0714 37.3504 37.8972 37.4217 37.7341C37.4931 37.5746 37.5907 37.4319 37.7146 37.3059C37.8385 37.1835 37.9868 37.0871 38.1595 37.0167C38.3322 36.9462 38.5199 36.911 38.7226 36.911C38.9254 36.911 39.1112 36.9462 39.2801 37.0167C39.4528 37.0871 39.6011 37.1835 39.725 37.3059C39.8489 37.4245 39.9465 37.5654 40.0179 37.7285C40.0854 37.8916 40.1192 38.0659 40.1192 38.2512V38.2568C40.1192 38.4422 40.0836 38.6164 40.0122 38.7795C39.9409 38.9427 39.8433 39.0854 39.7194 39.2077C39.5955 39.3301 39.4472 39.4265 39.2745 39.4969C39.1056 39.5674 38.9178 39.6026 38.7114 39.6026ZM38.7226 39.0743C38.839 39.0743 38.946 39.0539 39.0436 39.0131C39.1412 38.9723 39.2238 38.9149 39.2914 38.8407C39.3627 38.7666 39.4172 38.6794 39.4547 38.5793C39.4923 38.4829 39.511 38.3791 39.511 38.2679V38.2568C39.511 38.1456 39.4923 38.0399 39.4547 37.9398C39.4172 37.8434 39.3609 37.7581 39.2858 37.684C39.2144 37.6098 39.13 37.5505 39.0323 37.506C38.9347 37.4616 38.8277 37.4393 38.7114 37.4393C38.595 37.4393 38.488 37.4616 38.3904 37.506C38.2965 37.5468 38.2139 37.6043 38.1426 37.6784C38.075 37.7526 38.0206 37.8379 37.9793 37.9342C37.9417 38.0343 37.9229 38.14 37.9229 38.2512V38.2568C37.9229 38.368 37.9417 38.4737 37.9793 38.5738C38.0206 38.6739 38.0769 38.761 38.1482 38.8352C38.2195 38.9093 38.304 38.9686 38.4016 39.0131C38.4955 39.0539 38.6025 39.0743 38.7226 39.0743ZM40.688 36.9555H41.8931C42.2273 36.9555 42.4826 37.0445 42.659 37.2224C42.8092 37.3707 42.8843 37.5691 42.8843 37.8175V37.823C42.8843 38.0343 42.8336 38.2067 42.7322 38.3402C42.6271 38.47 42.4901 38.5664 42.3211 38.6294L42.9631 39.5581H42.2873L41.7242 38.7295H41.268V39.5581H40.688V36.9555ZM41.8537 38.2234C41.9964 38.2234 42.1071 38.1901 42.186 38.1233C42.2611 38.0566 42.2986 37.9676 42.2986 37.8564V37.8453C42.2986 37.7229 42.2592 37.6302 42.1803 37.5672C42.0977 37.5042 41.9851 37.4727 41.8425 37.4727H41.268V38.2234H41.8537ZM43.4587 36.9555H45.4466V37.4671H44.0331V37.9954H45.2776V38.507H44.0331V39.052H45.4635V39.5581H43.4587V36.9555ZM45.9253 38.9686H46.5335V39.5636H45.9253V38.9686Z" fill="white"/>
</g>
<defs>
<clipPath id="clip0_73_2044">
<rect width="51.9999" height="38.745" fill="white" transform="translate(0 0.960938)"/>
</clipPath>
</defs>
</svg>
