<svg width="24" height="24" viewBox="0 0 24 24" fill="none" xmlns="http://www.w3.org/2000/svg">
<g clip-path="url(#clip0_195_6659)">
<path d="M12 21H6C5.73478 21 5.48043 20.8946 5.29289 20.7071C5.10536 20.5196 5 20.2652 5 20V4C5 3.73478 5.10536 3.48043 5.29289 3.29289C5.48043 3.10536 5.73478 3 6 3H18C18.2652 3 18.5196 3.10536 18.7071 3.29289C18.8946 3.48043 19 3.73478 19 4V11.5" stroke="#A8CF45" stroke-width="1.5" stroke-linecap="round" stroke-linejoin="round"/>
<path d="M11 4H13" stroke="#A8CF45" stroke-width="1.5" stroke-linecap="round" stroke-linejoin="round"/>
<path d="M12 17V17.01" stroke="#A8CF45" stroke-width="1.5" stroke-linecap="round" stroke-linejoin="round"/>
<path d="M17.001 19C17.001 19.5304 17.2117 20.0391 17.5868 20.4142C17.9619 20.7893 18.4706 21 19.001 21C19.5314 21 20.0401 20.7893 20.4152 20.4142C20.7903 20.0391 21.001 19.5304 21.001 19C21.001 18.4696 20.7903 17.9609 20.4152 17.5858C20.0401 17.2107 19.5314 17 19.001 17C18.4706 17 17.9619 17.2107 17.5868 17.5858C17.2117 17.9609 17.001 18.4696 17.001 19Z" stroke="#A8CF45" stroke-width="1.5" stroke-linecap="round" stroke-linejoin="round"/>
<path d="M19.001 15.5V17" stroke="#A8CF45" stroke-width="1.5" stroke-linecap="round" stroke-linejoin="round"/>
<path d="M19.001 21V22.5" stroke="#A8CF45" stroke-width="1.5" stroke-linecap="round" stroke-linejoin="round"/>
<path d="M22.032 17.25L20.733 18" stroke="#A8CF45" stroke-width="1.5" stroke-linecap="round" stroke-linejoin="round"/>
<path d="M17.27 20L15.97 20.75" stroke="#A8CF45" stroke-width="1.5" stroke-linecap="round" stroke-linejoin="round"/>
<path d="M15.97 17.25L17.27 18" stroke="#A8CF45" stroke-width="1.5" stroke-linecap="round" stroke-linejoin="round"/>
<path d="M20.733 20L22.033 20.75" stroke="#A8CF45" stroke-width="1.5" stroke-linecap="round" stroke-linejoin="round"/>
</g>
<defs>
<clipPath id="clip0_195_6659">
<rect width="24" height="24" fill="white"/>
</clipPath>
</defs>
</svg>
