<svg width="37" height="38" viewBox="0 0 37 38" fill="none" xmlns="http://www.w3.org/2000/svg">
<path d="M12.8537 32.5762L7.27781 24.0183C7.24911 23.9743 7.1912 23.96 7.14529 23.9856L1.63498 27.0609C1.58441 27.0891 1.56831 27.1543 1.59993 27.2028L7.17585 35.7607C7.20455 35.8048 7.26246 35.8191 7.30837 35.7935L12.8187 32.7181C12.8693 32.6899 12.8853 32.6247 12.8537 32.5762Z" stroke="#383336" stroke-linecap="round"/>
<path d="M12.9132 31.8748L13.4468 31.6142C14.1465 31.2725 14.9516 31.2163 15.6919 31.4573L20.671 33.0783C22.9558 33.8222 25.4545 33.4924 27.4681 32.1813L34.5576 27.5651C35.5872 26.8947 35.8275 25.4894 35.0793 24.515V24.515C34.4689 23.7201 33.3832 23.4649 32.4826 23.9047L25.9083 27.1152" stroke="#383336"/>
<path d="M8.85098 25.5282L13.1276 23.2077C15.0689 22.1543 17.3504 21.9194 19.4656 22.5551L24.9041 24.1894C25.9319 24.4983 26.5543 25.5403 26.339 26.5917V26.5917C26.1031 27.7438 24.9576 28.4694 23.8152 28.1905L19.4095 27.1147" stroke="#383336" stroke-linecap="round"/>
<path d="M19.3613 18.7374L21.7851 14.3786C21.8237 14.3092 21.8996 14.2692 21.9787 14.2767L23.023 14.3754C23.0353 14.3765 23.0475 14.3788 23.0594 14.3822L24.5877 14.8208C24.6123 14.8279 24.6353 14.8396 24.6555 14.8554L25.3953 15.4325C25.4728 15.493 25.4949 15.6007 25.4474 15.6868L25.0813 16.3508L22.6204 20.6508C22.5421 20.7876 22.3437 20.7843 22.27 20.6449L21.4748 19.1411C21.4401 19.0756 21.3721 19.0346 21.298 19.0346H19.5361C19.3835 19.0346 19.2871 18.8707 19.3613 18.7374Z" stroke="#A8CF45" stroke-linecap="square"/>
<path d="M33.0952 18.7314L30.5563 14.1825C30.5093 14.0984 30.4091 14.0597 30.3178 14.0904L27.3193 15.1007C27.2645 15.1192 27.2204 15.1604 27.1983 15.2139L27.114 15.4182C27.0911 15.4737 27.0943 15.5366 27.1228 15.5894L29.8396 20.6306C29.9155 20.7714 30.1177 20.7706 30.1925 20.6292L30.9825 19.1353C31.0171 19.0698 31.0852 19.0288 31.1593 19.0288H32.9206C33.0732 19.0288 33.1696 18.8647 33.0952 18.7314Z" stroke="#A8CF45" stroke-linecap="square"/>
<path d="M30.6392 3.44461L30.2231 3.68244L30.6392 3.44461C30.1623 2.61024 29.2701 2.08875 28.3069 2.08875C28.011 2.08875 27.7199 2.0103 27.4645 1.86163C26.6332 1.37783 25.6062 1.37783 24.7749 1.86163C24.5195 2.0103 24.2284 2.08875 23.9325 2.08875C22.9693 2.08875 22.0771 2.61024 21.6002 3.44461C21.4508 3.70606 21.2333 3.92489 20.9735 4.07472C20.1374 4.5568 19.6231 5.45153 19.6231 6.41512C19.6231 6.7131 19.5446 7.00695 19.396 7.26446C18.9149 8.09842 18.9149 9.12561 19.396 9.95956C19.5446 10.2171 19.6231 10.5109 19.6231 10.8089C19.6231 11.7725 20.1374 12.6672 20.9735 13.1493C21.2333 13.2991 21.4508 13.518 21.6002 13.7794C22.0771 14.6138 22.9693 15.1353 23.9325 15.1353C24.2284 15.1353 24.5195 15.2137 24.7749 15.3624C25.6062 15.8462 26.6332 15.8462 27.4645 15.3624C27.7199 15.2137 28.011 15.1353 28.3069 15.1353C29.2701 15.1353 30.1623 14.6138 30.6392 13.7794C30.7886 13.518 31.0061 13.2991 31.2659 13.1493C32.102 12.6672 32.6163 11.7725 32.6163 10.8089C32.6163 10.5109 32.6948 10.2171 32.8434 9.95956C33.3245 9.12561 33.3245 8.09842 32.8434 7.26446C32.6948 7.00695 32.6163 6.7131 32.6163 6.41512C32.6163 5.45153 32.102 4.5568 31.2659 4.07472C31.0061 3.92489 30.7886 3.70606 30.6392 3.44461Z" fill="#F1F4E9" stroke="#A8CF45"/>
<path d="M26.011 12.5582C28.247 12.5582 30.0559 10.7381 30.0559 8.49762C30.0559 6.2571 28.247 4.43701 26.011 4.43701C23.775 4.43701 21.9662 6.2571 21.9662 8.49762C21.9662 10.7381 23.775 12.5582 26.011 12.5582Z" stroke="#A8CF45"/>
<path d="M23.8472 8.83467L24.7742 9.59939C24.9747 9.76486 25.2685 9.7491 25.4501 9.56315L27.75 7.20711" stroke="#A8CF45" stroke-linecap="round"/>
</svg>
