<svg width="1140" height="317" viewBox="0 0 1140 317" fill="none" xmlns="http://www.w3.org/2000/svg">
<rect width="1140" height="317" rx="20" fill="#FFEFF3"/>
<path fill-rule="evenodd" clip-rule="evenodd" d="M1036.1 197.037C1031.29 198.184 1025.87 192.698 1023.98 184.786C1022.09 176.873 1024.46 169.529 1029.27 168.382C1034.08 167.235 1039.5 172.72 1041.39 180.633C1043.28 188.545 1040.91 195.89 1036.1 197.037ZM1013.36 188.635C1016.99 195.918 1016.34 203.608 1011.91 205.81C1007.48 208.012 1000.96 203.893 997.336 196.61C993.712 189.327 994.363 181.637 998.788 179.436C1003.21 177.233 1009.74 181.353 1013.36 188.635ZM993.885 212.328C997.669 216.378 998.911 221.366 996.66 223.468C994.41 225.569 989.519 223.99 985.735 219.94C981.952 215.889 980.709 210.901 982.959 208.799C985.21 206.697 990.101 208.277 993.885 212.328ZM1070.97 228.906C1075.04 240.126 1068.63 240.075 1058.86 239.997C1052.9 239.95 1045.7 239.893 1038.86 242.373C1032.02 244.854 1026.52 249.516 1021.98 253.371C1014.53 259.694 1009.64 263.843 1005.57 252.623C999.025 234.564 1008.36 214.615 1026.41 208.065C1044.48 201.516 1064.42 210.847 1070.97 228.906ZM1059.13 200.814C1056.05 200.644 1053.81 196.019 1054.12 190.485C1054.42 184.951 1057.16 180.602 1060.24 180.773C1063.31 180.944 1065.56 185.569 1065.25 191.103C1064.94 196.638 1062.2 200.985 1059.13 200.814Z" fill="#FFE4EA"/>
<path d="M114.397 221.694C127.982 253.52 124.658 285.442 106.973 292.986C89.2916 300.532 63.9439 280.852 50.3588 249.023C36.7762 217.194 40.0961 185.27 57.778 177.722C75.4622 170.178 100.81 189.863 114.397 221.694Z" fill="#FFE8EE"/>
<path d="M442.599 221.694C429.014 253.52 432.339 285.442 450.023 292.986C467.703 300.532 493.048 280.852 506.64 249.023C520.225 217.194 516.903 185.27 499.219 177.722C481.537 170.178 456.187 189.863 442.599 221.694Z" fill="#FFE8EE"/>
<path d="M258.421 146.249C264.184 196.71 244 240.46 213.334 243.963C182.669 247.469 153.136 209.401 147.371 158.937C141.603 108.477 161.789 64.7288 192.452 61.2256C223.118 57.7201 252.651 95.788 258.421 146.249Z" fill="#FFE8EE"/>
<path d="M307.128 146.249C301.365 196.71 321.546 240.46 352.212 243.963C382.873 247.469 412.41 209.401 418.175 158.938C423.943 108.477 403.76 64.7292 373.091 61.2236C342.425 57.7205 312.893 95.7884 307.128 146.249Z" fill="#FFE8EE"/>
</svg>
