<svg width="20" height="20" viewBox="0 0 20 20" fill="none" xmlns="http://www.w3.org/2000/svg">
<g clip-path="url(#clip0_508_904)">
<path d="M3.3335 5.83335C3.3335 5.39133 3.50909 4.9674 3.82165 4.65484C4.13421 4.34228 4.55814 4.16669 5.00016 4.16669H15.0002C15.4422 4.16669 15.8661 4.34228 16.1787 4.65484C16.4912 4.9674 16.6668 5.39133 16.6668 5.83335V15.8334C16.6668 16.2754 16.4912 16.6993 16.1787 17.0119C15.8661 17.3244 15.4422 17.5 15.0002 17.5H5.00016C4.55814 17.5 4.13421 17.3244 3.82165 17.0119C3.50909 16.6993 3.3335 16.2754 3.3335 15.8334V5.83335Z" stroke="#757A80" stroke-width="1.25" stroke-linecap="round" stroke-linejoin="round"/>
<path d="M13.3335 2.5V5.83333" stroke="#757A80" stroke-width="1.25" stroke-linecap="round" stroke-linejoin="round"/>
<path d="M6.6665 2.5V5.83333" stroke="#757A80" stroke-width="1.25" stroke-linecap="round" stroke-linejoin="round"/>
<path d="M3.3335 9.16669H16.6668" stroke="#757A80" stroke-width="1.25" stroke-linecap="round" stroke-linejoin="round"/>
<path d="M6.6665 12.5H8.33317V14.1667H6.6665V12.5Z" stroke="#757A80" stroke-width="1.25" stroke-linecap="round" stroke-linejoin="round"/>
</g>
<defs>
<clipPath id="clip0_508_904">
<rect width="20" height="20" fill="white"/>
</clipPath>
</defs>
</svg>
