<svg width="70" height="65" viewBox="0 0 70 65" fill="none" xmlns="http://www.w3.org/2000/svg">
<circle cx="67.971" cy="2.02898" r="2.02898" fill="#FDD5DE"/>
<circle cx="54.7821" cy="2.02898" r="2.02898" fill="#FDD5DE"/>
<circle cx="41.5939" cy="2.02898" r="2.02898" fill="#FDD5DE"/>
<circle cx="28.4061" cy="2.02898" r="2.02898" fill="#FDD5DE"/>
<circle cx="15.2168" cy="2.02898" r="2.02898" fill="#FDD5DE"/>
<circle cx="2.02898" cy="2.02898" r="2.02898" fill="#FDD5DE"/>
<circle cx="67.971" cy="17.2464" r="2.02898" fill="#FDD5DE"/>
<circle cx="54.7821" cy="17.2464" r="2.02898" fill="#FDD5DE"/>
<circle cx="41.5939" cy="17.2464" r="2.02898" fill="#FDD5DE"/>
<circle cx="28.4061" cy="17.2464" r="2.02898" fill="#FDD5DE"/>
<circle cx="15.2168" cy="17.2464" r="2.02898" fill="#FDD5DE"/>
<circle cx="2.02898" cy="17.2464" r="2.02898" fill="#FDD5DE"/>
<circle cx="67.971" cy="32.4638" r="2.02898" fill="#FDD5DE"/>
<circle cx="54.7821" cy="32.4638" r="2.02898" fill="#FDD5DE"/>
<circle cx="41.5939" cy="32.4638" r="2.02898" fill="#FDD5DE"/>
<circle cx="28.4061" cy="32.4638" r="2.02898" fill="#FDD5DE"/>
<circle cx="15.2168" cy="32.4638" r="2.02898" fill="#FDD5DE"/>
<circle cx="2.02898" cy="32.4637" r="2.02898" fill="#FDD5DE"/>
<circle cx="67.971" cy="47.681" r="2.02898" fill="#FDD5DE"/>
<circle cx="54.7821" cy="47.681" r="2.02898" fill="#FDD5DE"/>
<circle cx="41.5939" cy="47.681" r="2.02898" fill="#FDD5DE"/>
<circle cx="28.4061" cy="47.681" r="2.02898" fill="#FDD5DE"/>
<circle cx="15.2168" cy="47.681" r="2.02898" fill="#FDD5DE"/>
<circle cx="2.02898" cy="47.681" r="2.02898" fill="#FDD5DE"/>
<circle cx="67.971" cy="62.8984" r="2.02898" fill="#FDD5DE"/>
<circle cx="54.7821" cy="62.8984" r="2.02898" fill="#FDD5DE"/>
<circle cx="41.5939" cy="62.8984" r="2.02898" fill="#FDD5DE"/>
<circle cx="28.4061" cy="62.8984" r="2.02898" fill="#FDD5DE"/>
<circle cx="15.2168" cy="62.8984" r="2.02898" fill="#FDD5DE"/>
<circle cx="2.02898" cy="62.8984" r="2.02898" fill="#FDD5DE"/>
</svg>
