<svg width="16" height="16" viewBox="0 0 16 16" fill="none" xmlns="http://www.w3.org/2000/svg">
<g clip-path="url(#clip0_482_5444)">
<rect width="16" height="16" rx="8" fill="#212529"/>
<path fill-rule="evenodd" clip-rule="evenodd" d="M4.14391 4.70008C4.79377 3.99116 5.87 4.31769 6.33097 5.16172C6.49219 5.45693 6.64196 5.7533 6.78027 6.05084C7.34677 7.28015 7.60654 8.31546 7.55928 9.15662C7.55055 9.20207 7.52782 9.24752 7.4911 9.29298C7.43872 9.35077 7.4002 9.38478 7.37566 9.39532C6.73211 9.60166 6.09473 9.65584 5.46337 9.55801C4.88288 9.45321 4.35172 9.21673 3.86993 8.84861C3.24841 8.37372 3.03545 7.54678 3.20082 6.78228C3.30712 6.29091 3.44164 5.86708 3.6044 5.51081C3.66347 5.38154 3.73981 5.26121 3.82287 5.14587L4.14391 4.70008V4.70008Z" fill="white"/>
<path fill-rule="evenodd" clip-rule="evenodd" d="M13.4929 6.25281C13.4341 6.17679 13.3676 6.11711 13.2934 6.07391C13.1723 6.0034 13.0257 6.00351 12.8856 6.0047C11.5762 6.01587 10.8309 5.81361 10.6494 5.39781C10.2873 4.52519 9.68664 3.96818 8.84728 3.72692C8.68399 3.68031 8.51788 3.64653 8.34895 3.6256C7.1409 3.47588 6.70827 4.94734 7.18678 6.06664V6.06664C7.7149 7.2523 7.95013 8.26654 7.89234 9.10951C7.89234 9.26333 7.83379 9.40931 7.7167 9.54748C7.61346 9.68744 7.48929 9.78015 7.34421 9.82576C6.89119 9.97776 6.27127 10.0216 5.48444 9.95684C5.00471 9.91638 4.50136 9.74877 3.97437 9.45401C3.46914 9.17143 2.74072 9.65031 2.54463 10.195V10.195C2.39199 10.6189 2.62325 10.9279 3.0227 11.1363C4.36966 11.8394 5.69307 12.315 6.99291 12.5631C7.90679 12.7375 8.74464 12.1178 9.00723 11.2252C9.03969 11.1149 9.05807 11.0549 9.06235 11.0453C9.14106 10.8406 9.18832 10.7243 9.20397 10.6964C9.2407 10.6353 9.28615 10.5784 9.34033 10.5259C9.45907 10.4088 9.59468 10.3388 9.74699 10.3159C10.6438 10.1936 11.4168 9.91561 12.0656 9.48186C13.0468 8.83153 13.5702 7.89841 13.6367 6.68295C13.6512 6.52914 13.6029 6.38571 13.4929 6.25281ZM9.60536 6.5624C9.50212 6.66384 9.3781 6.71441 9.23287 6.71441C9.08417 6.71441 8.95925 6.66384 8.85767 6.5624C8.75457 6.46096 8.70295 6.33589 8.70295 6.18734C8.70295 6.0403 8.75457 5.91614 8.85767 5.81485C8.9591 5.71341 9.08402 5.66254 9.23287 5.66254C9.3781 5.66254 9.50212 5.71326 9.60536 5.81485C9.70695 5.91614 9.75767 6.0403 9.75767 6.18734C9.75752 6.33574 9.7068 6.46096 9.60536 6.5624Z" fill="white"/>
</g>
<defs>
<clipPath id="clip0_482_5444">
<rect width="16" height="16" rx="8" fill="white"/>
</clipPath>
</defs>
</svg>
