<svg width="142" height="56" viewBox="0 0 142 56" fill="none" xmlns="http://www.w3.org/2000/svg">
<g clip-path="url(#clip0_273_1434)">
<rect width="56" height="56" rx="28" fill="white"/>
<path fill-rule="evenodd" clip-rule="evenodd" d="M17.044 14.2576C18.2101 13.4892 19.7209 13.9774 20.46 15.1623C21.7013 17.152 22.7915 19.1572 23.7308 21.1779C25.7135 25.4805 26.6227 29.104 26.4573 32.0481C26.4268 32.2072 26.3472 32.3663 26.2187 32.5253C26.0354 32.7276 25.9005 32.8467 25.8147 32.8835C23.5622 33.6057 21.3314 33.7954 19.1217 33.453C16.152 32.9168 13.5512 31.3961 11.3197 28.8911C10.7994 28.307 10.581 27.5178 10.6849 26.7426C11.1283 23.4348 11.8487 20.7894 12.8459 18.8065C12.9098 18.6796 12.985 18.5589 13.068 18.4435L14.5035 16.4502C15.3042 15.5768 16.1509 14.846 17.044 14.2576Z" fill="#212529"/>
<path fill-rule="evenodd" clip-rule="evenodd" d="M47.2251 21.8848C46.8989 21.463 46.5049 21.185 46.0436 21.0525C45.909 21.0139 45.7664 21.006 45.6264 21.0088C40.7163 21.1078 37.932 20.4025 37.273 18.8923C36.0056 15.8381 33.9033 13.8886 30.9655 13.0442C28.6484 12.3828 26.1694 12.46 23.5286 13.2758C22.3655 13.6351 21.9534 15.0118 22.5598 16.0674C23.5638 17.8151 24.4286 19.5368 25.1538 21.2332C27.0022 25.383 27.8255 28.9329 27.6232 31.8833C27.6232 32.4216 27.4183 32.9326 27.0085 33.4161C26.6472 33.906 26.2126 34.2305 25.7048 34.3901C24.1192 34.9222 21.9495 35.0754 19.1956 34.8489C17.2213 34.6824 15.1327 33.9006 12.9296 32.5035C11.6558 31.6957 9.88625 32.3271 9.49292 33.7832C9.30911 34.4637 9.12433 35.0665 8.93858 35.5918C8.54715 36.6987 8.88234 38.0709 9.91672 38.6263C16.2275 42.0145 22.3911 43.9808 28.4073 44.5246C29.3339 44.6083 30.1725 44.0002 30.4275 43.1054C31.2457 40.2353 31.6762 38.753 31.7183 38.6585C31.9938 37.9421 32.1592 37.5349 32.214 37.4374C32.3425 37.2236 32.5016 37.0245 32.6912 36.8406C33.1068 36.4308 33.5814 36.1859 34.1145 36.1058C37.2535 35.6775 39.9589 34.7046 42.2298 33.1865C45.6637 30.9103 47.4958 27.6444 47.7286 23.3903C47.7792 22.852 47.6101 22.35 47.2251 21.8848ZM33.6188 22.9684C33.2575 23.3234 32.8234 23.5004 32.3151 23.5004C31.7947 23.5004 31.3575 23.3234 31.0019 22.9684C30.6411 22.6133 30.4604 22.1756 30.4604 21.6557C30.4604 21.141 30.6411 20.7065 31.0019 20.352C31.3569 19.9969 31.7941 19.8189 32.3151 19.8189C32.8234 19.8189 33.2575 19.9964 33.6188 20.352C33.9744 20.7065 34.1519 21.141 34.1519 21.6557C34.1514 22.1751 33.9739 22.6133 33.6188 22.9684Z" fill="#212529"/>
</g>
<path d="M127.392 47.2104V33.3C127.392 32.2164 128.249 31.3596 129.332 31.3596H134.599C138.808 31.3596 141.353 33.8544 141.353 37.458V37.5084C141.353 41.5908 138.178 43.7076 134.221 43.7076H131.273V47.2104C131.273 48.294 130.416 49.1508 129.332 49.1508C128.249 49.1508 127.392 48.294 127.392 47.2104ZM131.273 40.2552H134.347C136.288 40.2552 137.422 39.096 137.422 37.584V37.5336C137.422 35.7948 136.212 34.8624 134.272 34.8624H131.273V40.2552Z" fill="white"/>
<path d="M114.55 49.3024C109.107 49.3024 105.201 45.2452 105.201 40.2304V40.18C105.201 35.1652 109.158 31.0576 114.601 31.0576C120.044 31.0576 123.95 35.1148 123.95 40.1296V40.18C123.95 45.1948 119.994 49.3024 114.55 49.3024ZM114.601 45.724C117.726 45.724 119.893 43.2544 119.893 40.2304V40.18C119.893 37.156 117.675 34.636 114.55 34.636C111.426 34.636 109.258 37.1056 109.258 40.1296V40.18C109.258 43.204 111.476 45.724 114.601 45.724Z" fill="white"/>
<path d="M86.8359 47.2106V33.149C86.8359 32.0654 87.6927 31.2086 88.7763 31.2086C89.8599 31.2086 90.7167 32.0654 90.7167 33.149V38.3402H97.8735V33.149C97.8735 32.0654 98.7303 31.2086 99.8139 31.2086C100.898 31.2086 101.754 32.0654 101.754 33.149V47.2106C101.754 48.2942 100.898 49.151 99.8139 49.151C98.7303 49.151 97.8735 48.2942 97.8735 47.2106V41.9186H90.7167V47.2106C90.7167 48.2942 89.8599 49.151 88.7763 49.151C87.6927 49.151 86.8359 48.2942 86.8359 47.2106Z" fill="white"/>
<path d="M76.9917 49.2513C74.6733 49.2513 72.3297 48.5457 70.3641 47.1345C69.9357 46.8321 69.6333 46.2777 69.6333 45.6729C69.6333 44.6649 70.4397 43.8837 71.4477 43.8837C71.9517 43.8837 72.3045 44.0601 72.5565 44.2365C73.8921 45.2193 75.3537 45.8241 77.0673 45.8241C78.6549 45.8241 79.6125 45.1941 79.6125 44.1609V44.1105C79.6125 43.1277 79.0077 42.6237 76.0593 41.8677C72.5061 40.9605 70.2129 39.9777 70.2129 36.4749V36.4245C70.2129 33.2241 72.7833 31.1073 76.3869 31.1073C78.5289 31.1073 80.3937 31.6617 81.9813 32.6697C82.4097 32.9217 82.8381 33.4509 82.8381 34.2069C82.8381 35.2149 82.0317 35.9961 81.0237 35.9961C80.6457 35.9961 80.3433 35.8953 80.0409 35.7189C78.7557 34.9629 77.5461 34.5345 76.3365 34.5345C74.8497 34.5345 74.0685 35.2149 74.0685 36.0717V36.1221C74.0685 37.2813 74.8245 37.6593 77.8737 38.4405C81.4521 39.3729 83.4681 40.6581 83.4681 43.7325V43.7829C83.4681 47.2857 80.7969 49.2513 76.9917 49.2513Z" fill="white"/>
<path d="M109.043 22.0105V9.73807H105.314C104.331 9.73807 103.524 8.93167 103.524 7.94887C103.524 6.96607 104.331 6.15967 105.314 6.15967H116.654C117.636 6.15967 118.443 6.96607 118.443 7.94887C118.443 8.93167 117.636 9.73807 116.654 9.73807H112.924V22.0105C112.924 23.0941 112.067 23.9509 110.984 23.9509C109.9 23.9509 109.043 23.0941 109.043 22.0105Z" fill="white"/>
<path d="M89.7422 23.7997C88.6586 23.7997 87.8018 22.9429 87.8018 21.8593V8.10007C87.8018 7.01647 88.6586 6.15967 89.7422 6.15967H99.5198C100.477 6.15967 101.259 6.94087 101.259 7.89847C101.259 8.85607 100.477 9.61207 99.5198 9.61207H91.6574V13.1905H98.3858C99.3434 13.1905 100.125 13.9717 100.125 14.9293C100.125 15.8869 99.3434 16.6429 98.3858 16.6429H91.6574V20.3473H99.6458C100.603 20.3473 101.385 21.1285 101.385 22.0861C101.385 23.0437 100.603 23.7997 99.6458 23.7997H89.7422Z" fill="white"/>
<path d="M70.7168 22.0105V8.10007C70.7168 7.01647 71.5736 6.15967 72.6572 6.15967H77.924C82.1324 6.15967 84.6776 8.65447 84.6776 12.2581V12.3085C84.6776 16.3909 81.5024 18.5077 77.546 18.5077H74.5976V22.0105C74.5976 23.0941 73.7408 23.9509 72.6572 23.9509C71.5736 23.9509 70.7168 23.0941 70.7168 22.0105ZM74.5976 15.0553H77.672C79.6124 15.0553 80.7464 13.8961 80.7464 12.3841V12.3337C80.7464 10.5949 79.5368 9.66247 77.5964 9.66247H74.5976V15.0553Z" fill="white"/>
<defs>
<clipPath id="clip0_273_1434">
<rect width="56" height="56" rx="28" fill="white"/>
</clipPath>
</defs>
</svg>
