<svg width="542" height="469" viewBox="0 0 542 469" fill="none" xmlns="http://www.w3.org/2000/svg">
<mask id="path-1-inside-1_558_797" fill="white">
<path fill-rule="evenodd" clip-rule="evenodd" d="M0 6C0 2.68629 2.6863 0 6.00001 0H536C539.314 0 542 2.68629 542 6V192.506C542 192.78 541.774 193 541.5 193C529.626 193 520 202.626 520 214.5C520 226.374 529.626 236 541.5 236C541.774 236 542 236.22 542 236.494V468.009C542 468.556 541.556 469 541.009 469H540.494C540.22 469 540 468.774 540 468.5C540 456.626 530.374 447 518.5 447C506.626 447 497 456.626 497 468.5C497 468.774 496.78 469 496.506 469H495.494C495.22 469 495 468.774 495 468.5C495 456.626 485.374 447 473.5 447C461.626 447 452 456.626 452 468.5C452 468.577 452 468.654 452.001 468.73C452.003 468.878 451.884 469 451.736 469H450.494C450.22 469 450 468.774 450 468.5C450 456.626 440.374 447 428.5 447C416.626 447 407 456.626 407 468.5C407 468.591 407.001 468.682 407.002 468.772C407.003 468.897 406.903 469 406.778 469H405.494C405.22 469 405 468.774 405 468.5C405 456.626 395.374 447 383.5 447C371.626 447 362 456.626 362 468.5C362 468.541 362 468.582 362 468.622L362.001 468.718C362.003 468.873 361.879 469 361.724 469H360.494C360.22 469 360 468.774 360 468.5C360 456.626 350.374 447 338.5 447C326.626 447 317 456.626 317 468.5C317 468.57 317 468.64 317.001 468.71C317.003 468.869 316.875 469 316.716 469H315.494C315.22 469 315 468.774 315 468.5C315 456.626 305.374 447 293.5 447C281.626 447 272 456.626 272 468.5C272 468.774 271.78 469 271.506 469H270.259C270.114 469 269.997 468.88 269.999 468.735C270 468.657 270 468.578 270 468.5C270 456.626 260.374 447 248.5 447C236.626 447 227 456.626 227 468.5C227 468.774 226.78 469 226.506 469H225.117C225.05 469 224.996 468.945 224.997 468.878L224.998 468.766C224.999 468.678 225 468.589 225 468.5C225 456.626 215.374 447 203.5 447C191.626 447 182 456.626 182 468.5C182 468.774 181.78 469 181.506 469H180.142C180.061 469 179.996 468.933 179.997 468.852C179.999 468.735 180 468.618 180 468.5C180 456.626 170.374 447 158.5 447C146.626 447 137 456.626 137 468.5C137 468.774 136.78 469 136.506 469H135.494C135.22 469 135 468.774 135 468.5C135 456.626 125.374 447 113.5 447C101.626 447 92 456.626 92 468.5C92 468.774 91.78 469 91.5057 469H90.4943C90.22 469 90 468.774 90 468.5C90 456.626 80.3741 447 68.5 447C56.6259 447 47 456.626 47 468.5C47 468.774 46.78 469 46.5057 469H45.4943C45.22 469 45 468.774 45 468.5C45 456.626 35.3741 447 23.5 447C11.6259 447 2 456.626 2 468.5C2 468.774 1.77996 469 1.50566 469H0.991408C0.443868 469 0 468.556 0 468.009V241.859C0 238.599 2.6554 236.02 5.77427 235.07C14.5877 232.385 21 224.191 21 214.5C21 204.809 14.5877 196.615 5.77427 193.93C2.6554 192.98 0 190.401 0 187.141V6Z"/>
</mask>
<path fill-rule="evenodd" clip-rule="evenodd" d="M0 6C0 2.68629 2.6863 0 6.00001 0H536C539.314 0 542 2.68629 542 6V192.506C542 192.78 541.774 193 541.5 193C529.626 193 520 202.626 520 214.5C520 226.374 529.626 236 541.5 236C541.774 236 542 236.22 542 236.494V468.009C542 468.556 541.556 469 541.009 469H540.494C540.22 469 540 468.774 540 468.5C540 456.626 530.374 447 518.5 447C506.626 447 497 456.626 497 468.5C497 468.774 496.78 469 496.506 469H495.494C495.22 469 495 468.774 495 468.5C495 456.626 485.374 447 473.5 447C461.626 447 452 456.626 452 468.5C452 468.577 452 468.654 452.001 468.73C452.003 468.878 451.884 469 451.736 469H450.494C450.22 469 450 468.774 450 468.5C450 456.626 440.374 447 428.5 447C416.626 447 407 456.626 407 468.5C407 468.591 407.001 468.682 407.002 468.772C407.003 468.897 406.903 469 406.778 469H405.494C405.22 469 405 468.774 405 468.5C405 456.626 395.374 447 383.5 447C371.626 447 362 456.626 362 468.5C362 468.541 362 468.582 362 468.622L362.001 468.718C362.003 468.873 361.879 469 361.724 469H360.494C360.22 469 360 468.774 360 468.5C360 456.626 350.374 447 338.5 447C326.626 447 317 456.626 317 468.5C317 468.57 317 468.64 317.001 468.71C317.003 468.869 316.875 469 316.716 469H315.494C315.22 469 315 468.774 315 468.5C315 456.626 305.374 447 293.5 447C281.626 447 272 456.626 272 468.5C272 468.774 271.78 469 271.506 469H270.259C270.114 469 269.997 468.88 269.999 468.735C270 468.657 270 468.578 270 468.5C270 456.626 260.374 447 248.5 447C236.626 447 227 456.626 227 468.5C227 468.774 226.78 469 226.506 469H225.117C225.05 469 224.996 468.945 224.997 468.878L224.998 468.766C224.999 468.678 225 468.589 225 468.5C225 456.626 215.374 447 203.5 447C191.626 447 182 456.626 182 468.5C182 468.774 181.78 469 181.506 469H180.142C180.061 469 179.996 468.933 179.997 468.852C179.999 468.735 180 468.618 180 468.5C180 456.626 170.374 447 158.5 447C146.626 447 137 456.626 137 468.5C137 468.774 136.78 469 136.506 469H135.494C135.22 469 135 468.774 135 468.5C135 456.626 125.374 447 113.5 447C101.626 447 92 456.626 92 468.5C92 468.774 91.78 469 91.5057 469H90.4943C90.22 469 90 468.774 90 468.5C90 456.626 80.3741 447 68.5 447C56.6259 447 47 456.626 47 468.5C47 468.774 46.78 469 46.5057 469H45.4943C45.22 469 45 468.774 45 468.5C45 456.626 35.3741 447 23.5 447C11.6259 447 2 456.626 2 468.5C2 468.774 1.77996 469 1.50566 469H0.991408C0.443868 469 0 468.556 0 468.009V241.859C0 238.599 2.6554 236.02 5.77427 235.07C14.5877 232.385 21 224.191 21 214.5C21 204.809 14.5877 196.615 5.77427 193.93C2.6554 192.98 0 190.401 0 187.141V6Z" fill="#F8FAFE"/>
<path d="M362 468.622L361 468.628L361 468.63L362 468.622ZM224.998 468.766L225.998 468.781L225.998 468.779L224.998 468.766ZM5.77427 193.93L6.06568 192.973L5.77427 193.93ZM5.77427 235.07L6.06568 236.027L5.77427 235.07ZM536 -1H6.00001V1H536V-1ZM543 192.506V6H541V192.506H543ZM521 214.5C521 203.178 530.178 194 541.5 194V192C529.074 192 519 202.074 519 214.5H521ZM541.5 235C530.178 235 521 225.822 521 214.5H519C519 226.926 529.074 237 541.5 237V235ZM543 468.009V236.494H541V468.009H543ZM540.494 470H541.009V468H540.494V470ZM518.5 448C529.822 448 539 457.178 539 468.5H541C541 456.074 530.926 446 518.5 446V448ZM498 468.5C498 457.178 507.178 448 518.5 448V446C506.074 446 496 456.074 496 468.5H498ZM495.494 470H496.506V468H495.494V470ZM473.5 448C484.822 448 494 457.178 494 468.5H496C496 456.074 485.926 446 473.5 446V448ZM453 468.5C453 457.178 462.178 448 473.5 448V446C461.074 446 451 456.074 451 468.5H453ZM453.001 468.72C453 468.647 453 468.573 453 468.5H451C451 468.58 451 468.661 451.001 468.741L453.001 468.72ZM450.494 470H451.736V468H450.494V470ZM428.5 448C439.822 448 449 457.178 449 468.5H451C451 456.074 440.926 446 428.5 446V448ZM408 468.5C408 457.178 417.178 448 428.5 448V446C416.074 446 406 456.074 406 468.5H408ZM408.002 468.76C408.001 468.673 408 468.587 408 468.5H406C406 468.595 406.001 468.69 406.002 468.785L408.002 468.76ZM405.494 470H406.778V468H405.494V470ZM383.5 448C394.822 448 404 457.178 404 468.5H406C406 456.074 395.926 446 383.5 446V448ZM363 468.5C363 457.178 372.178 448 383.5 448V446C371.074 446 361 456.074 361 468.5H363ZM363 468.617C363 468.578 363 468.539 363 468.5H361C361 468.543 361 468.585 361 468.628L363 468.617ZM363.001 468.711L363 468.615L361 468.63L361.001 468.726L363.001 468.711ZM360.494 470H361.724V468H360.494V470ZM338.5 448C349.822 448 359 457.178 359 468.5H361C361 456.074 350.926 446 338.5 446V448ZM318 468.5C318 457.178 327.178 448 338.5 448V446C326.074 446 316 456.074 316 468.5H318ZM318.001 468.7C318 468.634 318 468.567 318 468.5H316C316 468.573 316 468.646 316.001 468.719L318.001 468.7ZM315.494 470H316.716V468H315.494V470ZM293.5 448C304.822 448 314 457.178 314 468.5H316C316 456.074 305.926 446 293.5 446V448ZM273 468.5C273 457.178 282.178 448 293.5 448V446C281.074 446 271 456.074 271 468.5H273ZM270.259 470H271.506V468H270.259V470ZM269 468.5C269 468.575 269 468.65 268.999 468.724L270.999 468.746C271 468.664 271 468.582 271 468.5H269ZM248.5 448C259.822 448 269 457.178 269 468.5H271C271 456.074 260.926 446 248.5 446V448ZM228 468.5C228 457.178 237.178 448 248.5 448V446C236.074 446 226 456.074 226 468.5H228ZM225.117 470H226.506V468H225.117V470ZM223.998 468.752L223.997 468.863L225.997 468.892L225.998 468.781L223.998 468.752ZM224 468.5C224 468.585 223.999 468.67 223.998 468.754L225.998 468.779C225.999 468.686 226 468.593 226 468.5H224ZM203.5 448C214.822 448 224 457.178 224 468.5H226C226 456.074 215.926 446 203.5 446V448ZM183 468.5C183 457.178 192.178 448 203.5 448V446C191.074 446 181 456.074 181 468.5H183ZM180.142 470H181.506V468H180.142V470ZM179 468.5C179 468.612 178.999 468.724 178.997 468.836L180.997 468.868C180.999 468.746 181 468.623 181 468.5H179ZM158.5 448C169.822 448 179 457.178 179 468.5H181C181 456.074 170.926 446 158.5 446V448ZM138 468.5C138 457.178 147.178 448 158.5 448V446C146.074 446 136 456.074 136 468.5H138ZM135.494 470H136.506V468H135.494V470ZM113.5 448C124.822 448 134 457.178 134 468.5H136C136 456.074 125.926 446 113.5 446V448ZM93 468.5C93 457.178 102.178 448 113.5 448V446C101.074 446 91 456.074 91 468.5H93ZM90.4943 470H91.5057V468H90.4943V470ZM68.5 448C79.8218 448 89 457.178 89 468.5H91C91 456.074 80.9264 446 68.5 446V448ZM48 468.5C48 457.178 57.1782 448 68.5 448V446C56.0736 446 46 456.074 46 468.5H48ZM45.4943 470H46.5057V468H45.4943V470ZM23.5 448C34.8218 448 44 457.178 44 468.5H46C46 456.074 35.9264 446 23.5 446V448ZM3 468.5C3 457.178 12.1782 448 23.5 448V446C11.0736 446 1 456.074 1 468.5H3ZM0.991408 470H1.50566V468H0.991408V470ZM-1 241.859V468.009H1V241.859H-1ZM20 214.5C20 223.739 13.8871 231.553 5.48286 234.113L6.06568 236.027C15.2882 233.217 22 224.644 22 214.5H20ZM5.48286 194.887C13.8871 197.447 20 205.261 20 214.5H22C22 204.356 15.2882 195.783 6.06568 192.973L5.48286 194.887ZM-1 6V187.141H1V6H-1ZM6.06568 192.973C3.20713 192.103 1 189.814 1 187.141H-1C-1 190.989 2.10367 193.857 5.48286 194.887L6.06568 192.973ZM0.991408 468C0.990688 468 0.991025 468 0.992081 468C0.993079 468 0.994122 468.001 0.995061 468.001C0.996813 468.002 0.997434 468.002 0.997485 468.003C0.997535 468.003 0.998174 468.003 0.998915 468.005C0.999312 468.006 0.999637 468.007 0.999841 468.008C1.00006 468.009 1 468.009 1 468.009H-1C-1 469.108 -0.10842 470 0.991408 470V468ZM1 468.5C1 468.237 1.21292 468 1.50566 468V470C2.347 470 3 469.312 3 468.5H1ZM90.4943 468C90.7871 468 91 468.237 91 468.5H89C89 469.312 89.653 470 90.4943 470V468ZM135.494 468C135.787 468 136 468.237 136 468.5H134C134 469.312 134.653 470 135.494 470V468ZM180.142 468C180.624 468 181.005 468.395 180.997 468.868L178.997 468.836C178.987 469.471 179.498 470 180.142 470V468ZM541 192.506C541 192.213 541.237 192 541.5 192V194C542.312 194 543 193.347 543 192.506H541ZM225.117 468C225.612 468 226.005 468.407 225.997 468.895L223.997 468.86C223.986 469.483 224.487 470 225.117 470V468ZM270.259 468C270.678 468 271.003 468.343 270.999 468.746L268.999 468.724C268.991 469.418 269.55 470 270.259 470V468ZM136 468.5C136 468.237 136.213 468 136.506 468V470C137.347 470 138 469.312 138 468.5H136ZM315.494 468C315.787 468 316 468.237 316 468.5H314C314 469.312 314.653 470 315.494 470V468ZM316.001 468.719C315.997 468.331 316.31 468 316.716 468V470C317.439 470 318.008 469.407 318.001 468.7L316.001 468.719ZM540.494 468C540.787 468 541 468.237 541 468.5H539C539 469.312 539.653 470 540.494 470V468ZM181 468.5C181 468.237 181.213 468 181.506 468V470C182.347 470 183 469.312 183 468.5H181ZM360.494 468C360.787 468 361 468.237 361 468.5H359C359 469.312 359.653 470 360.494 470V468ZM271 468.5C271 468.237 271.213 468 271.506 468V470C272.347 470 273 469.312 273 468.5H271ZM91 468.5C91 468.237 91.2129 468 91.5057 468V470C92.347 470 93 469.312 93 468.5H91ZM450.494 468C450.787 468 451 468.237 451 468.5H449C449 469.312 449.653 470 450.494 470V468ZM1 241.859C1 239.186 3.20714 236.897 6.06568 236.027L5.48286 234.113C2.10367 235.143 -1 238.011 -1 241.859H1ZM361.001 468.728C360.997 468.335 361.314 468 361.724 468V470C362.443 470 363.008 469.411 363.001 468.709L361.001 468.728ZM451.001 468.741C450.997 468.34 451.32 468 451.736 468V470C452.448 470 453.008 469.416 453.001 468.72L451.001 468.741ZM541 468.009C541 468.009 541 468.009 541 468.008C541 468.007 541.001 468.006 541.001 468.005C541.002 468.003 541.002 468.003 541.003 468.003C541.003 468.002 541.003 468.002 541.005 468.001C541.006 468.001 541.007 468 541.008 468C541.009 468 541.009 468 541.009 468V470C542.108 470 543 469.108 543 468.009H541ZM226 468.5C226 468.237 226.213 468 226.506 468V470C227.347 470 228 469.312 228 468.5H226ZM6.00001 -1C2.13402 -1 -1 2.134 -1 6H1C1 3.23858 3.23859 1 6.00001 1V-1ZM46 468.5C46 468.237 46.2129 468 46.5057 468V470C47.347 470 48 469.312 48 468.5H46ZM406.002 468.785C405.996 468.359 406.339 468 406.778 468V470C407.467 470 408.01 469.435 408.002 468.76L406.002 468.785ZM495.494 468C495.787 468 496 468.237 496 468.5H494C494 469.312 494.653 470 495.494 470V468ZM45.4943 468C45.7871 468 46 468.237 46 468.5H44C44 469.312 44.653 470 45.4943 470V468ZM405.494 468C405.787 468 406 468.237 406 468.5H404C404 469.312 404.653 470 405.494 470V468ZM541.5 237C541.237 237 541 236.787 541 236.494H543C543 235.653 542.312 235 541.5 235V237ZM496 468.5C496 468.237 496.213 468 496.506 468V470C497.347 470 498 469.312 498 468.5H496ZM536 1C538.761 1 541 3.23858 541 6H543C543 2.13401 539.866 -1 536 -1V1Z" fill="#F0F0F0" mask="url(#path-1-inside-1_558_797)"/>
</svg>
