<svg width="20" height="20" viewBox="0 0 20 20" fill="none" xmlns="http://www.w3.org/2000/svg">
<g clip-path="url(#clip0_273_1425)">
<path d="M3.33301 6.66683C3.33301 5.78277 3.6842 4.93493 4.30932 4.30981C4.93444 3.68469 5.78229 3.3335 6.66634 3.3335H13.333C14.2171 3.3335 15.0649 3.68469 15.69 4.30981C16.3152 4.93493 16.6663 5.78277 16.6663 6.66683V13.3335C16.6663 14.2176 16.3152 15.0654 15.69 15.6905C15.0649 16.3156 14.2171 16.6668 13.333 16.6668H6.66634C5.78229 16.6668 4.93444 16.3156 4.30932 15.6905C3.6842 15.0654 3.33301 14.2176 3.33301 13.3335V6.66683Z" stroke="white" stroke-linecap="round" stroke-linejoin="round"/>
<path d="M7.5 10C7.5 10.663 7.76339 11.2989 8.23223 11.7678C8.70107 12.2366 9.33696 12.5 10 12.5C10.663 12.5 11.2989 12.2366 11.7678 11.7678C12.2366 11.2989 12.5 10.663 12.5 10C12.5 9.33696 12.2366 8.70107 11.7678 8.23223C11.2989 7.76339 10.663 7.5 10 7.5C9.33696 7.5 8.70107 7.76339 8.23223 8.23223C7.76339 8.70107 7.5 9.33696 7.5 10Z" stroke="white" stroke-linecap="round" stroke-linejoin="round"/>
<path d="M13.75 6.25V6.25833" stroke="white" stroke-linecap="round" stroke-linejoin="round"/>
</g>
<defs>
<clipPath id="clip0_273_1425">
<rect width="20" height="20" fill="white"/>
</clipPath>
</defs>
</svg>
