<svg width="102" height="40" viewBox="0 0 102 40" fill="none" xmlns="http://www.w3.org/2000/svg">
<g clip-path="url(#clip0_259_3663)">
<rect width="40" height="40" rx="20" fill="#212529"/>
<path fill-rule="evenodd" clip-rule="evenodd" d="M11.6205 10.581C12.7236 9.72465 14.2503 10.2149 14.9705 11.4114C15.711 12.6417 16.371 13.8803 16.9506 15.1271C18.3668 18.2004 19.0162 20.7887 18.8981 22.8916C18.8763 23.0052 18.8195 23.1188 18.7277 23.2324C18.5967 23.3769 18.5004 23.462 18.4391 23.4883C16.8302 24.0041 15.2367 24.1396 13.6583 23.895C11.6407 23.5308 9.86145 22.5302 8.32081 20.8935C7.78469 20.324 7.56791 19.5308 7.68027 18.7567C7.99564 16.584 8.48505 14.8277 9.1485 13.4878C9.21157 13.3604 9.2869 13.2399 9.36996 13.1245L10.3597 11.7502C10.7635 11.3097 11.1837 10.92 11.6205 10.581Z" fill="white"/>
<path fill-rule="evenodd" clip-rule="evenodd" d="M33.7321 15.632C33.5128 15.3484 33.2505 15.1558 32.9457 15.0553C32.8127 15.0114 32.6701 15.0049 32.53 15.0075C29.0602 15.0713 27.0915 14.567 26.6234 13.4945C25.7182 11.313 24.2165 9.92045 22.1181 9.31731C20.65 8.89821 19.0908 8.89427 17.4407 9.30548C16.2595 9.59983 15.8489 10.9854 16.4375 12.0508C17.0186 13.1026 17.5285 14.1411 17.9669 15.1666C19.2872 18.1308 19.8753 20.6664 19.7308 22.7738C19.7308 23.1583 19.5844 23.5233 19.2917 23.8687C19.0336 24.2186 18.7232 24.4504 18.3605 24.5644C17.2279 24.9444 15.6781 25.0539 13.711 24.8921C12.5117 24.7909 11.2533 24.3719 9.93586 23.635C8.67279 22.9286 6.85174 24.1258 6.36151 25.4874C5.97993 26.5473 6.55806 27.3196 7.55669 27.8409C11.7418 30.0253 15.8359 31.3314 19.839 31.7588C20.7641 31.8575 21.603 31.2477 21.8584 30.3531C22.362 28.589 22.628 27.6758 22.6558 27.6132C22.8526 27.1015 22.9707 26.8107 23.0099 26.741C23.1017 26.5883 23.2153 26.4461 23.3508 26.3147C23.6476 26.022 23.9866 25.8471 24.3674 25.7899C26.6095 25.484 28.542 24.789 30.164 23.7046C32.6169 22.0788 33.9255 19.746 34.0918 16.7074C34.1279 16.3228 34.0071 15.9643 33.7321 15.632ZM24.0133 16.406C23.7552 16.6596 23.4452 16.786 23.0821 16.786C22.7104 16.786 22.3981 16.6596 22.1441 16.406C21.8864 16.1524 21.7573 15.8397 21.7573 15.4684C21.7573 15.1008 21.8864 14.7903 22.1441 14.5371C22.3977 14.2835 22.71 14.1564 23.0821 14.1564C23.4452 14.1564 23.7552 14.2832 24.0133 14.5371C24.2673 14.7903 24.3941 15.1008 24.3941 15.4684C24.3937 15.8394 24.2669 16.1524 24.0133 16.406Z" fill="white"/>
</g>
<path d="M50.512 15.722V5.786C50.512 5.012 51.124 4.4 51.898 4.4H55.66C58.666 4.4 60.484 6.182 60.484 8.756V8.792C60.484 11.708 58.216 13.22 55.39 13.22H53.284V15.722C53.284 16.496 52.672 17.108 51.898 17.108C51.124 17.108 50.512 16.496 50.512 15.722ZM53.284 10.754H55.48C56.866 10.754 57.676 9.926 57.676 8.846V8.81C57.676 7.568 56.812 6.902 55.426 6.902H53.284V10.754ZM64.1014 17C63.3274 17 62.7154 16.388 62.7154 15.614V5.786C62.7154 5.012 63.3274 4.4 64.1014 4.4H71.0854C71.7694 4.4 72.3274 4.958 72.3274 5.642C72.3274 6.326 71.7694 6.866 71.0854 6.866H65.4694V9.422H70.2754C70.9594 9.422 71.5174 9.98 71.5174 10.664C71.5174 11.348 70.9594 11.888 70.2754 11.888H65.4694V14.534H71.1754C71.8594 14.534 72.4174 15.092 72.4174 15.776C72.4174 16.46 71.8594 17 71.1754 17H64.1014ZM77.888 15.722V6.956H75.224C74.522 6.956 73.946 6.38 73.946 5.678C73.946 4.976 74.522 4.4 75.224 4.4H83.324C84.026 4.4 84.602 4.976 84.602 5.678C84.602 6.38 84.026 6.956 83.324 6.956H80.66V15.722C80.66 16.496 80.048 17.108 79.274 17.108C78.5 17.108 77.888 16.496 77.888 15.722ZM54.994 35.18C53.338 35.18 51.664 34.676 50.26 33.668C49.954 33.452 49.738 33.056 49.738 32.624C49.738 31.904 50.314 31.346 51.034 31.346C51.394 31.346 51.646 31.472 51.826 31.598C52.78 32.3 53.824 32.732 55.048 32.732C56.182 32.732 56.866 32.282 56.866 31.544V31.508C56.866 30.806 56.434 30.446 54.328 29.906C51.79 29.258 50.152 28.556 50.152 26.054V26.018C50.152 23.732 51.988 22.22 54.562 22.22C56.092 22.22 57.424 22.616 58.558 23.336C58.864 23.516 59.17 23.894 59.17 24.434C59.17 25.154 58.594 25.712 57.874 25.712C57.604 25.712 57.388 25.64 57.172 25.514C56.254 24.974 55.39 24.668 54.526 24.668C53.464 24.668 52.906 25.154 52.906 25.766V25.802C52.906 26.63 53.446 26.9 55.624 27.458C58.18 28.124 59.62 29.042 59.62 31.238V31.274C59.62 33.776 57.712 35.18 54.994 35.18ZM62.0257 33.722V23.678C62.0257 22.904 62.6377 22.292 63.4117 22.292C64.1857 22.292 64.7977 22.904 64.7977 23.678V27.386H69.9097V23.678C69.9097 22.904 70.5217 22.292 71.2957 22.292C72.0697 22.292 72.6817 22.904 72.6817 23.678V33.722C72.6817 34.496 72.0697 35.108 71.2957 35.108C70.5217 35.108 69.9097 34.496 69.9097 33.722V29.942H64.7977V33.722C64.7977 34.496 64.1857 35.108 63.4117 35.108C62.6377 35.108 62.0257 34.496 62.0257 33.722ZM81.8215 35.216C77.9335 35.216 75.1435 32.318 75.1435 28.736V28.7C75.1435 25.118 77.9695 22.184 81.8575 22.184C85.7455 22.184 88.5355 25.082 88.5355 28.664V28.7C88.5355 32.282 85.7095 35.216 81.8215 35.216ZM81.8575 32.66C84.0895 32.66 85.6375 30.896 85.6375 28.736V28.7C85.6375 26.54 84.0535 24.74 81.8215 24.74C79.5895 24.74 78.0415 26.504 78.0415 28.664V28.7C78.0415 30.86 79.6255 32.66 81.8575 32.66ZM90.9944 33.722V23.786C90.9944 23.012 91.6064 22.4 92.3804 22.4H96.1424C99.1484 22.4 100.966 24.182 100.966 26.756V26.792C100.966 29.708 98.6984 31.22 95.8724 31.22H93.7664V33.722C93.7664 34.496 93.1544 35.108 92.3804 35.108C91.6064 35.108 90.9944 34.496 90.9944 33.722ZM93.7664 28.754H95.9624C97.3484 28.754 98.1584 27.926 98.1584 26.846V26.81C98.1584 25.568 97.2944 24.902 95.9084 24.902H93.7664V28.754Z" fill="#212529"/>
<defs>
<clipPath id="clip0_259_3663">
<rect width="40" height="40" rx="20" fill="white"/>
</clipPath>
</defs>
</svg>
