<svg width="69" height="69" viewBox="0 0 69 69" fill="none" xmlns="http://www.w3.org/2000/svg">
<path fill-rule="evenodd" clip-rule="evenodd" d="M41.409 21.9175C37.7962 22.7793 33.7183 18.658 32.3 12.7131C30.882 6.76809 32.6611 1.24999 36.2739 0.388181C39.8871 -0.473453 43.9652 3.64752 45.3829 9.59261C46.8011 15.5379 45.0214 21.0562 41.409 21.9175ZM24.3249 15.6053C27.047 21.0773 26.5587 26.8547 23.2332 28.5091C19.9079 30.1637 15.0053 27.0689 12.2827 21.5966C9.56003 16.1248 10.0488 10.3476 13.3739 8.69334C16.6992 7.03865 21.6019 10.1335 24.3249 15.6053ZM9.69011 33.4064C12.5327 36.4495 13.4662 40.1971 11.7751 41.776C10.0844 43.3551 6.4095 42.1687 3.56686 39.1253C0.724494 36.0819 -0.209658 32.3342 1.48093 30.7549C3.172 29.176 6.8471 30.3629 9.69011 33.4064ZM67.6087 45.8617C70.6659 54.2917 65.8484 54.2535 58.5071 54.1952C54.0315 54.1596 48.618 54.1167 43.4788 55.9804C38.3399 57.8441 34.2124 61.3472 30.8 64.2433C25.2026 68.994 21.5294 72.1115 18.4722 63.6815C13.5515 50.1131 20.562 35.1244 34.1307 30.2036C47.6999 25.2827 62.688 32.2934 67.6087 45.8617ZM58.7074 24.7557C56.3974 24.6278 54.7116 21.153 54.9427 16.9953C55.1739 12.8369 57.2341 9.56997 59.5439 9.69794C61.8541 9.82637 63.5397 13.3015 63.3087 17.4595C63.0768 21.6178 61.017 24.884 58.7074 24.7557Z" fill="#FFE7ED"/>
</svg>
