<svg width="69" height="70" viewBox="0 0 69 70" fill="none" xmlns="http://www.w3.org/2000/svg">
<path fill-rule="evenodd" clip-rule="evenodd" d="M41.4107 22.5779C37.7979 23.4397 33.72 19.3184 32.3017 13.3735C30.8837 7.42849 32.6628 1.91039 36.2756 1.04858C39.8888 0.186947 43.9669 4.30792 45.3847 10.253C46.8028 16.1983 45.0231 21.7166 41.4107 22.5779ZM24.3266 16.2657C27.0487 21.7377 26.5604 27.5151 23.235 29.1695C19.9097 30.8241 15.007 27.7293 12.2844 22.257C9.56174 16.7852 10.0505 11.008 13.3756 9.35374C16.7009 7.69906 21.6036 10.7939 24.3266 16.2657ZM9.69182 34.0668C12.5344 37.1099 13.4679 40.8575 11.7768 42.4364C10.0861 44.0155 6.41121 42.8291 3.56857 39.7857C0.726203 36.7423 -0.207949 32.9946 1.48264 31.4153C3.17371 29.8364 6.8488 31.0233 9.69182 34.0668ZM67.6104 46.5221C70.6676 54.9521 65.8501 54.9139 58.5088 54.8556C54.0332 54.82 48.6197 54.7771 43.4806 56.6408C38.3416 58.5045 34.2141 62.0076 30.8017 64.9037C25.2044 69.6544 21.5311 72.7719 18.4739 64.3419C13.5532 50.7735 20.5638 35.7848 34.1324 30.864C47.7016 25.9431 62.6898 32.9538 67.6104 46.5221ZM58.7091 25.4161C56.3991 25.2882 54.7133 21.8134 54.9444 17.6557C55.1756 13.4973 57.2358 10.2304 59.5456 10.3583C61.8558 10.4868 63.5414 13.9619 63.3104 18.1199C63.0785 22.2782 61.0187 25.5444 58.7091 25.4161Z" fill="#FDF3F6"/>
</svg>
