<svg width="155" height="161" viewBox="0 0 155 161" fill="none" xmlns="http://www.w3.org/2000/svg">
<g clip-path="url(#clip0_261_1424)">
<path d="M96.5078 24.3422C96.2586 24.3804 95.998 24.4542 95.7259 24.5636C94.6605 24.9302 93.7428 25.6982 92.752 26.3247C90.9837 27.5281 89.0692 28.4486 87.103 29.0377C86.721 29.8595 85.7873 30.3077 85.0353 30.0665C84.7935 30.6972 84.5274 31.2807 84.2857 31.9114C81.5022 33.6942 78.9883 36.1143 77.0145 38.9437C76.6092 38.853 76.1565 38.7865 75.7397 38.7316C74.4728 40.0958 73.2532 41.4358 71.9863 42.8001C71.5222 42.7693 71.0497 43.0112 70.5771 43.2531C69.6206 43.7726 68.6641 44.2921 67.9499 45.1647C67.0366 46.2882 66.6879 47.8682 65.7746 48.9918C65.2707 49.5778 64.6579 50.0107 64.2257 50.6197C63.8635 51.1331 63.682 51.8224 63.8555 52.3896C63.7267 52.545 63.5735 52.6532 63.4447 52.8086C62.2345 53.0107 61.0532 53.6155 60.1026 54.609C59.7704 54.6598 59.4023 54.6992 59.0815 54.7143C58.2454 55.3511 57.4092 55.9879 56.5731 56.6247C56.0245 56.4881 55.4644 56.3872 54.9158 56.2506C54.0309 56.793 53.1819 57.347 52.2855 57.9251C52.9804 58.3447 53.628 58.7885 54.3113 59.2437C54.2457 59.6948 53.9537 60.1126 53.5642 60.3418C53.2682 61.3879 52.9722 62.434 52.6762 63.4801C52.2654 63.8992 51.8073 64.3424 51.3964 64.7615L50.6334 65.5398C50.4459 65.7551 50.2225 65.9588 50.0464 66.1384C50.035 66.1741 49.9877 66.1983 49.9877 66.1983C49.184 65.6258 48.3001 65.303 47.3476 65.1942C47.3367 66.2137 47.3729 67.209 47.3619 68.2284C46.0921 69.3556 44.8107 70.5185 43.5408 71.6457C43.7403 72.3785 42.9887 73.1211 42.3112 73.1399C41.6338 73.1588 41.0807 72.6666 40.552 72.2216C40.4381 73.5622 39.7053 74.8617 38.6802 75.5952C39.0413 75.9471 38.8483 76.6721 38.4847 77.067C38.121 77.4619 37.5998 77.6095 37.1745 77.8272C35.8514 78.5045 34.8451 79.795 33.8618 81.0141C33.2534 81.8026 32.6451 82.5911 32.0367 83.3797C30.5509 85.3032 28.5659 85.3355 26.9597 87.1417C26.7722 87.357 26.7727 88.3408 26.6985 89.0646C26.405 89.3639 26.0872 89.6161 25.7937 89.9154C25.7107 89.9281 25.6748 89.9166 25.5918 89.9294C24.7482 89.9736 23.444 91.2078 23.4082 91.1963C23.4082 91.1963 23.0461 91.7097 22.8501 92.1977L22.7183 92.1161C22.8785 91.6166 23.0745 91.1286 23.2704 90.6407C23.3276 90.4623 23.4207 90.2954 23.4779 90.117C23.8927 89.0697 24.3549 87.9982 24.8414 86.9739C24.9458 86.7713 25.0145 86.5572 25.1075 86.3903C25.2119 86.1878 25.3164 85.9852 25.3736 85.8068C25.8601 84.7825 26.3824 83.7696 26.8689 82.7453C27.0549 82.4115 27.1937 82.1019 27.3683 81.8038C27.7046 81.1247 28.0881 80.4215 28.4602 79.7539C28.6805 79.3131 28.9367 78.8837 29.1929 78.4544C29.4018 78.0492 29.6465 77.6556 29.8913 77.2619C29.9027 77.2263 29.9142 77.1906 29.9614 77.1664C30.6941 75.8669 31.4985 74.5904 32.267 73.3024C32.3257 73.2425 32.36 73.1355 32.4301 73.04C32.6162 72.7062 32.8266 72.4195 33.0484 72.0972C33.2001 71.8705 33.3519 71.6437 33.4678 71.4055C33.7125 71.0118 33.993 70.6296 34.2378 70.236C34.6929 69.5557 35.1366 68.9111 35.5917 68.2308C36.0354 67.5862 36.4791 66.9416 36.9701 66.2728C37.2621 65.8549 37.5426 65.4728 37.8346 65.0549C38.1266 64.6371 38.4071 64.2549 38.7349 63.8485C42.9789 58.1274 47.6427 52.6983 52.669 47.7396C53.4206 46.997 54.1722 46.2544 54.9123 45.5475C54.971 45.4877 55.0297 45.4278 55.0769 45.4036C55.3704 45.1043 55.6997 44.8164 55.9817 44.5528L56.5343 44.0611C58.4857 42.2868 60.4858 40.6069 62.5102 38.9741C63.4165 38.2418 64.3471 37.5566 65.2778 36.8715C65.4897 36.7033 65.7374 36.5467 65.9493 36.3786C66.5621 35.9456 67.1749 35.5126 67.7877 35.0796C69.6032 33.852 71.4431 32.6715 73.3203 31.621C75.1731 30.5234 77.1348 29.5787 79.0851 28.6697C80.0545 28.233 81.0483 27.8435 82.0536 27.4184C82.5505 27.2236 83.0474 27.0289 83.5328 26.8698L85.0365 26.3684C85.5577 26.2208 86.0546 26.026 86.5645 25.9141C87.0743 25.8022 87.5956 25.6546 88.1054 25.5427C89.125 25.3189 90.1203 25.0479 91.1887 24.9184C91.6513 24.8307 92.1382 24.7901 92.6008 24.7024C92.6366 24.7139 92.6839 24.6897 92.7197 24.7012C93.2181 24.6249 93.7523 24.5602 94.2636 24.5668C94.9982 24.3696 95.7588 24.3381 96.5078 24.3422Z" fill="#FCEFEF"/>
<path d="M96.5078 24.3422C96.2586 24.3804 95.998 24.4542 95.7259 24.5636C94.6605 24.9302 93.7428 25.6982 92.752 26.3247C90.9837 27.5281 89.0692 28.4486 87.103 29.0377C86.721 29.8595 85.7873 30.3077 85.0353 30.0665C84.7935 30.6972 84.5274 31.2807 84.2857 31.9114C81.5022 33.6942 78.9883 36.1143 77.0145 38.9437C76.6092 38.853 76.1565 38.7865 75.7397 38.7316C74.4728 40.0958 73.2532 41.4358 71.9863 42.8001C71.5222 42.7693 71.0497 43.0112 70.5771 43.2531C69.6206 43.7726 68.6641 44.2921 67.9499 45.1647C67.0366 46.2882 66.6879 47.8682 65.7746 48.9918C65.2707 49.5778 64.6579 50.0107 64.2257 50.6197C63.8635 51.1331 63.682 51.8224 63.8555 52.3896C63.7267 52.545 63.5735 52.6532 63.4447 52.8086C62.2345 53.0107 61.0532 53.6155 60.1026 54.609C59.7704 54.6598 59.4023 54.6992 59.0815 54.7143C58.2454 55.3511 57.4092 55.9879 56.5731 56.6247C56.0245 56.4881 55.4644 56.3872 54.9158 56.2506C54.0309 56.793 53.1819 57.347 52.2855 57.9251C52.9804 58.3447 53.628 58.7885 54.3113 59.2437C54.2457 59.6948 53.9537 60.1126 53.5642 60.3418C53.2682 61.3879 52.9722 62.434 52.6762 63.4801C52.2654 63.8992 51.8073 64.3424 51.3964 64.7615L50.6334 65.5398C50.4459 65.7551 50.2225 65.9588 50.0464 66.1384C50.035 66.1741 49.9877 66.1983 49.9877 66.1983C49.184 65.6258 48.3001 65.303 47.3476 65.1942C47.3367 66.2137 47.3729 67.209 47.3619 68.2284C46.0921 69.3556 44.8107 70.5185 43.5408 71.6457C43.7403 72.3785 42.9887 73.1211 42.3112 73.1399C41.6338 73.1588 41.0807 72.6666 40.552 72.2216C40.4381 73.5622 39.7053 74.8617 38.6802 75.5952C39.0413 75.9471 38.8483 76.6721 38.4847 77.067C38.121 77.4619 37.5998 77.6095 37.1745 77.8272C35.8514 78.5045 34.8451 79.795 33.8618 81.0141C33.2534 81.8026 32.6451 82.5911 32.0367 83.3797C30.5509 85.3032 28.5659 85.3355 26.9597 87.1417C26.7722 87.357 26.7727 88.3408 26.6985 89.0646C26.405 89.3639 26.0872 89.6161 25.7937 89.9154C25.7107 89.9281 25.6748 89.9166 25.5918 89.9294C24.7482 89.9736 23.444 91.2078 23.4082 91.1963C23.4082 91.1963 23.0461 91.7097 22.8501 92.1977L22.7183 92.1161C22.8785 91.6166 23.0745 91.1286 23.2704 90.6407C23.3276 90.4623 23.4207 90.2954 23.4779 90.117C23.8927 89.0697 24.3549 87.9982 24.8414 86.9739C24.9458 86.7713 25.0145 86.5572 25.1075 86.3903C25.2433 85.8437 25.3791 85.2971 25.4433 84.7275C25.4846 84.2292 25.5259 83.731 25.7577 83.2545C26.094 82.5754 26.767 82.2011 27.3798 81.7681C27.7518 81.1005 28.0995 80.3858 28.4716 79.7182C28.692 79.2774 28.9482 78.848 29.2043 78.4187C29.4132 78.0136 29.658 77.6199 29.9027 77.2263C29.9142 77.1906 29.9256 77.1549 29.9729 77.1307C30.0699 76.3356 29.965 75.5544 29.7655 74.8215C30.5301 74.1618 31.4149 73.6193 32.3142 73.2782C32.3729 73.2183 32.4072 73.1113 32.4774 73.0158C32.6634 72.682 32.8738 72.3953 33.0957 72.073C33.2474 71.8463 33.3991 71.6195 33.515 71.3813C33.7597 70.9876 34.0403 70.6054 34.285 70.2118C34.4303 68.5272 35.551 66.88 36.9701 66.2728C37.2621 65.8549 37.5426 65.4728 37.8346 65.0549C38.1266 64.6371 38.4071 64.2549 38.7349 63.8485C38.7548 63.5401 38.8578 63.2191 38.9493 62.9336C39.6532 61.2315 40.7282 59.727 42.0811 58.587C42.681 58.0712 43.3654 57.6612 43.8807 57.0395C45.0646 55.688 45.4904 53.6213 46.8921 52.5757C47.4576 52.1669 48.1207 51.9467 48.5659 51.4206C49.4219 50.4754 49.5429 48.7437 50.6312 48.3058C50.9505 48.1721 51.2957 48.2041 51.6021 47.9876C52.1318 47.5674 52.001 46.6205 52.386 46.0357C52.9228 45.2242 54.0085 45.5331 54.9123 45.5475C54.971 45.4877 55.0297 45.4278 55.0769 45.4036C55.3704 45.1043 55.6997 44.8164 55.9817 44.5528L56.5343 44.0611L56.5458 44.0254C57.0064 42.8354 58.1992 42.195 59.1656 41.5213C60.1435 40.8119 61.1269 39.5928 60.8385 38.3987C61.1881 38.7862 61.8611 38.4119 62.2476 37.9456C62.6341 37.4794 62.9833 36.8832 63.4931 36.7713C63.9199 36.6721 64.2795 36.9054 64.6963 36.9604C64.9226 36.9936 65.136 36.944 65.3136 36.8829C65.5255 36.7148 65.7732 36.5582 65.9851 36.3901C66.5248 35.8156 66.8108 34.9237 66.4811 34.2278C67.6111 34.2754 68.7751 33.2323 68.985 31.9619C69.5067 32.7981 70.7239 32.2048 71.4884 31.545C73.195 30.1644 74.8901 28.8195 76.5967 27.4389C76.9618 27.1625 77.3384 26.8505 77.7537 26.7869C78.5485 26.6484 79.2707 27.3521 80.0526 27.1307C80.4436 27.0201 80.7485 26.685 81.0778 26.3972C83.0908 24.8001 85.7652 25.6971 88.0607 24.8202C88.9127 24.5032 89.7016 23.8906 90.5665 23.6565C91.443 23.3868 92.4671 23.5185 92.9057 24.3674C92.7883 24.4871 92.7182 24.5827 92.6123 24.6667C92.6481 24.6782 92.6953 24.654 92.7311 24.6655C93.2295 24.5893 93.7637 24.5245 94.275 24.5311C94.9982 24.3696 95.7588 24.3381 96.5078 24.3422Z" fill="#FCEFEF"/>
<path d="M136.78 62.5569C136.531 62.595 136.27 62.6688 135.998 62.7782C134.933 63.1448 134.015 63.9128 133.06 64.5508C131.292 65.7542 129.377 66.6747 127.411 67.2638C127.029 68.0856 126.095 68.5338 125.343 68.2926C125.066 68.9118 124.835 69.5068 124.594 70.1375C121.81 71.9203 119.296 74.3404 117.322 77.1698C116.917 77.0791 116.465 77.0126 116.059 76.922C114.792 78.2862 113.573 79.6263 112.306 80.9905C111.842 80.9597 111.369 81.2016 110.897 81.4435C109.94 81.963 108.984 82.4825 108.258 83.3908C107.345 84.5143 106.996 86.0943 106.083 87.2179C105.579 87.8038 104.966 88.2368 104.534 88.8458C104.172 89.3592 103.99 90.0485 104.128 90.6042C103.999 90.7596 103.846 90.8678 103.717 91.0232C102.518 91.1896 101.325 91.8301 100.375 92.8236C100.043 92.8745 99.6859 92.8781 99.3536 92.9289C98.5175 93.5657 97.6814 94.2025 96.8452 94.8393C96.2966 94.7027 95.7366 94.6018 95.1879 94.4652C94.3031 95.0077 93.454 95.5616 92.5577 96.1398C93.2525 96.5593 93.9001 97.0031 94.5949 97.4226C94.5293 97.8737 94.2373 98.2916 93.8478 98.5208C93.5518 99.5669 93.2558 100.613 92.9598 101.659C92.5375 102.114 92.0909 102.521 91.6685 102.976C91.1259 103.314 90.6205 103.781 90.3186 104.353C90.3071 104.389 90.2599 104.413 90.2484 104.449C89.4447 103.876 88.5608 103.553 87.6083 103.445C87.5974 104.464 87.6336 105.459 87.6226 106.479C86.3528 107.606 85.0714 108.769 83.8016 109.896C84.001 110.629 83.2494 111.371 82.5719 111.39C81.8945 111.409 81.2942 110.941 80.8127 110.472C80.6988 111.812 79.9661 113.112 78.9409 113.845C79.302 114.197 79.109 114.922 78.7454 115.317C78.3817 115.712 77.8605 115.86 77.4352 116.077C76.1121 116.755 75.1058 118.045 74.1225 119.264C73.5141 120.053 72.9058 120.841 72.2974 121.63C70.8117 123.554 68.8266 123.586 67.2204 125.392C67.0329 125.607 67.0334 126.591 66.9592 127.315C66.6657 127.614 66.3479 127.866 66.0186 128.154C65.9714 128.178 65.8997 128.155 65.8167 128.168C64.9731 128.212 63.6689 129.447 63.6331 129.435C63.6331 129.435 63.271 129.949 63.075 130.436L62.9432 130.355C63.1033 129.855 63.2993 129.367 63.4953 128.879C63.5525 128.701 63.657 128.499 63.7142 128.32C63.7371 128.249 63.76 128.177 63.7943 128.07C63.8515 127.892 63.9445 127.725 64.0132 127.511C64.348 126.713 64.6713 125.952 65.0419 125.165C65.1463 124.963 65.215 124.749 65.308 124.582C65.4125 124.379 65.4811 124.165 65.5741 123.998C66.0606 122.974 66.5829 121.961 67.0694 120.937C67.2555 120.603 67.3942 120.294 67.5688 119.995C67.9409 119.328 68.2886 118.613 68.6607 117.946C68.9169 117.516 69.1372 117.075 69.3934 116.646C69.6023 116.241 69.8471 115.847 70.0918 115.454C70.1032 115.418 70.1147 115.382 70.1619 115.358C70.8946 114.059 71.699 112.782 72.4675 111.494C72.5376 111.398 72.5605 111.327 72.6306 111.232C72.8167 110.898 73.0385 110.575 73.2604 110.253C73.4235 109.991 73.5867 109.728 73.7499 109.466C73.8314 109.335 73.9244 109.168 74.0418 109.048C74.6014 108.165 75.1854 107.329 75.7808 106.458C76.4349 105.527 77.0418 104.62 77.7203 103.736C78.0595 103.294 78.3629 102.84 78.7022 102.398C83.0277 96.5458 87.7143 91.0454 92.8466 86.0026C93.6097 85.2243 94.4085 84.4576 95.2431 83.7023C95.6311 83.3545 96.0305 82.9712 96.3827 82.612C96.43 82.5878 96.4414 82.5521 96.4887 82.5279C96.5588 82.4323 96.6533 82.384 96.7234 82.2884C98.6748 80.5142 100.675 78.8342 102.699 77.2014C103.606 76.4691 104.536 75.7839 105.467 75.0988C105.679 74.9307 105.926 74.774 106.138 74.6059C106.751 74.1729 107.364 73.7399 107.977 73.3069C109.792 72.0793 111.596 70.8873 113.509 69.8483C115.362 68.7507 117.324 67.806 119.274 66.897C120.279 66.4718 121.237 66.0709 122.243 65.6457C122.74 65.4509 123.236 65.2562 123.758 65.1086L125.261 64.6072C125.783 64.4596 126.28 64.2648 126.789 64.1529C127.299 64.041 127.82 63.8934 128.33 63.7815C129.35 63.5577 130.345 63.2867 131.414 63.1572C131.876 63.0695 132.363 63.0289 132.826 62.9412C132.862 62.9527 132.909 62.9285 132.945 62.94C133.443 62.8637 133.977 62.799 134.488 62.8056C135.282 62.5485 136.031 62.5527 136.78 62.5569Z" fill="#FCEFEF"/>
<path d="M136.78 62.5569C136.531 62.595 136.27 62.6688 135.998 62.7782C134.933 63.1448 134.015 63.9128 133.06 64.5508C131.292 65.7542 129.377 66.6747 127.411 67.2638C127.029 68.0856 126.095 68.5338 125.343 68.2926C125.066 68.9118 124.835 69.5068 124.594 70.1375C121.81 71.9203 119.296 74.3404 117.322 77.1698C116.917 77.0791 116.465 77.0126 116.059 76.922C114.792 78.2862 113.573 79.6263 112.306 80.9905C111.842 80.9597 111.369 81.2016 110.897 81.4435C109.94 81.963 108.984 82.4825 108.258 83.3908C107.345 84.5143 106.996 86.0943 106.083 87.2179C105.579 87.8038 104.966 88.2368 104.534 88.8458C104.172 89.3592 103.99 90.0485 104.128 90.6042C103.999 90.7596 103.846 90.8678 103.717 91.0232C102.518 91.1896 101.325 91.8301 100.375 92.8236C100.043 92.8745 99.6859 92.8781 99.3536 92.9289C98.5175 93.5657 97.6814 94.2025 96.8452 94.8393C96.2966 94.7027 95.7366 94.6018 95.1879 94.4652C94.3031 95.0077 93.454 95.5616 92.5577 96.1398C93.2525 96.5593 93.9001 97.0031 94.5949 97.4226C94.5293 97.8737 94.2373 98.2916 93.8478 98.5208C93.5518 99.5669 93.2558 100.613 92.9598 101.659C92.5375 102.114 92.0909 102.521 91.6685 102.976C91.1259 103.314 90.6205 103.781 90.3186 104.353C90.3071 104.389 90.2599 104.413 90.2484 104.449C89.4447 103.876 88.5608 103.553 87.6083 103.445C87.5974 104.464 87.6336 105.459 87.6226 106.479C86.3528 107.606 85.0714 108.769 83.8016 109.896C84.001 110.629 83.2494 111.371 82.5719 111.39C81.8945 111.409 81.2942 110.941 80.8127 110.472C80.6988 111.812 79.9661 113.112 78.9409 113.845C79.302 114.197 79.109 114.922 78.7454 115.317C78.3817 115.712 77.8605 115.86 77.4352 116.077C76.1121 116.755 75.1058 118.045 74.1225 119.264C73.5141 120.053 72.9058 120.841 72.2974 121.63C70.8117 123.554 68.8266 123.586 67.2204 125.392C67.0329 125.607 67.0334 126.591 66.9592 127.315C66.6657 127.614 66.3479 127.866 66.0186 128.154C65.9714 128.178 65.8997 128.155 65.8167 128.168C64.9731 128.212 63.6689 129.447 63.6331 129.435C63.6331 129.435 63.271 129.949 63.075 130.436L62.9432 130.355C63.1033 129.855 63.2993 129.367 63.4953 128.879C63.5525 128.701 63.657 128.499 63.7142 128.32C63.7371 128.249 63.76 128.177 63.7943 128.07C63.8515 127.892 63.9445 127.725 64.0132 127.511C64.348 126.713 64.6713 125.952 65.0419 125.165C65.1463 124.963 65.215 124.749 65.308 124.582C65.4438 124.035 65.5796 123.489 65.6438 122.919C65.6851 122.421 65.7379 121.887 65.9582 121.446C66.3059 120.731 67.0033 120.404 67.5803 119.96C67.9524 119.292 68.3001 118.577 68.6721 117.91C68.9283 117.48 69.1487 117.04 69.4049 116.61C69.6138 116.205 69.8585 115.812 70.1032 115.418C70.1147 115.382 70.1261 115.347 70.1734 115.322C70.2346 114.516 70.1769 113.71 69.9661 113.013C70.7306 112.353 71.6155 111.811 72.5148 111.47C72.5849 111.374 72.6078 111.303 72.6779 111.207C72.8639 110.874 73.0858 110.551 73.3076 110.229C73.4708 109.967 73.6339 109.704 73.7971 109.442C73.8787 109.31 73.9717 109.144 74.0891 109.024C74.2294 108.833 74.3338 108.63 74.4741 108.439C74.6194 106.755 75.7401 105.107 77.1592 104.5C77.3581 104.249 77.5327 103.951 77.7317 103.7C78.0709 103.258 78.3744 102.805 78.7136 102.362C78.7837 102.267 78.8539 102.171 78.924 102.076C78.9439 101.767 79.0469 101.446 79.1384 101.161C79.8423 99.4588 80.9172 97.9543 82.2702 96.8144C82.8701 96.2985 83.5545 95.8885 84.0698 95.2669C85.2536 93.9153 85.6795 91.8486 87.0454 90.7915C87.6109 90.3827 88.2739 90.1625 88.7191 89.6364C89.5637 88.7269 89.6961 86.9595 90.7844 86.5216C91.1038 86.388 91.4489 86.42 91.7553 86.2035C92.2851 85.7832 92.1543 84.8363 92.5393 84.2516C93.076 83.4401 94.1618 83.7489 95.0656 83.7633C95.1128 83.7392 95.1243 83.7035 95.183 83.6436C95.5709 83.2959 95.9704 82.9125 96.3225 82.5533C96.3698 82.5291 96.3812 82.4934 96.4285 82.4692C96.4986 82.3737 96.5931 82.3253 96.6632 82.2298L96.6747 82.1941C97.1353 81.0041 98.3166 80.3993 99.2945 79.69C100.272 78.9806 101.292 77.773 100.956 76.603C101.306 76.9906 101.979 76.6162 102.365 76.15C102.752 75.6837 103.101 75.0875 103.611 74.9756C104.037 74.8764 104.397 75.1098 104.814 75.1647C105.04 75.198 105.253 75.1484 105.467 75.0988C105.679 74.9307 105.926 74.774 106.138 74.6059C106.678 74.0314 106.964 73.1395 106.634 72.4436C107.764 72.4913 108.928 71.4481 109.138 70.1777C109.66 71.0139 110.877 70.4206 111.677 69.7723C113.384 68.3917 115.079 67.0468 116.786 65.6662C117.151 65.3898 117.527 65.0778 117.943 65.0142C118.738 64.8757 119.46 65.5795 120.242 65.3581C120.633 65.2474 120.938 64.9124 121.267 64.6245C123.28 63.0274 125.954 63.9245 128.261 63.0118C129.113 62.6949 129.891 62.118 130.767 61.8482C131.643 61.5784 132.668 61.7101 133.106 62.559C133 62.6431 132.919 62.7743 132.813 62.8584C132.849 62.8699 132.896 62.8457 132.932 62.8571C133.43 62.7809 133.964 62.7162 134.476 62.7228C135.282 62.5485 136.031 62.5527 136.78 62.5569Z" fill="#FCEFEF"/>
<path d="M66.0084 22.1545C65.8422 22.1799 65.6647 22.241 65.4871 22.3021C64.8126 22.5579 64.1884 23.0266 63.587 23.4239C62.4315 24.1944 61.2144 24.7877 59.947 25.1681C59.7038 25.6803 59.0895 25.9948 58.624 25.8455C58.4623 26.2264 58.3006 26.6074 58.1275 27.024C56.3349 28.1803 54.7372 29.7139 53.4404 31.5407C53.1783 31.496 52.8804 31.4398 52.6183 31.395C51.8209 32.2803 50.9992 33.1185 50.2018 34.0038C49.8925 33.9832 49.6089 34.1284 49.314 34.3092C48.6997 34.6237 48.074 34.9739 47.6173 35.5356C47.0319 36.2528 46.8189 37.2862 46.2335 38.0034C45.9171 38.3741 45.5162 38.6389 45.2242 39.0568C45.0024 39.3791 44.8537 39.8429 44.977 40.1972C44.871 40.2813 44.8009 40.3768 44.695 40.4609C43.9116 40.5637 43.1441 40.9865 42.5457 41.6208C42.3438 41.6347 42.0946 41.6729 41.8926 41.6868C41.3629 42.1071 40.7973 42.5159 40.279 42.9005C39.9095 42.8213 39.5757 42.7536 39.2062 42.6745C38.6521 43.0476 38.0736 43.3736 37.5195 43.7467C37.9393 44.0387 38.4063 44.3065 38.8261 44.5985C38.7704 44.8954 38.6072 45.1578 38.3595 45.3145L37.7904 47.3353C37.5084 47.599 37.2263 47.8626 36.9687 48.1734C36.6265 48.3785 36.2972 48.6663 36.0883 49.0715C36.0883 49.0715 36.0768 49.1071 36.0296 49.1313C35.5138 48.7692 34.9523 48.5497 34.345 48.473C34.3295 49.1369 34.3613 49.7767 34.3573 50.4049C33.5341 51.1245 32.6994 51.8798 31.912 52.6109C32.0369 53.0838 31.5673 53.5627 31.1276 53.5791C30.6879 53.5954 30.3154 53.2792 29.9787 52.9745C29.906 53.8168 29.4409 54.6513 28.7694 55.1442C29.0102 55.3787 28.8614 55.8425 28.6266 56.082C28.3919 56.3215 28.084 56.4195 27.7532 56.5888C26.9027 57.0242 26.2471 57.837 25.6387 58.6255C25.2408 59.1274 24.8429 59.6293 24.4807 60.1427C23.5332 61.3733 22.2613 61.3982 21.2178 62.5586C21.1004 62.6784 21.0964 63.3066 21.0665 63.7692C20.8546 63.9373 20.6785 64.1169 20.4552 64.3207C20.4194 64.3092 20.3721 64.3334 20.3363 64.3219C19.8136 64.351 18.9675 65.142 18.9316 65.1305C18.9316 65.1305 18.7098 65.4528 18.5596 65.798L18.5466 65.7152C18.6611 65.3585 18.8113 65.0132 18.9257 64.6564C18.9829 64.478 19.0759 64.3111 19.1331 64.1328C19.1903 63.9544 19.2948 63.7518 19.352 63.5734C19.4092 63.3951 19.4908 63.2638 19.548 63.0855C19.5823 62.9784 19.6525 62.8829 19.6868 62.7759C19.7326 62.6331 19.8027 62.5376 19.8485 62.3949C19.8942 62.2522 19.9872 62.0853 20.0688 61.9541C20.1146 61.8114 20.1962 61.6802 20.2305 61.5731C20.5309 60.8826 20.8558 60.2392 21.2164 59.6073C21.3209 59.4047 21.4253 59.2021 21.5298 58.9996C21.7501 58.5588 22.0063 58.1294 22.2267 57.6886C22.5286 57.1166 22.8664 56.556 23.1569 56.0197C23.622 55.1852 24.1229 54.3622 24.6596 53.5507C24.8456 53.2169 25.0675 52.8946 25.2893 52.5723C25.5112 52.25 25.6972 51.9162 25.9191 51.5939C26.211 51.176 26.503 50.7582 26.7706 50.2932C27.0626 49.8753 27.3546 49.4575 27.6466 49.0396C28.0087 48.5262 28.3823 47.9772 28.7802 47.4753C31.5041 43.7848 34.5045 40.3403 37.7098 37.119C38.1793 36.6401 38.6847 36.1726 39.1543 35.6937C39.2015 35.6695 39.2602 35.6096 39.2717 35.5739C39.495 35.3702 39.6711 35.1906 39.8944 34.9868C40.0004 34.9027 40.0705 34.8072 40.1764 34.7231C41.4105 33.5844 42.7048 32.5044 44.0234 31.4715C44.6118 30.9913 45.1888 30.5468 45.8016 30.1138C45.9548 30.0056 46.108 29.8973 46.2254 29.7776C46.6263 29.5127 47.0028 29.2007 47.4037 28.9358C48.5592 28.1654 49.7505 27.4064 50.9661 26.6946C52.1818 25.9828 53.3989 25.3895 54.6633 24.772C55.302 24.5047 55.9406 24.2374 56.5793 23.97C56.8986 23.8364 57.2065 23.7384 57.5616 23.6162L58.5326 23.2981C58.8763 23.2116 59.1956 23.0779 59.5035 22.9799C59.8472 22.8934 60.1551 22.7954 60.4873 22.7446C61.1275 22.5958 61.7791 22.4113 62.4679 22.3568C62.7644 22.2945 63.0852 22.2794 63.3816 22.2171C63.4175 22.2285 63.4289 22.1929 63.4647 22.2044C63.797 22.1535 64.1292 22.1027 64.4386 22.1232C65.0101 22.1885 65.5329 22.1594 66.0084 22.1545Z" fill="#FCEFEF"/>
<path d="M66.0084 22.1545C65.8422 22.1799 65.6647 22.241 65.4871 22.3021C64.8126 22.5579 64.1884 23.0266 63.587 23.4239C62.4315 24.1944 61.2144 24.7877 59.947 25.1681C59.7038 25.6803 59.0895 25.9948 58.624 25.8455C58.4623 26.2264 58.3006 26.6074 58.1275 27.024C56.3349 28.1803 54.7372 29.7139 53.4404 31.5407C53.1783 31.496 52.8804 31.4398 52.6183 31.395C51.8209 32.2803 50.9992 33.1185 50.2018 34.0038C49.8925 33.9832 49.6089 34.1284 49.314 34.3092C48.6997 34.6237 48.074 34.9739 47.6173 35.5356C47.0319 36.2528 46.8189 37.2862 46.2335 38.0034C45.9171 38.3741 45.5162 38.6389 45.2242 39.0568C45.0024 39.3791 44.8537 39.8429 44.977 40.1972C44.871 40.2813 44.8009 40.3768 44.695 40.4609C43.9116 40.5637 43.1441 40.9865 42.5457 41.6208C42.3438 41.6347 42.0946 41.6729 41.8926 41.6868C41.3629 42.1071 40.7973 42.5159 40.279 42.9005C39.9095 42.8213 39.5757 42.7536 39.2062 42.6745C38.6521 43.0476 38.0736 43.3736 37.5195 43.7467C37.9393 44.0387 38.4063 44.3065 38.8261 44.5985C38.7704 44.8954 38.6072 45.1578 38.3595 45.3145L37.7904 47.3353C37.5084 47.599 37.2263 47.8626 36.9687 48.1734C36.6265 48.3785 36.2972 48.6663 36.0883 49.0715C36.0883 49.0715 36.0768 49.1071 36.0296 49.1313C35.5138 48.7692 34.9523 48.5497 34.345 48.473C34.3295 49.1369 34.3613 49.7767 34.3573 50.4049C33.5341 51.1245 32.6994 51.8798 31.912 52.6109C32.0369 53.0838 31.5673 53.5627 31.1276 53.5791C30.6879 53.5954 30.3154 53.2792 29.9787 52.9745C29.906 53.8168 29.4409 54.6513 28.7694 55.1442C29.0102 55.3787 28.8614 55.8425 28.6266 56.082C28.3919 56.3215 28.084 56.4195 27.7532 56.5888C26.9027 57.0242 26.2471 57.837 25.6387 58.6255C25.2408 59.1274 24.8429 59.6293 24.4807 60.1427C23.5332 61.3733 22.2613 61.3982 21.2178 62.5586C21.1004 62.6784 21.0964 63.3066 21.0665 63.7692C20.8546 63.9373 20.6785 64.1169 20.4552 64.3207C20.4194 64.3092 20.3721 64.3334 20.3363 64.3219C19.8136 64.351 18.9675 65.142 18.9316 65.1305C18.9316 65.1305 18.7098 65.4528 18.5596 65.798L18.5466 65.7152C18.6611 65.3585 18.8113 65.0132 18.9257 64.6564C18.9829 64.478 19.0759 64.3111 19.1331 64.1328C19.1903 63.9544 19.2948 63.7518 19.352 63.5734C19.4092 63.3951 19.4908 63.2638 19.548 63.0855C19.5823 62.9784 19.6525 62.8829 19.6868 62.7759C19.7326 62.6331 19.8027 62.5376 19.8485 62.3949C19.8942 62.2522 19.9872 62.0853 20.0688 61.9541C20.1474 61.5858 20.226 61.2176 20.2932 60.885C20.3131 60.5766 20.3444 60.2326 20.5076 59.9702C20.728 59.5293 21.1647 59.2759 21.5656 59.0111C21.786 58.5702 22.0421 58.1409 22.2625 57.7001C22.5644 57.1281 22.9022 56.5675 23.1927 56.0311C23.234 55.5329 23.2037 55.0117 23.043 54.5274C23.537 54.0956 24.0796 53.7581 24.6596 53.5507C24.8456 53.2169 25.0675 52.8946 25.2893 52.5723C25.5112 52.25 25.6972 51.9162 25.9191 51.5939C26.0246 50.5261 26.7244 49.4521 27.6466 49.0396C28.0087 48.5262 28.3823 47.9772 28.7802 47.4753C28.7658 47.2739 28.8703 47.0714 28.9275 46.893C29.3538 45.81 30.0666 44.8189 30.9256 44.1107C31.3136 43.763 31.7503 43.5096 32.0781 43.1033C32.8282 42.2422 33.0968 40.9119 33.9917 40.2152C34.3568 39.9389 34.795 39.804 35.0999 39.469C35.651 38.8588 35.7321 37.7438 36.4539 37.4638C36.6787 37.3785 36.8692 37.4003 37.0696 37.2678C37.4347 36.9915 37.3199 36.3644 37.5532 36.0064C37.9153 35.4931 38.5957 35.7113 39.1543 35.6937C39.2015 35.6695 39.2602 35.6096 39.2717 35.5739C39.495 35.3702 39.6711 35.1906 39.8944 34.9868C40.0004 34.9027 40.0705 34.8072 40.1764 34.7231C40.1764 34.7231 40.1764 34.7231 40.1879 34.6874C40.4754 33.914 41.2315 33.527 41.8557 33.0583C42.4799 32.5896 43.1241 31.8126 42.9361 31.0441C43.1654 31.3143 43.6021 31.0609 43.824 30.7386C44.0458 30.4163 44.2791 30.0584 44.6228 29.9719C44.8834 29.8981 45.1112 30.0498 45.3734 30.0945C45.528 30.1048 45.6469 30.1036 45.7887 30.031C45.9419 29.9228 46.0951 29.8145 46.2125 29.6948C46.5646 29.3356 46.7477 28.7648 46.5398 28.3046C47.2774 28.3445 48.0061 27.6732 48.1504 26.8539C48.4901 27.3956 49.2462 27.0086 49.7759 26.5883C50.8826 25.7235 51.965 24.8116 53.0717 23.9468C53.295 23.743 53.5428 23.5864 53.8034 23.5126C54.3018 23.4364 54.7947 23.8698 55.2687 23.7464C55.5293 23.6727 55.7168 23.4574 55.9287 23.2893C57.2474 22.2564 58.9549 22.8433 60.4097 22.2476C60.9539 22.0286 61.4608 21.6797 62.0293 21.5079C62.5978 21.3362 63.2409 21.4244 63.509 21.9431C63.4503 22.003 63.3802 22.0985 63.3215 22.1584C63.3573 22.1699 63.3687 22.1342 63.4045 22.1457C63.7368 22.0949 64.069 22.0441 64.3784 22.0646C65.0101 22.1885 65.5329 22.1594 66.0084 22.1545Z" fill="#FCEFEF"/>
<path d="M137.135 89.8977C136.969 89.9231 136.791 89.9842 136.614 90.0453C135.939 90.3011 135.315 90.7698 134.702 91.2028C133.547 91.9732 132.329 92.5665 131.062 92.947C130.819 93.4592 130.205 93.7736 129.739 93.6243C129.577 94.0053 129.404 94.4219 129.243 94.8029C127.45 95.9591 125.852 97.4927 124.556 99.3195C124.293 99.2748 123.995 99.2186 123.733 99.1739C122.936 100.059 122.114 100.897 121.317 101.783C121.008 101.762 120.713 101.943 120.429 102.088C119.815 102.403 119.189 102.753 118.732 103.314C118.147 104.032 117.934 105.065 117.349 105.782C117.032 106.153 116.631 106.418 116.339 106.836C116.117 107.158 115.969 107.622 116.092 107.976C115.986 108.06 115.916 108.156 115.81 108.24C115.027 108.343 114.259 108.765 113.661 109.4C113.459 109.414 113.21 109.452 113.008 109.466C112.478 109.886 111.912 110.295 111.394 110.679C111.025 110.6 110.691 110.532 110.321 110.453C109.767 110.826 109.189 111.152 108.635 111.526C109.066 111.782 109.486 112.074 109.941 112.377C109.885 112.674 109.722 112.937 109.475 113.093C109.257 113.771 109.076 114.461 108.905 115.114C108.623 115.378 108.366 115.689 108.084 115.952C107.742 116.157 107.412 116.445 107.203 116.85C107.203 116.85 107.192 116.886 107.145 116.91C106.629 116.548 106.067 116.329 105.46 116.252C105.456 116.88 105.476 117.556 105.472 118.184C104.649 118.903 103.815 119.659 103.027 120.39C103.152 120.863 102.682 121.342 102.243 121.358C101.803 121.374 101.43 121.058 101.094 120.753C101.021 121.596 100.556 122.43 99.8845 122.923C100.089 123.146 99.9879 123.586 99.7417 123.861C99.5069 124.1 99.199 124.198 98.8683 124.368C98.0177 124.803 97.3621 125.616 96.7538 126.404C96.3559 126.906 95.9579 127.408 95.5958 127.922C94.6482 129.152 93.3764 129.177 92.3328 130.337C92.2154 130.457 92.2114 131.085 92.1816 131.548C92.0055 131.728 91.7936 131.896 91.5703 132.1C91.5344 132.088 91.4872 132.112 91.4514 132.101C90.9286 132.13 90.0825 132.921 90.0467 132.909C90.0467 132.909 89.7891 133.22 89.6746 133.577L89.6145 133.518C89.6602 133.376 89.7174 133.197 89.7632 133.054C89.7975 132.947 89.8433 132.805 89.8776 132.698C89.9463 132.484 90.0393 132.317 90.1079 132.103C90.2467 131.793 90.3382 131.508 90.477 131.198C90.6616 130.746 90.8819 130.305 91.0779 129.817C91.1237 129.674 91.2053 129.543 91.2396 129.436C91.5286 128.781 91.8649 128.102 92.2255 127.47C92.33 127.268 92.4344 127.065 92.5389 126.862C92.5503 126.827 92.5618 126.791 92.609 126.767C92.818 126.362 93.0269 125.957 93.2716 125.563C93.4348 125.301 93.5735 124.991 93.7367 124.729C93.8999 124.466 94.0386 124.156 94.2018 123.894C94.6669 123.06 95.1678 122.237 95.7045 121.425C95.716 121.389 95.7274 121.354 95.7747 121.33C95.9378 121.067 96.101 120.805 96.2527 120.578C96.486 120.22 96.7193 119.862 96.9525 119.504C97.2445 119.086 97.548 118.633 97.8041 118.203C98.0961 117.785 98.3881 117.368 98.6801 116.95C99.0422 116.436 99.4158 115.887 99.8137 115.385C102.538 111.695 105.549 108.215 108.743 105.029C109.213 104.55 109.718 104.083 110.188 103.604C110.199 103.568 110.246 103.544 110.246 103.544C110.54 103.245 110.869 102.957 111.198 102.669C111.198 102.669 111.21 102.633 111.246 102.645C112.48 101.506 113.774 100.426 115.093 99.393C115.67 98.9485 116.258 98.4684 116.859 98.0711C117.013 97.9628 117.166 97.8546 117.283 97.7348C117.684 97.47 118.061 97.1579 118.462 96.893C119.617 96.1226 120.808 95.3636 122.013 94.6875C123.228 93.9757 124.457 93.3467 125.71 92.7649C126.348 92.4976 126.987 92.2303 127.626 91.9629C127.945 91.8293 128.253 91.7313 128.572 91.5976L129.543 91.2795C129.851 91.1815 130.206 91.0593 130.514 90.9613C130.858 90.8748 131.166 90.7769 131.498 90.726C132.138 90.5772 132.79 90.3927 133.479 90.3383C133.775 90.2759 134.096 90.2608 134.392 90.1985C134.428 90.21 134.44 90.1743 134.475 90.1858C134.808 90.135 135.14 90.0841 135.449 90.1047C136.184 89.9075 136.659 89.9026 137.135 89.8977Z" fill="#FCEFEF"/>
<path d="M137.135 89.8977C136.969 89.9231 136.791 89.9842 136.614 90.0453C135.939 90.3011 135.315 90.7698 134.702 91.2028C133.547 91.9732 132.329 92.5665 131.062 92.947C130.819 93.4592 130.205 93.7736 129.739 93.6243C129.577 94.0053 129.404 94.4219 129.243 94.8029C127.45 95.9591 125.852 97.4927 124.556 99.3195C124.293 99.2748 123.995 99.2186 123.733 99.1739C122.936 100.059 122.114 100.897 121.317 101.783C121.008 101.762 120.713 101.943 120.429 102.088C119.815 102.403 119.189 102.753 118.732 103.314C118.147 104.032 117.934 105.065 117.349 105.782C117.032 106.153 116.631 106.418 116.339 106.836C116.117 107.158 115.969 107.622 116.092 107.976C115.986 108.06 115.916 108.156 115.81 108.24C115.027 108.343 114.259 108.765 113.661 109.4C113.459 109.414 113.21 109.452 113.008 109.466C112.478 109.886 111.912 110.295 111.394 110.679C111.025 110.6 110.691 110.532 110.321 110.453C109.767 110.826 109.189 111.152 108.635 111.526C109.066 111.782 109.486 112.074 109.941 112.377C109.885 112.674 109.722 112.937 109.475 113.093C109.257 113.771 109.076 114.461 108.905 115.114C108.623 115.378 108.366 115.689 108.084 115.952C107.742 116.157 107.412 116.445 107.203 116.85C107.203 116.85 107.192 116.886 107.145 116.91C106.629 116.548 106.067 116.329 105.46 116.252C105.456 116.88 105.476 117.556 105.472 118.184C104.649 118.903 103.815 119.659 103.027 120.39C103.152 120.863 102.682 121.342 102.243 121.358C101.803 121.374 101.43 121.058 101.094 120.753C101.021 121.596 100.556 122.43 99.8845 122.923C100.089 123.146 99.9879 123.586 99.7417 123.861C99.5069 124.1 99.199 124.198 98.8683 124.368C98.0177 124.803 97.3621 125.616 96.7538 126.404C96.3559 126.906 95.9579 127.408 95.5958 127.922C94.6482 129.152 93.3764 129.177 92.3328 130.337C92.2154 130.457 92.2114 131.085 92.1816 131.548C92.0055 131.728 91.7936 131.896 91.5703 132.1C91.5344 132.088 91.4872 132.112 91.4514 132.101C90.9286 132.13 90.0825 132.921 90.0467 132.909C90.0467 132.909 89.7891 133.22 89.6746 133.577L89.6145 133.518C89.6602 133.376 89.7174 133.197 89.7632 133.054C89.7975 132.947 89.8433 132.805 89.8776 132.698C89.9463 132.484 90.0393 132.317 90.1079 132.103C90.2467 131.793 90.3382 131.508 90.477 131.198C90.6616 130.746 90.8819 130.305 91.0779 129.817C91.1565 129.449 91.271 129.092 91.3023 128.748C91.3222 128.44 91.3536 128.096 91.4809 127.822C91.7013 127.381 92.138 127.127 92.5389 126.862C92.5503 126.827 92.5618 126.791 92.609 126.767C92.818 126.362 93.0269 125.957 93.2716 125.563C93.4348 125.301 93.5735 124.991 93.7367 124.729C93.8999 124.466 94.0386 124.156 94.2018 123.894C94.2431 123.396 94.2128 122.875 94.0521 122.39C94.5461 121.959 95.0887 121.621 95.6687 121.414C95.6801 121.378 95.6916 121.342 95.7388 121.318C95.902 121.056 96.0652 120.793 96.2169 120.566C96.4502 120.208 96.6834 119.85 96.9167 119.492C97.0222 118.425 97.7221 117.351 98.6443 116.938C99.0064 116.425 99.38 115.876 99.7779 115.374C99.7635 115.173 99.8321 114.958 99.9251 114.792C100.351 113.709 101.064 112.717 101.923 112.009C102.311 111.662 102.748 111.408 103.076 111.002C103.826 110.141 104.095 108.81 104.989 108.114C105.354 107.837 105.793 107.703 106.098 107.368C106.649 106.757 106.73 105.642 107.452 105.362C107.676 105.277 107.867 105.299 108.067 105.166C108.432 104.89 108.306 104.299 108.551 103.905C108.877 103.38 109.605 103.574 110.163 103.557C110.175 103.521 110.222 103.497 110.222 103.497C110.516 103.197 110.845 102.91 111.174 102.622C111.174 102.622 111.186 102.586 111.221 102.597L111.233 102.562C111.52 101.788 112.276 101.401 112.901 100.933C113.525 100.464 114.169 99.687 113.97 98.9542C114.199 99.2244 114.636 98.971 114.857 98.6487C115.115 98.3379 115.313 97.9684 115.656 97.8819C115.917 97.8081 116.145 97.9599 116.407 98.0046C116.562 98.0149 116.68 98.0136 116.822 97.9411C116.975 97.8328 117.129 97.7246 117.246 97.6048C117.562 97.2341 117.745 96.6633 117.573 96.2147C118.311 96.2545 119.04 95.5833 119.184 94.764C119.524 95.3057 120.28 94.9186 120.809 94.4984C121.916 93.6336 122.998 92.7216 124.105 91.8569C124.329 91.6531 124.576 91.4964 124.837 91.4227C125.335 91.3464 125.828 91.7799 126.314 91.6208C126.574 91.547 126.762 91.3318 126.974 91.1637C128.245 90.155 130 90.7177 131.455 90.122C131.999 89.903 132.506 89.5541 133.074 89.3823C133.643 89.2105 134.286 89.2988 134.59 89.829C134.531 89.8889 134.472 89.9488 134.402 90.0443C134.438 90.0558 134.449 90.0201 134.485 90.0316C134.818 89.9808 135.15 89.9299 135.459 89.9505C136.184 89.9075 136.659 89.9026 137.135 89.8977Z" fill="#FCEFEF"/>
<path d="M136.244 31.2235C133.904 31.3779 131.541 32.5874 129.371 33.9372C122.021 38.505 115.575 44.9361 108.042 49.0909C106.442 52.355 103.43 54.8513 100.263 55.4884C98.7078 55.6584 97.1694 55.2831 95.8742 54.3956C96.2199 55.4114 96.5183 56.4513 96.8639 57.4671C95.6508 57.4322 95.0429 59.2045 94.6195 60.5245C93.0048 65.4363 88.5003 68.3984 84.639 71.4487C80.5185 74.6913 76.7734 78.4871 73.0284 82.2829C72.0893 83.2408 71.1617 84.1629 70.2226 85.1208C67.7574 87.6352 64.6406 90.3341 61.5867 89.5121C60.8232 89.3066 60.0926 88.8756 59.3092 88.9784C58.5258 89.0813 57.6941 90.0736 58.0368 90.8524C59.9975 90.773 60.8051 93.5501 60.6071 95.7686C60.4777 97.7731 59.1555 100.418 57.4723 99.8782C57.149 100.64 56.8257 101.402 56.5138 102.128C53.6428 103.568 50.7604 105.044 47.8894 106.484C47.8386 108.12 47.2292 109.774 46.2229 111.064C44.9128 111.824 43.2053 111.238 42.6403 109.797C42.204 111.034 41.815 112.247 41.3787 113.485C40.8187 113.384 40.2616 113.52 39.7418 113.786C39.9527 114.483 40.1994 115.192 40.4102 115.889C38.522 117.959 36.5866 120.053 34.6984 122.123C33.244 123.702 31.7896 125.282 30.2018 126.661C29.3901 127.345 28.349 127.759 27.6025 127.008C27.1791 128.328 26.7215 129.755 26.702 131.047C26.42 131.311 26.1136 131.527 25.8316 131.791L25.4232 131.463C26.4445 128.525 27.6692 125.692 28.9541 122.917C29.1814 122.085 29.3729 121.241 29.4456 120.399C29.5197 119.675 29.5695 118.904 29.9058 118.225C30.3808 117.236 31.3373 116.717 32.2093 116.092C31.8353 115.657 31.3553 115.306 30.8654 115.11C32.662 113.325 34.1806 111.176 35.3039 108.782C35.5585 108.234 35.7774 107.675 36.1639 107.209C36.0978 106.676 35.9958 106.132 35.8466 105.612C36.9404 104.664 38.1317 103.905 39.3976 103.406C39.8811 102.145 39.9707 100.757 39.5748 99.5287C40.1578 99.5582 40.7522 99.5521 41.3351 99.5817C41.6241 98.9268 42.1051 98.4122 42.6105 97.9447C43.0264 96.0322 44.2759 94.2296 45.8452 93.2771C46.363 91.9087 46.6058 90.4127 46.5522 88.9791C48.0319 89.4143 49.4704 87.5149 49.8649 85.7922C50.2709 84.0338 50.164 82.1503 51.0241 80.5769C52.0183 81.1712 53.4876 80.7768 54.2591 79.7258C54.6212 79.2124 54.8744 78.5461 55.2122 77.9855C56.1095 76.5421 57.5873 75.875 59.1253 75.2666C59.6948 74.2295 60.3131 73.2868 61.2079 72.5902C62.0326 71.9891 63.015 71.6352 63.7308 70.8812C64.9977 69.5169 65.1669 66.8957 66.8237 66.286C67.0013 66.225 67.1789 66.1639 67.3808 66.1499C67.4281 66.1258 67.4868 66.0659 67.4982 66.0302C67.8618 65.6353 68.0807 65.076 68.3597 64.5753C68.5572 64.2059 68.8263 63.8594 69.1084 63.5957C69.1885 63.346 69.2685 63.0962 69.4088 62.9051C70.1903 61.7 71.7774 62.1696 73.1209 62.1677C72.7722 60.9149 72.541 59.5423 73.0131 58.3166C73.5667 56.9597 75.4842 56.2763 76.082 57.491C78.19 56.8293 79.9593 54.7606 80.4881 52.3727C80.9666 52.6048 81.5252 52.5873 82.0106 52.4282C82.0305 52.1198 82.0032 51.8356 81.94 51.5399C82.4344 52.0919 83.285 51.6565 83.8719 51.0578C84.3156 50.4132 84.6031 49.6398 84.534 48.8701C84.9051 49.0678 85.299 49.1941 85.7272 49.2134C85.7745 49.1893 85.8217 49.1651 85.9048 49.1524C86.0824 49.0913 86.2729 49.113 86.4634 49.1348C87.1393 48.9974 87.7651 48.6473 88.2689 48.0613C88.6758 48.2705 89.0941 48.444 89.5368 48.6646C89.584 48.6404 89.5955 48.6048 89.6427 48.5806C89.69 48.5564 89.7014 48.5207 89.7601 48.4608C89.8243 47.8913 89.8885 47.3217 89.9527 46.7521C90.1109 45.1503 90.3622 43.3817 91.4057 42.2212C92.508 41.0009 94.0977 40.7238 95.554 40.2466C99.4248 38.8912 102.533 35.4812 106.144 33.3343C107.808 32.3334 109.593 31.5683 111.431 31.1346C112.675 30.8255 113.981 30.6936 115.093 31.1681C115.643 31.4232 116.076 31.7981 116.427 32.3041C118.469 32.0935 120.61 32.19 122.551 31.4352C123.817 30.9363 124.995 30.0945 126.274 29.6783C127.553 29.2622 129.101 29.4834 129.723 30.7452C129.594 30.9006 129.43 31.0446 129.253 31.2242C129.301 31.2 129.372 31.2229 129.42 31.1987C130.192 31.1315 130.951 30.9815 131.7 30.9857C133.221 30.9226 134.73 30.8953 136.253 30.9508L136.244 31.2235Z" fill="#FCEFEF"/>
<path d="M180.432 94.2634C180.266 94.2888 180.088 94.3499 179.911 94.411C179.236 94.6668 178.612 95.1355 177.999 95.5685C176.844 96.339 175.626 96.9323 174.359 97.3127C174.116 97.8249 173.502 98.1394 173.036 97.9901C172.874 98.371 172.701 98.7876 172.54 99.1686C170.747 100.325 169.149 101.858 167.852 103.685C167.59 103.641 167.292 103.584 167.03 103.54C166.233 104.425 165.411 105.263 164.614 106.148C164.304 106.128 164.01 106.309 163.726 106.454C163.112 106.768 162.486 107.118 162.029 107.68C161.444 108.397 161.231 109.431 160.646 110.148C160.329 110.519 159.928 110.784 159.636 111.201C159.414 111.524 159.266 111.987 159.389 112.342C159.283 112.426 159.213 112.521 159.107 112.605C158.324 112.708 157.556 113.131 156.958 113.765C156.756 113.779 156.507 113.817 156.305 113.831C155.775 114.252 155.209 114.66 154.691 115.045C154.321 114.966 153.988 114.898 153.618 114.819C153.064 115.192 152.486 115.518 151.931 115.891C152.363 116.148 152.782 116.44 153.238 116.743C153.182 117.04 153.019 117.302 152.772 117.459C152.554 118.137 152.373 118.826 152.202 119.48C151.92 119.744 151.663 120.054 151.381 120.318C151.038 120.523 150.709 120.811 150.5 121.216C150.5 121.216 150.489 121.252 150.442 121.276C149.926 120.914 149.364 120.694 148.757 120.618C148.753 121.246 148.773 121.921 148.769 122.549C147.946 123.269 147.111 124.024 146.324 124.756C146.449 125.228 145.979 125.707 145.54 125.724C145.1 125.74 144.727 125.424 144.391 125.119C144.318 125.961 143.853 126.796 143.181 127.289C143.386 127.512 143.285 127.951 143.039 128.227C142.804 128.466 142.496 128.564 142.165 128.733C141.315 129.169 140.659 129.982 140.051 130.77C139.653 131.272 139.255 131.774 138.893 132.287C137.945 133.518 136.673 133.543 135.63 134.703C135.512 134.823 135.508 135.451 135.478 135.914C135.302 136.093 135.091 136.261 134.867 136.465C134.831 136.454 134.784 136.478 134.748 136.466C134.226 136.496 133.379 137.287 133.344 137.275C133.344 137.275 133.086 137.586 132.972 137.943L132.911 137.884C132.957 137.741 133.014 137.563 133.06 137.42C133.094 137.313 133.14 137.17 133.175 137.063C133.243 136.849 133.336 136.682 133.405 136.468C133.544 136.159 133.635 135.873 133.774 135.564C133.959 135.112 134.179 134.671 134.375 134.183C134.421 134.04 134.502 133.909 134.537 133.802C134.826 133.147 135.162 132.468 135.522 131.836C135.627 131.633 135.731 131.431 135.836 131.228C135.847 131.193 135.859 131.157 135.906 131.133C136.115 130.728 136.324 130.322 136.569 129.929C136.732 129.666 136.87 129.357 137.034 129.094C137.197 128.832 137.336 128.522 137.499 128.26C137.964 127.425 138.465 126.602 139.001 125.791C139.013 125.755 139.024 125.719 139.072 125.695C139.235 125.433 139.398 125.17 139.55 124.944C139.783 124.586 140.016 124.228 140.249 123.87C140.541 123.452 140.845 122.998 141.101 122.569C141.393 122.151 141.685 121.733 141.977 121.315C142.339 120.802 142.713 120.253 143.111 119.751C145.835 116.061 148.846 112.58 152.04 109.395C152.51 108.916 153.015 108.448 153.485 107.969C153.496 107.934 153.543 107.91 153.543 107.91C153.837 107.61 154.166 107.322 154.495 107.035C154.495 107.035 154.507 106.999 154.543 107.01C155.777 105.872 157.071 104.792 158.39 103.759C158.967 103.314 159.555 102.834 160.156 102.437C160.31 102.329 160.463 102.22 160.58 102.101C160.981 101.836 161.358 101.524 161.759 101.259C162.914 100.488 164.105 99.7293 165.309 99.0532C166.525 98.3414 167.754 97.7124 169.007 97.1306C169.645 96.8633 170.284 96.596 170.923 96.3287C171.242 96.195 171.55 96.097 171.869 95.9634L172.84 95.6452C173.148 95.5472 173.503 95.4251 173.811 95.3271C174.155 95.2406 174.463 95.1426 174.795 95.0918C175.435 94.9429 176.087 94.7585 176.775 94.704C177.072 94.6417 177.393 94.6265 177.689 94.5642C177.725 94.5757 177.736 94.54 177.772 94.5515C178.105 94.5007 178.437 94.4498 178.746 94.4704C179.481 94.2732 179.956 94.2683 180.432 94.2634Z" fill="#FCEFEF"/>
<path d="M180.432 94.2634C180.266 94.2888 180.088 94.3499 179.911 94.411C179.236 94.6668 178.612 95.1355 177.999 95.5685C176.844 96.339 175.626 96.9323 174.359 97.3127C174.116 97.8249 173.502 98.1394 173.036 97.9901C172.874 98.371 172.701 98.7876 172.54 99.1686C170.747 100.325 169.149 101.858 167.852 103.685C167.59 103.641 167.292 103.584 167.03 103.54C166.233 104.425 165.411 105.263 164.614 106.148C164.304 106.128 164.01 106.309 163.726 106.454C163.112 106.768 162.486 107.118 162.029 107.68C161.444 108.397 161.231 109.431 160.646 110.148C160.329 110.519 159.928 110.784 159.636 111.201C159.414 111.524 159.266 111.987 159.389 112.342C159.283 112.426 159.213 112.521 159.107 112.605C158.324 112.708 157.556 113.131 156.958 113.765C156.756 113.779 156.507 113.817 156.305 113.831C155.775 114.252 155.209 114.66 154.691 115.045C154.321 114.966 153.988 114.898 153.618 114.819C153.064 115.192 152.486 115.518 151.931 115.891C152.363 116.148 152.782 116.44 153.238 116.743C153.182 117.04 153.019 117.302 152.772 117.459C152.554 118.137 152.373 118.826 152.202 119.48C151.92 119.744 151.663 120.054 151.381 120.318C151.038 120.523 150.709 120.811 150.5 121.216C150.5 121.216 150.489 121.252 150.442 121.276C149.926 120.914 149.364 120.694 148.757 120.618C148.753 121.246 148.773 121.921 148.769 122.549C147.946 123.269 147.111 124.024 146.324 124.756C146.449 125.228 145.979 125.707 145.54 125.724C145.1 125.74 144.727 125.424 144.391 125.119C144.318 125.961 143.853 126.796 143.181 127.289C143.386 127.512 143.285 127.951 143.039 128.227C142.804 128.466 142.496 128.564 142.165 128.733C141.315 129.169 140.659 129.982 140.051 130.77C139.653 131.272 139.255 131.774 138.893 132.287C137.945 133.518 136.673 133.543 135.63 134.703C135.512 134.823 135.508 135.451 135.478 135.914C135.302 136.093 135.091 136.261 134.867 136.465C134.831 136.454 134.784 136.478 134.748 136.466C134.226 136.496 133.379 137.287 133.344 137.275C133.344 137.275 133.086 137.586 132.972 137.943L132.911 137.884C132.957 137.741 133.014 137.563 133.06 137.42C133.094 137.313 133.14 137.17 133.175 137.063C133.243 136.849 133.336 136.682 133.405 136.468C133.544 136.159 133.635 135.873 133.774 135.564C133.959 135.112 134.179 134.671 134.375 134.183C134.453 133.814 134.568 133.458 134.599 133.114C134.619 132.805 134.651 132.461 134.778 132.187C134.998 131.746 135.435 131.493 135.836 131.228C135.847 131.193 135.859 131.157 135.906 131.133C136.115 130.728 136.324 130.322 136.569 129.929C136.732 129.666 136.87 129.357 137.034 129.094C137.197 128.832 137.336 128.522 137.499 128.26C137.54 127.762 137.51 127.24 137.349 126.756C137.843 126.324 138.386 125.987 138.966 125.779C138.977 125.744 138.989 125.708 139.036 125.684C139.199 125.421 139.362 125.159 139.514 124.932C139.747 124.574 139.98 124.216 140.214 123.858C140.319 122.79 141.019 121.716 141.941 121.304C142.303 120.791 142.677 120.241 143.075 119.74C143.06 119.538 143.129 119.324 143.222 119.157C143.648 118.074 144.361 117.083 145.22 116.375C145.608 116.027 146.045 115.774 146.373 115.368C147.123 114.506 147.391 113.176 148.286 112.48C148.651 112.203 149.09 112.068 149.395 111.733C149.946 111.123 150.027 110.008 150.748 109.728C150.973 109.643 151.164 109.665 151.364 109.532C151.729 109.256 151.603 108.664 151.848 108.271C152.174 107.746 152.902 107.94 153.46 107.922C153.472 107.887 153.519 107.862 153.519 107.862C153.812 107.563 154.142 107.275 154.471 106.987C154.471 106.987 154.483 106.952 154.518 106.963L154.53 106.928C154.817 106.154 155.573 105.767 156.198 105.298C156.822 104.83 157.466 104.053 157.267 103.32C157.496 103.59 157.933 103.337 158.154 103.014C158.412 102.704 158.61 102.334 158.953 102.248C159.214 102.174 159.442 102.326 159.704 102.37C159.858 102.381 159.977 102.379 160.119 102.307C160.272 102.199 160.426 102.09 160.543 101.971C160.859 101.6 161.042 101.029 160.87 100.58C161.608 100.62 162.337 99.949 162.481 99.1297C162.821 99.6714 163.577 99.2844 164.106 98.8641C165.213 97.9993 166.295 97.0874 167.402 96.2226C167.625 96.0188 167.873 95.8622 168.134 95.7884C168.632 95.7121 169.125 96.1456 169.611 95.9866C169.871 95.9128 170.059 95.6975 170.271 95.5294C171.542 94.5207 173.297 95.0834 174.752 94.4877C175.296 94.2688 175.803 93.9198 176.371 93.748C176.94 93.5763 177.583 93.6645 177.887 94.1947C177.828 94.2546 177.769 94.3145 177.699 94.41C177.735 94.4215 177.746 94.3858 177.782 94.3973C178.114 94.3465 178.447 94.2957 178.756 94.3162C179.481 94.2732 179.956 94.2683 180.432 94.2634Z" fill="#FCEFEF"/>
</g>
<defs>
<clipPath id="clip0_261_1424">
<rect width="120.308" height="129.744" fill="white" transform="translate(39.6219) rotate(17.7814)"/>
</clipPath>
</defs>
</svg>
