<svg width="62" height="93" viewBox="0 0 62 93" fill="none" xmlns="http://www.w3.org/2000/svg">
<path d="M-175.224 83.3679C-175.896 79.0102 -177.459 74.8377 -179.813 71.1099C-182.168 67.3821 -185.265 64.1788 -188.911 61.6995C-188.839 58.2406 -188.034 54.8364 -186.55 51.7112C-185.066 48.5859 -182.937 45.8108 -180.302 43.5686C-166.903 32.4256 -148.204 35.7624 -135.321 45.8957L-134.544 46.5091C-137.016 48.8914 -138.846 51.8604 -139.862 55.1399C-142.273 63.479 -133.782 75.1362 -124.915 68.9471C-116.346 62.9642 -121.157 53.4011 -126.904 46.9186C-125.158 45.6966 -123.315 44.6208 -121.392 43.7021C-111.106 38.8764 -97.3759 38.1562 -86.4083 42.7958C-88.8091 46.522 -90.0327 50.7541 -88.965 55.2904C-87.3118 62.4059 -76.9826 67.5233 -71.0469 62.0921C-63.1899 54.9344 -72.4222 45.6199 -79.1946 41.2921C-76.2452 38.4889 -72.856 36.1884 -69.1619 34.4824C-62.7608 31.5754 -55.7732 30.1913 -48.7473 30.4386C-41.7214 30.6859 -34.8484 32.5579 -28.6676 35.9078C-26.8533 36.9011 -25.105 38.0103 -23.4334 39.2286C-26.0352 42.7872 -28.0533 47.1128 -27.1165 51.5638C-26.6651 53.6024 -25.6048 55.4557 -24.0761 56.8779C-22.5474 58.3002 -20.6226 59.2243 -18.5568 59.5277C-16.6205 59.6892 -14.6961 59.101 -13.1811 57.8846C-11.666 56.6681 -10.6758 54.9163 -10.4151 52.9909C-9.73194 48.5305 -12.2817 43.9774 -15.1165 40.7668C-15.7563 40.0366 -16.4323 39.3409 -17.1269 38.6574C-15.7085 37.1926 -14.1861 35.8323 -12.5716 34.5869C-1.35958 25.9065 13.6712 22.8079 27.5364 25.2033C28.9747 25.4468 30.3926 25.7733 31.7953 26.1418C31.8141 28.9687 32.1088 31.787 32.6752 34.5567C34.5342 43.5913 40.4871 57.551 51.3452 58.2665C61.4929 58.9346 62.6681 47.7908 59.3569 40.7899C55.1774 31.8875 45.3167 26.1309 36.3232 23.1217C35.8938 22.981 35.4756 22.8489 35.0473 22.7181C35.385 16.0247 37.3411 9.51302 40.7478 3.7415C41.4937 2.46554 39.304 1.14251 38.516 2.40328C34.8488 8.29308 32.6029 14.9557 31.9562 21.8637C13.6655 17.3713 -7.29307 22.0336 -20.4887 35.7605C-34.6781 24.4519 -55.9925 22.5005 -72.1534 30.6257C-76.3771 32.7355 -80.2103 35.5499 -83.4881 38.9479C-93.353 34.5338 -104.41 33.5425 -114.903 36.1315C-120.555 37.4933 -125.908 39.8811 -130.697 43.1764L-131.069 42.8475C-140.005 35.361 -151.744 30.5808 -163.549 31.4872C-179.005 32.6924 -192.287 44.7379 -194.068 58.863C-196.37 57.8952 -198.79 57.2388 -201.266 56.9111C-214.309 55.1641 -227.055 62.5348 -232.902 74.1078C-234.413 77.0949 -229.638 79.1708 -228.137 76.1848C-223.36 66.7215 -212.702 60.6035 -202.052 62.0381C-199.292 62.4087 -196.619 63.2594 -194.154 64.5519C-193.709 68.8507 -192.249 72.9824 -189.895 76.6068C-187.246 80.7843 -183.392 84.0594 -178.841 85.9988C-178.427 86.1837 -177.971 86.2562 -177.52 86.2089C-177.069 86.1616 -176.638 85.9962 -176.272 85.7294C-175.905 85.4626 -175.615 85.1039 -175.431 84.6893C-175.247 84.2746 -175.176 83.8188 -175.224 83.3679ZM49.1457 34.6215C52.3593 37.0009 54.8509 40.2242 56.3438 43.9337C58.0897 48.6721 57.3669 54.6778 50.9745 54.0912C41.3356 53.2121 36.4681 38.3794 35.3873 30.4816C35.2529 29.3395 35.1184 28.1974 35.0646 27.0558C40.1662 28.7311 44.9328 31.2921 49.1457 34.6215ZM-15.0041 52.2424C-16.2148 57.6107 -22.1682 53.569 -22.8163 50.3729C-23.3253 47.845 -21.9906 45.07 -20.6553 43.0701C-20.4344 42.7219 -20.2025 42.3825 -19.9607 42.0419C-16.6802 45.0187 -14.1573 48.6588 -14.9656 52.2277L-15.0041 52.2424ZM-76.8928 48.9555C-74.2111 51.5498 -70.4945 58.9158 -76.9166 59.3597C-77.8933 59.4197 -78.8718 59.2789 -79.7919 58.946C-80.7119 58.6131 -81.554 58.0952 -82.2662 57.4242C-82.9783 56.7531 -83.5453 55.9433 -83.9323 55.0446C-84.3192 54.1459 -84.5178 53.1775 -84.5159 52.199C-84.5019 49.5892 -83.7116 47.0426 -82.2457 44.8834C-80.2997 46.0259 -78.4908 47.3872 -76.8543 48.9409L-76.8928 48.9555ZM-127.352 54.0599C-126.61 55.1042 -126.085 56.2866 -125.808 57.5373C-125.531 58.788 -125.508 60.0815 -125.74 61.3413C-126.72 65.5851 -131.278 66.474 -133.948 63.2038C-137.681 58.6087 -134.9 53.7503 -130.742 49.8977C-129.448 51.1477 -128.298 52.5389 -127.314 54.0453L-127.352 54.0599ZM-187.894 69.1416C-185.333 71.6979 -183.313 74.7443 -181.956 78.0988C-184.721 75.7174 -186.765 72.6096 -187.855 69.127L-187.894 69.1416Z" fill="#F4A0B3"/>
</svg>
