<svg width="92" height="93" viewBox="0 0 92 93" fill="none" xmlns="http://www.w3.org/2000/svg">
<path d="M62.7761 83.3679C62.1035 79.0102 60.5413 74.8377 58.1865 71.1099C55.8318 67.3821 52.735 64.1788 49.0889 61.6995C49.1612 58.2406 49.9659 54.8364 51.4499 51.7112C52.9339 48.5859 55.0634 45.8108 57.6982 43.5686C71.0973 32.4256 89.7956 35.7624 102.679 45.8957L103.456 46.5091C100.984 48.8914 99.1544 51.8604 98.1384 55.1399C95.7268 63.479 104.218 75.1362 113.085 68.9471C121.654 62.9642 116.843 53.4011 111.096 46.9186C112.842 45.6966 114.685 44.6208 116.608 43.7021C126.894 38.8764 140.624 38.1562 151.592 42.7958C149.191 46.522 147.967 50.7541 149.035 55.2904C150.688 62.4059 161.017 67.5233 166.953 62.0921C174.81 54.9344 165.578 45.6199 158.805 41.2921C161.755 38.4889 165.144 36.1884 168.838 34.4824C175.239 31.5754 182.227 30.1913 189.253 30.4386C196.279 30.6859 203.152 32.5579 209.332 35.9078C211.147 36.9011 212.895 38.0103 214.567 39.2286C211.965 42.7872 209.947 47.1128 210.883 51.5638C211.335 53.6024 212.395 55.4557 213.924 56.8779C215.453 58.3002 217.377 59.2243 219.443 59.5277C221.379 59.6892 223.304 59.101 224.819 57.8846C226.334 56.6681 227.324 54.9163 227.585 52.9909C228.268 48.5305 225.718 43.9774 222.883 40.7668C222.244 40.0366 221.568 39.3409 220.873 38.6574C222.292 37.1926 223.814 35.8323 225.428 34.5869C236.64 25.9065 251.671 22.8079 265.536 25.2033C266.975 25.4468 268.393 25.7733 269.795 26.1418C269.814 28.9687 270.109 31.787 270.675 34.5567C272.534 43.5913 278.487 57.551 289.345 58.2665C299.493 58.9346 300.668 47.7908 297.357 40.7899C293.177 31.8875 283.317 26.1309 274.323 23.1217C273.894 22.981 273.476 22.8489 273.047 22.7181C273.385 16.0247 275.341 9.51302 278.748 3.7415C279.494 2.46554 277.304 1.14251 276.516 2.40328C272.849 8.29308 270.603 14.9557 269.956 21.8637C251.666 17.3713 230.707 22.0336 217.511 35.7605C203.322 24.4519 182.008 22.5005 165.847 30.6257C161.623 32.7355 157.79 35.5499 154.512 38.9479C144.647 34.5338 133.59 33.5425 123.097 36.1315C117.445 37.4933 112.092 39.8811 107.303 43.1764L106.931 42.8475C97.9949 35.361 86.2555 30.5808 74.4506 31.4872C58.9955 32.6924 45.7127 44.7379 43.9319 58.863C41.6301 57.8952 39.2096 57.2388 36.7343 56.9111C23.6906 55.1641 10.945 62.5348 5.09792 74.1078C3.58679 77.0949 8.36225 79.1708 9.86343 76.1848C14.6398 66.7215 25.2976 60.6035 35.9484 62.0381C38.7076 62.4087 41.3806 63.2594 43.8464 64.5519C44.2914 68.8507 45.751 72.9824 48.105 76.6068C50.7538 80.7843 54.6084 84.0594 59.1589 85.9988C59.5731 86.1837 60.0286 86.2562 60.4798 86.2089C60.9309 86.1616 61.3616 85.9962 61.7284 85.7294C62.0952 85.4626 62.3852 85.1039 62.5692 84.6893C62.7531 84.2746 62.8244 83.8188 62.7761 83.3679ZM287.146 34.6215C290.359 37.0009 292.851 40.2242 294.344 43.9337C296.09 48.6721 295.367 54.6778 288.974 54.0912C279.336 53.2121 274.468 38.3794 273.387 30.4816C273.253 29.3395 273.118 28.1974 273.065 27.0558C278.166 28.7311 282.933 31.2921 287.146 34.6215ZM222.996 52.2424C221.785 57.6107 215.832 53.569 215.184 50.3729C214.675 47.845 216.009 45.07 217.345 43.0701C217.566 42.7219 217.797 42.3825 218.039 42.0419C221.32 45.0187 223.843 48.6588 223.034 52.2277L222.996 52.2424ZM161.107 48.9555C163.789 51.5498 167.505 58.9158 161.083 59.3597C160.107 59.4197 159.128 59.2789 158.208 58.946C157.288 58.6131 156.446 58.0952 155.734 57.4242C155.022 56.7531 154.455 55.9433 154.068 55.0446C153.681 54.1459 153.482 53.1775 153.484 52.199C153.498 49.5892 154.288 47.0426 155.754 44.8834C157.7 46.0259 159.509 47.3872 161.146 48.9409L161.107 48.9555ZM110.648 54.0599C111.39 55.1042 111.915 56.2866 112.192 57.5373C112.469 58.788 112.492 60.0815 112.26 61.3413C111.28 65.5851 106.722 66.474 104.052 63.2038C100.319 58.6087 103.1 53.7503 107.258 49.8977C108.552 51.1477 109.702 52.5389 110.686 54.0453L110.648 54.0599ZM50.1059 69.1416C52.6672 71.6979 54.6867 74.7443 56.0439 78.0988C53.2786 75.7174 51.2351 72.6096 50.1445 69.127L50.1059 69.1416Z" fill="#F4A0B3"/>
</svg>
