<svg width="22" height="22" viewBox="0 0 22 22" fill="none" xmlns="http://www.w3.org/2000/svg">
<g clip-path="url(#clip0_27_1602)">
<path d="M3.66669 4.58329C3.66669 4.34018 3.76326 4.10702 3.93517 3.93511C4.10708 3.7632 4.34024 3.66663 4.58335 3.66663H17.4167C17.6598 3.66663 17.893 3.7632 18.0649 3.93511C18.2368 4.10702 18.3334 4.34018 18.3334 4.58329V6.41663C18.3334 6.65974 18.2368 6.8929 18.0649 7.06481C17.893 7.23672 17.6598 7.33329 17.4167 7.33329H4.58335C4.34024 7.33329 4.10708 7.23672 3.93517 7.06481C3.76326 6.8929 3.66669 6.65974 3.66669 6.41663V4.58329Z" stroke="white" stroke-width="1.5" stroke-linecap="round" stroke-linejoin="round"/>
<path d="M3.66669 11.9167C3.66669 11.6736 3.76326 11.4404 3.93517 11.2685C4.10708 11.0966 4.34024 11 4.58335 11H8.25002C8.49314 11 8.72629 11.0966 8.8982 11.2685C9.07011 11.4404 9.16669 11.6736 9.16669 11.9167V17.4167C9.16669 17.6598 9.07011 17.8929 8.8982 18.0648C8.72629 18.2368 8.49314 18.3333 8.25002 18.3333H4.58335C4.34024 18.3333 4.10708 18.2368 3.93517 18.0648C3.76326 17.8929 3.66669 17.6598 3.66669 17.4167V11.9167Z" stroke="white" stroke-width="1.5" stroke-linecap="round" stroke-linejoin="round"/>
<path d="M12.8333 11H18.3333" stroke="white" stroke-width="1.5" stroke-linecap="round" stroke-linejoin="round"/>
<path d="M12.8333 14.6666H18.3333" stroke="white" stroke-width="1.5" stroke-linecap="round" stroke-linejoin="round"/>
<path d="M12.8333 18.3334H18.3333" stroke="white" stroke-width="1.5" stroke-linecap="round" stroke-linejoin="round"/>
</g>
<defs>
<clipPath id="clip0_27_1602">
<rect width="22" height="22" fill="white"/>
</clipPath>
</defs>
</svg>
