<svg width="177" height="31" viewBox="0 0 177 31" fill="none" xmlns="http://www.w3.org/2000/svg">
<g clip-path="url(#clip0_100_2741)">
<path d="M0.0422995 16.4526C0.192698 18.0341 0.728492 19.5498 1.60268 20.7652C3.44506 23.3134 6.07233 24.2613 9.3059 24.3176C9.70069 24.2801 10.2929 24.2613 10.8757 24.1674C13.0706 23.8202 14.9646 22.8863 16.3417 21.1031C18.17 18.7333 18.5695 16.0537 17.888 13.1912C17.2582 10.5398 15.6508 8.65804 13.1458 7.57872C11.247 6.76219 9.2542 6.61671 7.22382 6.95928C6.23213 7.12822 5.35324 7.41917 4.57305 7.79928C4.57305 7.68196 4.57305 7.57403 4.57305 7.47548C4.57305 7.35816 4.57305 7.25492 4.57305 7.15168C4.57305 7.03437 4.57305 6.93113 4.57305 6.82789C4.57305 6.71057 4.57305 6.60733 4.57305 6.50409C4.57305 6.38677 4.57305 6.28353 4.57305 6.18029C4.57305 6.06298 4.57305 5.95974 4.57305 5.8565C4.57305 5.73918 4.57305 5.63594 4.57305 5.5327C4.57305 5.41538 4.57305 5.31214 4.57305 5.2089C4.57305 5.09159 4.57305 4.98835 4.57305 4.88511C4.57305 4.76779 4.57305 4.66455 4.57305 4.56131C4.57305 4.44399 4.57305 4.34075 4.57305 4.23751C4.57305 4.12019 4.57305 4.01696 4.57305 3.91372C4.57305 3.7964 4.57305 3.69316 4.57305 3.58992C4.57305 2.3792 4.57305 1.81608 4.57305 0.605359C4.57305 0.112625 4.43675 0.00469271 3.83046 0C2.82937 0 1.83298 0 0.831891 0C0.0798991 0 0.00469995 0.0610052 0.00469995 0.656979C0.00469995 1.52513 0.00469995 2.26658 0.00469995 2.99864C0.00469995 3.09719 0.00469995 3.19573 0.00469995 3.29428C0.00469995 3.30366 0.00469995 3.31305 0.00469995 3.32244C0.00469995 3.42098 0.00469995 3.51953 0.00469995 3.61808C0.00469995 3.62746 0.00469995 3.63685 0.00469995 3.64623C0.00469995 3.74478 0.00469995 3.84333 0.00469995 3.94187C0.00469995 3.95126 0.00469995 3.96064 0.00469995 3.97003C0.00469995 4.06858 0.00469995 4.16712 0.00469995 4.26567C0.00469995 4.27505 0.00469995 4.28444 0.00469995 4.29383C0.00469995 4.39237 0.00469995 4.49092 0.00469995 4.58947C0.00469995 4.59885 0.00469995 4.60824 0.00469995 4.61762C0.00469995 4.71617 0.00469995 4.81472 0.00469995 4.91326C0.00469995 4.92265 0.00469995 4.93203 0.00469995 4.94142C0.00469995 5.03997 0.00469995 5.13851 0.00469995 5.23706C0.00469995 5.24644 0.00469995 5.25583 0.00469995 5.26522C0.00469995 5.36376 0.00469995 5.46231 0.00469995 5.56086C0.00469995 5.57024 0.00469995 5.57963 0.00469995 5.58901C0.00469995 5.68756 0.00469995 5.78611 0.00469995 5.88465C0.00469995 5.89404 0.00469995 5.90342 0.00469995 5.91281C0.00469995 6.01136 0.00469995 6.1099 0.00469995 6.20845C0.00469995 6.21783 0.00469995 6.22722 0.00469995 6.23661C0.00469995 6.33515 0.00469995 6.4337 0.00469995 6.53225C0.00469995 6.54163 0.00469995 6.55102 0.00469995 6.5604C0.00469995 6.65895 0.00469995 6.7575 0.00469995 6.85604C0.00469995 6.86543 0.00469995 6.87481 0.00469995 6.8842C0.00469995 6.95928 0.00469995 7.03437 0.00469995 7.10476C0.00469995 7.73827 0.00469995 8.33424 0.00469995 9.02407C0.00469995 9.12262 0.00469995 9.21647 0.00469995 9.31502C0.00469995 9.36195 0.00469995 9.41357 0.00469995 9.46049C0.00469995 9.67636 0.00469995 9.90161 0.00469995 10.1362C0.00469995 11.8679 0.00939989 13.5995 0 15.3264C0 15.3498 0 15.378 0 15.4015M10.9791 19.8408C8.25311 20.9952 4.76105 19.592 4.69525 15.561C4.69055 13.0739 6.09113 11.3329 8.42231 10.9434C11.0637 10.4976 13.3949 12.3981 13.5311 15.1011C13.6439 17.3255 12.7134 19.104 10.9791 19.8408Z" fill="white"/>
<path d="M20.1957 15.5798C20.1957 15.6033 20.1957 15.6315 20.1957 15.6549C20.2051 17.3865 20.2004 19.1181 20.2004 20.845C20.2004 21.0797 20.2004 21.3002 20.2004 21.5208C20.2004 21.5724 20.2004 21.6193 20.2004 21.6663C20.2004 21.7648 20.2004 21.8634 20.2004 21.9572C20.2004 22.6517 20.2004 23.243 20.2004 23.8765C20.2004 23.9516 20.2004 24.0267 20.2004 24.0971C20.2004 24.1065 20.2004 24.1159 20.2004 24.1252C20.2004 24.2238 20.2004 24.3223 20.2004 24.4209C20.2004 24.4303 20.2004 24.4397 20.2004 24.449C20.2004 24.5476 20.2004 24.6461 20.2004 24.7447C20.2004 24.7541 20.2004 24.7635 20.2004 24.7728C20.2004 24.8714 20.2004 24.9699 20.2004 25.0685C20.2004 25.0779 20.2004 25.0872 20.2004 25.0966C20.2004 25.1952 20.2004 25.2937 20.2004 25.3923C20.2004 25.4017 20.2004 25.411 20.2004 25.4204C20.2004 25.519 20.2004 25.6175 20.2004 25.7161C20.2004 25.7255 20.2004 25.7348 20.2004 25.7442C20.2004 25.8428 20.2004 25.9413 20.2004 26.0399C20.2004 26.0493 20.2004 26.0586 20.2004 26.068C20.2004 26.1666 20.2004 26.2651 20.2004 26.3637C20.2004 26.3731 20.2004 26.3824 20.2004 26.3918C20.2004 26.4904 20.2004 26.5889 20.2004 26.6875C20.2004 26.6968 20.2004 26.7062 20.2004 26.7156C20.2004 26.8142 20.2004 26.9127 20.2004 27.0113C20.2004 27.0206 20.2004 27.03 20.2004 27.0394C20.2004 27.138 20.2004 27.2365 20.2004 27.3351C20.2004 27.3444 20.2004 27.3538 20.2004 27.3632C20.2004 27.4618 20.2004 27.5603 20.2004 27.6589C20.2004 27.6682 20.2004 27.6776 20.2004 27.687C20.2004 27.7856 20.2004 27.8841 20.2004 27.9826C20.2004 28.71 20.2004 29.4515 20.2004 30.3243C20.2004 30.9203 20.2756 30.9813 21.0276 30.9813C22.0287 30.9813 23.025 30.986 24.0261 30.9813C24.6324 30.9766 24.7687 30.8687 24.7687 30.3759C24.7687 29.1652 24.7687 28.6021 24.7687 27.3914C24.7687 27.2881 24.7687 27.1802 24.7687 27.0676C24.7687 26.9643 24.7687 26.8564 24.7687 26.7438C24.7687 26.6405 24.7687 26.5326 24.7687 26.42C24.7687 26.3167 24.7687 26.2088 24.7687 26.0962C24.7687 25.9929 24.7687 25.885 24.7687 25.7724C24.7687 25.6691 24.7687 25.5612 24.7687 25.4486C24.7687 25.3453 24.7687 25.2374 24.7687 25.1248C24.7687 25.0216 24.7687 24.9136 24.7687 24.801C24.7687 24.6978 24.7687 24.5898 24.7687 24.4772C24.7687 24.374 24.7687 24.266 24.7687 24.1534C24.7687 24.0502 24.7687 23.9422 24.7687 23.8296C24.7687 23.7264 24.7687 23.6184 24.7687 23.5058C24.7687 23.4026 24.7687 23.2993 24.7687 23.182C25.5442 23.5668 26.4278 23.8578 27.4195 24.022C29.4499 24.3646 31.4427 24.2191 33.3414 23.4026C35.8465 22.3232 37.4492 20.4462 38.0837 17.7901C38.7652 14.9322 38.3657 12.248 36.5374 9.8782C35.1603 8.09497 33.2662 7.16112 31.0714 6.81386C30.4886 6.72001 29.8964 6.70124 29.5016 6.6637C26.268 6.72001 23.6407 7.66794 21.7984 10.2161C20.9242 11.4315 20.3884 12.9472 20.238 14.5287M33.7221 15.8989C33.5811 18.6019 31.25 20.5025 28.6133 20.0567C26.2868 19.6625 24.8815 17.9262 24.8862 15.4391C24.952 11.408 28.4441 10.0002 31.1701 11.1593C32.909 11.8961 33.8396 13.6793 33.7221 15.8989Z" fill="white"/>
<path d="M93.3269 24.3083C90.0792 24.2519 87.4425 23.2993 85.5955 20.7418C82.4512 16.3917 83.692 8.16536 91.2401 6.89364C93.2799 6.55107 95.2774 6.69185 97.1855 7.51307C99.7 8.59709 101.307 10.4836 101.942 13.1443C102.623 16.0162 102.229 18.7052 100.391 21.0844C99.0091 22.8723 97.1103 23.8108 94.9061 24.1581C94.3186 24.2519 93.7264 24.2754 93.3269 24.3083ZM88.6974 15.5235C88.7632 19.5686 92.2647 20.9811 95.0048 19.822C96.7484 19.0853 97.6837 17.2974 97.5662 15.0636C97.4252 12.3466 95.0847 10.4413 92.4386 10.8918C90.098 11.2813 88.6927 13.027 88.6974 15.5235Z" fill="white"/>
<path d="M51.6243 8.92555C52.9167 7.89315 54.3408 7.37226 55.9153 7.26902C59.7411 7.02031 62.9887 9.10856 63.219 13.3695C63.407 16.8093 63.3036 20.2631 63.3271 23.7123C63.3318 24.1346 63.1579 24.3598 62.6926 24.3552C61.5976 24.3411 60.5025 24.3364 59.4074 24.3552C58.9139 24.3645 58.7682 24.1346 58.7682 23.6747C58.7776 20.8919 58.7729 18.1139 58.7729 15.3311C58.7729 15.0167 58.7682 14.6976 58.7212 14.3879C58.4157 12.3653 57.4287 11.4643 55.3889 11.3939C54.0447 11.347 52.8509 11.7412 51.9674 12.8017C51.7418 13.0739 51.5914 13.4915 51.5867 13.8435C51.5585 17.0533 51.5726 20.2584 51.5679 23.4682C51.5679 24.3129 51.5303 24.3505 50.6937 24.3505C49.7302 24.3505 48.762 24.3505 47.7985 24.3505C47.0653 24.3505 46.9807 24.266 46.9807 23.5105C46.9807 20.7465 46.9807 17.9825 46.9807 15.2232C46.9807 13.0176 46.9807 10.812 46.9807 8.60175C46.9807 7.91192 47.1029 7.78522 47.7844 7.78522C48.6586 7.78053 49.5281 7.78053 50.4023 7.78522C51.535 7.79461 51.5021 7.68667 51.6243 8.92555Z" fill="#F1AF1D"/>
<path d="M108.902 8.9772C110.665 7.6257 112.601 7.16582 114.744 7.38168C117.644 7.66794 119.849 9.62479 120.384 12.5202C120.516 13.2288 120.582 13.9562 120.587 14.6741C120.61 17.6399 120.596 20.6057 120.596 23.5762C120.596 24.3505 120.511 24.4256 119.731 24.4256C118.73 24.4256 117.724 24.4115 116.723 24.4303C116.216 24.4397 116.032 24.2426 116.037 23.7404C116.051 20.9577 116.046 18.1796 116.042 15.3968C116.042 15.0824 116.037 14.7633 115.99 14.4536C115.684 12.4357 114.688 11.5347 112.648 11.4643C111.304 11.4174 110.11 11.8163 109.231 12.8768C109.006 13.149 108.86 13.5667 108.855 13.9233C108.827 17.1331 108.841 20.3382 108.837 23.548C108.837 24.3833 108.799 24.4209 107.953 24.4209C107.004 24.4209 106.059 24.4209 105.11 24.4209C104.32 24.4209 104.245 24.3505 104.245 23.5715C104.245 20.0661 104.245 16.5606 104.245 13.0599C104.245 11.5957 104.245 10.1316 104.245 8.66748C104.245 7.98704 104.372 7.86034 105.058 7.86034C105.913 7.85564 106.769 7.86034 107.619 7.86034C108.733 7.85564 108.733 7.85564 108.902 8.9772Z" fill="white"/>
<path d="M126.241 11.0324C124.854 11.0324 123.552 11.0183 122.255 11.0371C121.757 11.0465 121.545 10.8681 121.56 10.3566C121.583 9.55888 121.588 8.76113 121.56 7.96337C121.541 7.41432 121.794 7.24538 122.297 7.25477C123.411 7.26885 124.525 7.25946 125.639 7.25946C125.818 7.25946 126.001 7.24538 126.236 7.2313C126.236 6.9779 126.236 6.76203 126.236 6.54617C126.236 4.63624 126.245 2.72631 126.227 0.81638C126.222 0.304875 126.433 0.12186 126.922 0.126553C127.961 0.140631 129.004 0.126553 130.043 0.131245C130.645 0.135938 130.781 0.272026 130.785 0.896156C130.79 2.78732 130.785 4.67847 130.785 6.56963C130.785 6.77142 130.785 6.97321 130.785 7.25477C131.298 7.25477 131.772 7.25477 132.247 7.25477C133.361 7.25477 134.475 7.26415 135.589 7.25008C136.073 7.24538 136.303 7.4284 136.284 7.9446C136.256 8.74236 136.256 9.54011 136.284 10.3379C136.303 10.8869 136.068 11.0418 135.551 11.0371C133.996 11.0183 132.435 11.0277 130.828 11.0277C130.809 11.2154 130.785 11.375 130.785 11.5298C130.781 13.4398 130.781 15.3497 130.785 17.2596C130.785 17.5928 130.785 17.9307 130.847 18.2592C131.1 19.5919 131.965 20.3286 133.385 20.3615C134.066 20.3756 134.757 20.3052 135.429 20.1925C135.904 20.1175 136.096 20.2348 136.092 20.7087C136.087 21.5628 136.115 22.4169 136.068 23.2663C136.054 23.4868 135.847 23.8482 135.673 23.8857C133.869 24.2658 132.05 24.477 130.222 23.9796C127.937 23.3601 126.654 21.8162 126.372 19.5309C126.189 18.048 126.25 16.5369 126.231 15.0353C126.227 13.7307 126.241 12.4167 126.241 11.0324Z" fill="white"/>
<path d="M74.2216 24.3599C71.7071 24.2942 69.4417 23.6184 67.6417 21.7977C65.8839 20.0191 65.2447 17.7854 65.287 15.3499C65.3293 13.1209 65.9732 11.0889 67.5477 9.423C68.8448 8.04804 70.4616 7.27844 72.2946 6.95934C74.4096 6.5933 76.4776 6.78101 78.428 7.71955C79.9884 8.47039 81.1634 9.61071 81.8449 11.2203C82.0987 11.821 82.0329 11.9571 81.4266 12.1448C80.4208 12.4592 79.4103 12.7595 78.4045 13.0833C78.0614 13.1959 77.8029 13.1631 77.6102 12.8158C76.675 11.0889 75.1099 10.69 73.3427 10.9387C71.6601 11.1734 70.6167 12.2574 70.2172 13.8623C69.719 15.8426 69.8553 17.7479 71.4345 19.2683C73.1124 20.8873 76.5575 20.4555 77.5679 18.372C77.7512 17.9966 77.9768 17.8699 78.4092 18.0107C79.4103 18.3438 80.4302 18.616 81.436 18.921C82.0188 19.0947 82.0987 19.2448 81.8637 19.8033C80.8814 22.1825 78.9967 23.4636 76.5716 24.0267C75.8102 24.2191 75.0112 24.2566 74.2216 24.3599Z" fill="white"/>
<path d="M177 12.5624C177 16.1757 177 19.7891 177 23.4072C177 24.3504 176.991 24.3551 176.027 24.3551C175.082 24.3551 174.133 24.3551 173.188 24.3551C172.511 24.3551 172.413 24.2613 172.413 23.5855C172.408 19.9721 172.413 16.3588 172.413 12.7407C172.413 9.03346 172.413 5.32622 172.413 1.61899C172.413 0.72268 172.483 0.656982 173.4 0.656982C174.312 0.656982 175.219 0.656982 176.13 0.656982C176.953 0.656982 177.005 0.708602 177.005 1.55329C177 5.22298 177 8.89268 177 12.5624Z" fill="white"/>
<path d="M142.878 9.65285C143.786 8.49375 144.838 7.818 146.121 7.63029C146.953 7.51297 147.818 7.5599 148.664 7.56929C149.021 7.57398 149.153 7.82269 149.148 8.17934C149.134 9.16011 149.129 10.1456 149.148 11.1264C149.158 11.6144 148.941 11.7223 148.5 11.6895C147.268 11.5956 146.023 11.5862 144.932 12.2432C144.298 12.6233 143.734 13.1583 143.217 13.698C142.996 13.9326 142.893 14.3643 142.893 14.7069C142.869 17.6351 142.878 20.5634 142.878 23.4963C142.878 24.2847 142.803 24.3551 142.023 24.3598C141.003 24.3598 139.979 24.3457 138.959 24.3645C138.489 24.3739 138.282 24.2002 138.282 23.7216C138.287 18.6253 138.287 13.5243 138.282 8.42805C138.282 7.97755 138.479 7.78984 138.921 7.78984C140.016 7.79454 141.111 7.79454 142.206 7.78984C142.672 7.78515 142.893 8.00102 142.878 8.46559C142.874 8.80347 142.878 9.14603 142.878 9.65285Z" fill="white"/>
<path d="M40.3913 16.0678C40.3913 13.5807 40.3913 11.0983 40.3913 8.61114C40.3913 7.8603 40.4665 7.78522 41.2232 7.78053C42.2243 7.78053 43.2301 7.77584 44.2312 7.78053C44.8422 7.78522 44.9785 7.92131 44.9785 8.54075C44.9832 13.5666 44.9785 18.5925 44.9832 23.6184C44.9832 24.1205 44.8187 24.3692 44.2688 24.3552C43.2113 24.327 42.1491 24.327 41.0916 24.3552C40.5464 24.3692 40.3772 24.144 40.3819 23.6278C40.4007 21.1125 40.3913 18.5925 40.3913 16.0678Z" fill="#F1AF1D"/>
<path d="M42.6849 6.37742C44.1593 6.37742 45.3545 5.18406 45.3545 3.71197C45.3545 2.23987 44.1593 1.04651 42.6849 1.04651C41.2105 1.04651 40.0153 2.23987 40.0153 3.71197C40.0153 5.18406 41.2105 6.37742 42.6849 6.37742Z" fill="#F1AF1D"/>
<path d="M150.173 15.5891C150.177 15.5469 150.187 15.5047 150.191 15.4625C150.182 15.5047 150.177 15.5469 150.173 15.5891Z" fill="#F1AF1D"/>
<path d="M167.337 15.6314C165.932 17.0157 164.658 17.9637 163.751 18.5549C159.826 21.2532 155.361 21.3471 153.308 19.1415C151.569 17.2691 151.963 13.9045 154.013 10.6806H154.008C154.008 10.6806 154.201 10.3474 154.614 9.79366C154.948 9.33847 155.319 8.89266 155.719 8.45624C156.438 7.65378 157.397 6.70586 158.623 5.7157C158.379 5.84709 158.139 5.97849 157.895 6.12396C157.552 6.31636 157.213 6.51815 156.875 6.73871C155.902 7.36284 154.943 8.09959 154.027 8.94897C149.049 13.576 147.245 19.7234 150.004 22.6798C152.758 25.6362 159.032 24.2847 164.009 19.6577C165.363 18.3954 166.477 17.0204 167.337 15.6314Z" fill="#F1AF1D"/>
<path d="M166.533 14.8102C168.352 12.3043 168.554 10.2113 168.347 8.80352C168.253 7.87436 167.924 7.05314 167.327 6.41493C167.154 6.22722 166.961 6.06767 166.759 5.9222V5.91751C166.759 5.91751 166.731 5.89873 166.688 5.86589C166.688 5.86589 166.688 5.86589 166.684 5.86589C166.627 5.82834 166.533 5.77203 166.411 5.70633C166.223 5.60309 166.026 5.51393 165.819 5.43885C164.503 4.94142 161.88 4.53785 158.459 6.95929C157.265 7.80397 157.049 8.3014 157.049 8.3014C157.063 8.29201 157.077 8.28263 157.091 8.27324C157.542 7.98229 162.04 5.24645 165.222 8.42341C167.929 11.1264 165.368 15.8097 165.368 15.8097C165.339 15.8566 165.307 15.9036 165.278 15.9505C165.415 15.8848 165.847 15.622 166.533 14.8102Z" fill="white"/>
</g>
<defs>
<clipPath id="clip0_100_2741">
<rect width="177" height="31" fill="white"/>
</clipPath>
</defs>
</svg>
