<svg width="337" height="59" viewBox="0 0 337 59" fill="none" xmlns="http://www.w3.org/2000/svg">
<g clip-path="url(#clip0_100_2759)">
<path d="M0.0805364 31.3131C0.366888 34.3229 1.38702 37.2077 3.05143 39.5209C6.55924 44.3706 11.5614 46.1747 17.718 46.2819C18.4697 46.2104 19.5972 46.1747 20.7068 45.9961C24.8857 45.3352 28.492 43.5579 31.1139 40.164C34.5949 35.6537 35.3555 30.5539 34.0579 25.1058C32.8588 20.0597 29.7985 16.4782 25.0289 14.424C21.4137 12.87 17.6196 12.5931 13.7538 13.2451C11.8657 13.5666 10.1923 14.1204 8.70688 14.8438C8.70688 14.6205 8.70688 14.4151 8.70688 14.2275C8.70688 14.0042 8.70688 13.8078 8.70688 13.6113C8.70688 13.388 8.70688 13.1915 8.70688 12.995C8.70688 12.7717 8.70688 12.5752 8.70688 12.3788C8.70688 12.1555 8.70688 11.959 8.70688 11.7625C8.70688 11.5392 8.70688 11.3427 8.70688 11.1462C8.70688 10.923 8.70688 10.7265 8.70688 10.53C8.70688 10.3067 8.70688 10.1102 8.70688 9.91372C8.70688 9.69044 8.70688 9.49395 8.70688 9.29746C8.70688 9.07418 8.70688 8.87769 8.70688 8.6812C8.70688 8.45792 8.70688 8.26143 8.70688 8.06495C8.70688 7.84166 8.70688 7.64518 8.70688 7.44869C8.70688 7.22541 8.70688 7.02892 8.70688 6.83243C8.70688 4.52816 8.70688 3.45641 8.70688 1.15214C8.70688 0.214351 8.44737 0.00893128 7.29302 0C5.38699 0 3.48991 0 1.58388 0C0.152124 0 0.00894849 0.116107 0.00894849 1.25038C0.00894849 2.90267 0.00894849 4.31381 0.00894849 5.70709C0.00894849 5.89464 0.00894849 6.0822 0.00894849 6.26976C0.00894849 6.28762 0.00894849 6.30548 0.00894849 6.32335C0.00894849 6.5109 0.00894849 6.69846 0.00894849 6.88602C0.00894849 6.90388 0.00894849 6.92174 0.00894849 6.9396C0.00894849 7.12716 0.00894849 7.31472 0.00894849 7.50227C0.00894849 7.52014 0.00894849 7.538 0.00894849 7.55586C0.00894849 7.74342 0.00894849 7.93098 0.00894849 8.11853C0.00894849 8.1364 0.00894849 8.15426 0.00894849 8.17212C0.00894849 8.35968 0.00894849 8.54723 0.00894849 8.73479C0.00894849 8.75265 0.00894849 8.77052 0.00894849 8.78838C0.00894849 8.97594 0.00894849 9.16349 0.00894849 9.35105C0.00894849 9.36891 0.00894849 9.38678 0.00894849 9.40464C0.00894849 9.59219 0.00894849 9.77975 0.00894849 9.96731C0.00894849 9.98517 0.00894849 10.003 0.00894849 10.0209C0.00894849 10.2085 0.00894849 10.396 0.00894849 10.5836C0.00894849 10.6014 0.00894849 10.6193 0.00894849 10.6372C0.00894849 10.8247 0.00894849 11.0123 0.00894849 11.1998C0.00894849 11.2177 0.00894849 11.2355 0.00894849 11.2534C0.00894849 11.441 0.00894849 11.6285 0.00894849 11.8161C0.00894849 11.8339 0.00894849 11.8518 0.00894849 11.8697C0.00894849 12.0572 0.00894849 12.2448 0.00894849 12.4323C0.00894849 12.4502 0.00894849 12.4681 0.00894849 12.4859C0.00894849 12.6735 0.00894849 12.861 0.00894849 13.0486C0.00894849 13.0665 0.00894849 13.0843 0.00894849 13.1022C0.00894849 13.2451 0.00894849 13.388 0.00894849 13.522C0.00894849 14.7277 0.00894849 15.862 0.00894849 17.1749C0.00894849 17.3624 0.00894849 17.541 0.00894849 17.7286C0.00894849 17.8179 0.00894849 17.9161 0.00894849 18.0055C0.00894849 18.4163 0.00894849 18.845 0.00894849 19.2916C0.00894849 22.5872 0.017897 25.8828 0 29.1696C0 29.2142 0 29.2678 0 29.3125M20.9037 37.7614C15.7135 39.9585 9.06482 37.2881 8.93954 29.6161C8.93059 24.8825 11.5972 21.569 16.0357 20.8277C21.0647 19.9793 25.5032 23.5964 25.7627 28.7409C25.9775 32.9743 24.2057 36.3592 20.9037 37.7614Z" fill="#010101"/>
<path d="M38.4512 29.6518C38.4512 29.6964 38.4512 29.75 38.4512 29.7947C38.4691 33.0903 38.4601 36.386 38.4601 39.6727C38.4601 40.1192 38.4601 40.539 38.4601 40.9588C38.4601 41.057 38.4601 41.1463 38.4601 41.2357C38.4601 41.4232 38.4601 41.6108 38.4601 41.7894C38.4601 43.1112 38.4601 44.2366 38.4601 45.4423C38.4601 45.5852 38.4601 45.7281 38.4601 45.8621C38.4601 45.8799 38.4601 45.8978 38.4601 45.9156C38.4601 46.1032 38.4601 46.2908 38.4601 46.4783C38.4601 46.4962 38.4601 46.514 38.4601 46.5319C38.4601 46.7195 38.4601 46.907 38.4601 47.0946C38.4601 47.1124 38.4601 47.1303 38.4601 47.1482C38.4601 47.3357 38.4601 47.5233 38.4601 47.7108C38.4601 47.7287 38.4601 47.7466 38.4601 47.7644C38.4601 47.952 38.4601 48.1395 38.4601 48.3271C38.4601 48.3449 38.4601 48.3628 38.4601 48.3807C38.4601 48.5682 38.4601 48.7558 38.4601 48.9433C38.4601 48.9612 38.4601 48.9791 38.4601 48.9969C38.4601 49.1845 38.4601 49.372 38.4601 49.5596C38.4601 49.5775 38.4601 49.5953 38.4601 49.6132C38.4601 49.8007 38.4601 49.9883 38.4601 50.1759C38.4601 50.1937 38.4601 50.2116 38.4601 50.2294C38.4601 50.417 38.4601 50.6046 38.4601 50.7921C38.4601 50.81 38.4601 50.8278 38.4601 50.8457C38.4601 51.0333 38.4601 51.2208 38.4601 51.4084C38.4601 51.4262 38.4601 51.4441 38.4601 51.462C38.4601 51.6495 38.4601 51.8371 38.4601 52.0246C38.4601 52.0425 38.4601 52.0604 38.4601 52.0782C38.4601 52.2658 38.4601 52.4533 38.4601 52.6409C38.4601 52.6587 38.4601 52.6766 38.4601 52.6945C38.4601 52.882 38.4601 53.0696 38.4601 53.2571C38.4601 54.6415 38.4601 56.0526 38.4601 57.7139C38.4601 58.8481 38.6033 58.9642 40.0351 58.9642C41.9411 58.9642 43.8382 58.9732 45.7442 58.9642C46.8985 58.9553 47.1581 58.7499 47.1581 57.8121C47.1581 55.5078 47.1581 54.4361 47.1581 52.1318C47.1581 51.9353 47.1581 51.7299 47.1581 51.5155C47.1581 51.3191 47.1581 51.1136 47.1581 50.8993C47.1581 50.7028 47.1581 50.4974 47.1581 50.283C47.1581 50.0865 47.1581 49.8811 47.1581 49.6668C47.1581 49.4703 47.1581 49.2649 47.1581 49.0505C47.1581 48.854 47.1581 48.6486 47.1581 48.4343C47.1581 48.2378 47.1581 48.0324 47.1581 47.818C47.1581 47.6215 47.1581 47.4161 47.1581 47.2017C47.1581 47.0053 47.1581 46.7998 47.1581 46.5855C47.1581 46.389 47.1581 46.1836 47.1581 45.9692C47.1581 45.7727 47.1581 45.5673 47.1581 45.353C47.1581 45.1565 47.1581 44.9511 47.1581 44.7367C47.1581 44.5402 47.1581 44.3437 47.1581 44.1205C48.6346 44.8528 50.3169 45.4066 52.205 45.7192C56.0707 46.3711 59.8649 46.0943 63.4801 44.5402C68.2496 42.486 71.3011 38.9135 72.5091 33.8584C73.8067 28.4193 73.046 23.3106 69.5651 18.8003C66.9432 15.4064 63.3369 13.6291 59.158 12.9682C58.0484 12.7895 56.9209 12.7538 56.1692 12.6824C50.0126 12.7895 45.0104 14.5937 41.5026 19.4433C39.8382 21.7565 38.8181 24.6413 38.5317 27.6512M64.2049 30.2591C63.9365 35.4035 59.498 39.0207 54.4779 38.1722C50.0484 37.422 47.3728 34.1174 47.3818 29.3839C47.507 21.7119 54.1558 19.0325 59.3459 21.2385C62.6568 22.6407 64.4286 26.0346 64.2049 30.2591Z" fill="#010101"/>
<path d="M177.69 46.264C171.506 46.1568 166.486 44.3438 162.969 39.4762C156.983 31.1969 159.345 15.5404 173.717 13.12C177.6 12.468 181.403 12.736 185.036 14.299C189.824 16.3621 192.884 19.9525 194.092 25.0165C195.39 30.4824 194.638 35.6 191.139 40.1282C188.508 43.531 184.893 45.3173 180.696 45.9782C179.578 46.1568 178.45 46.2015 177.69 46.264ZM168.875 29.5446C169.001 37.2434 175.667 39.9317 180.884 37.7257C184.204 36.3235 185.985 32.9207 185.761 28.6694C185.493 23.4982 181.036 19.8721 175.998 20.7295C171.542 21.4708 168.866 24.7932 168.875 29.5446Z" fill="#010101"/>
<path d="M98.2903 16.9873C100.751 15.0224 103.463 14.031 106.46 13.8345C113.744 13.3612 119.928 17.3356 120.366 25.4452C120.724 31.9918 120.527 38.5652 120.572 45.1297C120.581 45.9335 120.25 46.3622 119.364 46.3533C117.279 46.3265 115.194 46.3176 113.109 46.3533C112.169 46.3712 111.892 45.9335 111.892 45.0583C111.91 39.762 111.901 34.4747 111.901 29.1784C111.901 28.5801 111.892 27.9727 111.803 27.3833C111.221 23.5339 109.342 21.8191 105.458 21.6851C102.899 21.5958 100.626 22.346 98.9436 24.3645C98.514 24.8825 98.2277 25.6774 98.2187 26.3472C98.1651 32.4562 98.1919 38.5563 98.183 44.6653C98.183 46.2729 98.1114 46.3444 96.5185 46.3444C94.6841 46.3444 92.8407 46.3444 91.0063 46.3444C89.6103 46.3444 89.4492 46.1836 89.4492 44.7457C89.4492 39.4851 89.4492 34.2246 89.4492 28.973C89.4492 24.7753 89.4492 20.5776 89.4492 16.371C89.4492 15.0581 89.6819 14.817 90.9794 14.817C92.6438 14.808 94.2993 14.808 95.9637 14.817C98.1203 14.8348 98.0577 14.6294 98.2903 16.9873Z" fill="#F1AF1D"/>
<path d="M207.345 17.0855C210.701 14.5133 214.388 13.6381 218.468 14.0489C223.99 14.5937 228.187 18.3181 229.207 23.8286C229.457 25.1773 229.582 26.5616 229.591 27.9281C229.636 33.5727 229.609 39.2172 229.609 44.8707C229.609 46.3444 229.448 46.4873 227.963 46.4873C226.057 46.4873 224.142 46.4605 222.236 46.4962C221.269 46.5141 220.92 46.139 220.929 45.1833C220.956 39.8871 220.947 34.5998 220.938 29.3035C220.938 28.7051 220.929 28.0978 220.84 27.5083C220.258 23.6679 218.361 21.9531 214.477 21.8191C211.918 21.7298 209.645 22.489 207.972 24.5074C207.542 25.0254 207.265 25.8203 207.256 26.4991C207.202 32.6081 207.229 38.7082 207.22 44.8171C207.22 46.4069 207.149 46.4784 205.538 46.4784C203.73 46.4784 201.932 46.4784 200.124 46.4784C198.621 46.4784 198.478 46.3444 198.478 44.8618C198.478 38.1901 198.478 31.5185 198.478 24.8557C198.478 22.0692 198.478 19.2826 198.478 16.4961C198.478 15.201 198.719 14.9599 200.026 14.9599C201.654 14.951 203.283 14.9599 204.903 14.9599C207.023 14.951 207.023 14.951 207.345 17.0855Z" fill="#010101"/>
<path d="M240.357 20.9974C237.717 20.9974 235.238 20.9706 232.769 21.0064C231.82 21.0242 231.417 20.6848 231.444 19.7113C231.489 18.193 231.498 16.6747 231.444 15.1564C231.408 14.1114 231.892 13.7899 232.849 13.8077C234.97 13.8345 237.091 13.8167 239.212 13.8167C239.552 13.8167 239.901 13.7899 240.348 13.7631C240.348 13.2808 240.348 12.87 240.348 12.4591C240.348 8.82409 240.366 5.18906 240.33 1.55403C240.321 0.580522 240.724 0.232202 241.654 0.241134C243.632 0.267928 245.619 0.241134 247.596 0.250065C248.742 0.258996 249.001 0.518003 249.01 1.70586C249.019 5.30517 249.01 8.90447 249.01 12.5038C249.01 12.8878 249.01 13.2719 249.01 13.8077C249.985 13.8077 250.889 13.8077 251.793 13.8077C253.914 13.8077 256.035 13.8256 258.155 13.7988C259.077 13.7899 259.516 14.1382 259.48 15.1206C259.426 16.639 259.426 18.1573 259.48 19.6756C259.516 20.7206 259.068 21.0153 258.084 21.0064C255.122 20.9706 252.151 20.9885 249.091 20.9885C249.055 21.3457 249.01 21.6494 249.01 21.9441C249.001 25.5792 249.001 29.2142 249.01 32.8492C249.01 33.4833 249.01 34.1264 249.126 34.7516C249.61 37.2881 251.256 38.6903 253.959 38.7528C255.256 38.7796 256.572 38.6456 257.851 38.4313C258.755 38.2884 259.122 38.5117 259.113 39.4137C259.104 41.0392 259.158 42.6647 259.068 44.2813C259.041 44.701 258.648 45.3887 258.317 45.4602C254.88 46.1836 251.417 46.5855 247.936 45.6388C243.587 44.4599 241.144 41.5215 240.607 37.172C240.258 34.3497 240.375 31.4738 240.339 28.6158C240.33 26.1329 240.357 23.6321 240.357 20.9974Z" fill="#010101"/>
<path d="M141.315 46.3622C136.527 46.2372 132.214 44.9511 128.787 41.4857C125.44 38.1008 124.223 33.8495 124.304 29.2142C124.384 24.9718 125.61 21.1046 128.608 17.934C131.078 15.3171 134.156 13.8524 137.646 13.2451C141.673 12.5484 145.61 12.9057 149.323 14.6919C152.294 16.1209 154.531 18.2912 155.829 21.3547C156.312 22.4979 156.187 22.7569 155.033 23.1141C153.118 23.7125 151.194 24.2841 149.279 24.9004C148.626 25.1147 148.133 25.0522 147.766 24.3913C145.986 21.1046 143.006 20.3454 139.641 20.8188C136.438 21.2653 134.451 23.3285 133.69 26.383C132.742 30.152 133.001 33.7781 136.008 36.6718C139.203 39.7531 145.762 38.9314 147.686 34.9659C148.035 34.2514 148.464 34.0103 149.288 34.2782C151.194 34.9123 153.136 35.4303 155.051 36.0109C156.16 36.3413 156.312 36.6271 155.865 37.6899C153.995 42.2181 150.406 44.6563 145.789 45.7281C144.339 46.0943 142.818 46.1657 141.315 46.3622Z" fill="#010101"/>
<path d="M337 23.909C337 30.7861 337 37.6632 337 44.5492C337 46.3444 336.983 46.3533 335.148 46.3533C333.349 46.3533 331.542 46.3533 329.743 46.3533C328.455 46.3533 328.267 46.1747 328.267 44.8886C328.258 38.0115 328.267 31.1344 328.267 24.2484C328.267 17.1927 328.267 10.137 328.267 3.08128C328.267 1.3754 328.401 1.25037 330.146 1.25037C331.882 1.25037 333.609 1.25037 335.345 1.25037C336.911 1.25037 337.009 1.34861 337.009 2.95624C337 9.94049 337 16.9248 337 23.909Z" fill="#010101"/>
<path d="M272.034 18.3716C273.761 16.1656 275.765 14.8795 278.208 14.5222C279.792 14.299 281.439 14.3883 283.049 14.4061C283.73 14.4151 283.98 14.8884 283.971 15.5672C283.944 17.4338 283.935 19.3094 283.971 21.176C283.989 22.1049 283.577 22.3103 282.736 22.2478C280.392 22.0692 278.02 22.0513 275.944 23.3017C274.736 24.0251 273.662 25.0433 272.678 26.0704C272.258 26.5169 272.061 27.3386 272.061 27.9906C272.016 33.5637 272.034 39.1368 272.034 44.7189C272.034 46.2193 271.891 46.3533 270.405 46.3622C268.463 46.3622 266.513 46.3354 264.571 46.3712C263.676 46.389 263.282 46.0586 263.282 45.1476C263.291 35.4482 263.291 25.7399 263.282 16.0406C263.282 15.1832 263.658 14.8259 264.499 14.8259C266.584 14.8348 268.669 14.8348 270.754 14.8259C271.64 14.817 272.061 15.2278 272.034 16.112C272.025 16.7551 272.034 17.407 272.034 18.3716Z" fill="#010101"/>
<path d="M76.9028 30.5807C76.9028 25.8471 76.9028 21.1225 76.9028 16.3889C76.9028 14.9599 77.046 14.817 78.4867 14.808C80.3928 14.808 82.3077 14.7991 84.2138 14.808C85.3771 14.817 85.6366 15.076 85.6366 16.2549C85.6455 25.8203 85.6366 35.3857 85.6455 44.9511C85.6455 45.9068 85.3323 46.3801 84.2853 46.3533C82.2719 46.2997 80.2496 46.2997 78.2362 46.3533C77.1981 46.3801 76.876 45.9514 76.8849 44.969C76.9207 40.1818 76.9028 35.3857 76.9028 30.5807Z" fill="#F1AF1D"/>
<path d="M81.2702 12.1376C84.0774 12.1376 86.353 9.86639 86.353 7.06467C86.353 4.26294 84.0774 1.9917 81.2702 1.9917C78.4631 1.9917 76.1875 4.26294 76.1875 7.06467C76.1875 9.86639 78.4631 12.1376 81.2702 12.1376Z" fill="#F1AF1D"/>
<path d="M285.922 29.6697C285.931 29.5894 285.949 29.509 285.958 29.4286C285.94 29.509 285.931 29.5894 285.922 29.6697Z" fill="#F1AF1D"/>
<path d="M318.602 29.75C315.926 32.3847 313.501 34.1889 311.774 35.3142C304.302 40.4497 295.801 40.6283 291.891 36.4306C288.58 32.867 289.331 26.4633 293.233 20.3275H293.224C293.224 20.3275 293.591 19.6934 294.378 18.6395C295.014 17.7732 295.721 16.9247 296.481 16.0941C297.85 14.5669 299.676 12.7627 302.011 10.8782C301.546 11.1283 301.09 11.3784 300.624 11.6553C299.971 12.0214 299.327 12.4055 298.683 12.8253C296.83 14.0131 295.005 15.4153 293.26 17.0319C283.783 25.8381 280.347 37.5381 285.6 43.1648C290.844 48.7915 302.79 46.2193 312.266 37.413C314.844 35.0105 316.964 32.3937 318.602 29.75Z" fill="#F1AF1D"/>
<path d="M317.072 28.1871C320.535 23.4178 320.92 19.4344 320.526 16.755C320.347 14.9867 319.72 13.4237 318.584 12.209C318.253 11.8518 317.886 11.5481 317.501 11.2712V11.2623C317.501 11.2623 317.448 11.2266 317.367 11.1641C317.367 11.1641 317.367 11.1641 317.358 11.1641C317.251 11.0926 317.072 10.9854 316.839 10.8604C316.481 10.6639 316.105 10.4942 315.712 10.3513C313.206 9.40461 308.213 8.63652 301.698 13.2451C299.425 14.8527 299.014 15.7994 299.014 15.7994C299.041 15.7815 299.067 15.7637 299.094 15.7458C299.953 15.1921 308.517 9.98515 314.575 16.0316C319.729 21.176 314.853 30.0894 314.853 30.0894C314.799 30.1787 314.736 30.2681 314.682 30.3574C314.942 30.2323 315.765 29.7322 317.072 28.1871Z" fill="#010101"/>
</g>
<defs>
<clipPath id="clip0_100_2759">
<rect width="337" height="59" fill="white"/>
</clipPath>
</defs>
</svg>
