<svg width="22" height="22" viewBox="0 0 22 22" fill="none" xmlns="http://www.w3.org/2000/svg">
<g clip-path="url(#clip0_27_1587)">
<path d="M18.3334 17.25C18.3334 18.3546 17.4379 19.25 16.3334 19.25H5.50002C5.01379 19.25 4.54747 19.0569 4.20366 18.7131C3.85984 18.3693 3.66669 17.9029 3.66669 17.4167V6.41671C3.66669 5.93048 3.85984 5.46416 4.20366 5.12034C4.54747 4.77653 5.01379 4.58337 5.50002 4.58337H16.5C16.9863 4.58337 17.4526 4.77653 17.7964 5.12034C18.1402 5.46416 18.3334 5.93048 18.3334 6.41671V11" stroke="white" stroke-width="1.5" stroke-linecap="round" stroke-linejoin="round"/>
<path d="M9 13.5L10.3333 15L13 12" stroke="white" stroke-width="1.5" stroke-linecap="round" stroke-linejoin="round"/>
<path d="M14.6667 2.75V6.41667" stroke="white" stroke-width="1.5" stroke-linecap="round" stroke-linejoin="round"/>
<path d="M7.33331 2.75V6.41667" stroke="white" stroke-width="1.5" stroke-linecap="round" stroke-linejoin="round"/>
<path d="M3.66669 9.08337H18.3334" stroke="white" stroke-width="1.5" stroke-linecap="round" stroke-linejoin="round"/>
</g>
<defs>
<clipPath id="clip0_27_1587">
<rect width="22" height="22" fill="white"/>
</clipPath>
</defs>
</svg>
