<svg width="22" height="22" viewBox="0 0 22 22" fill="none" xmlns="http://www.w3.org/2000/svg">
<g clip-path="url(#clip0_26_1581)">
<path d="M3.66669 12.8333V10.0833C3.66669 8.13841 4.4393 6.27315 5.81457 4.89788C7.18984 3.52262 9.0551 2.75 11 2.75C12.9449 2.75 14.8102 3.52262 16.1855 4.89788C17.5607 6.27315 18.3334 8.13841 18.3334 10.0833V12.8333" stroke="white" stroke-width="1.5" stroke-linecap="round" stroke-linejoin="round"/>
<path d="M16.5 17.4166C16.5 18.9355 14.0378 20.1666 11 20.1666" stroke="white" stroke-width="1.5" stroke-linecap="round" stroke-linejoin="round"/>
<path d="M3.66669 12.8333C3.66669 12.3471 3.85984 11.8808 4.20366 11.537C4.54747 11.1932 5.01379 11 5.50002 11H6.41669C6.90292 11 7.36923 11.1932 7.71305 11.537C8.05687 11.8808 8.25002 12.3471 8.25002 12.8333V15.5833C8.25002 16.0696 8.05687 16.5359 7.71305 16.8797C7.36923 17.2235 6.90292 17.4167 6.41669 17.4167H5.50002C5.01379 17.4167 4.54747 17.2235 4.20366 16.8797C3.85984 16.5359 3.66669 16.0696 3.66669 15.5833V12.8333Z" stroke="white" stroke-width="1.5" stroke-linecap="round" stroke-linejoin="round"/>
<path d="M13.75 12.8333C13.75 12.3471 13.9432 11.8808 14.287 11.537C14.6308 11.1932 15.0971 11 15.5833 11H16.5C16.9862 11 17.4525 11.1932 17.7964 11.537C18.1402 11.8808 18.3333 12.3471 18.3333 12.8333V15.5833C18.3333 16.0696 18.1402 16.5359 17.7964 16.8797C17.4525 17.2235 16.9862 17.4167 16.5 17.4167H15.5833C15.0971 17.4167 14.6308 17.2235 14.287 16.8797C13.9432 16.5359 13.75 16.0696 13.75 15.5833V12.8333Z" stroke="white" stroke-width="1.5" stroke-linecap="round" stroke-linejoin="round"/>
</g>
<defs>
<clipPath id="clip0_26_1581">
<rect width="22" height="22" fill="white"/>
</clipPath>
</defs>
</svg>
