<svg width="19" height="18" viewBox="0 0 19 18" fill="none" xmlns="http://www.w3.org/2000/svg">
<g clip-path="url(#clip0_11_297)">
<path d="M4.54578 5.25C4.54578 6.04565 4.86277 6.80871 5.42701 7.37132C5.99125 7.93393 6.75653 8.25 7.5545 8.25C8.35246 8.25 9.11774 7.93393 9.68198 7.37132C10.2462 6.80871 10.5632 6.04565 10.5632 5.25C10.5632 4.45435 10.2462 3.69129 9.68198 3.12868C9.11774 2.56607 8.35246 2.25 7.5545 2.25C6.75653 2.25 5.99125 2.56607 5.42701 3.12868C4.86277 3.69129 4.54578 4.45435 4.54578 5.25Z" stroke="#5138A0" stroke-width="1.5" stroke-linecap="round" stroke-linejoin="round"/>
<path d="M3.0415 15.75V14.25C3.0415 13.4544 3.35849 12.6913 3.92274 12.1287C4.48698 11.5661 5.25226 11.25 6.05023 11.25H9.05895C9.85691 11.25 10.6222 11.5661 11.1864 12.1287C11.7507 12.6913 12.0677 13.4544 12.0677 14.25V15.75" stroke="#5138A0" stroke-width="1.5" stroke-linecap="round" stroke-linejoin="round"/>
<path d="M12.8198 2.34753C13.467 2.51276 14.0406 2.88806 14.4503 3.41427C14.8599 3.94047 15.0823 4.58766 15.0823 5.25378C15.0823 5.91991 14.8599 6.56709 14.4503 7.0933C14.0406 7.61951 13.467 7.99481 12.8198 8.16003" stroke="#5138A0" stroke-width="1.5" stroke-linecap="round" stroke-linejoin="round"/>
<path d="M16.5806 15.75V14.25C16.5768 13.5879 16.3534 12.9456 15.9452 12.4234C15.5371 11.9011 14.9671 11.5281 14.3241 11.3625" stroke="#5138A0" stroke-width="1.5" stroke-linecap="round" stroke-linejoin="round"/>
</g>
<defs>
<clipPath id="clip0_11_297">
<rect width="18.0523" height="18" fill="white" transform="translate(0.784912)"/>
</clipPath>
</defs>
</svg>
