<svg width="24" height="24" viewBox="0 0 24 24" fill="none" xmlns="http://www.w3.org/2000/svg">
<g clip-path="url(#clip0_1505_9397)">
<path d="M3 9C3 8.46957 3.21071 7.96086 3.58579 7.58579C3.96086 7.21071 4.46957 7 5 7H19C19.5304 7 20.0391 7.21071 20.4142 7.58579C20.7893 7.96086 21 8.46957 21 9V18C21 18.5304 20.7893 19.0391 20.4142 19.4142C20.0391 19.7893 19.5304 20 19 20H5C4.46957 20 3.96086 19.7893 3.58579 19.4142C3.21071 19.0391 3 18.5304 3 18V9Z" stroke="#B37BE8" stroke-width="1.5" stroke-linecap="round" stroke-linejoin="round"/>
<path d="M8 7V6.5C8 4.567 9.567 3 11.5 3H12C13.933 3 15.5 4.567 15.5 6.5V7" stroke="#B37BE8" stroke-width="1.5" stroke-linecap="round"/>
<path d="M3 10V11.9189C3 12.5645 3.41315 13.1377 4.02566 13.3419L11.5257 15.8419C11.8336 15.9445 12.1664 15.9445 12.4743 15.8419L19.9743 13.3419C20.5869 13.1377 21 12.5645 21 11.9189V10" stroke="#B37BE8" stroke-width="1.5" stroke-linecap="round"/>
</g>
<defs>
<clipPath id="clip0_1505_9397">
<rect width="24" height="24" fill="white"/>
</clipPath>
</defs>
</svg>
