<svg width="38" height="38" viewBox="0 0 38 38" fill="none" xmlns="http://www.w3.org/2000/svg">
<path d="M35.602 20.75C32.9264 23.3847 30.5013 25.1889 28.7743 26.3142C21.3023 31.4497 12.8012 31.6283 8.89075 27.4306C5.57981 23.867 6.33148 17.4633 10.233 11.3275H10.2241C10.2241 11.3275 10.591 10.6934 11.3784 9.63951C12.0138 8.77318 12.7207 7.92471 13.4813 7.0941C14.8504 5.56685 16.6759 3.76273 19.0115 1.87823C18.5462 2.12831 18.0898 2.37839 17.6245 2.65526C16.9712 3.02144 16.3269 3.40548 15.6826 3.82525C13.8303 5.01311 12.0048 6.41532 10.2599 8.03188C0.783425 16.8381 -2.65279 28.5381 2.59997 34.1648C7.84378 39.7915 19.79 37.2193 29.2664 28.413C31.8436 26.0105 33.9644 23.3937 35.602 20.75Z" fill="#F1AF1D"/>
<path d="M34.0717 19.1871C37.5348 14.4178 37.9196 10.4344 37.5258 7.75505C37.3469 5.98666 36.7205 4.42368 35.584 3.20903C35.2529 2.85178 34.886 2.54812 34.5012 2.27125V2.26232C34.5012 2.26232 34.4476 2.22659 34.367 2.16407C34.367 2.16407 34.367 2.16407 34.3581 2.16407C34.2507 2.09262 34.0717 1.98545 33.8391 1.86041C33.4811 1.66392 33.1053 1.49423 32.7116 1.35133C30.206 0.404613 25.2127 -0.363477 18.6982 4.24506C16.4253 5.85269 16.0137 6.7994 16.0137 6.7994C16.0405 6.78154 16.0674 6.76368 16.0942 6.74581C16.9533 6.19207 25.517 0.985146 31.5751 7.03162C36.7294 12.176 31.8525 21.0894 31.8525 21.0894C31.7988 21.1787 31.7362 21.2681 31.6825 21.3574C31.942 21.2323 32.7652 20.7322 34.0717 19.1871Z" fill="#010101"/>
</svg>
