<svg width="54" height="54" viewBox="0 0 54 54" fill="none" xmlns="http://www.w3.org/2000/svg">
<circle cx="27" cy="27" r="27" fill="#F0FDFB"/>
<g clip-path="url(#clip0_1576_2116)">
<path d="M42.1206 33.694C41.1027 34.0463 39.3801 34.4378 37.5009 34.8293C36.7962 35.8864 35.5826 36.7868 33.6643 37.0608C33.2336 37.1391 32.7247 37.1783 32.1766 37.1783C30.8455 37.1783 29.3187 36.9825 27.5961 36.7868C27.4786 36.7868 27.3612 36.7476 27.2437 36.7476C26.8522 36.7085 26.4999 36.3953 26.4607 35.9647C26.4216 35.4166 26.8914 34.9859 27.4003 35.0642C27.5178 35.0642 27.6744 35.1034 27.7918 35.1034C30.0234 35.3383 32.0983 35.6123 33.4294 35.3774C35.8958 34.9859 36.6397 33.4982 36.4831 32.2454C36.3656 31.2275 35.6609 30.2097 34.4473 30.288C32.7247 30.3663 30.6889 30.1705 28.7314 29.9748C26.4999 29.7399 24.1509 29.5441 22.5066 29.779C21.6062 29.8965 20.0011 30.4837 18.3959 31.1492C18.0044 31.3058 17.2606 31.619 17.2606 31.619L10.057 33.694C9.43065 33.8897 9 34.4378 9 35.1034V41.5631C9 42.4243 9.74384 43.0899 10.6051 43.0507L17.2606 42.5026C20.5883 43.6771 24.699 44.9691 27.0871 45.1648C31.9417 45.5563 41.5334 40.0362 44.2347 38.2353C46.9752 36.4736 45.1351 32.6761 42.1206 33.694Z" fill="#69C2B2"/>
<path d="M28.9272 28.1348C30.5323 28.2914 32.1766 28.448 33.6252 28.448C33.8601 28.448 34.1341 28.448 34.369 28.448C34.4082 28.448 34.4865 28.448 34.5648 28.448C36.5614 28.448 38.1665 29.9748 38.3623 32.128C38.4014 32.3629 38.4014 32.5587 38.3623 32.7936C40.124 32.4021 41.0244 32.1672 41.5334 31.9714C42.0815 31.7757 42.5904 31.6974 43.1385 31.6974H43.2168C43.3734 31.1884 43.4517 30.6795 43.4517 30.1314C43.4517 27.4692 41.4551 25.316 38.8712 25.0419C38.6363 23.0062 36.9137 21.4402 34.8388 21.4402C34.4473 21.4402 34.095 21.5185 33.7426 21.5968V17.0946C35.1129 16.7422 36.992 15.9984 38.3623 14.5107C40.124 12.5924 40.5547 9.93018 40.6721 8.6774C40.7113 8.2859 40.3589 7.9727 39.9674 8.01185C38.7146 8.24675 36.1307 8.91229 34.369 10.8306C33.6643 11.6136 33.1554 12.5141 32.803 13.3754C32.4507 12.4749 31.9809 11.5745 31.237 10.8306C29.4753 8.91229 26.8914 8.24675 25.6386 8.01185C25.2471 7.93355 24.8948 8.24675 24.9339 8.6774C25.0514 9.96933 25.482 12.5924 27.2438 14.5107C28.614 15.9984 30.5323 16.7422 31.8634 17.0946V21.4402C31.6285 21.401 31.3545 21.3619 31.1196 21.3619C29.123 21.3619 27.4787 22.7713 27.1263 24.6505C27.0872 24.6505 27.048 24.6505 27.0089 24.6505C24.9339 24.6505 23.1722 26.0207 22.585 27.8999C23.0548 27.8607 23.6029 27.8216 24.1901 27.8216C25.6386 27.8216 27.2829 27.9782 28.9272 28.1348Z" fill="#69C2B2"/>
<circle cx="15" cy="33" r="5" fill="#FAD037" stroke="#F0FDFB" stroke-width="2"/>
<circle cx="19" cy="24" r="2" fill="#FAD037"/>
</g>
<defs>
<clipPath id="clip0_1576_2116">
<rect width="40" height="40" fill="white" transform="translate(7 7)"/>
</clipPath>
</defs>
</svg>
