<svg width="54" height="54" viewBox="0 0 54 54" fill="none" xmlns="http://www.w3.org/2000/svg">
<circle cx="27" cy="27" r="27" fill="#F0FDFB"/>
<g clip-path="url(#clip0_1658_5081)">
<path d="M38.2017 31.7092C39.1621 31.7092 39.9407 30.9306 39.9407 29.9701C39.9407 29.0097 39.1621 28.2311 38.2017 28.2311C37.2412 28.2311 36.4626 29.0097 36.4626 29.9701C36.4626 30.9306 37.2412 31.7092 38.2017 31.7092Z" fill="#FAD037"/>
<path d="M14.8985 31.7092C15.8589 31.7092 16.6375 30.9306 16.6375 29.9701C16.6375 29.0097 15.8589 28.2311 14.8985 28.2311C13.938 28.2311 13.1594 29.0097 13.1594 29.9701C13.1594 30.9306 13.938 31.7092 14.8985 31.7092Z" fill="#FAD037"/>
<path d="M36.3467 12H16.6376C16.0579 12 15.5941 12.3478 15.4782 12.8116L12.4639 21.8546H40.6364L37.622 12.8116C37.3902 12.3478 36.9264 12 36.3467 12Z" fill="#69C2B2"/>
<path d="M33.5642 39.4771C33.5642 40.4046 34.2598 41.1002 35.1873 41.1002H38.6654C39.5929 41.1002 40.2885 40.4046 40.2885 39.4771V38.0858H33.4482V39.4771H33.5642Z" fill="#FAD037"/>
<path d="M12.5798 39.4771C12.5798 40.4046 13.2755 41.1002 14.2029 41.1002H17.681C18.6085 41.1002 19.3041 40.4046 19.3041 39.4771V38.0858H12.5798V39.4771Z" fill="#FAD037"/>
<path d="M42.2594 23.7097H10.7248C9.5654 23.7097 8.52197 24.6371 8.52197 25.9124V34.028C8.52197 35.1873 9.44946 36.2308 10.7248 36.2308H42.3754C43.5347 36.2308 44.5781 35.3033 44.5781 34.028V25.9124C44.4622 24.7531 43.5347 23.7097 42.2594 23.7097ZM14.8985 33.5642C12.9276 33.5642 11.3044 31.9411 11.3044 29.9702C11.3044 27.9993 12.9276 26.3762 14.8985 26.3762C16.8694 26.3762 18.4925 27.9993 18.4925 29.9702C18.4925 32.0571 16.8694 33.5642 14.8985 33.5642ZM30.5499 30.8977H22.4343C21.9706 30.8977 21.5068 30.434 21.5068 29.9702C21.5068 29.5065 21.9706 29.0427 22.4343 29.0427H30.5499C31.0136 29.0427 31.4774 29.5065 31.4774 29.9702C31.4774 30.5499 31.1295 30.8977 30.5499 30.8977ZM38.2017 33.5642C36.2307 33.5642 34.6076 31.9411 34.6076 29.9702C34.6076 27.9993 36.2307 26.3762 38.2017 26.3762C40.1726 26.3762 41.7957 27.9993 41.7957 29.9702C41.7957 32.0571 40.1726 33.5642 38.2017 33.5642Z" fill="#69C2B2"/>
</g>
<defs>
<clipPath id="clip0_1658_5081">
<rect width="40" height="40" fill="white" transform="translate(7 7)"/>
</clipPath>
</defs>
</svg>
