<svg width="15" height="15" viewBox="0 0 15 15" fill="none" xmlns="http://www.w3.org/2000/svg">
<path d="M1 13.7737H4.33333L13.0833 5.02369C13.3022 4.80482 13.4758 4.54498 13.5943 4.25902C13.7127 3.97305 13.7737 3.66655 13.7737 3.35702C13.7737 3.04749 13.7127 2.741 13.5943 2.45503C13.4758 2.16906 13.3022 1.90923 13.0833 1.69036C12.8645 1.47149 12.6046 1.29787 12.3187 1.17942C12.0327 1.06097 11.7262 1 11.4167 1C11.1071 1 10.8006 1.06097 10.5147 1.17942C10.2287 1.29787 9.96887 1.47149 9.75 1.69036L1 10.4404V13.7737Z" stroke="#10232E" stroke-width="1.5" stroke-linecap="round" stroke-linejoin="round"/>
<path d="M8.91675 2.52368L12.2501 5.85701" stroke="#10232E" stroke-width="1.5" stroke-linecap="round" stroke-linejoin="round"/>
</svg>
