<svg width="24" height="24" viewBox="0 0 24 24" fill="none" xmlns="http://www.w3.org/2000/svg">
<path d="M6 18.7737H9.33333L18.0833 10.0237C18.3022 9.80482 18.4758 9.54498 18.5943 9.25902C18.7127 8.97305 18.7737 8.66655 18.7737 8.35702C18.7737 8.04749 18.7127 7.741 18.5943 7.45503C18.4758 7.16906 18.3022 6.90923 18.0833 6.69036C17.8645 6.47149 17.6046 6.29787 17.3187 6.17942C17.0327 6.06097 16.7262 6 16.4167 6C16.1071 6 15.8006 6.06097 15.5147 6.17942C15.2287 6.29787 14.9689 6.47149 14.75 6.69036L6 15.4404V18.7737Z" stroke="#10232E" stroke-width="1.5" stroke-linecap="round" stroke-linejoin="round"/>
<path d="M13.9167 7.52368L17.2501 10.857" stroke="#10232E" stroke-width="1.5" stroke-linecap="round" stroke-linejoin="round"/>
</svg>
