<svg width="70" height="69" viewBox="0 0 70 69" fill="none" xmlns="http://www.w3.org/2000/svg">
<path fill-rule="evenodd" clip-rule="evenodd" d="M35.1188 16.4877C24.9659 16.4877 16.7353 24.5511 16.7353 34.4979C16.7353 44.4447 24.9659 52.5082 35.1188 52.5082C39.6628 52.5082 43.8102 50.8995 47.0198 48.2255L44.9791 44.158L60.9393 47.2688L53.2516 61.7589L51.4133 57.7475L51.3967 57.7114C46.7691 60.8306 41.1572 62.6594 35.1188 62.6594C19.2433 62.6594 6.37366 50.0511 6.37366 34.4979C6.37366 18.9448 19.2433 6.33643 35.1188 6.33643C47.9689 6.33643 58.8408 14.5928 62.5254 25.984C62.7198 26.585 62.8279 27.1947 62.9325 27.8123L53.3766 32.3763C53.3176 31.8824 53.2384 31.3954 53.1398 30.9159C51.447 22.6847 44.0158 16.4877 35.1188 16.4877Z" fill="url(#paint0_linear_2590_9179)"/>
<path fill-rule="evenodd" clip-rule="evenodd" d="M39.6991 38.9942L63.0283 27.7851C62.3675 24.602 61.0321 21.5976 59.1122 18.9742L58.8502 18.6162L35.5146 29.6965L33.6146 25.9022L23.9215 40.0648L41.7201 43.6668L39.6991 38.9942Z" fill="url(#paint1_linear_2590_9179)"/>
<defs>
<linearGradient id="paint0_linear_2590_9179" x1="52.5634" y1="13.1526" x2="24.0851" y2="60.3682" gradientUnits="userSpaceOnUse">
<stop stop-color="#81DACA"/>
<stop offset="1" stop-color="#3BAB97"/>
</linearGradient>
<linearGradient id="paint1_linear_2590_9179" x1="61.1157" y1="22.3365" x2="28.4227" y2="38.1998" gradientUnits="userSpaceOnUse">
<stop stop-color="#40AE9A"/>
<stop offset="1" stop-color="#63C6B4"/>
</linearGradient>
</defs>
</svg>
