<svg width="106" height="106" viewBox="0 0 106 106" fill="none" xmlns="http://www.w3.org/2000/svg">
<rect width="106" height="106" rx="19" fill="#F0FDFB"/>
<g clip-path="url(#clip0_1508_13406)">
<path d="M76.4369 63.3757C74.8592 63.9218 72.1892 64.5286 69.2764 65.1355C68.1842 66.7739 66.303 68.1696 63.3296 68.5943C62.6621 68.7157 61.8732 68.7764 61.0237 68.7764C58.9605 68.7764 56.5939 68.473 53.9239 68.1696C53.7419 68.1696 53.5598 68.1089 53.3778 68.1089C52.7709 68.0482 52.2248 67.5627 52.1641 66.8952C52.1034 66.0457 52.8316 65.3782 53.6205 65.4995C53.8025 65.4995 54.0453 65.5602 54.2273 65.5602C57.6862 65.9243 60.9023 66.3491 62.9655 65.985C66.7885 65.3782 67.9414 63.0723 67.6987 61.1305C67.5167 59.5527 66.4244 57.975 64.5432 58.0964C61.8732 58.2177 58.7178 57.9143 55.6837 57.6109C52.2248 57.2468 48.5839 56.9434 46.0352 57.3075C44.6396 57.4895 42.1516 58.3998 39.6636 59.4314C39.0568 59.6741 37.9039 60.1595 37.9039 60.1595L26.7384 63.3757C25.7675 63.6791 25.1 64.5286 25.1 65.5602V75.5728C25.1 76.9078 26.2529 77.9394 27.5879 77.8787L37.9039 77.0291C43.0618 78.8496 49.4334 80.8521 53.135 81.1555C60.6596 81.7623 75.5267 73.2062 79.7137 70.4148C83.9615 67.6841 81.1094 61.7979 76.4369 63.3757Z" fill="#69C2B2"/>
<path d="M55.9871 54.7589C58.4751 55.0016 61.0237 55.2443 63.2689 55.2443C63.633 55.2443 64.0578 55.2443 64.4219 55.2443C64.4826 55.2443 64.6039 55.2443 64.7253 55.2443C67.8201 55.2443 70.308 57.6109 70.6114 60.9484C70.6721 61.3125 70.6721 61.6159 70.6114 61.98C73.3421 61.3732 74.7378 61.0091 75.5267 60.7057C76.3762 60.4023 77.1651 60.2809 78.0146 60.2809H78.136C78.3787 59.4921 78.5001 58.7032 78.5001 57.8536C78.5001 53.7273 75.4053 50.3898 71.4003 49.965C71.0362 46.8095 68.3662 44.3822 65.1501 44.3822C64.5433 44.3822 63.9971 44.5036 63.451 44.625V37.6465C65.5748 37.1004 68.4876 35.9475 70.6114 33.6415C73.3421 30.6681 74.0096 26.5418 74.1917 24.5999C74.2524 23.9931 73.7062 23.5077 73.0994 23.5683C71.1576 23.9324 67.1526 24.964 64.4219 27.9374C63.3296 29.1511 62.5407 30.5468 61.9946 31.8818C61.4485 30.4861 60.7203 29.0904 59.5673 27.9374C56.8366 24.964 52.8316 23.9324 50.8898 23.5683C50.283 23.447 49.7369 23.9324 49.7975 24.5999C49.9796 26.6024 50.6471 30.6681 53.3778 33.6415C55.5016 35.9475 58.4751 37.1004 60.5382 37.6465V44.3822C60.1742 44.3216 59.7494 44.2609 59.3853 44.2609C56.2905 44.2609 53.7419 46.4454 53.1957 49.3582C53.135 49.3582 53.0744 49.3582 53.0137 49.3582C49.7975 49.3582 47.0668 51.482 46.1566 54.3948C46.8848 54.3341 47.7343 54.2734 48.6446 54.2734C50.8898 54.2734 53.4385 54.5161 55.9871 54.7589Z" fill="#69C2B2"/>
<path d="M34.4 69.5C38.3765 69.5 41.6 66.2765 41.6 62.3C41.6 58.3236 38.3765 55.1 34.4 55.1C30.4236 55.1 27.2 58.3236 27.2 62.3C27.2 66.2765 30.4236 69.5 34.4 69.5Z" fill="#FAD037" stroke="white" stroke-width="2"/>
<circle cx="40.6" cy="48.35" r="3.1" fill="#FAD037"/>
</g>
<defs>
<clipPath id="clip0_1508_13406">
<rect width="62" height="62" fill="white" transform="translate(22 22)"/>
</clipPath>
</defs>
</svg>
