<svg width="22" height="22" viewBox="0 0 22 22" fill="none" xmlns="http://www.w3.org/2000/svg">
<g clip-path="url(#clip0_1505_9697)">
<path d="M4.58325 6.41667C4.58325 7.38913 4.96956 8.32176 5.65719 9.00939C6.34483 9.69703 7.27746 10.0833 8.24992 10.0833C9.22238 10.0833 10.155 9.69703 10.8426 9.00939C11.5303 8.32176 11.9166 7.38913 11.9166 6.41667C11.9166 5.44421 11.5303 4.51158 10.8426 3.82394C10.155 3.13631 9.22238 2.75 8.24992 2.75C7.27746 2.75 6.34483 3.13631 5.65719 3.82394C4.96956 4.51158 4.58325 5.44421 4.58325 6.41667Z" stroke="white" stroke-width="1.5" stroke-linecap="round" stroke-linejoin="round"/>
<path d="M2.75 19.25V17.4167C2.75 16.4442 3.13631 15.5116 3.82394 14.8239C4.51158 14.1363 5.44421 13.75 6.41667 13.75H10.0833C11.0558 13.75 11.9884 14.1363 12.6761 14.8239C13.3637 15.5116 13.75 16.4442 13.75 17.4167V19.25" stroke="white" stroke-width="1.5" stroke-linecap="round" stroke-linejoin="round"/>
<path d="M14.6667 2.86914C15.4555 3.07108 16.1545 3.52978 16.6538 4.17293C17.153 4.81607 17.4239 5.60707 17.4239 6.42122C17.4239 7.23538 17.153 8.02638 16.6538 8.66952C16.1545 9.31266 15.4555 9.77137 14.6667 9.97331" stroke="white" stroke-width="1.5" stroke-linecap="round" stroke-linejoin="round"/>
<path d="M19.25 19.25V17.4167C19.2453 16.6074 18.9731 15.8224 18.4757 15.184C17.9782 14.5457 17.2836 14.0898 16.5 13.8875" stroke="white" stroke-width="1.5" stroke-linecap="round" stroke-linejoin="round"/>
</g>
<defs>
<clipPath id="clip0_1505_9697">
<rect width="22" height="22" fill="white"/>
</clipPath>
</defs>
</svg>
