<svg width="50" height="50" viewBox="0 0 50 50" fill="none" xmlns="http://www.w3.org/2000/svg">
<circle cx="25" cy="25" r="25" fill="#EADAF9"/>
<path d="M17.0444 27.032V26.304H19.2284V27.032C19.2284 27.3307 19.3218 27.5827 19.5084 27.788C19.7044 27.984 20.0031 28.082 20.4044 28.082C21.1791 28.082 21.5664 27.704 21.5664 26.948V19.64H23.8344V27.088C23.8344 27.9933 23.5218 28.7353 22.8964 29.314C22.2804 29.8927 21.4591 30.182 20.4324 30.182C19.3311 30.182 18.4911 29.8927 17.9124 29.314C17.3338 28.726 17.0444 27.9653 17.0444 27.032ZM25.3485 22.65C25.3485 21.7167 25.7032 20.9513 26.4125 20.354C27.1312 19.7473 28.0458 19.444 29.1565 19.444C30.2672 19.444 31.1492 19.7333 31.8025 20.312C32.4558 20.8813 32.7825 21.656 32.7825 22.636H30.5285C30.5285 22.272 30.4025 21.9873 30.1505 21.782C29.8985 21.5673 29.5578 21.46 29.1285 21.46C28.6618 21.46 28.2932 21.558 28.0225 21.754C27.7518 21.95 27.6165 22.2207 27.6165 22.566C27.6165 22.874 27.7005 23.1167 27.8685 23.294C28.0365 23.462 28.3025 23.5833 28.6665 23.658L30.2205 23.98C31.1538 24.1667 31.8398 24.4933 32.2785 24.96C32.7265 25.4267 32.9505 26.066 32.9505 26.878C32.9505 27.8767 32.5912 28.6793 31.8725 29.286C31.1538 29.8833 30.1972 30.182 29.0025 30.182C27.8452 30.182 26.9212 29.8927 26.2305 29.314C25.5398 28.7353 25.1945 27.9607 25.1945 26.99H27.4485C27.4485 27.3727 27.5838 27.6667 27.8545 27.872C28.1252 28.068 28.5125 28.166 29.0165 28.166C29.5298 28.166 29.9358 28.0727 30.2345 27.886C30.5332 27.69 30.6825 27.4287 30.6825 27.102C30.6825 26.8127 30.6078 26.5887 30.4585 26.43C30.3185 26.2713 30.0758 26.1593 29.7305 26.094L28.1485 25.772C26.2818 25.3893 25.3485 24.3487 25.3485 22.65Z" fill="#B37BE8"/>
</svg>
