<svg width="41" height="41" viewBox="0 0 41 41" fill="none" xmlns="http://www.w3.org/2000/svg">
<g clip-path="url(#clip0_130_1021)">
<path d="M8.54167 6.83325H15.375L18.7917 15.3749L14.5208 17.9374C16.3504 21.6471 19.3528 24.6495 23.0625 26.4791L25.625 22.2083L34.1667 25.6249V32.4583C34.1667 33.3644 33.8067 34.2335 33.1659 34.8742C32.5252 35.5149 31.6562 35.8749 30.75 35.8749C24.0862 35.47 17.8011 32.6402 13.0804 27.9195C8.35974 23.1988 5.52996 16.9137 5.125 10.2499C5.125 9.34376 5.48497 8.47472 6.12572 7.83397C6.76647 7.19322 7.63551 6.83325 8.54167 6.83325Z" stroke="#212529" stroke-width="2.5" stroke-linecap="round" stroke-linejoin="round"/>
<path d="M25.625 11.9583C26.5312 11.9583 27.4002 12.3182 28.0409 12.959C28.6817 13.5997 29.0417 14.4688 29.0417 15.3749" stroke="#D7BB78" stroke-width="2.5" stroke-linecap="round" stroke-linejoin="round"/>
<path d="M25.625 5.125C28.3435 5.125 30.9506 6.20491 32.8728 8.12716C34.7951 10.0494 35.875 12.6565 35.875 15.375" stroke="#D7BB78" stroke-width="2.5" stroke-linecap="round" stroke-linejoin="round"/>
</g>
<defs>
<clipPath id="clip0_130_1021">
<rect width="41" height="41" fill="white"/>
</clipPath>
</defs>
</svg>
