<svg width="242" height="73" viewBox="0 0 242 73" fill="none" xmlns="http://www.w3.org/2000/svg">
<g clip-path="url(#clip0_130_1069)">
<path d="M54.75 12.1666C55.2079 12.1666 55.6599 12.27 56.0723 12.4691C56.4847 12.6682 56.8468 12.9578 57.1316 13.3164L57.3567 13.6449L66.4817 28.8532C66.7805 29.3519 66.9302 29.9258 66.9129 30.5069C66.8957 31.088 66.7123 31.652 66.3844 32.1321L66.141 32.4454L40.1956 61.4416C39.7139 61.9331 39.1388 62.3235 38.5042 62.5899C37.8696 62.8563 37.1882 62.9933 36.5 62.9929C35.2833 62.9929 34.1123 62.567 33.1238 61.7245L32.7131 61.3413L6.85896 32.4454C6.47 32.0114 6.21391 31.4748 6.12116 30.8995C6.02842 30.3241 6.10291 29.7342 6.33579 29.2L6.51829 28.8502L15.6828 13.5749L15.8775 13.3012C16.0167 13.128 16.1749 12.9709 16.349 12.8328L16.6197 12.6381L16.8873 12.486L17.0394 12.416L17.2219 12.34L17.5535 12.2427L17.8941 12.1818L18.25 12.1666H54.75ZM27.7218 24.1599C27.0303 23.7458 26.2027 23.6231 25.4208 23.8187C24.6389 24.0143 23.9667 24.5123 23.5516 25.2032L21.7266 28.2449L21.5441 28.5977C21.3113 29.1345 21.2383 29.7271 21.3338 30.3043C21.4293 30.8816 21.6892 31.4191 22.0825 31.8523L28.1658 38.544L28.4396 38.8116C29.0026 39.2934 29.7222 39.5531 30.4631 39.5419C31.2041 39.5307 31.9155 39.2494 32.4637 38.7508L32.7283 38.477C33.2101 37.914 33.4698 37.1944 33.4586 36.4535C33.4474 35.7125 33.1661 35.0011 32.6675 34.4529L28.102 29.4342L28.765 28.33L28.9323 28.0168C29.238 27.3372 29.2836 26.5691 29.0604 25.8581C28.8373 25.1472 28.3609 24.5429 27.7218 24.1599Z" fill="#D7BB78"/>
</g>
<path d="M187.285 60.3272C188.181 60.2494 188.823 60.1326 189.212 59.9768C189.602 59.8211 189.864 59.5486 190.001 59.1592C190.137 58.7699 190.205 58.1275 190.205 57.232V45.5228C189.076 45.5618 188.278 45.6591 187.811 45.8148C187.363 45.9706 187.052 46.2918 186.876 46.7784C186.701 47.2456 186.545 48.1022 186.409 49.348L184.015 49.5232C184.151 47.9075 184.268 45.8343 184.365 43.3036L184.686 42.9824L187.577 43.3036H196.688L199.637 42.9824L199.958 43.3036C199.997 45.6396 200.094 47.6544 200.25 49.348L197.856 49.5232C197.7 48.1995 197.534 47.2943 197.359 46.8076C197.203 46.321 196.911 45.9998 196.483 45.844C196.074 45.6688 195.335 45.5618 194.264 45.5228C194.167 46.9634 194.079 48.9198 194.001 51.392C193.943 53.8643 193.914 56.1127 193.914 58.1372C193.914 58.8575 194.04 59.3734 194.293 59.6848C194.546 59.9963 194.955 60.152 195.52 60.152C196.006 60.152 196.522 60.1228 197.067 60.0644L197.184 60.2104L196.921 62.1668C194.858 62.089 193.184 62.05 191.899 62.05C190.886 62.05 189.271 62.1084 187.052 62.2252L187.285 60.3272Z" fill="white"/>
<path d="M182.739 56.5312C182.427 58.0496 182.164 59.8503 181.95 61.9333L181.658 62.2544C177.94 62.1182 174.913 62.05 172.577 62.05C170.942 62.05 169.277 62.1474 167.584 62.342L167.788 60.3856C168.606 60.2688 169.161 60.0352 169.453 59.6848C169.745 59.3344 169.891 58.731 169.891 57.8744L169.92 46.7492C169.92 46.1068 169.861 45.6883 169.745 45.4936C169.628 45.2795 169.375 45.1724 168.985 45.1724C168.732 45.1724 168.431 45.1919 168.08 45.2308L167.905 44.968L168.139 43.216H168.723C170.105 43.2744 171.672 43.3036 173.424 43.3036C177.765 43.3036 180.724 43.1868 182.301 42.9532L182.534 43.2744C182.378 43.9947 182.232 44.8512 182.096 45.844C181.979 46.8368 181.902 47.742 181.863 48.5596L179.264 48.7348L179.322 47.5668C179.322 46.9828 179.235 46.574 179.059 46.3404C178.904 46.0874 178.573 45.9219 178.067 45.844C177.58 45.7467 176.753 45.6981 175.585 45.6981C175.078 45.6981 174.728 45.7175 174.533 45.7564C174.339 45.7954 174.202 45.883 174.125 46.0192C174.066 46.1555 174.027 46.3794 174.008 46.6908L173.803 51.2752L176.548 51.3044C176.957 51.3044 177.463 51.285 178.067 51.246C178.69 51.1876 179.312 51.1195 179.935 51.0416L180.169 51.3044L179.76 53.7864C179.507 53.7864 179.312 53.7767 179.176 53.7572C177.814 53.7183 176.733 53.6988 175.935 53.6988C175.332 53.6988 174.582 53.7572 173.687 53.874L173.628 58.0497C173.628 58.5947 173.667 58.984 173.745 59.2176C173.842 59.4512 174.008 59.607 174.241 59.6848C174.494 59.7627 174.923 59.8016 175.526 59.8016C176.811 59.8016 177.736 59.7335 178.3 59.5972C178.884 59.4415 179.303 59.1398 179.556 58.692C179.809 58.2443 180.004 57.5046 180.14 56.4728L182.534 56.2684L182.739 56.5312Z" fill="white"/>
<path d="M150.729 46.6907C150.729 46.0873 150.661 45.6882 150.524 45.4935C150.388 45.2794 150.106 45.1723 149.678 45.1723L148.802 45.2015L148.656 44.9679L148.86 43.2451L152.773 43.3035C153.298 43.3035 154.019 43.2743 154.934 43.2159C155.849 43.1575 156.452 43.1186 156.744 43.0991L156.598 45.0263C155.878 45.1626 155.391 45.3475 155.138 45.5811C154.885 45.7953 154.749 46.1749 154.729 46.7199L154.437 58.1955C154.418 58.9937 154.486 59.529 154.642 59.8015C154.817 60.0741 155.128 60.2103 155.576 60.2103C155.868 60.2103 156.111 60.2006 156.306 60.1811C156.52 60.1617 156.656 60.1422 156.715 60.1227L156.861 60.2979L156.598 62.1375C156.287 62.1375 155.703 62.1181 154.846 62.0791C154.009 62.0597 153.201 62.0499 152.422 62.0499C151.546 62.0499 150.719 62.0597 149.94 62.0791C149.181 62.0986 148.665 62.1181 148.393 62.1375L148.656 60.2979C149.24 60.2201 149.678 60.113 149.97 59.9767C150.262 59.821 150.456 59.5971 150.554 59.3051C150.67 58.9937 150.729 58.5557 150.729 57.9911V46.6907ZM159.46 47.4791C159.985 46.9146 160.248 46.4279 160.248 46.0191C160.248 45.7466 160.121 45.5422 159.868 45.4059C159.615 45.2502 159.216 45.1626 158.671 45.1431L158.584 44.9387L158.817 43.1575C159.09 43.177 159.635 43.2062 160.452 43.2451C161.27 43.2841 161.932 43.3035 162.438 43.3035C163.1 43.3035 163.762 43.2938 164.424 43.2743C165.105 43.2354 165.572 43.2062 165.825 43.1867L166 43.5079L165.767 45.1431C165.183 45.3767 164.618 45.7271 164.073 46.1943C163.548 46.6615 162.857 47.4013 162 48.4135L158.846 51.9175L162.788 57.8159C163.392 58.7114 163.937 59.3538 164.424 59.7431C164.93 60.1325 165.504 60.3369 166.146 60.3563L166.322 60.6191L166.088 62.1375C165.796 62.1765 165.212 62.2446 164.336 62.3419C163.479 62.4393 162.944 62.4879 162.73 62.4879C162.146 62.4879 161.591 62.2933 161.066 61.9039C160.54 61.4951 160.014 60.8722 159.489 60.0351L155.021 52.8227L155.109 52.2095L159.46 47.4791Z" fill="white"/>
<path d="M143.586 62.5174C142.32 62.5174 141.26 61.6122 140.403 59.8018L137.863 54.6626H135.789L135.731 57.9622C135.731 58.6435 135.78 59.1399 135.877 59.4514C135.974 59.7434 136.159 59.9381 136.432 60.0354C136.704 60.1327 137.172 60.1911 137.833 60.2106L137.921 60.3858L137.658 62.167C137.308 62.1475 136.695 62.1281 135.819 62.1086C134.943 62.0891 134.135 62.0794 133.395 62.0794C132.675 62.0794 131.935 62.0989 131.176 62.1378C130.417 62.1767 129.92 62.2059 129.687 62.2254L129.949 60.2982C130.767 60.2009 131.312 59.9867 131.585 59.6558C131.877 59.3249 132.023 58.7409 132.023 57.9038V46.6034C132.023 46.0389 131.954 45.6593 131.818 45.4646C131.701 45.2699 131.458 45.1726 131.088 45.1726C130.874 45.1726 130.67 45.1823 130.475 45.2018C130.28 45.2213 130.154 45.231 130.095 45.231L129.92 44.9974L130.183 43.2454C130.456 43.2454 130.952 43.2551 131.672 43.2746C132.412 43.2941 133.132 43.3038 133.833 43.3038C134.612 43.3038 135.449 43.2941 136.344 43.2746C137.259 43.2357 137.892 43.2065 138.242 43.187C140.461 43.187 142.155 43.6153 143.323 44.4718C144.51 45.3283 145.104 46.5645 145.104 48.1802C145.104 49.3287 144.764 50.3799 144.082 51.3338C143.401 52.2877 142.428 53.0858 141.162 53.7282L143.732 57.9038C144.277 58.7993 144.802 59.4417 145.309 59.831C145.815 60.2203 146.379 60.415 147.002 60.415L147.207 60.6778L147.002 62.1962L143.586 62.5174ZM138.505 52.4142C139.147 52.1417 139.731 51.7426 140.257 51.217C140.783 50.6719 141.045 49.8349 141.045 48.7058C141.045 47.6351 140.685 46.837 139.965 46.3114C139.245 45.7858 138.135 45.523 136.636 45.523C136.442 45.523 136.305 45.5619 136.227 45.6398C136.169 45.7177 136.13 45.8929 136.111 46.1654C135.994 48.1705 135.916 50.1561 135.877 52.1222L138.505 52.4142Z" fill="white"/>
<path d="M119.992 62.05L120.138 60.3272C120.8 60.2688 121.277 60.2104 121.569 60.152C121.88 60.0742 122.095 59.9768 122.211 59.86C122.328 59.7238 122.387 59.5291 122.387 59.276C122.387 59.0424 122.338 58.7018 122.241 58.254L121.627 56.0056C120.615 55.9667 119.72 55.9472 118.941 55.9472C118.591 55.9472 117.861 55.9959 116.751 56.0932L116.138 56.1516L115.408 58.4C115.291 58.8283 115.233 59.13 115.233 59.3052C115.233 59.6556 115.33 59.899 115.525 60.0352C115.739 60.1715 116.099 60.2396 116.605 60.2396H117.861L118.007 60.444L117.802 62.2252C117.53 62.2058 116.946 62.1668 116.05 62.1084C115.155 62.0695 114.318 62.05 113.539 62.05C112.721 62.05 111.982 62.0598 111.32 62.0792C110.677 62.0987 110.249 62.1182 110.035 62.1376L110.239 60.2396C110.687 60.1618 111.057 59.9768 111.349 59.6848C111.641 59.3928 111.913 58.9159 112.167 58.254L117.393 43.4496L121.861 42.9824L122.182 43.1284C122.474 44.238 123.078 46.5156 123.993 49.9612C124.927 53.3874 125.725 56.1419 126.387 58.2248C126.601 58.9256 126.874 59.422 127.205 59.714C127.535 60.006 128.032 60.1812 128.694 60.2396L128.811 60.444L128.606 62.1376C128.353 62.1182 127.876 62.0987 127.175 62.0792C126.475 62.0598 125.764 62.05 125.044 62.05C124.012 62.05 123 62.0792 122.007 62.1376C121.034 62.2155 120.411 62.2642 120.138 62.2836L119.992 62.05ZM118.941 53.6988C119.155 53.6988 119.875 53.6696 121.102 53.6112L119.379 47.0996H118.999L116.839 53.6988H118.941Z" fill="white"/>
<path d="M96.6082 62.5171C95.1482 57.884 93.6298 53.3288 92.053 48.8515H91.8194C91.8194 49.0656 91.7805 49.7762 91.7026 50.9831C91.6247 52.19 91.5566 53.1926 91.4982 53.9907C91.2646 57.2611 91.1478 59.0228 91.1478 59.2759C91.1478 59.8988 91.4593 60.2103 92.0822 60.2103L93.075 60.1811L93.2502 60.3271L92.929 62.1667C91.2938 62.0888 90.155 62.0499 89.5126 62.0499C89.0649 62.0499 88.5198 62.0791 87.8774 62.1375C87.2545 62.1959 86.8359 62.2446 86.6218 62.2835L86.797 60.3855C87.3615 60.3271 87.7703 60.1519 88.0234 59.8599C88.2765 59.5484 88.4614 59.0228 88.5782 58.2831C88.7534 56.7647 88.987 54.4968 89.279 51.4795C89.5905 48.4622 89.7462 46.8075 89.7462 46.5155C89.7462 45.9899 89.5905 45.6298 89.279 45.4351C88.987 45.2404 88.403 45.1042 87.527 45.0263L87.381 44.8511L87.6438 43.1575C89.2401 43.2548 90.4567 43.3035 91.2938 43.3035C91.7221 43.3035 92.7538 43.2646 94.389 43.1867C95.1677 45.9315 96.2481 49.5036 97.6302 53.9031L98.1266 55.4215H98.3602C98.477 55.0322 98.6327 54.5455 98.8274 53.9615C99.0221 53.358 99.2265 52.7156 99.4406 52.0343C100.433 49.0754 101.378 46.1554 102.273 43.2743C102.682 43.2743 103.013 43.284 103.266 43.3035L104.813 43.3327L105.719 43.3035C106.127 43.3035 106.653 43.284 107.295 43.2451C107.938 43.2062 108.405 43.1672 108.697 43.1283L108.814 43.2451L108.639 44.9971C107.802 45.075 107.227 45.221 106.916 45.4351C106.624 45.6492 106.478 46.0191 106.478 46.5447C106.478 47.1482 106.556 48.686 106.711 51.1583C106.867 53.6111 107.023 55.733 107.179 57.5239C107.295 58.5946 107.441 59.3148 107.617 59.6847C107.811 60.0351 108.142 60.2103 108.609 60.2103C108.824 60.2103 108.999 60.2006 109.135 60.1811C109.291 60.1616 109.388 60.1519 109.427 60.1519L109.544 60.2979L109.281 62.1375C108.989 62.1375 108.726 62.1278 108.493 62.1083C107.636 62.0694 106.916 62.0499 106.332 62.0499C105.767 62.0499 105.018 62.0791 104.083 62.1375C103.168 62.1959 102.536 62.2446 102.185 62.2835L102.39 60.3855C102.974 60.3076 103.392 60.1616 103.645 59.9475C103.898 59.7139 104.025 59.3732 104.025 58.9255C104.025 58.8476 103.947 57.6407 103.791 55.3047C103.577 52.2484 103.451 50.0974 103.412 48.8515H103.149C101.514 53.4067 99.9954 57.8743 98.5938 62.2543L96.6082 62.5171Z" fill="white"/>
<path d="M228.137 29.3897C228.916 29.2924 229.481 29.1561 229.831 28.9809C230.201 28.7862 230.444 28.5234 230.561 28.1925C230.697 27.8421 230.765 27.3165 230.765 26.6157V25.7105C230.765 25.1849 230.707 24.708 230.59 24.2797C230.473 23.8514 230.249 23.3258 229.919 22.7029L227.057 17.1549C226.57 16.1621 226.113 15.4613 225.685 15.0525C225.256 14.6437 224.604 14.3614 223.728 14.2057L223.67 14.0597L223.874 12.2201C224.147 12.2201 224.653 12.2396 225.393 12.2785C226.152 12.298 226.891 12.3077 227.612 12.3077C228.235 12.3077 229.081 12.2785 230.152 12.2201C231.223 12.1422 231.933 12.0936 232.284 12.0741L232.401 12.3369L232.255 13.9721C231.593 14.011 231.125 14.0986 230.853 14.2349C230.6 14.3712 230.473 14.5853 230.473 14.8773C230.473 15.2472 231.135 16.8532 232.459 19.6953C232.848 20.5908 233.033 21.019 233.014 20.9801H233.277L235.642 16.0745C235.934 15.4905 236.08 15.033 236.08 14.7021C236.08 14.488 235.953 14.3322 235.7 14.2349C235.467 14.1181 235.087 14.0402 234.561 14.0013L234.503 13.8553L234.707 12.1909L236.109 12.2493C237.16 12.2882 237.978 12.3077 238.562 12.3077C239.107 12.3077 239.691 12.298 240.314 12.2785C240.937 12.2396 241.336 12.2104 241.511 12.1909L241.628 12.3953L241.423 14.1473C240.645 14.4004 240.022 14.78 239.555 15.2861C239.107 15.7922 238.542 16.6585 237.861 17.8849L235.087 23.1117C234.814 23.5984 234.649 24.0948 234.591 24.6009C234.552 25.107 234.532 26.0317 234.532 27.3749C234.532 28.0173 234.629 28.4748 234.824 28.7473C235.019 29.0004 235.369 29.1269 235.875 29.1269C236.226 29.1269 236.527 29.1172 236.781 29.0977C237.053 29.0782 237.238 29.0588 237.335 29.0393L237.452 29.1853L237.189 31.1417C236.839 31.1222 236.187 31.093 235.233 31.0541C234.279 31.0346 233.345 31.0249 232.43 31.0249C231.729 31.0249 230.882 31.0638 229.889 31.1417C228.897 31.239 228.244 31.3072 227.933 31.3461L228.137 29.3897Z" fill="white"/>
<path d="M220.778 31.4924C219.512 31.4924 218.451 30.5872 217.595 28.7768L215.054 23.6376H212.981L212.923 26.9372C212.923 27.6185 212.971 28.1149 213.069 28.4264C213.166 28.7184 213.351 28.9131 213.624 29.0104C213.896 29.1077 214.363 29.1661 215.025 29.1856L215.113 29.3608L214.85 31.142C214.5 31.1225 213.886 31.1031 213.01 31.0836C212.134 31.0641 211.326 31.0544 210.587 31.0544C209.866 31.0544 209.127 31.0739 208.368 31.1128C207.608 31.1517 207.112 31.1809 206.878 31.2004L207.141 29.2732C207.959 29.1759 208.504 28.9617 208.776 28.6308C209.068 28.2999 209.214 27.7159 209.214 26.8788V15.5784C209.214 15.0139 209.146 14.6343 209.01 14.4396C208.893 14.2449 208.65 14.1476 208.28 14.1476C208.066 14.1476 207.861 14.1573 207.667 14.1768C207.472 14.1963 207.346 14.206 207.287 14.206L207.112 13.9724L207.375 12.2204C207.647 12.2204 208.144 12.2301 208.864 12.2496C209.604 12.2691 210.324 12.2788 211.025 12.2788C211.803 12.2788 212.64 12.2691 213.536 12.2496C214.451 12.2107 215.084 12.1815 215.434 12.162C217.653 12.162 219.347 12.5903 220.515 13.4468C221.702 14.3033 222.296 15.5395 222.296 17.1552C222.296 18.3037 221.955 19.3549 221.274 20.3088C220.593 21.2627 219.619 22.0608 218.354 22.7032L220.924 26.8788C221.469 27.7743 221.994 28.4167 222.5 28.806C223.006 29.1953 223.571 29.39 224.194 29.39L224.398 29.6528L224.194 31.1712L220.778 31.4924ZM215.697 21.3892C216.339 21.1167 216.923 20.7176 217.449 20.192C217.974 19.6469 218.237 18.8099 218.237 17.6808C218.237 16.6101 217.877 15.812 217.157 15.2864C216.436 14.7608 215.327 14.498 213.828 14.498C213.633 14.498 213.497 14.5369 213.419 14.6148C213.361 14.6927 213.322 14.8679 213.302 15.1404C213.186 17.1455 213.108 19.1311 213.069 21.0972L215.697 21.3892Z" fill="white"/>
<path d="M204.639 25.5062C204.327 27.0246 204.064 28.8253 203.85 30.9082L203.558 31.2294C199.84 31.0932 196.813 31.025 194.477 31.025C192.842 31.025 191.177 31.1224 189.484 31.317L189.688 29.3606C190.506 29.2438 191.061 29.0102 191.353 28.6598C191.645 28.3094 191.791 27.706 191.791 26.8494L191.82 15.7242C191.82 15.0818 191.761 14.6633 191.645 14.4686C191.528 14.2545 191.275 14.1474 190.885 14.1474C190.632 14.1474 190.331 14.1669 189.98 14.2058L189.805 13.943L190.039 12.191H190.623C192.005 12.2494 193.572 12.2786 195.324 12.2786C199.665 12.2786 202.624 12.1618 204.201 11.9282L204.434 12.2494C204.278 12.9697 204.132 13.8262 203.996 14.819C203.879 15.8118 203.802 16.717 203.763 17.5346L201.164 17.7098L201.222 16.5418C201.222 15.9578 201.135 15.549 200.959 15.3154C200.804 15.0624 200.473 14.8969 199.967 14.819C199.48 14.7217 198.653 14.673 197.485 14.673C196.978 14.673 196.628 14.6925 196.433 14.7314C196.239 14.7704 196.102 14.858 196.025 14.9942C195.966 15.1305 195.927 15.3544 195.908 15.6658L195.703 20.2502L198.448 20.2794C198.857 20.2794 199.363 20.26 199.967 20.221C200.59 20.1626 201.212 20.0945 201.835 20.0166L202.069 20.2794L201.66 22.7614C201.407 22.7614 201.212 22.7517 201.076 22.7322C199.714 22.6933 198.633 22.6738 197.835 22.6738C197.232 22.6738 196.482 22.7322 195.587 22.849L195.528 27.0246C195.528 27.5697 195.567 27.959 195.645 28.1926C195.742 28.4262 195.908 28.582 196.141 28.6598C196.394 28.7377 196.823 28.7766 197.426 28.7766C198.711 28.7766 199.636 28.7085 200.2 28.5722C200.784 28.4165 201.203 28.1148 201.456 27.667C201.709 27.2193 201.904 26.4796 202.04 25.4478L204.434 25.2434L204.639 25.5062Z" fill="white"/>
<path d="M174.693 29.3605C175.433 29.2437 175.939 29.0101 176.212 28.6597C176.484 28.3093 176.62 27.7058 176.62 26.8493L176.65 15.6657C176.65 15.0622 176.581 14.6632 176.445 14.4685C176.309 14.2544 176.027 14.1473 175.598 14.1473L174.693 14.1765L174.547 13.9429L174.781 12.2493L178.694 12.2785C179.239 12.2785 180.027 12.2493 181.059 12.1909C182.11 12.1325 182.801 12.0936 183.132 12.0741L182.928 14.0889C182.266 14.1668 181.779 14.2836 181.468 14.4393C181.176 14.5756 180.981 14.78 180.884 15.0525C180.806 15.3056 180.747 15.7144 180.708 16.2789C180.494 19.1989 180.387 22.771 180.387 26.9953C180.387 27.5209 180.436 27.9102 180.533 28.1633C180.63 28.3969 180.806 28.5624 181.059 28.6597C181.312 28.7376 181.701 28.7765 182.227 28.7765C183.2 28.7765 183.92 28.6694 184.388 28.4553C184.874 28.2412 185.234 27.8324 185.468 27.2289C185.702 26.6254 185.896 25.6716 186.052 24.3673L188.417 24.1045L188.622 24.3965C188.563 24.7664 188.446 25.6034 188.271 26.9077C188.115 28.1925 187.979 29.5454 187.862 30.9665L187.57 31.2585C187.045 31.239 185.906 31.1904 184.154 31.1125C182.402 31.0541 180.815 31.0249 179.394 31.0249C178.324 31.0249 177.302 31.0638 176.328 31.1417C175.355 31.2196 174.732 31.278 174.46 31.3169L174.693 29.3605Z" fill="white"/>
<path d="M159.523 29.3605C160.263 29.2437 160.769 29.0101 161.041 28.6597C161.314 28.3093 161.45 27.7058 161.45 26.8493L161.479 15.6657C161.479 15.0622 161.411 14.6632 161.275 14.4685C161.139 14.2544 160.856 14.1473 160.428 14.1473L159.523 14.1765L159.377 13.9429L159.61 12.2493L163.523 12.2785C164.068 12.2785 164.857 12.2493 165.888 12.1909C166.94 12.1325 167.631 12.0936 167.962 12.0741L167.757 14.0889C167.095 14.1668 166.609 14.2836 166.297 14.4393C166.005 14.5756 165.811 14.78 165.713 15.0525C165.635 15.3056 165.577 15.7144 165.538 16.2789C165.324 19.1989 165.217 22.771 165.217 26.9953C165.217 27.5209 165.265 27.9102 165.363 28.1633C165.46 28.3969 165.635 28.5624 165.888 28.6597C166.141 28.7376 166.531 28.7765 167.056 28.7765C168.03 28.7765 168.75 28.6694 169.217 28.4553C169.704 28.2412 170.064 27.8324 170.298 27.2289C170.531 26.6254 170.726 25.6716 170.882 24.3673L173.247 24.1045L173.451 24.3965C173.393 24.7664 173.276 25.6034 173.101 26.9077C172.945 28.1925 172.809 29.5454 172.692 30.9665L172.4 31.2585C171.874 31.239 170.736 31.1904 168.984 31.1125C167.232 31.0541 165.645 31.0249 164.224 31.0249C163.153 31.0249 162.131 31.0638 161.158 31.1417C160.185 31.2196 159.562 31.278 159.289 31.3169L159.523 29.3605Z" fill="white"/>
<path d="M156.903 25.5062C156.592 27.0246 156.329 28.8253 156.115 30.9082L155.823 31.2294C152.105 31.0932 149.078 31.025 146.742 31.025C145.107 31.025 143.442 31.1224 141.749 31.317L141.953 29.3606C142.771 29.2438 143.325 29.0102 143.617 28.6598C143.909 28.3094 144.055 27.706 144.055 26.8494L144.085 15.7242C144.085 15.0818 144.026 14.6633 143.909 14.4686C143.793 14.2545 143.54 14.1474 143.15 14.1474C142.897 14.1474 142.595 14.1669 142.245 14.2058L142.07 13.943L142.303 12.191H142.887C144.27 12.2494 145.837 12.2786 147.589 12.2786C151.93 12.2786 154.889 12.1618 156.465 11.9282L156.699 12.2494C156.543 12.9697 156.397 13.8262 156.261 14.819C156.144 15.8118 156.066 16.717 156.027 17.5346L153.429 17.7098L153.487 16.5418C153.487 15.9578 153.399 15.549 153.224 15.3154C153.069 15.0624 152.738 14.8969 152.231 14.819C151.745 14.7217 150.917 14.673 149.749 14.673C149.243 14.673 148.893 14.6925 148.698 14.7314C148.504 14.7704 148.367 14.858 148.289 14.9942C148.231 15.1305 148.192 15.3544 148.173 15.6658L147.968 20.2502L150.713 20.2794C151.122 20.2794 151.628 20.26 152.231 20.221C152.854 20.1626 153.477 20.0945 154.1 20.0166L154.334 20.2794L153.925 22.7614C153.672 22.7614 153.477 22.7517 153.341 22.7322C151.978 22.6933 150.898 22.6738 150.1 22.6738C149.496 22.6738 148.747 22.7322 147.851 22.849L147.793 27.0246C147.793 27.5697 147.832 27.959 147.91 28.1926C148.007 28.4262 148.173 28.582 148.406 28.6598C148.659 28.7377 149.088 28.7766 149.691 28.7766C150.976 28.7766 151.901 28.7085 152.465 28.5722C153.049 28.4165 153.468 28.1148 153.721 27.667C153.974 27.2193 154.168 26.4796 154.305 25.4478L156.699 25.2434L156.903 25.5062Z" fill="white"/>
<path d="M118.8 31.4629C118.527 30.3728 117.934 28.0952 117.019 24.6301C116.123 21.1651 115.325 18.2645 114.624 15.9285C114.449 15.3251 114.186 14.8871 113.836 14.6145C113.505 14.342 113.057 14.1863 112.493 14.1473L112.376 13.9429L112.58 12.2201C112.833 12.2201 113.31 12.2299 114.011 12.2493C114.712 12.2688 115.413 12.2785 116.114 12.2785C117.087 12.2785 118.051 12.2493 119.004 12.1909C119.978 12.1131 120.601 12.0644 120.873 12.0449L121.019 12.2785L120.873 14.0013C120.211 14.0792 119.734 14.1571 119.442 14.2349C119.15 14.2933 118.946 14.3907 118.829 14.5269C118.732 14.6437 118.683 14.8384 118.683 15.1109C118.683 15.5976 119.053 17.4567 119.793 20.6881C120.552 23.9196 121.068 26.1096 121.34 27.2581H121.691C122.255 25.7592 123.345 22.2455 124.961 16.7169C124.903 16.2887 124.825 15.8701 124.728 15.4613C124.611 14.9747 124.387 14.6437 124.056 14.4685C123.745 14.2739 123.238 14.1668 122.538 14.1473L122.421 13.9429L122.654 12.2201C122.946 12.2201 123.482 12.2299 124.26 12.2493C125.039 12.2688 125.818 12.2785 126.596 12.2785C127.492 12.2785 128.426 12.2493 129.4 12.1909C130.392 12.1131 131.035 12.0644 131.327 12.0449L131.473 12.2785L131.327 14.0013C130.645 14.0792 130.159 14.1571 129.867 14.2349C129.575 14.2933 129.37 14.3907 129.254 14.5269C129.156 14.6632 129.108 14.8676 129.108 15.1401C129.108 15.5684 129.477 17.408 130.217 20.6589C130.976 23.8904 131.502 26.0901 131.794 27.2581H132.144C132.592 26.0512 133.312 23.8028 134.305 20.5129C135.298 17.2231 135.794 15.364 135.794 14.9357C135.794 14.6243 135.687 14.4101 135.473 14.2933C135.259 14.1765 134.87 14.1181 134.305 14.1181H133.166L133.05 13.9137L133.254 12.1325C133.527 12.152 134.101 12.1812 134.977 12.2201C135.872 12.2591 136.7 12.2785 137.459 12.2785C138.199 12.2785 138.87 12.2688 139.474 12.2493C140.097 12.2299 140.505 12.2201 140.7 12.2201L140.496 14.1181C140.048 14.196 139.727 14.3323 139.532 14.5269C139.337 14.7021 139.143 15.072 138.948 15.6365L133.75 30.8789L129.283 31.4629C129.185 30.8205 128.884 29.4968 128.378 27.4917C127.891 25.4672 127.326 23.2772 126.684 20.9217H126.421L123.297 30.8789L118.8 31.4629Z" fill="white"/>
<path d="M111.421 25.5062C111.11 27.0246 110.847 28.8253 110.633 30.9082L110.341 31.2294C106.623 31.0932 103.595 31.025 101.259 31.025C99.6243 31.025 97.9599 31.1224 96.2663 31.317L96.4707 29.3606C97.2883 29.2438 97.8431 29.0102 98.1351 28.6598C98.4271 28.3094 98.5731 27.706 98.5731 26.8494L98.6023 15.7242C98.6023 15.0818 98.5439 14.6633 98.4271 14.4686C98.3103 14.2545 98.0572 14.1474 97.6679 14.1474C97.4148 14.1474 97.1131 14.1669 96.7627 14.2058L96.5875 13.943L96.8211 12.191H97.4051C98.7872 12.2494 100.354 12.2786 102.106 12.2786C106.447 12.2786 109.406 12.1618 110.983 11.9282L111.217 12.2494C111.061 12.9697 110.915 13.8262 110.779 14.819C110.662 15.8118 110.584 16.717 110.545 17.5346L107.946 17.7098L108.005 16.5418C108.005 15.9578 107.917 15.549 107.742 15.3154C107.586 15.0624 107.255 14.8969 106.749 14.819C106.262 14.7217 105.435 14.673 104.267 14.673C103.761 14.673 103.411 14.6925 103.216 14.7314C103.021 14.7704 102.885 14.858 102.807 14.9942C102.749 15.1305 102.71 15.3544 102.69 15.6658L102.486 20.2502L105.231 20.2794C105.639 20.2794 106.146 20.26 106.749 20.221C107.372 20.1626 107.995 20.0945 108.618 20.0166L108.851 20.2794L108.443 22.7614C108.19 22.7614 107.995 22.7517 107.859 22.7322C106.496 22.6933 105.416 22.6738 104.617 22.6738C104.014 22.6738 103.265 22.7322 102.369 22.849L102.311 27.0246C102.311 27.5697 102.35 27.959 102.427 28.1926C102.525 28.4262 102.69 28.582 102.924 28.6598C103.177 28.7377 103.605 28.7766 104.209 28.7766C105.493 28.7766 106.418 28.7085 106.983 28.5722C107.567 28.4165 107.985 28.1148 108.238 27.667C108.491 27.2193 108.686 26.4796 108.822 25.4478L111.217 25.2434L111.421 25.5062Z" fill="white"/>
<path d="M86.067 34.3245L86.1546 34.0033C86.9138 33.4583 87.4881 32.9132 87.8774 32.3681C88.2668 31.8231 88.5393 31.1807 88.695 30.4409C88.8507 29.6817 88.9286 28.6792 88.9286 27.4333L88.9578 15.6657C88.9578 15.0623 88.8897 14.6632 88.7534 14.4685C88.6172 14.2544 88.3446 14.1473 87.9358 14.1473C87.7022 14.1473 87.4589 14.1668 87.2058 14.2057C86.9722 14.2252 86.8067 14.2349 86.7094 14.2349L86.5634 14.0013L86.7678 12.2785H90.3594C91.177 12.2785 92.0335 12.2493 92.929 12.1909C93.8439 12.1131 94.4377 12.0644 94.7102 12.0449L94.5642 14.0013C93.9218 14.0987 93.513 14.2447 93.3378 14.4393C93.1626 14.634 93.0555 15.0136 93.0166 15.5781C92.9387 16.9019 92.8609 18.9264 92.783 21.6517C92.7052 24.3576 92.6565 26.4892 92.637 28.0465C92.637 29.9737 92.1796 31.5311 91.2646 32.7185C90.3497 33.906 88.8897 34.8307 86.8846 35.4925L86.067 34.3245Z" fill="white"/>
<defs>
<clipPath id="clip0_130_1069">
<rect width="73" height="73" fill="white"/>
</clipPath>
</defs>
</svg>
