<svg width="155" height="40" viewBox="0 0 155 40" fill="none" xmlns="http://www.w3.org/2000/svg">
<g clip-path="url(#clip0_126_1613)">
<path d="M30 6.6665C30.2509 6.66651 30.4986 6.72317 30.7246 6.83225C30.9505 6.94134 31.1489 7.10003 31.305 7.2965L31.4283 7.4765L36.4283 15.8098C36.5921 16.0831 36.6741 16.3976 36.6646 16.716C36.6552 17.0344 36.5547 17.3434 36.375 17.6065L36.2417 17.7782L22.025 33.6665C21.761 33.9358 21.4459 34.1497 21.0982 34.2957C20.7505 34.4416 20.3771 34.5167 20 34.5165C19.3333 34.5165 18.6917 34.2832 18.15 33.8215L17.925 33.6115L3.75833 17.7782C3.54521 17.5404 3.40488 17.2463 3.35406 16.9311C3.30324 16.6158 3.34406 16.2926 3.47167 15.9998L3.57167 15.8082L8.59333 7.43817L8.7 7.28817C8.7763 7.19327 8.86294 7.10718 8.95833 7.0315L9.10667 6.92484L9.25333 6.8415L9.33667 6.80317L9.43667 6.7615L9.61833 6.70817L9.805 6.67484L10 6.6665H30ZM15.19 13.2382C14.8111 13.0113 14.3576 12.944 13.9292 13.0512C13.5008 13.1584 13.1324 13.4313 12.905 13.8098L11.905 15.4765L11.805 15.6698C11.6774 15.964 11.6374 16.2887 11.6897 16.605C11.7421 16.9213 11.8845 17.2158 12.1 17.4532L15.4333 21.1198L15.5833 21.2665C15.8918 21.5305 16.2861 21.6728 16.6921 21.6667C17.0981 21.6605 17.4879 21.5064 17.7883 21.2332L17.9333 21.0832C18.1973 20.7747 18.3396 20.3804 18.3335 19.9744C18.3274 19.5684 18.1732 19.1786 17.9 18.8782L15.3983 16.1282L15.7617 15.5232L15.8533 15.3515C16.0208 14.9791 16.0458 14.5583 15.9235 14.1687C15.8012 13.7791 15.5402 13.448 15.19 13.2382Z" fill="#D7BB78"/>
</g>
<path d="M47.16 18.808L47.208 18.632C47.624 18.3333 47.9387 18.0347 48.152 17.736C48.3653 17.4373 48.5147 17.0853 48.6 16.68C48.6853 16.264 48.728 15.7147 48.728 15.032L48.744 8.584C48.744 8.25333 48.7067 8.03467 48.632 7.928C48.5573 7.81067 48.408 7.752 48.184 7.752C48.056 7.752 47.9227 7.76267 47.784 7.784C47.656 7.79467 47.5653 7.8 47.512 7.8L47.432 7.672L47.544 6.728H49.512C49.96 6.728 50.4293 6.712 50.92 6.68C51.4213 6.63733 51.7467 6.61067 51.896 6.6L51.816 7.672C51.464 7.72533 51.24 7.80533 51.144 7.912C51.048 8.01867 50.9893 8.22667 50.968 8.536C50.9253 9.26133 50.8827 10.3707 50.84 11.864C50.7973 13.3467 50.7707 14.5147 50.76 15.368C50.76 16.424 50.5093 17.2773 50.008 17.928C49.5067 18.5787 48.7067 19.0853 47.608 19.448L47.16 18.808ZM61.0526 13.976C60.882 14.808 60.738 15.7947 60.6206 16.936L60.4606 17.112C58.4233 17.0373 56.7646 17 55.4846 17C54.5886 17 53.6766 17.0533 52.7486 17.16L52.8606 16.088C53.3086 16.024 53.6126 15.896 53.7726 15.704C53.9326 15.512 54.0126 15.1813 54.0126 14.712L54.0286 8.616C54.0286 8.264 53.9966 8.03467 53.9326 7.928C53.8686 7.81067 53.73 7.752 53.5166 7.752C53.378 7.752 53.2126 7.76267 53.0206 7.784L52.9246 7.64L53.0526 6.68H53.3726C54.13 6.712 54.9886 6.728 55.9486 6.728C58.3273 6.728 59.9486 6.664 60.8126 6.536L60.9406 6.712C60.8553 7.10667 60.7753 7.576 60.7006 8.12C60.6366 8.664 60.594 9.16 60.5726 9.608L59.1486 9.704L59.1806 9.064C59.1806 8.744 59.1326 8.52 59.0366 8.392C58.9513 8.25333 58.77 8.16267 58.4926 8.12C58.226 8.06667 57.7726 8.04 57.1326 8.04C56.8553 8.04 56.6633 8.05067 56.5566 8.072C56.45 8.09333 56.3753 8.14133 56.3326 8.216C56.3006 8.29067 56.2793 8.41333 56.2686 8.584L56.1566 11.096L57.6606 11.112C57.8846 11.112 58.162 11.1013 58.4926 11.08C58.834 11.048 59.1753 11.0107 59.5166 10.968L59.6446 11.112L59.4206 12.472C59.282 12.472 59.1753 12.4667 59.1006 12.456C58.354 12.4347 57.762 12.424 57.3246 12.424C56.994 12.424 56.5833 12.456 56.0926 12.52L56.0606 14.808C56.0606 15.1067 56.082 15.32 56.1246 15.448C56.178 15.576 56.2686 15.6613 56.3966 15.704C56.5353 15.7467 56.77 15.768 57.1006 15.768C57.8046 15.768 58.3113 15.7307 58.6206 15.656C58.9406 15.5707 59.17 15.4053 59.3086 15.16C59.4473 14.9147 59.554 14.5093 59.6286 13.944L60.9406 13.832L61.0526 13.976ZM65.0959 17.24C64.9465 16.6427 64.6212 15.3947 64.1199 13.496C63.6292 11.5973 63.1919 10.008 62.8079 8.728C62.7119 8.39733 62.5679 8.15733 62.3759 8.008C62.1945 7.85867 61.9492 7.77333 61.6399 7.752L61.5759 7.64L61.6879 6.696C61.8265 6.696 62.0879 6.70133 62.4719 6.712C62.8559 6.72267 63.2399 6.728 63.6239 6.728C64.1572 6.728 64.6852 6.712 65.2079 6.68C65.7412 6.63733 66.0825 6.61067 66.2319 6.6L66.3119 6.728L66.2319 7.672C65.8692 7.71467 65.6079 7.75733 65.4479 7.8C65.2879 7.832 65.1759 7.88533 65.1119 7.96C65.0585 8.024 65.0319 8.13067 65.0319 8.28C65.0319 8.54667 65.2345 9.56533 65.6399 11.336C66.0559 13.1067 66.3385 14.3067 66.4879 14.936H66.6799C66.9892 14.1147 67.5865 12.1893 68.4719 9.16C68.4399 8.92533 68.3972 8.696 68.3439 8.472C68.2799 8.20533 68.1572 8.024 67.9759 7.928C67.8052 7.82133 67.5279 7.76267 67.1439 7.752L67.0799 7.64L67.2079 6.696C67.3679 6.696 67.6612 6.70133 68.0879 6.712C68.5145 6.72267 68.9412 6.728 69.3679 6.728C69.8585 6.728 70.3705 6.712 70.9039 6.68C71.4479 6.63733 71.7999 6.61067 71.9599 6.6L72.0399 6.728L71.9599 7.672C71.5865 7.71467 71.3199 7.75733 71.1599 7.8C70.9999 7.832 70.8879 7.88533 70.8239 7.96C70.7705 8.03467 70.7439 8.14667 70.7439 8.296C70.7439 8.53067 70.9465 9.53867 71.3519 11.32C71.7679 13.0907 72.0559 14.296 72.2159 14.936H72.4079C72.6532 14.2747 73.0479 13.0427 73.5919 11.24C74.1359 9.43733 74.4079 8.41867 74.4079 8.184C74.4079 8.01333 74.3492 7.896 74.2319 7.832C74.1145 7.768 73.9012 7.736 73.5919 7.736H72.9679L72.9039 7.624L73.0159 6.648C73.1652 6.65867 73.4799 6.67467 73.9599 6.696C74.4505 6.71733 74.9039 6.728 75.3199 6.728C75.7252 6.728 76.0932 6.72267 76.4239 6.712C76.7652 6.70133 76.9892 6.696 77.0959 6.696L76.9839 7.736C76.7385 7.77867 76.5625 7.85333 76.4559 7.96C76.3492 8.056 76.2425 8.25867 76.1359 8.568L73.2879 16.92L70.8399 17.24C70.7865 16.888 70.6212 16.1627 70.3439 15.064C70.0772 13.9547 69.7679 12.7547 69.4159 11.464H69.2719L67.5599 16.92L65.0959 17.24ZM85.9745 13.976C85.8038 14.808 85.6598 15.7947 85.5425 16.936L85.3825 17.112C83.3452 17.0373 81.6865 17 80.4065 17C79.5105 17 78.5985 17.0533 77.6705 17.16L77.7825 16.088C78.2305 16.024 78.5345 15.896 78.6945 15.704C78.8545 15.512 78.9345 15.1813 78.9345 14.712L78.9505 8.616C78.9505 8.264 78.9185 8.03467 78.8545 7.928C78.7905 7.81067 78.6518 7.752 78.4385 7.752C78.2998 7.752 78.1345 7.76267 77.9425 7.784L77.8465 7.64L77.9745 6.68H78.2945C79.0518 6.712 79.9105 6.728 80.8705 6.728C83.2492 6.728 84.8705 6.664 85.7345 6.536L85.8625 6.712C85.7772 7.10667 85.6972 7.576 85.6225 8.12C85.5585 8.664 85.5158 9.16 85.4945 9.608L84.0705 9.704L84.1025 9.064C84.1025 8.744 84.0545 8.52 83.9585 8.392C83.8732 8.25333 83.6918 8.16267 83.4145 8.12C83.1478 8.06667 82.6945 8.04 82.0545 8.04C81.7772 8.04 81.5852 8.05067 81.4785 8.072C81.3718 8.09333 81.2972 8.14133 81.2545 8.216C81.2225 8.29067 81.2012 8.41333 81.1905 8.584L81.0785 11.096L82.5825 11.112C82.8065 11.112 83.0838 11.1013 83.4145 11.08C83.7558 11.048 84.0972 11.0107 84.4385 10.968L84.5665 11.112L84.3425 12.472C84.2038 12.472 84.0972 12.4667 84.0225 12.456C83.2758 12.4347 82.6838 12.424 82.2465 12.424C81.9158 12.424 81.5052 12.456 81.0145 12.52L80.9825 14.808C80.9825 15.1067 81.0038 15.32 81.0465 15.448C81.0998 15.576 81.1905 15.6613 81.3185 15.704C81.4572 15.7467 81.6918 15.768 82.0225 15.768C82.7265 15.768 83.2332 15.7307 83.5425 15.656C83.8625 15.5707 84.0918 15.4053 84.2305 15.16C84.3692 14.9147 84.4758 14.5093 84.5505 13.944L85.8625 13.832L85.9745 13.976ZM87.4098 16.088C87.8151 16.024 88.0924 15.896 88.2418 15.704C88.3911 15.512 88.4658 15.1813 88.4658 14.712L88.4818 8.584C88.4818 8.25333 88.4444 8.03467 88.3698 7.928C88.2951 7.81067 88.1404 7.752 87.9058 7.752L87.4098 7.768L87.3298 7.64L87.4578 6.712L89.6018 6.728C89.9004 6.728 90.3324 6.712 90.8978 6.68C91.4738 6.648 91.8524 6.62667 92.0338 6.616L91.9218 7.72C91.5591 7.76267 91.2924 7.82667 91.1218 7.912C90.9618 7.98667 90.8551 8.09867 90.8018 8.248C90.7591 8.38667 90.7271 8.61067 90.7057 8.92C90.5884 10.52 90.5298 12.4773 90.5298 14.792C90.5298 15.08 90.5564 15.2933 90.6098 15.432C90.6631 15.56 90.7591 15.6507 90.8978 15.704C91.0364 15.7467 91.2498 15.768 91.5378 15.768C92.0711 15.768 92.4658 15.7093 92.7218 15.592C92.9884 15.4747 93.1858 15.2507 93.3138 14.92C93.4418 14.5893 93.5484 14.0667 93.6338 13.352L94.9298 13.208L95.0417 13.368C95.0098 13.5707 94.9458 14.0293 94.8498 14.744C94.7644 15.448 94.6898 16.1893 94.6258 16.968L94.4658 17.128C94.1778 17.1173 93.5538 17.0907 92.5938 17.048C91.6338 17.016 90.7644 17 89.9858 17C89.3991 17 88.8391 17.0213 88.3058 17.064C87.7724 17.1067 87.4311 17.1387 87.2818 17.16L87.4098 16.088ZM95.7223 16.088C96.1276 16.024 96.4049 15.896 96.5543 15.704C96.7036 15.512 96.7783 15.1813 96.7783 14.712L96.7943 8.584C96.7943 8.25333 96.7569 8.03467 96.6823 7.928C96.6076 7.81067 96.4529 7.752 96.2183 7.752L95.7223 7.768L95.6423 7.64L95.7703 6.712L97.9143 6.728C98.2129 6.728 98.6449 6.712 99.2103 6.68C99.7863 6.648 100.165 6.62667 100.346 6.616L100.234 7.72C99.8716 7.76267 99.6049 7.82667 99.4343 7.912C99.2743 7.98667 99.1676 8.09867 99.1143 8.248C99.0716 8.38667 99.0396 8.61067 99.0182 8.92C98.9009 10.52 98.8423 12.4773 98.8423 14.792C98.8423 15.08 98.8689 15.2933 98.9223 15.432C98.9756 15.56 99.0716 15.6507 99.2103 15.704C99.3489 15.7467 99.5623 15.768 99.8503 15.768C100.384 15.768 100.778 15.7093 101.034 15.592C101.301 15.4747 101.498 15.2507 101.626 14.92C101.754 14.5893 101.861 14.0667 101.946 13.352L103.242 13.208L103.354 13.368C103.322 13.5707 103.258 14.0293 103.162 14.744C103.077 15.448 103.002 16.1893 102.938 16.968L102.778 17.128C102.49 17.1173 101.866 17.0907 100.906 17.048C99.9463 17.016 99.0769 17 98.2983 17C97.7116 17 97.1516 17.0213 96.6183 17.064C96.0849 17.1067 95.7436 17.1387 95.5943 17.16L95.7223 16.088ZM112.131 13.976C111.96 14.808 111.816 15.7947 111.699 16.936L111.539 17.112C109.501 17.0373 107.843 17 106.563 17C105.667 17 104.755 17.0533 103.827 17.16L103.939 16.088C104.387 16.024 104.691 15.896 104.851 15.704C105.011 15.512 105.091 15.1813 105.091 14.712L105.107 8.616C105.107 8.264 105.075 8.03467 105.011 7.928C104.947 7.81067 104.808 7.752 104.595 7.752C104.456 7.752 104.291 7.76267 104.099 7.784L104.003 7.64L104.131 6.68H104.451C105.208 6.712 106.067 6.728 107.027 6.728C109.405 6.728 111.027 6.664 111.891 6.536L112.019 6.712C111.933 7.10667 111.853 7.576 111.779 8.12C111.715 8.664 111.672 9.16 111.651 9.608L110.227 9.704L110.259 9.064C110.259 8.744 110.211 8.52 110.115 8.392C110.029 8.25333 109.848 8.16267 109.571 8.12C109.304 8.06667 108.851 8.04 108.211 8.04C107.933 8.04 107.741 8.05067 107.635 8.072C107.528 8.09333 107.453 8.14133 107.411 8.216C107.379 8.29067 107.357 8.41333 107.347 8.584L107.235 11.096L108.739 11.112C108.963 11.112 109.24 11.1013 109.571 11.08C109.912 11.048 110.253 11.0107 110.595 10.968L110.723 11.112L110.499 12.472C110.36 12.472 110.253 12.4667 110.179 12.456C109.432 12.4347 108.84 12.424 108.403 12.424C108.072 12.424 107.661 12.456 107.171 12.52L107.139 14.808C107.139 15.1067 107.16 15.32 107.203 15.448C107.256 15.576 107.347 15.6613 107.475 15.704C107.613 15.7467 107.848 15.768 108.179 15.768C108.883 15.768 109.389 15.7307 109.699 15.656C110.019 15.5707 110.248 15.4053 110.387 15.16C110.525 14.9147 110.632 14.5093 110.707 13.944L112.019 13.832L112.131 13.976ZM120.974 17.256C120.281 17.256 119.699 16.76 119.23 15.768L117.838 12.952H116.702L116.67 14.76C116.67 15.1333 116.697 15.4053 116.75 15.576C116.803 15.736 116.905 15.8427 117.054 15.896C117.203 15.9493 117.459 15.9813 117.822 15.992L117.87 16.088L117.726 17.064C117.534 17.0533 117.198 17.0427 116.718 17.032C116.238 17.0213 115.795 17.016 115.39 17.016C114.995 17.016 114.59 17.0267 114.174 17.048C113.758 17.0693 113.486 17.0853 113.358 17.096L113.502 16.04C113.95 15.9867 114.249 15.8693 114.398 15.688C114.558 15.5067 114.638 15.1867 114.638 14.728V8.536C114.638 8.22667 114.601 8.01867 114.526 7.912C114.462 7.80533 114.329 7.752 114.126 7.752C114.009 7.752 113.897 7.75733 113.79 7.768C113.683 7.77867 113.614 7.784 113.582 7.784L113.486 7.656L113.63 6.696C113.779 6.696 114.051 6.70133 114.446 6.712C114.851 6.72267 115.246 6.728 115.63 6.728C116.057 6.728 116.515 6.72267 117.006 6.712C117.507 6.69067 117.854 6.67467 118.046 6.664C119.262 6.664 120.19 6.89867 120.83 7.368C121.481 7.83733 121.806 8.51467 121.806 9.4C121.806 10.0293 121.619 10.6053 121.246 11.128C120.873 11.6507 120.339 12.088 119.646 12.44L121.054 14.728C121.353 15.2187 121.641 15.5707 121.918 15.784C122.195 15.9973 122.505 16.104 122.846 16.104L122.958 16.248L122.846 17.08L120.974 17.256ZM118.19 11.72C118.542 11.5707 118.862 11.352 119.15 11.064C119.438 10.7653 119.582 10.3067 119.582 9.688C119.582 9.10133 119.385 8.664 118.99 8.376C118.595 8.088 117.987 7.944 117.166 7.944C117.059 7.944 116.985 7.96533 116.942 8.008C116.91 8.05067 116.889 8.14667 116.878 8.296C116.814 9.39467 116.771 10.4827 116.75 11.56L118.19 11.72ZM125.007 16.104C125.433 16.0507 125.743 15.976 125.935 15.88C126.137 15.7733 126.271 15.6293 126.335 15.448C126.409 15.256 126.447 14.968 126.447 14.584V14.088C126.447 13.8 126.415 13.5387 126.351 13.304C126.287 13.0693 126.164 12.7813 125.983 12.44L124.415 9.4C124.148 8.856 123.897 8.472 123.663 8.248C123.428 8.024 123.071 7.86933 122.591 7.784L122.559 7.704L122.671 6.696C122.82 6.696 123.097 6.70667 123.503 6.728C123.919 6.73867 124.324 6.744 124.719 6.744C125.06 6.744 125.524 6.728 126.111 6.696C126.697 6.65333 127.087 6.62667 127.279 6.616L127.343 6.76L127.263 7.656C126.9 7.67733 126.644 7.72533 126.495 7.8C126.356 7.87467 126.287 7.992 126.287 8.152C126.287 8.35467 126.649 9.23467 127.375 10.792C127.588 11.2827 127.689 11.5173 127.679 11.496H127.823L129.119 8.808C129.279 8.488 129.359 8.23733 129.359 8.056C129.359 7.93867 129.289 7.85333 129.151 7.8C129.023 7.736 128.815 7.69333 128.527 7.672L128.495 7.592L128.607 6.68L129.375 6.712C129.951 6.73333 130.399 6.744 130.719 6.744C131.017 6.744 131.337 6.73867 131.679 6.728C132.02 6.70667 132.239 6.69067 132.335 6.68L132.399 6.792L132.287 7.752C131.86 7.89067 131.519 8.09867 131.263 8.376C131.017 8.65333 130.708 9.128 130.335 9.8L128.815 12.664C128.665 12.9307 128.575 13.2027 128.543 13.48C128.521 13.7573 128.511 14.264 128.511 15C128.511 15.352 128.564 15.6027 128.671 15.752C128.777 15.8907 128.969 15.96 129.247 15.96C129.439 15.96 129.604 15.9547 129.743 15.944C129.892 15.9333 129.993 15.9227 130.047 15.912L130.111 15.992L129.967 17.064C129.775 17.0533 129.417 17.0373 128.895 17.016C128.372 17.0053 127.86 17 127.359 17C126.975 17 126.511 17.0213 125.967 17.064C125.423 17.1173 125.065 17.1547 124.895 17.176L125.007 16.104ZM52.936 34.256C52.136 31.7173 51.304 29.2213 50.44 26.768H50.312C50.312 26.8853 50.2907 27.2747 50.248 27.936C50.2053 28.5973 50.168 29.1467 50.136 29.584C50.008 31.376 49.944 32.3413 49.944 32.48C49.944 32.8213 50.1147 32.992 50.456 32.992L51 32.976L51.096 33.056L50.92 34.064C50.024 34.0213 49.4 34 49.048 34C48.8027 34 48.504 34.016 48.152 34.048C47.8107 34.08 47.5813 34.1067 47.464 34.128L47.56 33.088C47.8693 33.056 48.0933 32.96 48.232 32.8C48.3707 32.6293 48.472 32.3413 48.536 31.936C48.632 31.104 48.76 29.8613 48.92 28.208C49.0907 26.5547 49.176 25.648 49.176 25.488C49.176 25.2 49.0907 25.0027 48.92 24.896C48.76 24.7893 48.44 24.7147 47.96 24.672L47.88 24.576L48.024 23.648C48.8987 23.7013 49.5653 23.728 50.024 23.728C50.2587 23.728 50.824 23.7067 51.72 23.664C52.1467 25.168 52.7387 27.1253 53.496 29.536L53.768 30.368H53.896C53.96 30.1547 54.0453 29.888 54.152 29.568C54.2587 29.2373 54.3707 28.8853 54.488 28.512C55.032 26.8907 55.5493 25.2907 56.04 23.712C56.264 23.712 56.4453 23.7173 56.584 23.728L57.432 23.744L57.928 23.728C58.152 23.728 58.44 23.7173 58.792 23.696C59.144 23.6747 59.4 23.6533 59.56 23.632L59.624 23.696L59.528 24.656C59.0693 24.6987 58.7547 24.7787 58.584 24.896C58.424 25.0133 58.344 25.216 58.344 25.504C58.344 25.8347 58.3867 26.6773 58.472 28.032C58.5573 29.376 58.6427 30.5387 58.728 31.52C58.792 32.1067 58.872 32.5013 58.968 32.704C59.0747 32.896 59.256 32.992 59.512 32.992C59.6293 32.992 59.7253 32.9867 59.8 32.976C59.8853 32.9653 59.9387 32.96 59.96 32.96L60.024 33.04L59.88 34.048C59.72 34.048 59.576 34.0427 59.448 34.032C58.9787 34.0107 58.584 34 58.264 34C57.9547 34 57.544 34.016 57.032 34.048C56.5307 34.08 56.184 34.1067 55.992 34.128L56.104 33.088C56.424 33.0453 56.6533 32.9653 56.792 32.848C56.9307 32.72 57 32.5333 57 32.288C57 32.2453 56.9573 31.584 56.872 30.304C56.7547 28.6293 56.6853 27.4507 56.664 26.768H56.52C55.624 29.264 54.792 31.712 54.024 34.112L52.936 34.256ZM65.7491 34L65.8291 33.056C66.1918 33.024 66.4531 32.992 66.6131 32.96C66.7838 32.9173 66.9011 32.864 66.9651 32.8C67.0291 32.7253 67.0611 32.6187 67.0611 32.48C67.0611 32.352 67.0345 32.1653 66.9811 31.92L66.6451 30.688C66.0905 30.6667 65.5998 30.656 65.1731 30.656C64.9811 30.656 64.5811 30.6827 63.9731 30.736L63.6371 30.768L63.2371 32C63.1731 32.2347 63.1411 32.4 63.1411 32.496C63.1411 32.688 63.1945 32.8213 63.3011 32.896C63.4185 32.9707 63.6158 33.008 63.8931 33.008H64.5811L64.6611 33.12L64.5491 34.096C64.3998 34.0853 64.0798 34.064 63.5891 34.032C63.0985 34.0107 62.6398 34 62.2131 34C61.7651 34 61.3598 34.0053 60.9971 34.016C60.6451 34.0267 60.4105 34.0373 60.2931 34.048L60.4051 33.008C60.6505 32.9653 60.8531 32.864 61.0131 32.704C61.1731 32.544 61.3225 32.2827 61.4611 31.92L64.3251 23.808L66.7731 23.552L66.9491 23.632C67.1091 24.24 67.4398 25.488 67.9411 27.376C68.4531 29.2533 68.8905 30.7627 69.2531 31.904C69.3705 32.288 69.5198 32.56 69.7011 32.72C69.8825 32.88 70.1545 32.976 70.5171 33.008L70.5811 33.12L70.4691 34.048C70.3305 34.0373 70.0691 34.0267 69.6851 34.016C69.3011 34.0053 68.9118 34 68.5171 34C67.9518 34 67.3971 34.016 66.8531 34.048C66.3198 34.0907 65.9785 34.1173 65.8291 34.128L65.7491 34ZM65.1731 29.424C65.2905 29.424 65.6851 29.408 66.3571 29.376L65.4131 25.808H65.2051L64.0211 29.424H65.1731ZM78.6771 34.256C77.9838 34.256 77.4025 33.76 76.9331 32.768L75.5411 29.952H74.4051L74.3731 31.76C74.3731 32.1333 74.3998 32.4053 74.4531 32.576C74.5065 32.736 74.6078 32.8427 74.7571 32.896C74.9065 32.9493 75.1625 32.9813 75.5251 32.992L75.5731 33.088L75.4291 34.064C75.2371 34.0533 74.9011 34.0427 74.4211 34.032C73.9411 34.0213 73.4985 34.016 73.0931 34.016C72.6985 34.016 72.2931 34.0267 71.8771 34.048C71.4611 34.0693 71.1891 34.0853 71.0611 34.096L71.2051 33.04C71.6531 32.9867 71.9518 32.8693 72.1011 32.688C72.2611 32.5067 72.3411 32.1867 72.3411 31.728V25.536C72.3411 25.2267 72.3038 25.0187 72.2291 24.912C72.1651 24.8053 72.0318 24.752 71.8291 24.752C71.7118 24.752 71.5998 24.7573 71.4931 24.768C71.3865 24.7787 71.3171 24.784 71.2851 24.784L71.1891 24.656L71.3331 23.696C71.4825 23.696 71.7545 23.7013 72.1491 23.712C72.5545 23.7227 72.9491 23.728 73.3331 23.728C73.7598 23.728 74.2185 23.7227 74.7091 23.712C75.2105 23.6907 75.5571 23.6747 75.7491 23.664C76.9651 23.664 77.8931 23.8987 78.5331 24.368C79.1838 24.8373 79.5091 25.5147 79.5091 26.4C79.5091 27.0293 79.3225 27.6053 78.9491 28.128C78.5758 28.6507 78.0425 29.088 77.3491 29.44L78.7571 31.728C79.0558 32.2187 79.3438 32.5707 79.6211 32.784C79.8985 32.9973 80.2078 33.104 80.5491 33.104L80.6611 33.248L80.5491 34.08L78.6771 34.256ZM75.8931 28.72C76.2451 28.5707 76.5651 28.352 76.8531 28.064C77.1411 27.7653 77.2851 27.3067 77.2851 26.688C77.2851 26.1013 77.0878 25.664 76.6931 25.376C76.2985 25.088 75.6905 24.944 74.8691 24.944C74.7625 24.944 74.6878 24.9653 74.6451 25.008C74.6131 25.0507 74.5918 25.1467 74.5811 25.296C74.5171 26.3947 74.4745 27.4827 74.4531 28.56L75.8931 28.72ZM82.5911 25.584C82.5911 25.2533 82.5538 25.0347 82.4791 24.928C82.4045 24.8107 82.2498 24.752 82.0151 24.752L81.5351 24.768L81.4551 24.64L81.5671 23.696L83.7111 23.728C83.9991 23.728 84.3938 23.712 84.8951 23.68C85.3965 23.648 85.7271 23.6267 85.8871 23.616L85.8071 24.672C85.4125 24.7467 85.1458 24.848 85.0071 24.976C84.8685 25.0933 84.7938 25.3013 84.7831 25.6L84.6231 31.888C84.6125 32.3253 84.6498 32.6187 84.7351 32.768C84.8311 32.9173 85.0018 32.992 85.2471 32.992C85.4071 32.992 85.5405 32.9867 85.6471 32.976C85.7645 32.9653 85.8391 32.9547 85.8711 32.944L85.9511 33.04L85.8071 34.048C85.6365 34.048 85.3165 34.0373 84.8471 34.016C84.3885 34.0053 83.9458 34 83.5191 34C83.0391 34 82.5858 34.0053 82.1591 34.016C81.7431 34.0267 81.4605 34.0373 81.3111 34.048L81.4551 33.04C81.7751 32.9973 82.0151 32.9387 82.1751 32.864C82.3351 32.7787 82.4418 32.656 82.4951 32.496C82.5591 32.3253 82.5911 32.0853 82.5911 31.776V25.584ZM87.3751 26.016C87.6631 25.7067 87.8071 25.44 87.8071 25.216C87.8071 25.0667 87.7378 24.9547 87.5991 24.88C87.4605 24.7947 87.2418 24.7467 86.9431 24.736L86.8951 24.624L87.0231 23.648C87.1725 23.6587 87.4711 23.6747 87.9191 23.696C88.3671 23.7173 88.7298 23.728 89.0071 23.728C89.3698 23.728 89.7325 23.7227 90.0951 23.712C90.4685 23.6907 90.7245 23.6747 90.8631 23.664L90.9591 23.84L90.8311 24.736C90.5111 24.864 90.2018 25.056 89.9031 25.312C89.6151 25.568 89.2365 25.9733 88.7671 26.528L87.0391 28.448L89.1991 31.68C89.5298 32.1707 89.8285 32.5227 90.0951 32.736C90.3725 32.9493 90.6871 33.0613 91.0391 33.072L91.1351 33.216L91.0071 34.048C90.8471 34.0693 90.5271 34.1067 90.0471 34.16C89.5778 34.2133 89.2845 34.24 89.1671 34.24C88.8471 34.24 88.5431 34.1333 88.2551 33.92C87.9671 33.696 87.6791 33.3547 87.3911 32.896L84.9431 28.944L84.9911 28.608L87.3751 26.016ZM100.131 30.976C99.9601 31.808 99.8161 32.7947 99.6988 33.936L99.5388 34.112C97.5014 34.0373 95.8428 34 94.5628 34C93.6668 34 92.7548 34.0533 91.8268 34.16L91.9388 33.088C92.3868 33.024 92.6908 32.896 92.8508 32.704C93.0108 32.512 93.0908 32.1813 93.0908 31.712L93.1068 25.616C93.1068 25.264 93.0748 25.0347 93.0108 24.928C92.9468 24.8107 92.8081 24.752 92.5948 24.752C92.4561 24.752 92.2908 24.7627 92.0988 24.784L92.0028 24.64L92.1308 23.68H92.4508C93.2081 23.712 94.0668 23.728 95.0268 23.728C97.4054 23.728 99.0268 23.664 99.8908 23.536L100.019 23.712C99.9334 24.1067 99.8534 24.576 99.7788 25.12C99.7148 25.664 99.6721 26.16 99.6508 26.608L98.2268 26.704L98.2588 26.064C98.2588 25.744 98.2108 25.52 98.1148 25.392C98.0294 25.2533 97.8481 25.1627 97.5708 25.12C97.3041 25.0667 96.8508 25.04 96.2108 25.04C95.9334 25.04 95.7414 25.0507 95.6348 25.072C95.5281 25.0933 95.4534 25.1413 95.4108 25.216C95.3788 25.2907 95.3574 25.4133 95.3468 25.584L95.2348 28.096L96.7388 28.112C96.9628 28.112 97.2401 28.1013 97.5708 28.08C97.9121 28.048 98.2534 28.0107 98.5948 27.968L98.7228 28.112L98.4988 29.472C98.3601 29.472 98.2534 29.4667 98.1788 29.456C97.4321 29.4347 96.8401 29.424 96.4028 29.424C96.0721 29.424 95.6614 29.456 95.1708 29.52L95.1388 31.808C95.1388 32.1067 95.1601 32.32 95.2028 32.448C95.2561 32.576 95.3468 32.6613 95.4748 32.704C95.6134 32.7467 95.8481 32.768 96.1788 32.768C96.8828 32.768 97.3894 32.7307 97.6988 32.656C98.0188 32.5707 98.2481 32.4053 98.3868 32.16C98.5254 31.9147 98.6321 31.5093 98.7068 30.944L100.019 30.832L100.131 30.976ZM102.622 33.056C103.113 33.0133 103.465 32.9493 103.678 32.864C103.891 32.7787 104.035 32.6293 104.11 32.416C104.185 32.2027 104.222 31.8507 104.222 31.36V24.944C103.603 24.9653 103.166 25.0187 102.91 25.104C102.665 25.1893 102.494 25.3653 102.398 25.632C102.302 25.888 102.217 26.3573 102.142 27.04L100.83 27.136C100.905 26.2507 100.969 25.1147 101.022 23.728L101.198 23.552L102.782 23.728H107.774L109.39 23.552L109.566 23.728C109.587 25.008 109.641 26.112 109.726 27.04L108.414 27.136C108.329 26.4107 108.238 25.9147 108.142 25.648C108.057 25.3813 107.897 25.2053 107.662 25.12C107.438 25.024 107.033 24.9653 106.446 24.944C106.393 25.7333 106.345 26.8053 106.302 28.16C106.27 29.5147 106.254 30.7467 106.254 31.856C106.254 32.2507 106.323 32.5333 106.462 32.704C106.601 32.8747 106.825 32.96 107.134 32.96C107.401 32.96 107.683 32.944 107.982 32.912L108.046 32.992L107.902 34.064C106.771 34.0213 105.854 34 105.15 34C104.595 34 103.71 34.032 102.494 34.096L102.622 33.056Z" fill="#303942"/>
<defs>
<clipPath id="clip0_126_1613">
<rect width="40" height="40" fill="white"/>
</clipPath>
</defs>
</svg>
