<svg width="41" height="41" viewBox="0 0 41 41" fill="none" xmlns="http://www.w3.org/2000/svg">
<g clip-path="url(#clip0_130_1015)">
<path d="M8.54169 29.0417H5.12502V22.2084M3.41669 8.54175H22.2084V29.0417M15.375 29.0417H25.625M32.4584 29.0417H35.875V18.7917M35.875 18.7917H22.2084M35.875 18.7917L30.75 10.2501H22.2084" stroke="#212529" stroke-width="2.5" stroke-linecap="round" stroke-linejoin="round"/>
<path d="M8.54169 29.0417C8.54169 29.9478 8.90166 30.8169 9.54241 31.4576C10.1832 32.0984 11.0522 32.4583 11.9584 32.4583C12.8645 32.4583 13.7336 32.0984 14.3743 31.4576C15.0151 30.8169 15.375 29.9478 15.375 29.0417C15.375 28.1355 15.0151 27.2665 14.3743 26.6257C13.7336 25.985 12.8645 25.625 11.9584 25.625C11.0522 25.625 10.1832 25.985 9.54241 26.6257C8.90166 27.2665 8.54169 28.1355 8.54169 29.0417Z" stroke="#D7BB78" stroke-width="2.5" stroke-linecap="round" stroke-linejoin="round"/>
<path d="M25.625 29.0417C25.625 29.9478 25.985 30.8169 26.6257 31.4576C27.2665 32.0984 28.1355 32.4583 29.0417 32.4583C29.9478 32.4583 30.8169 32.0984 31.4576 31.4576C32.0984 30.8169 32.4583 29.9478 32.4583 29.0417C32.4583 28.1355 32.0984 27.2665 31.4576 26.6257C30.8169 25.985 29.9478 25.625 29.0417 25.625C28.1355 25.625 27.2665 25.985 26.6257 26.6257C25.985 27.2665 25.625 28.1355 25.625 29.0417Z" stroke="#D7BB78" stroke-width="2.5" stroke-linecap="round" stroke-linejoin="round"/>
<path d="M5.125 15.375H11.9583" stroke="#D7BB78" stroke-width="2.5" stroke-linecap="round" stroke-linejoin="round"/>
</g>
<defs>
<clipPath id="clip0_130_1015">
<rect width="41" height="41" fill="white"/>
</clipPath>
</defs>
</svg>
