<svg width="17" height="17" viewBox="0 0 17 17" fill="none" xmlns="http://www.w3.org/2000/svg">
<g clip-path="url(#clip0_309_410)">
<path d="M2.83325 13.1667C2.83325 13.719 3.28097 14.1667 3.83325 14.1667H5.25237C5.51759 14.1667 5.77194 14.0614 5.95948 13.8738L13.1041 6.72922C13.2901 6.54318 13.4377 6.32232 13.5384 6.07925C13.6391 5.83617 13.6909 5.57565 13.6909 5.31255C13.6909 5.04945 13.6391 4.78893 13.5384 4.54586C13.4377 4.30278 13.2901 4.08192 13.1041 3.89588C12.918 3.70985 12.6972 3.56227 12.4541 3.46159C12.211 3.3609 11.9505 3.30908 11.6874 3.30908C11.4243 3.30908 11.1638 3.3609 10.9207 3.46159C10.6777 3.56227 10.4568 3.70985 10.2708 3.89588L3.12614 11.0405C2.93861 11.228 2.83325 11.4824 2.83325 11.7476V13.1667Z" stroke="#3845F6" stroke-width="1.5" stroke-linecap="round" stroke-linejoin="round"/>
<path d="M9.5625 4.60413L12.3958 7.43746" stroke="#3845F6" stroke-width="1.5" stroke-linecap="round" stroke-linejoin="round"/>
</g>
<defs>
<clipPath id="clip0_309_410">
<rect width="17" height="17" fill="white"/>
</clipPath>
</defs>
</svg>
